<?xml version="1.0" encoding="UTF-8" standalone="no"?><svg xmlns="http://www.w3.org/2000/svg" xmlns:xlink="http://www.w3.org/1999/xlink" contentScriptType="application/ecmascript" contentStyleType="text/css" height="378px" preserveAspectRatio="none" style="width:234px;height:378px;" version="1.1" viewBox="0 0 234 378" width="234px" zoomAndPan="magnify"><defs><filter height="300%" id="fw9tmx6c2ffss" width="300%" x="-1" y="-1"><feGaussianBlur result="blurOut" stdDeviation="2.0"/><feColorMatrix in="blurOut" result="blurOut2" type="matrix" values="0 0 0 0 0 0 0 0 0 0 0 0 0 0 0 0 0 0 .4 0"/><feOffset dx="4.0" dy="4.0" in="blurOut2" result="blurOut3"/><feBlend in="SourceGraphic" in2="blurOut3" mode="normal"/></filter></defs><g><rect fill="#FFFFFF" filter="url(#fw9tmx6c2ffss)" height="188.7969" style="stroke: #A80036; stroke-width: 1.0;" width="10" x="181" y="125.5625"/><rect fill="#FFFFFF" filter="url(#fw9tmx6c2ffss)" height="46.2656" style="stroke: #000000; stroke-width: 2.0;" width="206" x="6" y="140.5625"/><rect fill="#FFFFFF" filter="url(#fw9tmx6c2ffss)" height="46.2656" style="stroke: #000000; stroke-width: 2.0;" width="206" x="6" y="200.8281"/><rect fill="#FFFFFF" filter="url(#fw9tmx6c2ffss)" height="46.2656" style="stroke: #000000; stroke-width: 2.0;" width="206" x="6" y="261.0938"/><line style="stroke: #A80036; stroke-width: 1.0; stroke-dasharray: 5.0,5.0;" x1="186" x2="186" y1="51.2969" y2="324.3594"/><text fill="#000000" font-family="sans-serif" font-size="14" lengthAdjust="spacingAndGlyphs" textLength="26" x="170" y="47.9951">Foo</text><ellipse cx="186" cy="19" fill="#FEFECE" filter="url(#fw9tmx6c2ffss)" rx="12" ry="12" style="stroke: #A80036; stroke-width: 2.0;"/><polygon fill="#A80036" points="182,7,188,2,186,7,188,12,182,7" style="stroke: #A80036; stroke-width: 1.0;"/><text fill="#000000" font-family="sans-serif" font-size="14" lengthAdjust="spacingAndGlyphs" textLength="26" x="170" y="336.3545">Foo</text><ellipse cx="186" cy="355.6563" fill="#FEFECE" filter="url(#fw9tmx6c2ffss)" rx="12" ry="12" style="stroke: #A80036; stroke-width: 2.0;"/><polygon fill="#A80036" points="182,343.6563,188,338.6563,186,343.6563,188,348.6563,182,343.6563" style="stroke: #A80036; stroke-width: 1.0;"/><rect fill="#FFFFFF" filter="url(#fw9tmx6c2ffss)" height="188.7969" style="stroke: #A80036; stroke-width: 1.0;" width="10" x="181" y="125.5625"/><rect fill="#EEEEEE" filter="url(#fw9tmx6c2ffss)" height="3" style="stroke: #EEEEEE; stroke-width: 1.0;" width="219" x="3" y="81.8633"/><line style="stroke: #000000; stroke-width: 1.0;" x1="3" x2="222" y1="81.8633" y2="81.8633"/><line style="stroke: #000000; stroke-width: 1.0;" x1="3" x2="222" y1="84.8633" y2="84.8633"/><rect fill="#EEEEEE" filter="url(#fw9tmx6c2ffss)" height="23.1328" style="stroke: #000000; stroke-width: 2.0;" width="114" x="55.5" y="71.2969"/><text fill="#000000" font-family="sans-serif" font-size="13" font-weight="bold" lengthAdjust="spacingAndGlyphs" textLength="95" x="61.5" y="87.3638">Foo &lt;- todos</text><polygon fill="#A80036" points="169,121.5625,179,125.5625,169,129.5625,173,125.5625" style="stroke: #A80036; stroke-width: 1.0;"/><line style="stroke: #A80036; stroke-width: 1.0;" x1="3" x2="175" y1="125.5625" y2="125.5625"/><text fill="#000000" font-family="sans-serif" font-size="13" lengthAdjust="spacingAndGlyphs" textLength="36" x="10" y="120.4966">todos</text><path d="M6,140.5625 L76,140.5625 L76,147.5625 L66,157.5625 L6,157.5625 L6,140.5625 " fill="#EEEEEE" style="stroke: #000000; stroke-width: 1.0;"/><rect fill="none" height="46.2656" style="stroke: #000000; stroke-width: 2.0;" width="206" x="6" y="140.5625"/><text fill="#000000" font-family="sans-serif" font-size="13" font-weight="bold" lengthAdjust="spacingAndGlyphs" textLength="25" x="21" y="153.6294">opt</text><text fill="#000000" font-family="sans-serif" font-size="11" font-weight="bold" lengthAdjust="spacingAndGlyphs" textLength="68" x="91" y="152.7729">[notfound]</text><polygon fill="#A80036" points="14,174.8281,4,178.8281,14,182.8281,10,178.8281" style="stroke: #A80036; stroke-width: 1.0;"/><line style="stroke: #A80036; stroke-width: 1.0; stroke-dasharray: 2.0,2.0;" x1="8" x2="180" y1="178.8281" y2="178.8281"/><text fill="#000000" font-family="sans-serif" font-size="13" lengthAdjust="spacingAndGlyphs" textLength="152" x="20" y="173.7622">ResourceNotFoundError</text><path d="M6,200.8281 L143,200.8281 L143,207.8281 L133,217.8281 L6,217.8281 L6,200.8281 " fill="#EEEEEE" style="stroke: #000000; stroke-width: 1.0;"/><rect fill="none" height="46.2656" style="stroke: #000000; stroke-width: 2.0;" width="206" x="6" y="200.8281"/><text fill="#000000" font-family="sans-serif" font-size="13" font-weight="bold" lengthAdjust="spacingAndGlyphs" textLength="92" x="21" y="213.895">else if failed</text><polygon fill="#A80036" points="14,235.0938,4,239.0938,14,243.0938,10,239.0938" style="stroke: #A80036; stroke-width: 1.0;"/><line style="stroke: #A80036; stroke-width: 1.0; stroke-dasharray: 2.0,2.0;" x1="8" x2="180" y1="239.0938" y2="239.0938"/><text fill="#000000" font-family="sans-serif" font-size="13" lengthAdjust="spacingAndGlyphs" textLength="93" x="20" y="234.0278">ErrorResponse</text><path d="M6,261.0938 L81,261.0938 L81,268.0938 L71,278.0938 L6,278.0938 L6,261.0938 " fill="#EEEEEE" style="stroke: #000000; stroke-width: 1.0;"/><rect fill="none" height="46.2656" style="stroke: #000000; stroke-width: 2.0;" width="206" x="6" y="261.0938"/><text fill="#000000" font-family="sans-serif" font-size="13" font-weight="bold" lengthAdjust="spacingAndGlyphs" textLength="30" x="21" y="274.1606">else</text><polygon fill="#A80036" points="14,295.3594,4,299.3594,14,303.3594,10,299.3594" style="stroke: #A80036; stroke-width: 1.0;"/><line style="stroke: #A80036; stroke-width: 1.0; stroke-dasharray: 2.0,2.0;" x1="8" x2="180" y1="299.3594" y2="299.3594"/><text fill="#000000" font-family="sans-serif" font-size="13" lengthAdjust="spacingAndGlyphs" textLength="31" x="20" y="294.2935">Todo</text><!--MD5=[c9f52a5f9dca9fa68129690b34bd4e73]
@startuml


control "Foo" as _0
skinparam maxMessageSize 250
== Foo <- todos ==
[->_0 : todos
activate _0
opt notfound
 [<- -_0 : ResourceNotFoundError
end
group else if failed
 [<- -_0 : ErrorResponse
end
group else
 [<- -_0 : Todo
end
deactivate _0
@enduml

PlantUML version 1.2019.13(Tue Dec 10 17:18:29 UTC 2019)
(GPL source distribution)
Java Runtime: Java(TM) SE Runtime Environment
JVM: Java HotSpot(TM) 64-Bit Server VM
Java Version: 1.7.0_25-b15
Operating System: Linux
Default Encoding: UTF-8
Language: en
Country: US
--></g></svg>
