<?xml version="1.0" encoding="UTF-8"?>
<svg width="106px" height="106px" viewBox="0 0 106 106" version="1.1" xmlns="http://www.w3.org/2000/svg" xmlns:xlink="http://www.w3.org/1999/xlink">
    <!-- Generator: Sketch 63.1 (92452) - https://sketch.com -->
    <title>Group 4</title>
    <desc>Created with Sketch.</desc>
    <defs>
        <circle id="path-1" cx="41.5" cy="41.5" r="41.5"></circle>
    </defs>
    <g id="Page-1" stroke="none" stroke-width="1" fill="none" fill-rule="evenodd">
        <g id="Sysl-homepage" transform="translate(-985.000000, -439.000000)">
            <g id="Group-4" transform="translate(985.000000, 439.000000)">
                <circle id="Oval-Copy-3" fill="#EDE8C4" cx="53" cy="53" r="53"></circle>
                <g id="peep-87" transform="translate(12.000000, 12.000000)">
                    <mask id="mask-2" fill="white">
                        <use xlink:href="#path-1"></use>
                    </mask>
                    <use id="Mask" fill="#FFFFFF" xlink:href="#path-1"></use>
                    <g id="a-person/bust" mask="url(#mask-2)">
                        <g transform="translate(41.500000, 52.500000) scale(-1, 1) translate(-41.500000, -52.500000) translate(0.000000, -3.000000)">
                            <g id="body/Dress" transform="translate(10.740317, 46.268102)" fill-rule="evenodd">
                                <path d="M55.9349055,46.7377845 C55.7576538,45.1063814 55.648424,43.463538 55.5857357,41.8238804 C55.5231203,40.1861779 55.6050244,38.5283462 55.6409716,36.889992 C55.7142541,33.5571681 55.8333474,30.2164519 55.5655702,26.8886965 C55.3125517,23.7436965 54.7316247,20.6206358 53.8148985,17.5988002 C53.3684812,16.127127 52.8980261,14.5962249 52.1638122,13.2364205 C51.4255068,11.8692307 50.2560543,10.9587845 48.971454,10.1238589 C47.6037805,9.23491761 46.2470666,8.32917789 44.8847268,7.43198219 C43.7411388,6.67887652 41.6831695,5.80234954 40.7448896,4.79552958 C39.7575841,3.73614211 39.5719917,1.11014481 38.9144943,-0.14481409 C38.2741668,-1.36718982 36.4616103,-2.16457541 35.065995,-2.16457541 C32.7559136,-2.16457541 31.0056071,-2.28156771 29.1061054,-0.163878865 C28.1584003,0.892757143 28.9124429,1.96092472 27.9190731,2.97505779 C27.0057809,3.90744331 24.6701353,4.8656593 23.4930112,5.40668474 C22.0831802,6.05465538 20.6377673,6.62674344 19.1713853,7.13634423 C17.6755587,7.65622681 16.1420314,8.04367691 14.6378026,8.53430705 C13.1959698,9.0045908 11.3132531,10.9429968 10.1939221,11.9686426 C9.15328041,12.9222433 8.89502086,12.815446 8.10389058,13.9738863 C6.36761241,16.5161701 4.6294346,19.0876339 3.24678319,21.8401877 C2.55808776,23.2112875 1.89123829,24.6535634 1.64136153,26.1762836 C1.37482632,27.8003736 1.63909657,29.3698687 2.07133952,30.9423325 C2.5113272,32.5426006 3.90851722,34.0662114 4.36370208,35.6624247 C4.57346704,36.3980078 3.85342843,37.200763 4.18462474,37.8939881 C4.35004023,38.2401661 4.55834393,38.5484029 4.79550766,38.8500507 C4.97823917,39.0824773 5.69085149,39.0309701 5.78305748,39.3154574 C5.87621329,39.6027685 5.3606529,40.1989939 5.35298125,40.4963697 C5.34209481,40.9219059 5.32499798,41.3474421 5.31089674,41.7729783 L5.22760449,44.2887611 C5.17288002,45.9419587 5.11815555,47.5952288 5.06343107,49.2484264 C5.04553055,49.7880761 5.01944692,50.3153442 5.15001118,50.8274068 C5.1028853,50.7841074 5.05809745,50.7369705 5.01718195,50.6840409 C4.89743107,50.5290898 4.64346276,50.6604362 4.74509393,50.841671 C4.9147471,51.1441153 5.15870572,51.356992 5.44533336,51.5099157 C5.77842931,51.9965634 56.2231406,53.083538 56.4713369,51.6607395 C56.6105957,50.8624519 56.3571388,50.0078315 56.2557999,49.2146847 C56.1502964,48.3885928 56.0249196,47.5660487 55.9349055,46.7377845 Z" id="ðŸŽ¨-Background" fill="#FFFFFF"></path>
                                <path d="M4.69273671,26.1791292 C4.81614076,25.8288239 5.38062843,25.9804093 5.25634762,26.3330665 C4.61748143,28.1465734 5.07069357,30.1200274 5.76136171,31.8512074 C5.89996294,32.198544 5.33445238,32.347775 5.19775079,32.0051448 C4.47120854,30.1841076 4.02172262,28.0836517 4.69273671,26.1791292 M8.97636963,36.5378258 C10.7781126,36.7890059 12.5813168,36.9439569 14.3954805,37.0692211 C14.4765809,37.0750137 14.5467217,37.0627769 14.6073643,37.036638 C14.5532974,37.8599061 14.5094594,38.6838982 14.4751196,39.5078904 C13.9804805,39.4942055 13.4756126,39.5267162 12.9853573,39.513683 C12.3445915,39.4963053 11.7045562,39.4644462 11.0652517,39.4160059 C9.82755801,39.3232524 8.59205625,39.1755421 7.36824463,38.9713542 C6.91086787,38.8953268 6.330014,38.8489863 5.8090721,38.6983796 C5.31662491,38.5558102 4.87824463,38.3196908 4.64809498,37.8751115 C4.45228512,37.4985949 4.41648407,37.0374344 4.41648407,36.6210939 C4.41648407,36.3342896 4.46616717,36.0432133 4.49612315,35.7543092 C4.53338548,35.7283151 4.56699463,35.6971076 4.59402808,35.6624247 C5.13761963,35.8325088 5.70166893,35.9520528 6.25402808,36.0678317 C7.15343829,36.2575382 8.06599991,36.4111135 8.97636963,36.5378258 M7.96020414,29.8428532 C7.97014076,30.3962603 8.12466981,30.8989824 8.42532562,31.3649217 C8.62873407,31.6802544 8.12262403,31.9703894 7.92060379,31.6573014 C7.56668477,31.1086732 7.38738724,30.4928513 7.3756971,29.8428532 C7.36897526,29.4693053 7.95348231,29.4705362 7.96020414,29.8428532 M54.1456126,35.8802975 C54.3895712,35.8938376 54.6350642,35.902092 54.8797534,35.9149804 C55.0955827,36.0978806 55.3944119,36.1916477 55.6673036,36.1334325 C55.6767288,36.15682 55.6852772,36.1831037 55.693095,36.2133699 C55.7413168,36.399456 55.7654277,36.5992994 55.7931918,36.7890059 C55.8209559,36.975816 55.8421443,37.1641468 55.856757,37.3524051 C55.8640633,37.4471859 55.9100932,37.6615108 55.8516425,37.7441272 C55.7990369,37.8186341 55.6828661,37.8121174 55.6024964,37.8215303 C55.3862288,37.8447006 55.1670386,37.8556341 54.9493098,37.8737358 C54.5379629,37.9091429 54.1266161,37.9446223 53.7159999,37.9801018 C53.3134207,38.0149295 52.8713872,38.0040685 52.4775756,38.1090587 C52.4103573,37.3262661 52.3489841,36.5436184 52.2919946,35.7601018 C52.9020739,35.8492348 53.5399172,35.8469902 54.1456126,35.8802975 M2.99247879,34.5821115 C3.23797174,35.0519609 3.46446822,35.5139178 3.93426576,35.7963053 C3.995639,35.8325088 4.06431857,35.8520587 4.13445942,35.8571272 C4.08185379,36.080865 4.04897526,36.3096712 4.01974991,36.5210998 C3.95545414,36.9867495 3.9415721,37.468184 4.05920414,37.9272446 C4.17391364,38.3739961 4.36387843,38.7730313 4.73650167,39.0590391 C4.90966188,39.1922681 5.09889604,39.2935656 5.29762843,39.3739374 C5.26401928,39.4673425 5.24429217,39.5600959 5.25452104,39.6621898 C5.20702984,39.8988885 5.17561259,40.1400763 5.1412728,40.3709824 C5.06601752,40.8836243 4.99076224,41.3969902 4.9315809,41.9125284 C4.81321822,42.9378121 4.72042773,43.9630959 4.64224991,44.992 C4.5640721,46.0180078 4.50781329,47.0455362 4.46105273,48.0737162 C4.43694181,48.5993914 4.41575343,49.1249941 4.39602632,49.6513933 C4.37629921,50.1923464 4.28789252,50.7454638 4.52900167,51.247317 C4.72335026,51.6527965 5.38019005,51.6295538 5.58184498,51.247317 C5.83756681,50.7613933 5.76231153,50.1843092 5.76888724,49.6513933 C5.77546294,49.1496125 5.78423055,48.64718 5.79519005,48.1453268 C5.81710907,47.1179432 5.84925695,46.0911389 5.87482914,45.0637554 C5.89967069,44.0609178 5.93035731,43.0587319 5.95081505,42.0558943 C5.96104393,41.5309432 5.96177456,41.0059922 5.9646971,40.4810411 C5.96615836,40.1899648 5.97857914,39.879411 5.95666012,39.575953 C6.13931857,39.6186732 6.32343829,39.6548767 6.50536611,39.6918043 C7.89430097,39.9741918 9.2978485,40.1798278 10.7101636,40.3072642 C11.4196091,40.3709824 12.1312464,40.4158748 12.8428837,40.4412896 C13.3660175,40.4600431 13.9081478,40.4962466 14.4393186,40.4767691 C14.3976724,41.733683 14.378676,42.9913933 14.3808679,44.2491761 C14.3823291,45.156364 14.3947499,46.0636243 14.4173996,46.9708845 C14.4298203,47.448047 14.4400492,47.9252094 14.4546619,48.4023718 C14.4612376,48.6167691 14.4612376,48.8331937 14.4758503,49.0467945 C14.4802341,49.113409 14.4897323,49.1779237 14.5021531,49.2416419 C14.4539312,49.3770431 14.4137464,49.5109237 14.3808679,49.6362603 C14.2201284,50.244407 14.2201284,50.8288043 14.2917305,51.4485362 C14.3531038,51.9742114 14.799521,52.4615108 15.3891425,52.2769452 C15.4848555,52.2471859 15.5805686,52.2160509 15.675551,52.1841918 C16.5435439,52.2819413 17.4166513,52.3044599 18.2970651,52.3210411 C19.5837112,52.3457319 20.8710879,52.3536243 22.1584647,52.3601409 C24.6835351,52.3732466 27.2093362,52.3797632 29.7351372,52.3869315 C34.8108503,52.4014129 39.8865633,52.4151703 44.9622763,52.4296517 C46.3709383,52.4340685 47.7796003,52.4376164 49.1882622,52.4420333 C49.9174348,52.4441331 50.645146,52.4448571 51.3735879,52.4724442 C51.7133327,52.4854775 52.053808,52.5035793 52.3935527,52.5086477 C52.7873643,52.5151644 53.1358767,52.4028611 53.5121531,52.3008395 C53.7247675,52.2421174 53.8087904,52.0306888 53.7634911,51.8519159 C54.1039665,51.9322153 54.5167746,51.761407 54.6329453,51.3812701 C54.7176989,51.1053268 54.6862816,50.8062857 54.559882,50.5506888 L54.559882,50.5499648 C54.3158503,49.0229002 54.0060615,47.5030763 53.7627605,45.9752877 C53.4960791,44.3019609 53.2396267,42.6250861 53.0138608,40.9452427 C52.8443538,39.6765988 52.7048027,40.5758943 52.5842482,39.3015303 C53.1095739,39.3420783 53.7035791,39.1835793 54.2237904,39.1161683 C54.5971443,39.0684521 54.9734207,39.0300039 55.3475052,38.979319 C55.3197411,39.3529393 55.3277781,39.7338004 55.3175492,40.0922153 C55.2978221,40.8039765 55.3065897,41.5128415 55.3248555,42.2246751 C55.359926,43.5981644 55.4381038,42.7987906 55.5630422,44.1665597 C55.6894418,45.5444658 55.8443362,46.9173033 56.0321091,48.2887652 C56.1285527,48.9947339 56.2315721,49.6999061 56.3404365,50.4044266 C56.3908503,50.7331546 56.4427253,51.0612309 56.4960615,51.3899589 C56.5596267,51.7772642 56.5800844,52.1444403 56.8730686,52.4354442 C57.0959119,52.6562857 57.5510967,52.6374599 57.6986848,52.3297299 C57.885727,51.9409041 57.8009735,51.6078317 57.7315633,51.1995284 C57.6753045,50.8714521 57.6212376,50.5434481 57.5679013,50.2155166 C57.4539224,49.5123718 57.3457886,48.8085753 57.2442305,48.1041272 C57.0484207,46.7464951 56.8635703,45.3866184 56.6984471,44.0254384 C56.5318626,42.6532524 56.359433,43.4547984 56.195771,42.0827573 C56.1132094,41.3904736 56.0306478,40.6997104 55.9342041,40.0097436 C55.8852517,39.6548767 55.8545651,39.2769843 55.7902693,38.9112564 C55.810727,38.9084325 55.8311848,38.9047397 55.8516425,38.9011194 C56.2958679,38.8207476 56.6750668,38.5723914 56.7868538,38.1191233 C56.8935263,37.6854051 56.766396,37.1865205 56.6765281,36.7608395 C56.5998115,36.398225 56.5304744,35.9353268 56.294918,35.6246282 C57.124918,34.5768982 57.6647834,33.2585108 58.0091311,31.9910254 C58.3842385,30.6101507 58.5412517,29.1687436 58.5744955,27.7417456 C58.613073,26.0885479 58.4873309,24.444908 58.2014339,22.8284932 C58.1947121,22.4859354 58.1787842,22.1435225 58.153139,21.8014716 C57.901801,18.4447534 56.8467658,14.4717789 53.5019242,12.9033699 C53.4887728,12.8969256 53.4748908,12.8910607 53.4610087,12.8852681 C53.1987112,12.5746419 52.8713872,12.2951507 52.6068978,12.0338337 C52.1385615,11.5703562 51.6490369,11.127225 51.1302869,10.7188493 C50.1030158,9.91013503 48.9763784,9.26426419 47.8051724,8.68276321 C46.6208151,8.09409393 45.4189224,7.54170059 44.2615985,6.89937769 C43.2533239,6.33894716 42.3458767,5.6641135 41.4844594,4.90239139 C40.5163696,4.04581605 39.827382,2.89092368 39.5570474,1.63031703 C39.5431654,1.56449902 39.4445298,1.58260078 39.4430686,1.6455225 C39.3721971,3.95603131 40.9459823,5.99790998 42.7572235,7.28965166 C44.9228221,8.8327182 47.5377605,9.56323288 49.7340457,11.0592348 C50.2798291,11.430683 50.7905422,11.8499198 51.2764136,12.2951507 C50.5318978,12.2198474 49.7742305,12.267636 49.0764753,12.4718239 C48.801757,12.4551703 48.5255774,12.4501742 48.2501284,12.4370685 C47.6203221,12.4059335 46.9897851,12.3770431 46.3592482,12.349456 C45.0740633,12.2930509 43.7881478,12.2416419 42.5022323,12.1967495 C39.9793538,12.1083405 37.4557446,12.041726 34.9321355,11.9976301 C29.8608063,11.9084971 24.7829013,11.8911194 19.7123027,12.0367299 C18.3372499,12.0758297 11.1068978,11.8043033 10.4376372,11.8809824 C11.421801,11.0367162 12.5016777,10.3474736 13.6889577,9.78045401 C15.1743362,9.07303718 16.7093978,8.60094325 18.2956038,8.16939726 C21.5622675,7.28096282 24.9546003,6.42438748 27.568808,4.16745988 C28.2183415,3.60630528 28.7955422,2.96123092 29.2682622,2.24657339 C29.7197939,1.56449902 30.2217393,0.691197652 30.2341601,-0.140759295 C30.2429277,-0.731528376 29.4129277,-0.946649706 29.1177517,-0.440524462 C28.9343626,-0.127001957 28.843764,0.216931507 28.6939841,0.545659491 C28.5449348,0.871491194 28.3681214,1.18573777 28.1715809,1.48629941 C27.7850756,2.0771409 27.3057798,2.60419178 26.7841073,3.07990607 C25.6720827,4.09505284 24.3247939,4.83867319 22.9307446,5.40127593 C19.765639,6.67781213 16.303896,7.21652055 13.3046443,8.89933268 C11.992426,9.63563992 10.7364665,10.6515832 9.94811259,11.9475969 C9.82098231,11.9672192 9.69458266,11.990317 9.56818301,12.0163836 C9.66243477,11.8983601 9.75741717,11.780409 9.85313019,11.6630372 C9.9159647,11.5862857 9.8187904,11.4849883 9.74207386,11.5529785 C8.25085026,12.8678904 6.87725871,14.2877926 5.63225871,15.8358552 C4.44132562,17.3173033 3.33076224,18.8697828 2.54460026,20.6046556 C1.13155449,23.7210548 0.820304489,27.2855812 1.55020766,30.6178258 C1.74894005,31.5257378 2.02950343,32.4148963 2.38678336,33.2743679 C2.57090308,33.7182231 2.77036611,34.1555616 2.99247879,34.5821115" id="ðŸ–-Ink" fill="#000000"></path>
                            </g>
                            <g id="head/Medium-Bangs-3" transform="translate(27.179577, 13.033268)" fill-rule="evenodd">
                                <path d="M18.7463311,2.82225089 C22.8949169,2.82225089 28.0908646,7.51211998 29.6115763,9.50784436 C30.8901181,11.1857542 30.7092454,19.8297705 30.7092454,24.9574195 C30.7092454,26.0298394 30.2200805,28.059515 30.0425024,29.0853259 C29.3917833,32.8443172 26.5567389,35.9968554 20.9455814,35.9968554 C16.3767537,35.9968554 12.8607724,34.5627123 9.4607368,30.8946598 C8.68505458,30.0578323 4.89683004,33.0536391 4.12209235,31.9747759 C2.09848179,31.9747759 0.406407393,13.2374378 4.37949601,7.61732684 C8.35258462,1.99721589 14.5977453,2.82225089 18.7463311,2.82225089 Z" id="ðŸŽ¨-Background" fill="#FFFFFF"></path>
                                <path d="M6.27736452,4.14203777 C8.67457403,1.98068748 11.8681744,0.940922309 15.0902695,1.01767378 C16.7590371,1.05749765 18.4219596,1.3724683 19.9979367,1.91190078 C20.7862906,2.18270313 21.5498029,2.53604951 22.2797061,2.9357364 C22.5427342,3.07943653 22.7852182,3.24781505 23.0186512,3.42663441 L23.0768276,3.47154853 L23.0775582,3.47154853 C23.7037114,3.69456223 24.2626462,4.09497319 24.7697061,4.56344677 C25.7860177,4.48307495 26.8103663,4.57358376 27.7930687,4.88420998 C29.1608152,5.31720411 30.4270036,6.11006125 31.3161849,7.2359908 C32.3519251,8.54679189 32.6962548,10.1367746 32.5733936,11.7781257 L32.550708,12.0569588 C32.4292124,13.5068826 32.2115767,15.3718274 31.01078,16.3245231 C30.9194508,16.3969301 30.8186233,16.4519595 30.7141427,16.4852667 C31.4878839,17.7987305 32.1228047,19.2570084 32.5027342,20.7297677 C33.9530423,26.355071 32.8380952,32.2214898 31.0940723,37.6433294 C30.950868,38.0900808 30.2691867,38.3869497 29.9221357,37.9503352 C29.3025582,37.1697873 28.4024173,36.5746014 27.3897589,36.4630945 C26.765067,36.3943078 26.1432976,36.5188479 25.5529455,36.2379086 C25.3213346,36.1271258 25.0977607,35.9461082 24.9370212,35.7259908 C23.9404367,36.1003352 22.8671357,36.2770084 21.8026022,36.2335642 C20.0556568,36.1626053 18.1881568,35.563075 16.9862642,34.248163 C16.7933768,34.0370965 16.7444974,33.8001082 16.78892,33.5865074 C16.9396497,33.5332159 17.094398,33.4935368 17.2538223,33.4687012 C18.7779244,34.3588734 20.4579437,34.9536973 22.263486,34.9910593 C23.306758,35.0126366 24.3243848,34.8680397 25.1703126,34.2224585 C25.3533364,34.0827129 25.5216744,33.9279791 25.6772994,33.7617325 C27.4459446,32.63421 28.6929173,30.719116 29.2857536,28.6677521 C29.8381128,26.7547579 29.7701638,24.7628401 29.580199,22.8006092 L29.4799794,21.7651463 C29.3338917,20.2453886 29.198359,18.7210836 29.1603768,17.1948558 L29.1718478,17.1942765 L29.1718478,17.1942765 C29.5453478,17.1703822 29.5480511,16.5909086 29.1718478,16.6150202 C28.1987166,16.677435 27.2329649,16.5192256 26.2628293,16.5881571 C26.2547193,16.1336581 26.2216946,15.6811865 26.0868927,15.2428342 C26.009957,14.9923783 25.5698962,14.9429967 25.5232818,15.2428342 C25.4608857,15.6439693 25.4380899,16.0428597 25.431295,16.4458049 C23.9794526,16.4266894 22.5289983,16.3056249 21.0769367,16.3553685 C20.8090864,16.0722569 20.7238214,15.5702589 20.5985177,15.2210397 C20.5802518,15.1696307 20.561986,15.1189458 20.5429895,15.0675368 C20.432883,15.5665661 20.2768196,16.054662 20.0715115,16.5324761 L19.7153959,16.533672 C17.6948391,16.5430645 15.6331669,16.6029161 13.6601268,17.0187618 C13.5229869,16.9144233 13.4413751,16.732392 13.4193099,16.5670867 C13.2761943,15.4914252 13.0719335,14.4443595 12.7099279,13.4192874 L12.6581386,13.2746631 C12.6539067,13.2626667 12.6494411,13.2499172 12.6447651,13.2365074 C12.3780107,13.6632022 12.0597466,14.0609341 11.7126224,14.4312961 C11.508045,14.6496033 11.2935309,14.8583528 11.0733909,15.061165 C10.8595344,15.2964879 10.6385177,15.5282628 10.4242959,15.7643098 C10.4326982,15.8072472 10.4400045,15.8508362 10.4459226,15.8952217 C10.5114605,16.3850554 10.5182554,16.8818401 10.4702527,17.3735564 C10.3834534,18.2624977 10.1302158,19.119073 9.72339886,19.9114957 L9.71052788,19.9908393 C9.64875276,20.3621954 9.56085719,20.7459772 9.3555978,21.0256229 C9.61175801,21.3100378 9.8091022,21.6497716 9.92351945,22.0272295 C10.0253698,22.3632706 9.55622984,22.6544918 9.31292879,22.3794898 C9.11967614,22.1610378 8.90494287,21.9802374 8.66909428,21.8360025 C8.65418935,21.8560593 8.62730202,21.8659067 8.59712685,21.8491806 C7.94028706,21.4878695 6.82460924,21.5972041 6.16850009,21.9375172 C5.35238213,22.3603744 5.03382579,23.2285348 5.12442438,24.1082804 C5.21136981,24.9489262 5.58253178,25.9314898 6.30220607,26.3623117 C6.63245255,26.559983 6.88963565,26.5766366 7.24033988,26.4817834 C7.35247294,26.4516011 7.4914917,26.3590324 7.55116485,26.3130482 L7.60989186,26.2663998 C7.83980056,26.0863218 8.05392497,25.963011 8.32533107,25.9582804 C8.60291103,25.8724932 8.88189201,25.9914994 8.98805186,26.2799519 L8.99459164,26.2985935 C9.04427474,26.4455798 9.13487333,26.6302178 9.11514621,26.8546796 C9.09468847,27.095071 8.98363213,27.3137403 8.81777826,27.4896894 C8.78928354,27.5201004 8.75859692,27.5505114 8.72717967,27.5787501 C11.5839578,30.6437403 11.950736,35.419709 10.4858152,39.2485935 C10.4222501,39.4165779 10.3543011,39.58239 10.2834297,39.746754 C10.0386673,40.3100808 9.09614974,40.1355798 8.97632579,39.5773215 C8.94052474,39.4100613 8.90107051,39.243525 8.85796312,39.078437 C8.77872994,38.773362 8.68795094,38.4711475 8.58562613,38.1733191 L8.54671312,38.0618421 C8.45976769,37.8156581 8.37866734,37.567302 8.29099129,37.321118 L8.28222368,37.2929698 C8.27893583,37.2818372 8.27528266,37.2689849 8.27126417,37.2545035 L8.12294551,37.5752667 L8.12294551,37.5752667 L7.67214445,38.5433489 C7.46119652,38.9951038 6.79094899,38.7495864 6.76602594,38.314251 L6.7654279,38.2993372 C6.763236,38.2189654 6.76031347,38.1393176 6.75519903,38.0603939 C6.72305114,37.4688284 6.62003178,36.8939164 6.45636981,36.3313137 L6.39732375,36.404032 C5.51808239,37.4812863 4.48618766,38.491009 3.07061276,38.739572 C2.71552474,38.8018421 2.31367614,38.4340143 2.55770783,38.0784957 C2.6585353,37.9315094 2.7557096,37.7809027 2.84776945,37.6281239 C2.76813037,37.5911963 2.69287509,37.5528205 2.62346488,37.513717 C2.08644903,37.2146796 1.63930114,36.7889262 1.26960044,36.3059712 C0.48563037,35.2821356 0.205066989,33.9932902 0.136387412,32.7319595 C0.0633240317,31.3989458 0.181686708,29.993525 0.549195511,28.7075759 C0.70847368,28.1514898 0.924010651,27.6178499 1.17315678,27.1001395 C1.15562157,27.053799 1.13881699,27.0074585 1.12201241,26.961118 C0.853139173,26.2182217 0.632487764,25.4586718 0.44909868,24.6904331 C0.0793979754,23.1394742 -0.119334419,21.5392785 -0.143445335,19.9455994 C-0.187283363,17.0905896 0.309547623,14.1899634 1.35654586,11.5275564 C2.43788389,8.78188121 4.06427474,6.13685186 6.27736452,4.14203777 Z M4.93080643,29.1036425 C4.73224595,28.7938085 4.23542426,29.0730168 4.41979322,29.3850113 L4.4266691,29.3961669 C4.74157227,29.8878108 4.8891603,30.4467932 5.07035748,30.9949145 C5.18652826,31.3475368 5.75130819,31.1969301 5.63367614,30.8406875 L5.59473455,30.7217458 C5.41442755,30.1659085 5.24994727,29.6010306 4.93080643,29.1036425 Z M6.66021664,23.1894278 L6.79213153,23.126164 C7.20824713,22.9293762 7.57284718,22.7953285 8.06449481,22.9671382 C8.72279586,23.1966685 9.42785748,23.9272556 8.9829015,24.6361205 C8.81923952,24.89751 8.52844727,25.0017761 8.22888741,24.9402301 C7.72387333,24.8364379 7.59355048,24.3857497 7.33727196,24.015786 L7.29317129,23.9531413 C7.13692735,23.7292785 6.93934089,23.4198138 6.67921312,23.3320697 C6.62003178,23.3117957 6.59519023,23.2205628 6.66021664,23.1894278 Z M7.03127221,8.13898931 L7.07375537,8.10125499 C7.35651065,7.8536229 6.94151065,7.44524716 6.66021664,7.69143112 C5.37283988,8.81880881 4.92569199,10.5833685 4.25789269,12.0872628 C4.10811276,12.4254037 4.61151945,12.7208245 4.76276065,12.3797873 C5.39977255,10.9447129 5.8226042,9.22804531 7.03127221,8.13898931 L7.03127221,8.13898931 Z M22.5018187,7.64581468 C22.1654455,7.49559187 21.8711472,7.9807176 22.1945348,8.1404504 L22.2066427,8.14614736 C23.3435089,8.65516888 23.8271885,9.80788904 24.2904103,10.8780652 C24.4379983,11.2198264 24.941405,10.9251297 24.7952783,10.5862648 L24.7116877,10.3942434 C24.228345,9.2913805 23.6646024,8.16724088 22.5018187,7.64581468 Z M24.2838346,6.9492589 C23.9272853,6.826891 23.7745828,7.38587339 24.1282096,7.50824129 C25.0919156,7.84058963 25.7531392,8.55741937 26.3106128,9.37706712 C26.519574,9.68407299 27.0259033,9.39444481 26.8147501,9.08454266 C26.1674085,8.13311409 25.3987818,7.33446438 24.2838346,6.9492589 Z" id="ðŸ–-Ink" fill="#000000"></path>
                            </g>
                            <g id="face/Smile" transform="translate(38.796655, 26.500978)" fill-rule="evenodd">
                                <path d="M10.7101101,17.4447798 C10.2189579,17.2462143 9.78072599,16.9149939 9.46033617,16.4918814 C9.34894839,16.3447901 9.32006743,16.1894639 9.34343415,16.0473984 C9.36970838,15.8876556 9.46507127,15.7428773 9.59512487,15.6457644 C9.72558131,15.5483508 9.88876575,15.5003088 10.0465311,15.5247992 C10.1836199,15.54608 10.3200853,15.620465 10.4280874,15.774737 L10.4506518,15.8055877 C10.641129,16.0609639 10.8893385,16.270497 11.1721558,16.4055532 C11.4447457,16.5357254 11.7496099,16.5964818 12.0650947,16.5611507 C12.6659558,16.4938859 13.0800994,16.1718529 13.520289,15.7345375 C13.5748518,15.6793253 13.6294495,15.6223823 13.6843119,15.5645227 C13.7189586,15.5120732 13.7670395,15.4783639 13.8204223,15.4606772 C13.8796945,15.4410393 13.9467452,15.4421504 14.0081585,15.4633897 C14.067392,15.4838752 14.1203437,15.5226943 14.1558493,15.5743599 C14.1895944,15.6234639 14.2087269,15.6841252 14.2025189,15.7539007 C14.1622276,16.2071066 13.9231385,16.6115735 13.5835225,16.9291655 C13.2063355,17.281892 12.7063466,17.5259105 12.2356289,17.6114954 C11.7170362,17.7057705 11.1886041,17.6382278 10.7101101,17.4447798 L10.7101101,17.4447798 Z M12.4802704,10.4531991 C13.0319997,10.7855507 13.8726656,11.5605299 13.2791319,12.3844701 C12.580486,13.1109654 11.5745936,12.2779889 11.0789073,11.9012661 C10.6192837,11.6093038 10.1028709,12.360209 10.5293099,12.7011242 C14.1111497,15.329155 15.5647361,10.5401044 12.7593274,10.062435 C12.4504418,10.0097979 12.3357209,10.3503824 12.4802704,10.4531991 Z M6.06157914,7.39611898 C6.12253799,6.64625166 7.27494269,6.47597025 7.38957914,7.21799765 C7.49223319,7.88269432 7.37138636,8.49330294 7.06926928,9.09174716 C6.78059586,9.66347319 6.0550387,9.39673609 6.0001681,8.87612943 C5.92661634,8.17827785 6.02365924,7.86257938 6.06157914,7.39611898 Z M14.8338389,7.06413992 C14.9945053,6.85560763 15.2264815,6.71325538 15.5044146,6.79369961 C16.3727729,7.04516928 16.1168319,8.26689335 15.8118653,8.86157241 C15.6461576,9.18450783 15.1105299,9.2664002 14.868471,8.98205773 C14.4739287,8.51836301 14.2849868,7.59234932 14.7865669,7.13560568 C14.8001567,7.11200098 14.8152808,7.08817906 14.8338389,7.06413992 Z M7.05703847,4.11492857 L7.19420554,4.09113598 C7.61854297,4.01840708 8.14615775,3.9485227 8.44633864,4.28660568 C8.60554375,4.46588552 8.66034129,4.79910274 8.44633864,4.97070744 C8.06991611,5.27264481 7.6537471,5.15563503 7.20265379,5.18119472 C6.83090731,5.20233757 6.47362738,5.26330431 6.11554375,5.36474658 C5.32996629,5.58725342 4.68985801,5.99345695 4.01891699,6.43948434 C3.93087562,6.49798924 3.84100766,6.38640998 3.8830191,6.30480724 C4.27032808,5.55300489 5.02090819,4.93544521 5.77273037,4.55900098 C6.17399445,4.35807143 6.61310537,4.19139041 7.05703847,4.11492857 Z M14.0422612,3.77815526 L14.1472481,3.79944879 C15.2897575,4.03611908 16.7741446,4.50888742 17.3151779,5.62102016 C17.3357937,5.77827966 17.3140111,5.81198351 17.296298,5.83400369 L17.2904004,5.84133126 C17.2758047,5.8601352 17.2641585,5.88605633 17.1953776,5.90745963 C17.1762908,5.90295287 17.1570141,5.8981796 17.1375333,5.89312024 C16.8895331,5.82871231 16.6933169,5.73998132 16.5033589,5.64791234 L16.2973963,5.54735348 C16.0584384,5.4312402 15.8173708,5.31935291 15.5618944,5.23675347 C15.0166859,5.06051872 14.455892,4.93637233 13.8864098,4.87008097 C13.7629789,4.85572508 13.6441227,4.8144414 13.5503537,4.7436879 C13.4613481,4.67652864 13.3933535,4.58354507 13.3623518,4.45994964 C13.3221736,4.29999742 13.33372,4.17890046 13.4203191,4.03460013 C13.4854364,3.92623368 13.5786087,3.85112156 13.6855942,3.80798963 C13.7946612,3.7640185 13.9188329,3.75365232 14.0422612,3.77815526 Z" id="ðŸ–-Ink" fill="#000000"></path>
                            </g>
                            <g id="facial-hair/*-None" transform="translate(36.166368, 37.506825)"></g>
                            <g id="accessories/Glasses-3" transform="translate(30.613556, 30.483366)" fill-rule="evenodd">
                                <path d="M26.8240218,7.11893757 C26.3320861,7.7738593 25.420109,7.98246399 24.5789303,7.91041898 C22.7646935,7.73736614 22.1937032,5.69541507 22.1342296,4.10832505 C23.3508079,4.44747965 22.0313563,2.04544834 26.1900509,1.78130744 C27.6560676,1.66024286 27.251881,2.53767143 27.8995879,3.17876341 C27.8862903,4.52423112 27.6603053,5.98620176 26.8240218,7.11893757 M18.1827428,5.57290235 C17.1116336,10.5438632 11.2462516,9.36145616 10.6301081,4.88047378 C11.1990526,4.48252466 11.0491996,3.49988865 11.7560148,3.14386321 C12.8762225,2.4345638 14.2765553,2.46490235 15.5486618,2.48155597 C17.1746873,2.59226634 17.6380553,3.25978689 18.4733158,3.98805695 C18.433131,4.47448748 18.3172525,5.05099237 18.1827428,5.57290235 M29.1475104,0.958039335 C29.0873792,0.948119569 29.027175,0.938779061 28.9669708,0.930017808 C28.919991,0.903589237 28.8648282,0.883242857 28.8006785,0.871006067 C28.6541864,0.834150881 28.5087173,0.809315264 28.3634673,0.795919961 C26.2788229,0.330994325 21.4561283,0.991129354 21.2571037,2.75409609 C20.5932498,2.97370665 20.0188255,2.77704912 19.2493951,2.79659902 C18.663719,0.370600978 8.53837658,0.713013894 8.05140915,2.1756362 C8.04958257,2.17512935 8.04775599,2.17469491 8.04585634,2.17411566 C7.57795845,2.03060489 6.88816708,2.06521546 6.3526125,2.04247965 C5.20909754,2.01873014 4.06426743,2.11973796 2.94544789,2.35875362 C0.850355458,2.68871252 -2.00897993,3.07500411 -0.551876937,5.66775558 C-0.551584683,5.66819002 -0.551365493,5.66869687 -0.551000176,5.66913131 L-0.550780986,5.66891409 C-0.299662148,5.92400411 0.126516549,5.71858532 0.142371303,5.37327613 C-0.347518662,4.14496301 0.758953169,3.99746986 1.61028768,3.64448552 C3.72861426,2.89029374 5.88529912,2.78573796 8.07617764,3.01903346 C8.24100863,3.21134658 8.49110458,3.37904129 8.75544789,3.46679863 C10.2202956,3.70776928 9.44830792,4.78460685 10.3742401,4.94122329 C10.2041486,8.69494932 14.8028308,10.7439239 17.4673792,8.27636419 C18.5312551,7.2455775 18.7848581,5.71858532 19.0315201,4.3421998 C19.1619382,4.31316458 19.2448651,4.2424953 19.2933062,4.1489454 C19.6069673,3.83860881 19.8040192,3.55202172 20.4242542,3.46679863 C21.0444893,3.38164795 21.5219585,3.55260098 21.5865465,3.60495127 C21.6028396,3.63746204 21.6203018,3.67004521 21.6406134,3.70262838 C21.668962,3.7512135 21.7075394,3.78995127 21.7513775,3.82043464 C21.1388871,7.55837593 24.0670482,9.92232114 27.0231195,7.9836225 C28.3075738,6.7862272 28.5790042,4.95302564 28.6326327,3.31677123 C28.8067428,3.2126499 28.9169954,3.01085147 28.8567181,2.75713718 C28.7736451,2.40741115 28.968432,2.10460489 29.2786592,1.9525501 C29.6817498,1.75509609 29.61044,1.03399432 29.1475104,0.958039335" id="ðŸ–-Ink" fill="#000000"></path>
                            </g>
                        </g>
                    </g>
                </g>
            </g>
        </g>
    </g>
</svg>