<?xml version="1.0" encoding="UTF-8"?>
<svg width="115px" height="115px" viewBox="0 0 115 115" version="1.1" xmlns="http://www.w3.org/2000/svg" xmlns:xlink="http://www.w3.org/1999/xlink">
    <!-- Generator: Sketch 63.1 (92452) - https://sketch.com -->
    <title>Group 5@1x</title>
    <desc>Created with Sketch.</desc>
    <defs>
        <circle id="path-1" cx="44.5" cy="44.5" r="44.5"></circle>
    </defs>
    <g id="Page-1" stroke="none" stroke-width="1" fill="none" fill-rule="evenodd">
        <g id="Sysl-homepage" transform="translate(-781.000000, -165.000000)">
            <g id="Group-5" transform="translate(781.000000, 165.000000)">
                <circle id="Oval-Copy" fill="#D3CD8B" cx="57.5" cy="57.5" r="57.5"></circle>
                <g id="peep-94" transform="translate(13.000000, 13.000000)">
                    <mask id="mask-2" fill="white">
                        <use xlink:href="#path-1"></use>
                    </mask>
                    <use id="Mask" fill="#FFFFFF" xlink:href="#path-1"></use>
                    <g id="a-person/bust" mask="url(#mask-2)">
                        <g transform="translate(-3.000000, 0.000000)">
                            <g id="body/Tee-1" transform="translate(11.904930, 51.270059)">
                                <path d="M62.7058718,44.3716851 C62.3794176,42.545233 62.0801746,40.7138799 61.8082239,38.8785901 C61.6791324,38.0072632 61.5531993,37.135133 61.439981,36.2615565 C61.3606958,35.6494986 61.2399458,34.9496251 61.6602627,34.4963263 C62.2517028,33.8583174 62.7889634,33.3122217 62.8613648,32.3983127 C62.9294739,31.5383947 62.635981,30.6010254 62.4524669,29.7663352 C62.0676218,28.0159686 61.5885092,26.2872144 61.0591042,24.5748503 C60.5212768,22.835089 59.9315373,21.1117178 59.3332944,19.3916407 C58.7740056,17.783402 58.2363401,16.1607014 57.5078718,14.6177017 C56.1253613,11.6894972 53.786488,9.52102223 50.8959387,8.07306906 C50.1770268,7.71296884 48.7107389,6.42747052 47.9596755,6.13967959 C47.2691896,5.87502762 47.271657,6.6477728 46.5921042,6.35668777 C46.0488507,6.12401258 45.5430127,5.81372542 45.2388296,5.29406273 C44.908569,4.72980931 44.0803523,3.94061874 43.9542572,3.28380945 C43.6870847,1.89161477 43.9765021,0.706681637 42.9735725,-0.341160179 C42.0832134,-1.27161993 40.8864845,-1.90906641 39.6482099,-2.25124999 C36.9241676,-3.0039896 33.2913014,-2.47773873 31.6477732,0.03002746 C30.8627768,1.22762983 30.5884775,2.67518128 29.5292627,3.65256172 C28.6043225,4.50597191 28.8113129,5.08942746 27.6133693,5.52922858 C27.5455031,5.55421545 25.7065169,5.16341469 25.6386507,5.18840157 C24.3281366,4.91057324 23.0755761,5.68830899 21.8732592,6.13967959 C20.0807979,6.81239693 18.3742627,7.68806231 16.7709845,8.72875354 C13.5381077,10.8273295 10.7691993,13.552345 8.4864493,16.6360144 C6.18482958,19.7450724 4.39900915,23.2298977 3.1274493,26.8720358 C2.81865,27.7566996 2.54127324,28.6521296 2.29661479,29.5563169 C2.15966761,30.0623212 2.01332606,30.5872062 2.18007606,31.1052621 C2.31645634,31.5290748 2.61982958,31.8446646 2.97608662,32.0989523 C3.45900563,32.4437069 4.42767817,32.6677853 4.40880845,33.3611509 C4.39439296,33.8883659 4.21387535,34.4431388 4.12576268,34.964087 C4.02088592,35.5845006 3.9347169,36.2085297 3.84854789,36.831675 C3.45657606,39.6679664 3.15150211,42.5202461 3.01657958,45.3806405 C2.88376268,48.1970067 2.77354085,51.0709792 2.97074155,53.8865419 C2.98378028,54.072216 3.03966056,54.2426249 3.12979789,54.3866811 C3.04565352,54.4185775 3.03917465,54.5739621 3.14388944,54.5959763 C3.21726268,54.6114022 3.29047394,54.6267479 3.36384718,54.6421739 C3.51626268,54.7564225 3.70633662,54.8264822 3.92507958,54.8333114 C4.07336479,54.8379713 4.22156901,54.8445595 4.36969225,54.8521118 C5.93280141,55.1758164 7.49566761,55.4816043 9.07918521,55.7131546 C11.0040585,55.9945984 12.9346007,56.2240599 14.8711359,56.4106178 C18.8503789,56.793857 22.7982803,56.6667534 26.7827873,56.4601899 C30.7611394,56.2538674 34.737143,56.2056612 38.7196254,56.30826 C42.7055901,56.4110195 46.6900972,56.5827943 50.6769528,56.6530949 C55.1310972,56.7315103 59.5784387,56.6109949 64.0197063,56.2602145 C64.6286394,56.212169 65.0053859,55.7321961 64.8852838,55.1329932 C64.1657239,51.5430784 63.3502768,47.9771061 62.7058718,44.3716851 Z" id="ðŸŽ¨-Background" fill="#FFFFFF"></path>
                                <path d="M24.3958408,5.10006301 C24.8077352,5.08233112 25.2277282,5.14836438 25.6386507,5.18840157 C25.6744465,5.19185166 25.6880521,5.24657182 25.6477211,5.25491624 C24.9123083,5.40712172 24.1849561,5.61535117 23.4626805,5.82682105 L23.1534359,5.9174955 C22.3389606,6.15619413 21.5483761,6.40243483 20.7598972,6.72080665 C19.1884465,7.35530372 17.695957,8.21173033 16.3223549,9.1956501 C11.0330028,12.9844192 7.20479859,18.7207284 4.78898873,24.659791 C4.13292183,26.2726716 3.57703451,27.9256697 3.12675282,29.6065092 C3.01725986,30.0154661 2.91424577,30.4260278 2.81657676,30.8378732 C2.78790775,30.9586266 2.66294648,31.2678517 2.73146056,31.3914133 C2.79203803,31.5006129 3.02754507,31.5680904 3.13695704,31.6248967 L3.50634321,31.8146521 C4.22686487,32.1825636 5.4270647,32.7873099 5.54742183,32.8462313 L5.73513194,32.9378026 C8.80536027,34.4289734 12.0858715,35.6934655 15.5408408,35.7809808 L15.5678901,35.4886853 L15.5678901,35.4886853 C15.7219254,33.8726755 15.9240662,32.2480806 16.3652775,30.6817362 C16.3890063,30.5975699 16.4971225,30.625973 16.5070028,30.7007519 C16.7527951,32.5550591 16.6742387,34.4238086 16.5884746,36.286701 C16.4366261,39.5861178 16.2349711,42.8836892 16.0557493,46.1818223 C15.9660169,47.8316912 15.8500451,49.4804368 15.7453303,51.1294231 C15.6404535,52.781699 15.6065204,54.4736912 15.3670451,56.1123272 C15.3136754,56.4775562 14.8818585,56.6762176 14.5548373,56.6377049 C14.1929923,56.59502 13.9146437,56.2792959 13.912943,55.9173566 C13.9085697,54.9627225 14.0296437,53.9968556 14.096943,53.0446286 C14.1608408,52.1399006 14.2294359,51.235654 14.2997317,50.3314074 C14.556619,47.0312685 14.8521366,43.7349808 15.1254641,40.4362861 C15.2223232,39.2663018 15.326957,38.0973605 15.4346683,36.9284994 C11.7746718,36.8115973 8.35536549,35.4685464 5.09341479,33.8993135 C5.0462,34.961382 4.93217183,36.0215249 4.82178803,37.0791804 C4.51363662,40.030699 4.24192887,42.9810943 4.03857324,45.9417597 C3.9358831,47.4370963 3.8611331,48.9342783 3.79602042,50.4316207 C3.76403099,51.1675346 3.73795352,51.903609 3.71795,52.6399241 C3.71125516,52.8853357 3.70520822,53.130783 3.69985715,53.3762421 L3.68873005,53.9385611 C3.67962598,54.2948427 3.64306796,54.6248728 3.34047465,54.8842528 C3.0331331,55.1476638 2.6179993,55.1617049 2.3138162,54.8842528 C1.90661901,54.5127656 1.97861549,54.0066442 1.99068239,53.507744 C2.00072465,53.0869123 2.01279155,52.6661609 2.02680211,52.2454896 C2.05490423,51.4040669 2.09078099,50.5628849 2.13443239,49.7221041 C2.28718228,46.7826363 2.5923812,43.8548906 2.99123682,40.9389397 L3.14693601,39.8133165 C3.43769754,37.7207829 3.75691375,35.5806533 4.40689718,33.5648947 C4.1538162,33.4402098 3.90146408,33.3146423 3.6500838,33.1885131 C3.20417535,32.9648184 2.74312254,32.7549241 2.30968592,32.5080415 C1.96581972,32.3121883 1.6692493,32.043562 1.57352394,31.6471217 C1.466766,31.2054221 1.63001496,30.7223061 1.73846773,30.2914792 L1.74788662,30.2536031 C1.85422113,29.8196932 1.96873521,29.3877088 2.0895662,28.9575699 C2.57953099,27.2133448 3.18538662,25.5031393 3.89441831,23.834656 C5.31410141,20.4943194 7.14656972,17.3209515 9.38493944,14.4516736 C11.399788,11.8689143 13.7799641,9.52669902 16.5696049,7.77003757 C17.9334077,6.91120391 19.386781,6.20601996 20.9238127,5.7074407 C21.6422387,5.47443875 22.4239148,5.27176556 23.176112,5.18832133 C23.5818514,5.14338982 23.9881577,5.11763444 24.3958408,5.10006301 Z M31.6937732,-0.193004892 C32.1832521,-0.713728963 33.155731,-0.17487182 32.9207099,0.514666341 C32.3679,2.13693444 31.4875831,3.61670548 30.113738,4.68270548 C28.8223366,5.68483855 27.2823894,6.33562329 25.6239599,6.19673679 C25.6111641,6.1956135 25.600069,6.19240411 25.5902697,6.18783072 L25.733188,6.37988513 C26.8552287,7.88356817 28.0389301,9.36648103 29.4656077,10.5955313 C32.3724352,13.0997407 36.3302169,14.4504139 40.1519423,13.4896018 C43.1587873,12.7337094 45.8078366,10.3780949 46.5869211,7.37602838 C46.4752415,7.4256135 46.3425056,7.44254305 46.196812,7.41117123 C45.5734634,7.27709883 44.9563507,6.62759785 44.5543366,6.16191487 C44.1194423,5.65812035 43.7797873,5.11412818 43.5308366,4.49920841 C43.0752099,3.37383464 42.9291113,1.92487378 43.5512451,0.834723092 C43.6280197,0.700329746 43.8050549,0.775670254 43.8201183,0.906854207 L43.8438048,1.11162377 C43.9637456,2.13328156 44.1131456,3.12156629 44.5993648,4.05294227 C44.8373014,4.50867613 45.1225338,4.95349804 45.4697204,5.33517515 C45.6555021,5.5393728 45.8569141,5.73450391 46.0743613,5.90572505 C46.2862585,6.07253799 46.5427053,6.19315343 46.7326338,6.38456601 L46.7674387,6.42131409 L46.7684106,6.41473483 C46.8164352,6.01027104 47.1027204,5.83206947 47.3828507,5.84322211 C47.6539445,5.85401499 47.9723628,5.97223258 48.0956778,6.02885898 L48.10735,6.03431006 C49.9985319,6.93372276 51.7403231,8.10605023 53.3794528,9.40669178 C56.7691993,12.0964843 59.3089986,15.6127759 60.5395796,19.7535352 C61.1435594,21.7857751 61.4901353,23.8798307 61.8559758,25.9641203 L62.0811993,27.2411526 C62.4226687,29.1653212 62.8040994,31.1273347 63.5749317,32.9172632 C63.774319,33.3802984 63.6206077,33.8145294 63.1316958,33.9965822 C62.5212239,34.2239677 61.9084845,34.4441321 61.2947732,34.6615685 C61.5961218,35.9423571 61.7798789,37.2675157 62.0056676,38.5546429 C62.4855901,41.2905705 63.0736289,44.0090068 63.5778472,46.7413239 C63.8356254,48.1383728 64.0682169,49.5400753 64.3257521,50.9372847 C64.4497415,51.6101341 64.579157,52.2820205 64.7050092,52.9545489 C64.7727944,53.3172104 64.8342627,53.6809951 64.8989704,54.044138 L64.9102317,54.1044026 C64.9472972,54.2959811 64.9938743,54.4941369 64.9406782,54.6858562 C64.8800197,54.9044961 64.7077627,55.0589481 64.5539704,55.215727 C64.4273894,55.3448249 64.2444423,55.3456272 64.0893542,55.275181 L64.0383434,55.2518003 C63.7613484,55.1234481 63.544356,54.9954159 63.4460831,54.6858562 C63.3838859,54.4898425 63.3614528,54.2690362 63.3207979,54.0670851 C63.2428085,53.6799521 63.1688683,53.2923376 63.0990585,52.9035998 C62.9594387,52.1258836 62.8230585,51.3476057 62.6899176,50.5686859 L62.5655597,49.8393393 C62.1387371,47.3256536 61.7334049,44.7966817 61.5284986,42.2564374 C61.4376,41.129491 61.3412592,40.0035203 61.2440372,38.8773339 L61.1710268,38.032635 C61.0787028,36.9635059 60.9658894,35.8673376 60.9499352,34.7837661 L60.5829577,34.9128439 L60.5829577,34.9128439 L58.7923085,35.5399795 L58.7923085,35.5399795 C58.3483437,35.6953943 57.783062,36.0139266 57.3052451,35.9559971 C57.0713577,35.9275939 56.8930268,35.8546605 56.7553507,35.7221125 C56.920238,38.0275 57.1434352,40.3288757 57.4408965,42.6185372 C57.7115514,44.7019149 58.0116042,46.7824843 58.3659986,48.8535861 C58.5414951,49.8791477 58.7218507,50.9037466 58.9177556,51.9256174 C59.0156676,52.4366331 59.116738,52.9469266 59.2208859,53.4567387 C59.2727979,53.7110832 59.3345901,53.9656683 59.3750831,54.2220988 C59.421407,54.5157583 59.3397732,54.6964472 59.174157,54.9380342 C59.0381817,55.136455 58.76615,55.2383532 58.5456254,55.1013924 C58.2535901,54.9198209 58.1012556,54.7625607 58.0153296,54.4319129 C57.9372592,54.1315939 57.8898014,53.8180362 57.8293859,53.5138659 C57.7178683,52.9523826 57.6100761,52.3902573 57.5060092,51.8273297 C57.2884,50.6501243 57.0877979,49.4700303 56.908657,48.2864061 C56.2773718,44.116682 55.8768155,39.9120558 55.6745127,35.7006096 C55.574657,33.6227681 55.5438014,31.5430812 55.5615373,29.4630734 C55.5706077,28.3969129 55.6057556,27.3277035 55.6818824,26.2641908 C55.758981,25.18768 55.9193331,24.1326722 56.0625162,23.0665117 C56.0675373,23.0289618 56.120988,23.0267955 56.1232556,23.0665117 C56.1910408,24.2618503 56.2972944,25.4558249 56.3493683,26.6542926 C56.3990937,27.7978796 56.4208789,28.9432319 56.4604,30.0872202 C56.512312,31.5909814 56.5843085,33.0956252 56.6796289,34.599226 C56.8522099,34.4121986 57.1123366,34.304363 57.3726254,34.3464863 C57.7496958,34.2680969 58.1555972,34.0720832 58.5150937,33.9530949 L59.870312,33.5045822 L59.870312,33.5045822 C60.5827451,33.2688523 61.2951782,33.034727 62.0101218,32.8076624 C61.3709143,30.6771586 60.9330416,28.5149092 60.5591443,26.3211344 L60.392393,25.3345199 C60.0623187,23.3925132 59.7064273,21.4495888 59.1085585,19.5689951 C58.4800268,17.5918483 57.5394563,15.7536683 56.2917063,14.0890362 C55.0617732,12.4484746 53.5653965,11.0039266 52.0247204,9.65277202 C50.7057028,8.49610665 49.2946852,7.45177006 47.9493472,6.32687769 C47.9634387,6.40141585 47.9664352,6.48349609 47.9540444,6.57368004 C47.6680021,8.64775049 46.575907,10.5792436 45.0539387,12.0158483 C41.9963155,14.9019755 37.4702556,15.5007681 33.5568542,14.1473669 C29.7713296,12.8382554 26.4244246,9.73782094 25.2419493,5.9012319 C25.2217028,5.8355998 25.3104634,5.80952348 25.3460972,5.85774462 C25.4116958,5.94680528 25.4776183,6.03586595 25.5436218,6.12492661 C25.5391676,6.08954305 25.5577134,6.05103033 25.6017697,6.03418102 C26.9814458,5.50639628 28.3362592,4.75788552 29.3704493,3.69902642 C29.8745056,3.18287573 30.3144211,2.59812427 30.6616887,1.96747847 C30.8280338,1.66539432 30.9774528,1.35255871 31.0966641,1.02929256 L31.1269606,0.945658419 C31.2714324,0.540717531 31.3921686,0.127794678 31.6937732,-0.193004892 Z" id="ðŸ–-Ink" fill="#000000"></path>
                            </g>
                            <g id="head/Bun-2" transform="translate(30.126761, 14.442270)">
                                <path d="M32.1920391,19.5577703 C31.9996165,17.0910305 32.2978067,14.5055432 31.3377996,12.1609209 C29.6639827,8.27073503 24.970363,6.97365871 21.3315849,5.49260391 C19.8738251,5.06586474 14.9686312,5.00621782 13.2617676,4.44141526 C9.39871181,3.16312697 8.47573393,1.64006501 5.40619049,4.07397182 C4.88804261,4.48974873 4.56385599,4.94163131 4.32737711,5.55903836 L4.33709542,5.56168611 C4.26955317,5.81907945 4.34195458,6.07591115 4.49412711,6.27208532 C3.16320458,7.61987006 2.60626444,9.64050411 3.28913768,11.4346352 C5.51762711,16.10342 5.41283134,18.6278485 4.69481021,23.6470188 C3.75715528,28.3327331 5.89979965,30.0443828 9.44827852,32.5939249 C9.30379965,32.8714571 9.27383486,33.2402967 9.4622081,33.4851734 C13.5655215,39.1978133 21.3023412,41.9253466 27.9312813,39.0258202 C30.6220384,37.8393074 31.8233102,35.000328 32.508856,32.4386705 C33.3074581,29.5703554 33.5528454,26.5479092 32.9026905,23.6260775 C32.6404581,22.2747624 32.2988595,20.933236 32.1920391,19.5577703 Z" id="ðŸŽ¨-Background" fill="#FFFFFF"></path>
                                <path d="M8.52328169,-7.77177065 C9.02135928,-7.84586822 9.39749287,-7.53971442 9.57642057,-7.108196 L9.5858169,-7.08496047 C9.6433169,-6.93813072 9.70729577,-6.79531272 9.7761338,-6.65490176 C11.022507,-7.26067476 12.8009577,-7.10501918 13.5897606,-5.87822857 C14.1526127,-5.00206419 13.8092324,-3.96222074 13.5970493,-3.03310137 L13.4577535,-2.42090959 C13.7270114,-2.25115274 13.9300603,-1.94715499 13.9205282,-1.63236458 L13.9193732,-1.60813072 L13.8626831,-0.754432094 C14.0424718,-0.93496047 14.2068732,-1.13153581 14.3534577,-1.34094873 C14.4546901,-1.5246865 14.5640211,-1.70521487 14.6814507,-1.88012681 C15.3722606,-2.90953973 16.9231408,-2.01492133 16.353,-0.912494716 C16.243669,-0.699872407 16.1205704,-0.498482975 15.9885634,-0.304314677 C15.8395493,-0.0178763209 15.7172606,0.276585519 15.6233169,0.579070841 C15.893,0.69541135 16.1003239,0.953767515 16.1221901,1.34370881 C16.1732113,2.25437417 15.6905352,3.01419804 14.9227887,3.4915953 C14.696838,3.63200626 14.4635986,3.65928611 14.2522254,3.60713346 C14.2149718,3.65687906 14.1777183,3.70662466 14.1420845,3.7571726 C14.4482113,4.00349354 14.7243732,4.28431546 14.961662,4.59562661 C15.6759577,4.48971663 16.3943028,4.43997104 17.1126479,4.43836634 C17.9905352,4.01231937 19.0417324,4.02114521 19.9852183,4.18081252 C20.5926127,4.28351311 21.1757113,4.48329785 21.7733873,4.6269182 C22.4034577,4.77775969 23.0432465,4.78337613 23.6806056,4.88607671 C24.4839859,5.01525479 25.1885634,5.38273033 25.6315563,5.96924697 C26.1182817,5.98368924 26.6301127,6.18106693 27.0544789,6.44905127 C28.042507,7.07327828 29.0248662,7.70633112 30.0104648,8.33456986 C30.3887196,8.57575912 30.5301522,8.960801 30.4606123,9.39026796 L30.4558873,9.41774012 L30.4226831,9.59586145 L30.500659,9.70549422 C30.802279,10.1274846 31.1304676,10.5694951 31.3256761,11.0352744 C31.6868732,11.5511843 32.0132465,12.0919671 32.3023662,12.6495992 C32.6919085,13.3989926 33.0134225,14.1933174 33.2312746,15.0085033 C33.2855352,15.2147068 33.3397958,15.4225151 33.3754296,15.6327303 C33.4264507,15.9295992 33.3478944,16.1598732 33.3049718,16.4447068 C33.2515211,16.8057636 33.2320845,17.1716344 33.1753944,17.5334935 C33.137331,17.7733957 32.9316268,17.8913409 32.7162042,17.8977597 C32.7971901,18.5083468 32.8555,19.1229456 32.9113803,19.7327303 C32.9899366,20.6040806 33.0433873,21.477838 33.0895493,22.3515953 C33.3276479,22.694198 33.8143732,22.9653918 34.1658521,23.0592665 C34.6525775,23.1884446 35.1627887,23.0480337 35.6227887,22.8835523 C35.9119085,22.7800493 36.1491972,23.1403037 36.0082817,23.3810082 C35.5652887,24.1368204 34.6177535,24.133611 33.9002183,23.7990317 C33.5965211,23.6578184 33.3300775,23.4532196 33.1324718,23.1868399 C33.1446197,23.440382 33.1575775,23.6939241 33.1705352,23.9482685 L33.1826037,24.1786453 C33.328504,26.8690758 33.643493,29.6520514 33.1332817,32.3159593 C32.2497254,36.9302646 28.3954061,40.4437067 23.6870845,40.7165464 C21.2163637,40.8597207 19.1588837,40.1367237 18.1357658,39.7334061 C17.1126479,39.3300885 17.5102989,38.5077482 18.2205514,38.7428201 C19.4440802,39.1477708 21.6917753,39.7510761 23.7032817,39.4905581 C28.4441972,38.8765438 32.464338,36.5289486 32.0513099,26.4178967 C31.9927385,24.9840519 31.8124014,23.5495014 31.7735282,22.1157049 C31.7362746,20.7140023 31.7500423,19.3114975 31.6876831,17.9105973 L31.6668889,17.4326222 C31.6425409,16.8741217 31.6165055,16.3130326 31.5743028,15.7538849 C31.5232817,15.5372509 31.481169,15.3174074 31.4188099,15.1047851 C31.2495493,14.526292 31.0284577,13.9638458 30.7539155,13.4270748 C30.6931761,13.4728086 30.6251479,13.5057049 30.5514507,13.5185425 C29.991838,13.6180337 29.4670493,13.5899515 28.9430704,13.3588751 C28.698493,13.2521628 28.4830704,13.1101472 28.2822254,12.9344329 C28.186662,12.851791 28.1226831,12.7715562 28.0724718,12.6881119 C27.8189859,12.6921237 27.5655,12.6167029 27.4067676,12.4361746 C27.2257249,12.230411 27.1956143,12.0178847 27.2665248,11.8211382 L27.2739507,11.801517 L27.2561338,11.7950982 C27.042331,12.3431022 26.6163451,12.8253135 26.1490563,13.1510669 C25.4104648,13.6677793 24.4864155,13.817016 23.6004296,13.830656 C22.6221197,13.8450982 21.5903592,13.6958614 20.625007,13.5434153 C20.3699014,13.5032978 20.1164155,13.457564 19.8677887,13.3957832 C19.8580704,13.4054114 19.8483521,13.4166442 19.8378239,13.4262724 C19.009338,14.2117714 17.8439507,14.4139632 16.7927535,13.9654505 C16.1853592,13.706292 15.6759577,13.2890708 15.2256761,12.8108712 C15.2191972,13.0612039 15.2062394,13.3115366 15.1843732,13.5594622 L15.1753182,13.6579126 C15.1304834,14.1196654 15.0442136,14.6094688 14.6919789,14.9427108 C14.1226479,15.4826912 13.2965915,15.2660571 12.6397958,14.9146286 C12.6406056,14.9314779 12.6406056,14.9491295 12.6406056,14.9667812 C12.8179648,15.5637284 12.9961338,16.1614779 13.1743028,16.7592274 L13.2126789,16.8865609 C13.3422382,17.3109977 13.4843316,17.7359771 13.5233521,18.1801863 C13.5978592,19.0290708 13.0277183,19.8675249 12.0753239,19.5826912 C11.5757565,19.4338212 11.1755407,19.0176755 10.7915267,18.6843626 L10.5495493,18.4770552 C11.1755704,20.5045894 11.6096549,22.604335 11.6501479,24.7201276 C11.6525775,24.8348634 11.5529648,24.921517 11.4428239,24.9255288 C11.1852887,24.9359593 10.9083169,24.8854114 10.649162,24.7835131 C10.6345845,24.7827108 10.620007,24.7819084 10.6046197,24.7795014 C10.1624366,24.7161159 9.75183803,24.5580532 9.38983099,24.3245699 C9.47324648,24.5869378 9.5105,24.868562 9.4886338,25.1630239 C9.48296479,25.2344329 9.37039437,25.2593057 9.35419718,25.1806755 C9.14525352,24.1624955 7.94261268,23.3930434 6.90599296,23.5880141 C5.79324648,23.797427 4.97366901,24.7458027 4.77282394,25.8249613 C4.55740141,26.9843546 4.96961972,28.3250787 5.7333169,29.2196971 C6.08479577,29.6321041 6.54722535,29.9763115 7.09630986,30.0629652 C7.3473662,30.1022802 7.60814085,30.0886403 7.85190845,30.0180337 C7.95557042,29.9875444 8.05275352,29.94502 8.15155634,29.9049025 C8.29571127,29.8471335 8.46416197,29.8383076 8.60021831,29.7773292 C8.90877465,29.6401276 9.2189507,29.9217519 9.06264789,30.2354701 C8.92659155,30.5090708 8.80430282,30.693611 8.57835211,30.8348243 C8.76138028,31.0562724 8.92740141,31.3643742 8.9889507,31.447016 C9.30317606,31.8674466 9.62226056,32.264609 9.98021831,32.6489339 C10.3446549,33.0388751 10.7422958,33.3951178 11.1626127,33.724883 L11.3392838,33.8631878 C11.7441422,34.1813063 12.096684,34.4760816 12.3822606,34.9324172 C12.6074014,35.2926716 12.3158521,35.7813018 11.8939155,35.7756853 C10.5738451,35.7572313 9.61416197,34.6082685 8.93064085,33.6045307 C8.83345775,33.4609104 8.74194366,33.3092665 8.65690845,33.153611 C8.6261338,33.2025542 8.59211972,33.2482881 8.55405634,33.2900102 L8.62937324,33.4905973 C8.85289437,34.0811256 7.88997183,34.4670552 7.61057042,33.9158419 C7.40729577,33.5162724 7.17162676,33.1359593 6.90923239,32.7765072 C6.7545493,32.7548438 6.60310563,32.6617714 6.51888028,32.5414192 C6.30588732,32.2357245 6.06697887,31.9268204 5.86532394,31.6010669 C5.75356338,31.4959593 5.63856338,31.3948634 5.5211338,31.2961746 C5.48711972,31.3258614 5.45229577,31.3555483 5.41909155,31.3868399 C5.27169718,31.7198145 5.08947887,32.0239045 4.86352817,32.3103429 L4.81508425,32.3714513 C4.38222231,32.9119277 3.81839757,33.4650972 3.12071127,33.5973096 C2.90771831,33.637427 2.70282394,33.3750591 2.89152113,33.2073683 C3.3798662,32.7724955 3.95729577,32.476429 4.40757746,31.9910082 C4.62942103,31.7518511 4.83310887,31.4884803 5.00826629,31.212459 L5.04817606,31.1485425 C5.07733099,31.1012039 5.10729577,31.0538654 5.13807042,31.0057245 C4.93479577,30.8685229 4.73152113,30.730519 4.52824648,30.5925151 C3.96865993,31.0661594 3.23993838,31.2828185 2.62099677,31.6751642 L2.55947887,31.7150004 C1.9998662,32.0856853 1.41028873,31.2656853 1.8589507,30.8155679 C2.35353169,30.3212411 2.76639789,29.7317558 3.20453169,29.1823076 C2.99850352,28.8063272 2.90099648,28.361746 2.86447183,27.9124309 C2.85005634,27.7852587 2.8387993,27.6580063 2.82754225,27.5307538 C2.5133169,27.5355679 2.19747183,27.4288556 1.93021831,27.2451178 L1.82898592,27.1737088 C1.50423239,27.2764094 1.16328169,27.326155 0.836908451,27.3173292 C0.0691619718,27.2948634 -0.24506338,26.4259202 0.235183099,25.8763115 C0.725147887,25.3146677 1.58278873,25.1919084 2.26226056,25.4647068 C2.28412676,25.453474 2.30680282,25.4414387 2.32866901,25.4294035 C2.29627465,25.2817714 2.30348239,25.1478595 2.34033099,25.0302352 L2.32964085,24.9585053 C2.18022183,24.7313605 2.08198592,24.4720415 2.04473239,24.1980395 C2.01525352,23.9810043 2.02124648,23.7658947 2.07194366,23.5515875 C2.08878873,23.4802587 2.12385563,23.4063624 2.15066197,23.3319847 C2.09542958,23.1938204 2.06295423,23.0510023 2.05291197,22.907382 C2.03744366,22.8891687 2.02205634,22.870474 2.00747887,22.8502548 C1.67033451,22.3812822 1.73844366,21.8161883 2.05930986,21.4366775 C2.06076761,21.4125268 2.06303521,21.3883761 2.06635563,21.3643859 C2.0475669,21.3225033 2.0303169,21.2802196 2.01460563,21.2374544 C1.70110915,20.9241374 1.47094718,20.5471139 1.51386972,20.0799065 C1.53905634,19.8050219 1.65308451,19.5575777 1.82566549,19.3726364 C1.79505282,19.2829339 1.79213732,19.1790297 1.82922887,19.0922959 C1.55379577,18.3664916 1.58861972,17.4923331 1.78687324,16.6805973 C1.74314085,16.5570356 1.72046479,16.4230434 1.72532394,16.2810278 C1.748,15.6784642 2.27440845,15.1248438 2.898,15.132065 C2.97307394,15.1327068 3.04336972,15.1424153 3.11091197,15.1566168 L3.11180282,15.1422548 C3.13569366,14.9614055 3.18590493,14.7942763 3.25919718,14.6443174 C3.22315845,14.6313996 3.18979225,14.6128654 3.16055634,14.5882333 C2.76097183,14.7994114 2.33814437,14.9608438 1.89482746,15.0708458 C1.56885915,15.1517225 1.23495423,14.7846481 1.43758099,14.4815209 C1.53160563,14.3408693 1.63534859,14.2145796 1.74710915,14.099202 C1.58821479,14.1000845 1.42689085,14.1107558 1.26370423,14.1315366 C0.970535211,14.169247 0.643352113,13.9710669 0.453035211,13.7030826 C0.216556338,13.9309495 -0.0207323944,14.1580141 -0.258021127,14.3850787 C-0.85893662,14.9619671 -1.76678873,14.5375249 -1.86154225,13.7768986 C-2.04052113,13.7295601 -2.20735211,13.6493252 -2.35393662,13.5345894 C-3.30147183,13.9421824 -4.32108451,14.1660376 -5.36337324,14.208562 C-6.1116831,14.2390513 -6.54900704,13.3757245 -6.19914789,12.7659397 C-5.96428873,12.3567421 -5.67273944,11.9892665 -5.33664789,11.6699319 C-5.85819718,11.8279945 -6.39675352,11.941928 -6.94664789,12.0149417 C-7.2438662,12.0542568 -7.6641831,11.8103429 -7.78323239,11.5399515 C-8.23837324,10.500108 -8.1995,9.41613542 -7.67552113,8.40437417 C-7.65527465,8.36425675 -7.63259859,8.32574403 -7.61073239,8.28723131 C-7.55647183,8.15323914 -7.49735211,8.02085166 -7.43337324,7.89087123 C-8.07802113,7.22492211 -8.13390141,6.23482427 -7.78647183,5.40599843 C-7.92576761,5.18214325 -7.97921831,4.91255421 -7.88446479,4.66864031 C-7.61478169,3.96658552 -7.2260493,3.31828806 -6.73527465,2.76145832 C-6.78224648,2.6715953 -6.8235493,2.57611585 -6.85837324,2.47341526 C-7.13453521,1.64298474 -6.81464085,0.640851663 -6.1691831,0.0623585127 C-5.76344366,-0.301907632 -5.29696479,-0.52014638 -4.79890141,-0.65975499 C-4.58914789,-1.02723053 -4.31946479,-1.35860039 -4.00523944,-1.63781761 C-3.99309155,-1.66429511 -3.98094366,-1.6907726 -3.96717606,-1.7172501 C-3.47802113,-2.6303225 -2.58717606,-3.11975499 -1.63235211,-3.23288611 C-1.59509859,-3.58993112 -1.35214085,-3.93092916 -0.999042254,-4.04165323 C-0.901859155,-4.35055734 -0.756894366,-4.64582153 -0.557669014,-4.91380587 C-0.244253521,-5.3358411 0.276485915,-5.53482348 0.767260563,-5.25801331 C1.0361338,-5.10636947 1.29366901,-4.93225988 1.53500704,-4.73969628 C1.64340358,-4.79005907 1.76629132,-4.82264676 1.90494422,-4.83304186 L1.93993662,-4.83517573 L2.73845775,-4.87529315 C3.07292958,-5.0221229 3.40659155,-5.17617378 3.74106338,-5.32621292 C3.94190845,-5.49069432 4.16623944,-5.62789589 4.4108169,-5.72979413 C4.68778873,-5.84452994 4.97123944,-5.90952016 5.2555,-5.93118356 C5.48630986,-6.00580196 5.71873944,-6.07159452 5.95521831,-6.12294481 C6.51078169,-6.24329706 7.09226056,-6.31069432 7.66888028,-6.30507789 C7.68068109,-6.45293922 7.68653191,-6.602569 7.68541274,-6.75396722 L7.68426761,-6.8298137 C7.67130986,-7.31523444 8.06247183,-7.70276869 8.52328169,-7.77177065 Z M7.96366901,31.0659006 C7.88430282,31.0827499 7.80412676,31.0963898 7.7239507,31.106018 C7.74824648,31.1653918 7.77254225,31.2247656 7.79602817,31.2841393 C7.8608169,31.320245 7.92641549,31.354746 7.99201408,31.3868399 C7.97257746,31.2777205 7.96123944,31.1677988 7.96366901,31.0659006 Z M3.80285563,29.8409554 L3.749015,29.9391747 C3.74028951,29.9552454 3.73169601,29.971123 3.72324648,29.9867421 C3.83743662,29.9779162 3.95243662,29.9803233 4.0658169,29.9931609 L4.06549296,29.9812059 C4.05091549,29.9763115 4.03633803,29.9718184 4.02240845,29.9650787 C3.94417606,29.9278497 3.8714507,29.8861276 3.80285563,29.8409554 Z M6.05159155,25.3596072 C6.76809194,25.4009505 7.37512699,25.5097906 8.02675195,25.8203211 L8.08271831,25.847435 C8.65852817,26.130664 9.61092254,26.6537951 9.53074648,27.4039908 C9.50807042,27.6174155 9.35176761,27.842073 9.10557042,27.8252237 C8.43095775,27.7794898 8.04546479,27.1055172 7.58870423,26.6850867 C7.12789437,26.2614468 6.56180282,25.8257716 6.00380986,25.5345192 C5.92493536,25.4935134 5.95600544,25.3637264 6.04183266,25.3595442 L6.05159155,25.3596072 Z M2.80243662,15.4754701 C2.63074648,15.4818716 2.68824648,15.6702593 2.77652113,15.5129647 C2.78380986,15.5001617 2.79271831,15.4873586 2.80243662,15.4754701 Z M12.0701408,4.44141526 C10.4441056,4.48377926 8.80762324,5.43496321 7.58951408,6.39641722 C6.52981338,7.23286536 5.61475352,8.2277773 4.80448944,9.30011585 C4.59603169,9.8341589 4.41705282,10.3793546 4.26585211,10.928562 C4.16623944,11.2912235 4.10388028,11.6578967 4.02046479,12.0237675 L3.9945493,12.1359358 C3.92903169,12.2572509 3.88035915,12.387793 3.84488732,12.5226677 C3.99252465,12.669337 4.18405634,12.7743644 4.39494366,12.8241902 C4.46289085,12.8402372 4.51933803,12.8749789 4.56396127,12.9210337 C4.73370775,12.6403722 4.88207394,12.3441452 4.96840493,12.0301061 L4.97156338,12.0155836 C5.29785563,11.4861139 5.65225,10.9730924 6.03215493,10.4776423 C7.08011268,9.10963836 8.23416197,7.86278904 9.6214507,6.82535264 C10.6734577,6.03905127 11.8493732,5.42284775 13.0997958,5.02247593 C12.79375,4.77783992 12.4461585,4.5843135 12.0701408,4.44141526 Z" id="ðŸ–-Ink" fill="#000000"></path>
                            </g>
                            <g id="face/Smile" transform="translate(43.003521, 29.365949)">
                                <path d="M11.8714473,19.330702 C11.3270377,19.1106699 10.8412866,18.7436419 10.4861558,18.2747875 C10.3626898,18.1117944 10.3306771,17.9396763 10.3565776,17.7822522 C10.3857009,17.60524 10.4914043,17.44481 10.6355601,17.3371984 C10.7801624,17.2292536 10.9610416,17.1760178 11.135914,17.2031559 C11.2878678,17.2267373 11.4391307,17.3091639 11.5588439,17.4801139 L11.583855,17.5142999 C11.7949864,17.7972843 12.0701101,18.0294696 12.3835944,18.1791265 C12.6857422,18.3233714 13.023664,18.390696 13.373358,18.3515454 C14.0393726,18.2770087 14.4984235,17.9201613 14.9863444,17.4355685 C15.0468236,17.3743875 15.1073416,17.3112885 15.1681529,17.2471738 C15.2065565,17.1890541 15.259851,17.1517005 15.3190223,17.1321018 C15.3847217,17.1103408 15.4590429,17.111572 15.5271155,17.1351075 C15.5927718,17.1578077 15.6514653,17.2008234 15.6908209,17.2580745 C15.7282251,17.312487 15.7494322,17.3797063 15.7425511,17.4570251 C15.6978908,17.9592263 15.4328764,18.4074193 15.0564345,18.7593456 C14.6383478,19.1502046 14.0841432,19.4206035 13.5623838,19.5154409 C12.9875582,19.6199079 12.4018262,19.5450633 11.8714473,19.330702 L11.8714473,19.330702 Z M13.8335528,11.5832746 C14.4451081,11.9515562 15.3769305,12.8103169 14.7190378,13.7233317 C13.9446351,14.528367 12.8296701,13.6053391 12.2802346,13.1878894 C11.7707723,12.8643636 11.1983629,13.6964478 11.6710423,14.0742187 C15.6412744,16.9863609 17.2524786,11.6795751 14.1428689,11.1502658 C13.8004897,11.0919382 13.6733292,11.4693427 13.8335528,11.5832746 Z M6.7188588,8.19569941 C6.78642765,7.36476535 8.0637919,7.17607515 8.1908588,7.99832172 C8.30464401,8.7348775 8.17069331,9.41149785 7.83581655,10.0746387 C7.5158412,10.708173 6.71160916,10.4125994 6.65078873,9.83571099 C6.56926149,9.062416 6.67682711,8.71258796 6.7188588,8.19569941 Z M16.4423275,7.82783072 C16.6204155,7.5967544 16.8775458,7.43901272 17.1856162,7.52815362 C18.1481338,7.8068092 17.8644401,9.16061155 17.5264049,9.81958023 C17.3427289,10.1774276 16.7490211,10.2681732 16.4807148,9.953091 C16.0433908,9.43926712 15.8339613,8.41314384 16.3899296,7.9070225 C16.404993,7.88086595 16.421757,7.85446869 16.4423275,7.82783072 Z M7.82225951,4.55978571 L7.97430012,4.53342095 C8.44465004,4.45282947 9.02947606,4.37539002 9.36220669,4.7500225 C9.538675,4.94868395 9.59941444,5.31792466 9.36220669,5.50808121 C8.94496725,5.84266047 8.48367148,5.71300098 7.98366444,5.74132387 C7.5716081,5.76475245 7.17558697,5.83231018 6.778675,5.94471918 C5.90791444,6.19128082 5.19839683,6.64139824 4.45470317,7.13564481 C4.35711514,7.20047456 4.25750246,7.07683268 4.30406937,6.98640802 C4.7333757,6.15332975 5.56534401,5.46900685 6.39868908,5.05186595 C6.84346373,4.82921429 7.33018908,4.6445137 7.82225951,4.55978571 Z M15.564916,4.18660448 L15.6812871,4.21020001 C16.947683,4.47245628 18.5930277,4.99633471 19.1927273,6.22869801 C19.2155786,6.40295854 19.191434,6.44030606 19.1718002,6.46470679 L19.1652631,6.47282653 C19.1490848,6.49366333 19.1361757,6.52238674 19.0599366,6.54610391 C19.0387802,6.54110993 19.0174133,6.53582064 18.99582,6.53021432 C18.7209282,6.45884337 18.5034356,6.36051985 18.2928798,6.25849745 L18.0645838,6.14706736 C17.7997149,6.01840131 17.5325074,5.89441808 17.2493287,5.80288899 C16.6450012,5.60760182 16.0233984,5.4700342 15.3921651,5.39657622 C15.2553501,5.38066833 15.1236059,5.33492155 15.0196691,5.25651903 C14.9210123,5.1820993 14.8456449,5.07906345 14.8112815,4.94210636 C14.7667467,4.764862 14.779545,4.63067348 14.8755345,4.47077312 C14.9477126,4.35069137 15.050988,4.26745903 15.1695743,4.21966418 C15.2904678,4.17093941 15.428104,4.15945257 15.564916,4.18660448 Z" id="ðŸ–-Ink" fill="#000000"></path>
                            </g>
                            <g id="facial-hair/Full-3" transform="translate(40.088023, 41.561616)">
                                <path d="M18.4643271,8.36935166 C17.7101053,7.70364325 16.8646933,6.36532622 15.7811827,7.42426556 C15.5132004,7.72346125 15.4046792,8.39422446 14.9948905,8.52580959 C14.4506651,8.70072153 13.9112989,8.13025186 13.7258412,7.69216967 C12.9670032,5.25808552 16.1039116,4.59045147 17.8909468,4.98368239 C18.763975,5.338882 19.4070032,6.76866673 19.4458764,7.51485068 C19.470982,8.0163184 19.0425665,8.75367652 18.4643271,8.36935166 M24.1543975,4.61757084 C24.1470278,4.5852362 24.1367426,4.55603072 24.1243518,4.52947299 C23.7907708,4.40454736 23.5268377,4.53196027 23.363732,4.76993679 C23.3690771,4.82906986 23.386894,4.88900528 23.3981511,4.94765695 C23.2722989,5.21034579 23.1587567,5.5353771 22.9882004,5.76236145 C22.9545102,5.76492896 22.9196053,5.76139863 22.8860771,5.75177045 C20.0586158,6.04430665 21.4390208,3.11340841 18.5712285,2.38543777 C16.3544011,2.02309726 12.3477039,2.43815205 11.3019327,4.7241227 C10.4771722,8.37544951 6.28347852,5.83120294 4.90655599,3.93228513 C3.43739049,2.20410705 2.4874257,0.0923262231 1.571475,-1.95687143 C1.37791866,-2.3905407 0.773844718,-2.08043307 0.839524296,-1.66433523 C-0.00710246479,0.0182694716 0.0210806338,2.03938493 -0.188591901,3.8827 C-0.545253873,7.5602636 -0.892764437,12.7175982 2.55618275,14.9631305 C7.04984824,19.9952186 18.2710947,21.7709759 23.4540313,17.1473634 C25.2481933,13.3257783 25.0270208,8.6635728 24.1543975,4.61757084" id="ðŸ–-Ink" fill="#000000"></path>
                            </g>
                            <g id="accessories/Glasses-3" transform="translate(33.933099, 33.778865)">
                                <path d="M29.7326507,7.88855245 C29.1873725,8.61427652 28.1765063,8.84543307 27.2441155,8.76559941 C25.2331542,8.57383816 24.6002493,6.31113562 24.5343268,4.5524683 C25.8828232,4.92828826 24.4202986,2.26657789 29.0299359,1.97388121 C30.6549183,1.83972857 30.2069042,2.81201429 30.9248444,3.5224135 C30.9101049,5.01333718 30.6596155,6.63335871 29.7326507,7.88855245 M20.1543655,6.17537828 C18.967112,11.6837403 12.4657246,10.3735055 11.7827704,5.40809256 C12.4134077,4.96712192 12.2473056,3.87825499 13.0307634,3.48374031 C14.2724394,2.69775988 15.8246155,2.73137828 17.2346613,2.74983229 C19.0370028,2.87251135 19.5506155,3.61219628 20.4764465,4.41919824 C20.4319042,4.95821585 20.3034606,5.5970456 20.1543655,6.17537828 M32.3080838,1.06161115 C32.2414324,1.05061898 32.1747,1.04026869 32.1079676,1.03056027 C32.0558937,1.00127456 31.9947493,0.978728571 31.9236437,0.965168885 C31.7612669,0.924329354 31.6000239,0.896808806 31.4390239,0.881965362 C29.1283338,0.366777495 23.7826965,1.09827847 23.5620908,3.0518362 C22.8262528,3.29518845 22.1895415,3.07727065 21.3366789,3.09893405 C20.6874958,0.410665949 9.46422465,0.790096477 8.92445352,2.41084012 C8.92242887,2.41027847 8.92040423,2.40979706 8.91829859,2.40915519 C8.39966479,2.25012975 7.63507676,2.288482 7.04145,2.26328826 C5.77393944,2.23697123 4.50497113,2.34889883 3.2648338,2.61375401 C0.942562676,2.97938415 -2.22682113,3.40743699 -0.611719014,6.28048591 C-0.61139507,6.28096732 -0.611152113,6.28152896 -0.610747183,6.28201037 L-0.610504225,6.28176967 C-0.332155634,6.56443699 0.140235211,6.33681076 0.157809155,5.95417084 C-0.385201408,4.59306712 0.841249296,4.42962877 1.78489718,4.03848395 C4.13292183,3.20275793 6.52346408,3.08689883 8.95190775,3.34541546 C9.13461197,3.55851918 9.41182676,3.74434305 9.7048338,3.84158767 C11.3285204,4.1086092 10.4728232,5.30186164 11.4991577,5.47540959 C11.3106225,9.63494384 16.407957,11.9054292 19.3614324,9.17110626 C20.5406683,8.02888317 20.8217704,6.33681076 21.0951789,4.81162681 C21.2397387,4.77945264 21.3316577,4.70114344 21.3853514,4.59748004 C21.7330239,4.25359354 21.951443,3.93602407 22.6389324,3.84158767 C23.3264218,3.74723151 23.8556648,3.93666595 23.9272563,3.99467573 C23.9453162,4.03070117 23.9646718,4.06680685 23.9871859,4.10291252 C24.0186085,4.1567501 24.061369,4.19967573 24.1099606,4.2334546 C23.4310556,8.37549765 26.6767282,10.9950045 29.9533373,8.84671683 C31.3770697,7.51987339 31.6779324,5.48848787 31.7373761,3.6753411 C31.9303655,3.55996341 32.0525732,3.33634892 31.9857599,3.05520607 C31.8936789,2.66767182 32.1095873,2.33212975 32.4534535,2.16363659 C32.9002528,1.9448362 32.8212106,1.1457775 32.3080838,1.06161115" id="ðŸ–-Ink" fill="#000000"></path>
                            </g>
                        </g>
                    </g>
                </g>
            </g>
        </g>
    </g>
</svg>