<?xml version="1.0" encoding="UTF-8"?>
<svg width="146px" height="256px" viewBox="0 0 146 256" version="1.1" xmlns="http://www.w3.org/2000/svg" xmlns:xlink="http://www.w3.org/1999/xlink">
    <!-- Generator: Sketch 63.1 (92452) - https://sketch.com -->
    <title>Group 9</title>
    <desc>Created with Sketch.</desc>
    <g id="Page-1" stroke="none" stroke-width="1" fill="none" fill-rule="evenodd">
        <g id="Sysl-homepage" transform="translate(-493.000000, -909.000000)">
            <g id="Group-9" transform="translate(494.781917, 918.500000)">
                <path d="M0.218083388,85 C36.6622927,85 56.7797255,64.3398016 56.7797255,47.5579668 C56.7797255,20.3220224 68.5293559,0.5 128,1" id="Path" stroke="#8C9BA5" stroke-width="3" stroke-linecap="round"></path>
                <path d="M0.218083388,244.501243 C54.2133425,244.501243 78.0036658,210.5 78.0036658,82 C78.0036658,17.7243067 102.218083,0.5 128,0.5" id="Path-2-Copy" stroke="#8C9BA5" stroke-width="3" stroke-linecap="round"></path>
                <path d="M0,165.5 C42.6977474,165.5 64.1090417,154.130837 64.1090417,71.2349398 C64.1090417,28.2966693 78.5442516,2.5 124,2.5" id="Path-2-Copy-2" stroke="#8C9BA5" stroke-width="3" stroke-linecap="round"></path>
                <path id="Line-5" d="M125.16382,-9 L144.16382,0.5 L125.16382,10 L125.163,2 L1.77234695,2 C0.943919829,2 0.272346954,1.32842712 0.272346954,0.5 C0.272346954,-0.279696117 0.867235037,-0.920448678 1.62788694,-0.993133422 L1.77234695,-1 L125.163,-1 L125.16382,-9 Z" fill="#8C9BA5" fill-rule="nonzero"></path>
            </g>
        </g>
    </g>
</svg>