<svg xmlns="http://www.w3.org/2000/svg"
     viewBox="0 0 60 60">
    <g transform="translate(-20,-20)">
        <path d="M78,56H60c-0.5527115,0-1,0.4477997-1,1v23c0,0.5522003,0.4472885,1,1,1h18c0.5526886,0,1-0.4477997,1-1V57    C79,56.4477997,78.5526886,56,78,56z M77,58v15H61V58H77z M61,79v-4h16v4H61z"/>
        <path
                d="M55,74h-2V57c0-0.5522003-0.4473114-1-1-1H24c-0.5527115,0-1,0.4477997-1,1v17h-2c-0.5527115,0-1,0.4477997-1,1v3    c0,0.5522003,0.4472885,1,1,1h34c0.5526886,0,1-0.4477997,1-1v-3C56,74.4477997,55.5526886,74,55,74z M25,58h26v16H25V58z M54,77    H22v-1h2h28h2V77z"/>
        <path
                d="M26,50h12c0.5526886,0,1-0.4477997,1-1V28c0-0.5522003-0.4473114-1-1-1H26c-0.5527115,0-1,0.4477997-1,1v21    C25,49.5522003,25.4472885,50,26,50z M27,48v-4h10v4H27z M37,29v13H27V29H37z"/>
        <circle
                cx="32" cy="46" r="1"/>
        <path
                d="M78,24H46c-0.5527115,0-1,0.4477997-1,1v21.9028015c0,0.5522995,0.4472885,1,1,1h15V51h-6c-0.5527115,0-1,0.4477997-1,1    s0.4472885,1,1,1h15c0.5526886,0,1-0.4477997,1-1s-0.4473114-1-1-1h-7v-3.0971985h15c0.5526886,0,1-0.4477005,1-1V25    C79,24.4477997,78.5526886,24,78,24z M77,26v14H47V26H77z M47,45.9028015V42h30v3.9028015H47z"/>
        <circle
                cx="62" cy="44" r="1"/>
        <circle cx="69" cy="77" r="1"/>
    </g>
</svg>
