<?xml version="1.0" encoding="UTF-8"?>
<svg width="106px" height="106px" viewBox="0 0 106 106" version="1.1" xmlns="http://www.w3.org/2000/svg" xmlns:xlink="http://www.w3.org/1999/xlink">
    <!-- Generator: Sketch 63.1 (92452) - https://sketch.com -->
    <title>Group 4</title>
    <desc>Created with Sketch.</desc>
    <defs>
        <circle id="path-1" cx="41.5" cy="41.5" r="41.5"></circle>
    </defs>
    <g id="Page-1" stroke="none" stroke-width="1" fill="none" fill-rule="evenodd">
        <g id="Group-4">
            <circle id="Oval-Copy-3" fill="#C6DFEA" cx="53" cy="53" r="53"></circle>
            <g id="peep-87" transform="translate(12.000000, 12.000000)">
                <mask id="mask-2" fill="white">
                    <use xlink:href="#path-1"></use>
                </mask>
                <use id="Mask" fill="#FFFFFF" xlink:href="#path-1"></use>
                <g id="peep-24" mask="url(#mask-2)">
                    <g transform="translate(43.000000, 55.500000) scale(-1, 1) translate(-43.000000, -55.500000) translate(13.000000, 12.000000)">
                        <g id="body/Pointing-Up" transform="translate(0.610915, 33.851272)" fill-rule="evenodd">
                            <path d="M59.4239924,2.23287802 C58.6792794,0.193823875 59.2386984,-2.38776778 57.7036526,-4.07500848 C57.249621,-4.34932681 57.0088181,-4.1967045 56.8219361,-3.71838748 C56.7091139,-3.08895499 56.4447794,-0.921746902 57.3954308,-0.922751468 C57.5150382,0.430757991 57.4402565,1.79409785 57.1474819,3.1224214 C56.4459193,3.01053171 55.93441,3.36896547 55.4225895,3.63553628 C55.0409682,3.83429562 54.6591739,3.98198444 54.198297,3.84556556 C52.2956227,3.51219309 51.7533729,5.49835474 51.7302743,7.11958109 C51.7023394,7.91060522 51.6275681,9.75454573 51.277047,10.5221061 C49.6906069,7.25604606 46.3587794,5.76909459 43.1840945,5.0349002 C42.6864643,4.89806393 42.2618111,4.7110711 41.9426174,4.39147554 C39.2678005,3.34163209 40.552804,-0.0980026093 39.3222266,-2.0748454 C37.3960928,-4.42495629 35.0829132,-5.10117286 32.1687371,-4.69841357 C29.6190136,-4.4181396 27.8858252,-1.84350815 28.04304,0.586752772 C28.0901755,1.08264971 27.79076,1.60423483 27.6146333,2.11455447 C25.854665,4.2079987 23.1161104,5.14461318 20.7607037,6.4095773 C12.9045118,10.2264984 10.1819097,13.1433999 7.12892553,21.2653177 C5.70071074,24.3211363 3.99148715,27.2869028 3.42383926,30.6524149 C2.75679525,34.6182988 2.75470194,38.6780378 2.98691496,42.6829563 C2.55338327,42.7346915 3.02517201,45.8133999 3.40543257,46.8798904 C3.53572306,47.245409 3.84791496,47.5089641 4.23690968,47.502865 C5.01937447,47.8809406 6.8565095,49.4043661 7.67492148,49.3538508 C10.3192056,49.1919539 12.8895288,49.4422772 15.4371506,49.312845 C18.1933365,49.1728166 20.9229519,48.6616861 23.6909044,48.7279843 C28.5179159,48.8436011 25.06201,49.1284348 30.0560182,49.3538508 C33.2086151,49.4983648 44.7101174,47.7867984 47.8537636,48.0662114 C50.4107776,48.6009276 51.5773287,47.6994729 51.1872512,45.0440457 C51.0430294,44.0261331 50.5825012,41.7624866 52.0974801,41.6663353 C52.8141139,41.7489967 53.4073146,42.4608754 53.9442847,42.8768376 C58.6865699,46.3865766 63.5312829,43.8593751 63.9130593,38.0895773 C64.6317864,33.2502948 65.6395347,32.1070267 63.4488498,27.2744892 C56.5179009,9.28450228 66.9601967,11.7286836 59.9097847,3.30238226 C59.3592442,3.77890541 59.4992072,2.50705284 59.4239924,2.23287802 Z" id="ðŸŽ¨-Background" fill="#FFFFFF"></path>
                            <path d="M56.7900889,-4.20972081 C57.1683283,-4.57925766 57.7696136,-4.48733986 58.1384692,-4.15877495 C58.5138213,-3.82511546 58.7397544,-3.30058839 58.9324833,-2.84846184 C59.7972368,-0.815650359 59.595846,1.41010959 60.0332755,3.53691977 C60.8337861,3.96673059 61.5564111,4.52785258 62.0681171,5.28271233 C62.845529,6.4293529 63.2143847,7.76478017 62.824596,9.12374299 C62.6232051,9.82693933 62.2810572,10.4784723 62.0370783,11.1666001 C61.7764974,11.8992159 61.6169727,12.6605336 61.5404586,13.4341213 C61.4653882,14.1932864 61.4552826,14.9566849 61.4769375,15.7187202 C61.4884868,16.1133712 61.5094199,16.5073764 61.530353,16.9012381 C61.5491206,17.2543245 61.6120654,17.6227147 61.5271083,17.9686692 L61.5166382,18.0084853 C61.5498424,18.0033907 61.5823248,17.9969328 61.6148072,17.9898291 C61.8935062,17.9280483 62.1388565,17.8318969 62.4297544,17.8699269 C62.6564093,17.8993464 62.7740678,18.0873438 62.6780643,18.2997378 C62.6361981,18.3923014 62.5806171,18.4697965 62.5134868,18.5358108 C63.0981699,22.8339909 64.1195607,27.0631429 64.7915854,31.3476177 C65.0961981,33.2915251 65.2817086,35.2411011 65.1770431,37.2092616 L65.1660571,37.4044539 C65.0593429,39.2114825 64.7971754,41.2028461 63.8734164,42.7831689 C63.4417614,43.523032 62.8484164,44.179516 62.1294727,44.6523796 C61.8002456,44.8690789 61.4473424,45.0384201 61.0640502,45.1230907 C59.0775713,45.9095225 56.9770431,45.7165023 55.1038917,44.676848 C54.261515,44.209653 53.4213037,43.6650346 52.7333988,42.989105 C52.399191,42.6604684 52.0766048,42.2421383 51.8787509,41.7850607 C51.8794727,41.8876699 51.8608179,41.9925886 51.8816382,42.0936778 L51.9233065,42.2936065 C52.2352614,43.7789004 53.4242993,49.2682179 53.4400713,49.7290267 C53.4486467,49.9776569 51.3433827,49.971704 51.1149023,49.9792186 L51.1085572,49.9794508 C47.6988497,50.1207487 44.2870864,50.0452819 40.8792766,49.9052492 L40.6102474,49.8940626 C37.3053442,49.755002 33.7089657,49.5680809 30.4005255,49.4722166 L30.4074002,49.4172605 C30.4469799,49.1217583 30.6397314,47.8081551 30.6612037,47.7075089 L30.6619889,47.7040613 C30.7557547,47.3284253 30.9366294,46.1600183 30.8414199,45.7723992 C30.5961995,44.7740254 29.4910618,45.0020508 28.7135135,45.1078799 L28.5497348,45.1292003 C28.4238946,45.1464685 28.1176063,45.1911588 28.120478,45.1941996 C28.0378785,45.1086022 28.2344022,44.8658572 28.282796,44.8009385 L28.3215442,44.7474696 C28.5304692,44.4568206 28.7194609,44.1549117 28.698809,43.7804879 C28.6485695,42.8656869 27.33361,42.9173503 26.6874269,42.9807097 C26.6418794,42.9851585 26.6232562,43.0559087 26.6757333,43.0665284 L26.8032032,43.092935 C27.2131596,43.1804014 28.1237503,43.403369 28.103154,43.7405205 C28.0914604,43.9321057 27.8862438,44.073319 27.7608618,44.1940104 C27.6226312,44.3271155 27.4852667,44.4704097 27.383272,44.6337952 C27.186934,44.9482962 27.1423248,45.3725819 27.3365695,45.6999987 C27.5606566,46.0776226 27.958093,46.121734 28.3561461,46.08735 L28.3786769,46.0853216 C28.4662832,46.0771416 28.5538814,46.0687781 28.6414742,46.0603217 L29.1669886,46.0091898 C29.2971347,45.9966327 29.7152914,45.8877808 29.8374252,45.9628363 C30.0105202,46.0692485 29.8023442,46.5411794 29.7632931,46.6966001 L29.7612223,46.7076784 C29.7276734,46.9327576 29.7075707,49.2909139 29.7041752,49.4466719 C27.1258671,49.3871872 24.5471981,48.8173112 21.9689621,48.9512055 C19.9206945,49.057546 17.877985,49.2413816 15.8335431,49.4010359 L15.7819412,48.9647206 C15.2153111,44.2142814 14.3268437,37.945948 14.7532509,33.2471807 C14.7865995,32.8793659 14.2089181,32.8815903 14.1757861,33.2471807 C13.7348917,38.1059804 14.6999798,44.6327906 15.2613477,49.444878 C14.3910361,49.5105336 13.5203636,49.5702335 12.6486805,49.615726 L12.4263987,49.6270288 C9.46020571,49.7743816 6.39868046,49.7831578 3.49586356,49.1069132 C3.40635651,49.0861044 3.37603961,48.9971285 3.39480722,48.9232211 C3.36593398,48.9397247 3.32262412,48.9303966 3.31035299,48.890214 C2.97219501,47.782108 2.80043567,44.9608642 2.64718952,43.7399316 L2.63688468,43.6600835 C2.47952553,42.4739061 2.38929665,41.2742387 2.32433187,40.0808858 C2.19295863,37.693606 2.20883891,35.303456 2.38640933,32.9190463 C2.95160299,25.3137626 5.20227201,17.6302661 9.92593398,11.5181983 C11.0678706,10.0407684 12.3678882,8.68890933 13.927765,7.64344292 C15.4580467,6.61742205 17.1745607,5.89478017 18.9163389,5.30789824 C20.0676593,4.9196334 21.2370255,4.587409 22.4063917,4.25590215 C22.450664,4.23389737 22.4949363,4.2122115 22.5394225,4.19086579 L22.6063389,4.15910502 C23.0221136,3.96314286 23.4313917,3.74859622 23.857272,3.57423222 L23.9513917,3.5361797 C24.5685289,3.29011594 25.2875537,3.07233414 25.9556347,3.07984214 C27.0376593,2.53809393 27.9464445,1.71944423 27.8583812,0.406260926 C27.8222896,-0.133334638 28.6740502,-0.132617091 28.7043671,0.406260926 C28.7837685,1.83992042 27.8952667,2.85668493 26.7626417,3.53907241 L26.7680555,3.54454371 L26.7734692,3.55055316 C26.9503178,3.75003131 27.1394375,3.93515851 27.3437157,4.10736986 C28.5664974,5.14207306 30.1133812,6.00104892 31.6595431,6.56640444 C33.4735044,7.23013568 35.286022,7.42889628 37.1620607,6.89224266 C38.143029,6.61160992 39.0691382,6.1789289 39.9201769,5.61924201 C40.1800361,5.44846575 40.4290678,5.26556295 40.6679938,5.06960078 C40.4420607,4.76249054 40.261603,4.43170124 40.1100185,4.08082061 C39.805478,3.37475408 39.5534868,2.41826354 39.864596,1.6727319 C39.94111,1.48903979 40.2450009,1.37566732 40.35111,1.60958774 C40.6434516,2.24963992 40.765441,2.94135551 41.1061452,3.56712851 C41.2360748,3.80528245 41.3854938,4.03130985 41.5529586,4.2444214 C41.5529586,4.25590215 42.8320431,4.47331898 42.8320431,4.47331898 C44.3782051,4.47260144 45.8341382,5.06314286 47.2020079,5.80078147 C48.0105789,6.23693662 48.8051996,6.70070637 49.5975457,7.16517452 L51.1460924,8.07325375 C51.2601417,8.13998565 51.3879058,8.20456491 51.5156699,8.2735212 C51.3662509,7.54011611 51.293346,6.79243183 51.3424305,6.05120548 C51.416779,4.9332668 51.8542086,3.71063796 53.0127474,3.31232746 C53.5606171,3.12361252 54.1943847,3.18173386 54.7263741,3.39125766 C54.9717967,3.48812655 55.2388741,3.61656751 55.4669727,3.78806132 C55.577485,3.29438878 56.0429938,2.92413438 56.5107403,2.76060535 C56.6623248,2.70743509 56.8175185,2.67371037 56.9748776,2.65720678 C56.9702579,2.57798956 56.969796,2.49785388 56.9709047,2.4153302 L56.9719903,2.35296673 C56.9792086,1.98701761 56.9763213,1.62106849 56.9683812,1.25583692 C56.9539445,0.563403783 56.9207403,-0.114678408 56.8500009,-0.804958904 C56.790942,-1.37638748 56.6883346,-1.94129289 56.6121383,-2.51040331 L56.5805921,-2.75505996 C56.5163216,-3.23699974 56.4084888,-3.8372079 56.7900889,-4.20972081 Z M10.2792702,42.5160978 L10.1502025,42.4399323 C9.72750635,42.19197 9.29210221,41.9633167 8.78002729,42.078107 C8.29221391,42.1873894 7.94616813,42.5811076 7.76433891,43.0247671 C7.67844102,43.2343627 7.63361532,43.4457521 7.60048327,43.6690528 C7.58186004,43.7940496 7.56930018,43.9201226 7.54721215,44.0446171 L7.53982325,44.0831751 C7.52982243,44.1327289 7.51451876,44.2017875 7.50058187,44.2616751 C7.36747623,44.2034103 7.23343222,44.111062 7.12450792,44.0562414 L7.03665799,44.0123408 C6.83049714,43.9103057 6.61600506,43.8132081 6.39134419,43.7659935 C5.90468574,43.663743 5.36482835,43.8116295 5.08663468,44.245028 C4.84869458,44.6155629 4.85355881,45.0524351 4.94458624,45.4677763 L4.95107482,45.4967175 C4.99055898,45.6690724 5.1946206,46.3592811 5.4914375,46.2586093 C5.78009771,46.1606641 5.81864349,45.7792159 5.84051496,45.5250607 L5.84213941,45.5008054 C5.85198587,45.3091551 5.81376575,44.9064586 6.03208891,44.8337038 C6.30486884,44.7428624 6.82971215,45.1579635 7.06726673,45.2664566 C7.49206426,45.4603379 7.95872799,45.5175982 8.30441285,45.1403118 C8.61435029,44.8020767 8.64049595,44.3069402 8.72071328,43.8779609 L8.74142799,43.7698933 C8.78398177,43.551969 8.86631941,43.2037262 9.10896567,43.2125492 C9.30725264,43.2198682 9.52495687,43.4240822 9.6883794,43.5210228 C9.86876496,43.6280809 10.0560801,43.717272 10.2518407,43.793332 C10.7086875,43.9708532 11.21664,44.0275395 11.7026488,43.9751585 C11.984235,43.944878 12.1675801,43.811199 12.2671206,43.5480026 C12.3008301,43.4707228 12.3265273,43.3910033 12.3442843,43.3085571 C12.5020766,42.7192355 11.6399217,42.2985375 11.3220273,42.8257913 C10.955265,42.8119426 10.6138389,42.7137821 10.2792702,42.5160978 Z M63.3406329,38.5751846 C63.0777421,38.3887658 62.7207245,38.4288767 62.4857685,38.6389028 L62.4717757,38.6519214 C62.4066501,38.7144431 62.259806,38.8772348 62.1646981,39.0202792 L62.1349225,38.9972997 C62.1301675,38.9935775 62.1255387,38.9899135 62.1210701,38.9863145 L62.1081787,38.9757195 C61.9138618,38.8124775 61.7108107,38.6628689 61.4607685,38.5962087 C60.8092438,38.4221318 60.2171259,38.8557456 59.9326523,39.4117012 C59.7977421,39.6753999 59.7399956,39.9477091 59.672721,40.2320731 L59.6670052,40.2582691 C59.6398751,40.3908159 59.6046042,40.6594681 59.4877157,40.7250998 C59.4447667,40.7492094 59.3473195,40.7015643 59.2508829,40.6462414 C59.030941,40.5200965 58.8335202,40.3592942 58.6179815,40.2263327 C58.1122667,39.9143431 57.5376171,39.7854716 56.9696805,40.0103509 C56.4074463,40.2328624 56.0046646,40.7580352 55.9952086,41.3701031 C55.9882069,41.821225 56.2920977,42.6084462 56.8640044,42.5534821 C56.978559,42.5424318 57.126029,42.4723275 57.1445801,42.3410881 C57.1938812,41.9927906 56.9175643,41.5649172 57.2344481,41.2772524 C57.5408653,40.9991311 57.8583266,41.2330515 58.1357262,41.4259282 L58.3344765,41.5645752 C58.6573067,41.7874586 58.989779,41.9915585 59.3984974,42.0158956 C59.9156171,42.0466067 60.3930361,41.7627449 60.6532562,41.3251129 C60.8885009,40.9296008 60.8919657,40.48221 61.0758882,40.0760065 C61.1160942,39.9872459 61.2197491,39.9055173 61.1852456,39.8646171 C61.3246312,39.9368023 61.5044393,40.1447476 61.5912755,40.2029406 C62.0236523,40.4929733 62.6016945,40.4908206 62.980728,40.1063588 C63.131735,39.9533777 63.2278829,39.7645192 63.3396945,39.5843431 C63.3801171,39.5191898 63.4305731,39.4589159 63.4674586,39.3918969 C63.4809798,39.3673046 63.5031462,39.2757658 63.5213726,39.1941782 L63.5493864,39.0645519 L63.5523137,39.0433713 C63.5762901,38.8471796 63.5065744,38.6927535 63.3406329,38.5751846 Z M46.6869093,36.8622557 C46.1902174,36.6030059 45.5778882,36.7015969 45.1304252,37.0157391 C44.6286805,37.367983 44.3824639,37.9090855 44.2149991,38.4809706 C44.093154,38.8973633 44.0347579,39.4715447 43.6845977,39.7730581 C43.2770519,40.1239387 42.5938389,39.7514599 42.1636276,39.6131168 C41.6431153,39.4458565 41.0176488,39.3773307 40.5097685,39.6248128 C40.012066,39.8674155 39.7722016,40.3621644 39.7208072,40.8922166 C39.6728055,41.3868937 39.7441224,42.0383549 40.0280185,42.4523079 C40.0559533,42.4930646 40.1092967,42.4825884 40.1269815,42.439392 C40.3135748,41.9826732 40.2776276,41.4601553 40.42914,40.9875068 C40.5909023,40.4829993 40.9700079,40.3762283 41.4513248,40.5119883 C41.9533583,40.6534886 42.4130924,40.918407 42.9294181,41.0126928 C43.4798864,41.1132211 44.024941,41.0096073 44.4589058,40.6479635 C44.8240079,40.3437234 45.0451048,39.9005662 45.1945238,39.4590594 C45.3401171,39.0286027 45.3638653,38.4523405 45.6739639,38.095002 C45.7522104,38.0048063 45.8885643,37.8958826 46.0151734,37.8843301 C46.2032826,37.8671089 46.271279,38.0060261 46.4232245,38.1125819 C46.8240572,38.3937169 47.4638882,38.3993855 47.7093107,37.9048519 C47.7896505,37.7429015 47.8294956,37.5129993 47.7093107,37.3544932 C47.4986083,37.0767306 47.3255854,37.0790267 47.0475361,37.1390855 C47.0387009,37.1316804 47.0288031,37.1221169 47.017732,37.1092562 L47.0092069,37.0989746 C46.9356523,37.0063392 46.7928019,36.9175786 46.6869093,36.8622557 Z M27.0143442,33.9434886 C26.9978864,33.5717273 26.5476805,33.2149628 26.1925396,33.4747149 C26.1352262,33.5160457 26.0788512,33.5585962 26.023559,33.6026536 L26.0008935,33.6269785 L26.0008935,33.6269785 C25.9348315,33.6267489 25.8732045,33.6095277 25.8079556,33.5888348 L25.6938041,33.5523981 C25.394124,33.4579317 25.1060011,33.3818213 24.7861241,33.4515382 C24.235728,33.5716556 23.8865062,34.0436582 23.7072033,34.5447215 C23.5400995,35.0116295 23.5949586,35.4880091 23.5165678,35.9667567 C23.4422517,36.4206616 23.2076117,36.5978677 22.7670066,36.5006265 L22.7444252,36.4954455 C21.8680502,36.2868545 20.8695414,35.7034168 20.1012245,36.5032668 C19.271191,37.3672655 19.8141523,38.7395029 20.722721,39.2946693 C20.7624217,39.3189224 20.806309,39.2790267 20.7972861,39.237696 C20.676596,38.6795877 20.3244146,38.1473112 20.442434,37.5549041 C20.5242174,37.1443235 20.8112174,36.9500117 21.2207843,37.0154521 C22.0822174,37.1532211 22.8879252,37.8356086 23.7714463,37.3403575 C24.2127738,37.0928037 24.4559586,36.6279765 24.5658935,36.1518121 C24.6649287,35.7232211 24.6368495,35.239953 24.8266188,34.8356869 C25.0342174,34.393319 25.3838724,34.7140626 25.7606681,34.7744083 C26.2937403,34.8598682 27.0427121,34.5819622 27.0143442,33.9434886 Z M55.9148083,20.7238995 C55.916529,20.3545062 55.3390643,20.3540757 55.3373319,20.7238995 C55.3160379,25.4038147 53.1135871,29.7296204 52.7179516,34.3630385 C52.6866241,34.7311402 53.2642333,34.7290594 53.2954164,34.3630385 C53.6911963,29.728257 55.8935026,25.411349 55.9148083,20.7238995 Z M8.23056954,28.3845062 C7.92653433,28.0422361 7.48116461,28.1484331 7.11938292,28.3199269 C6.57598856,28.5774547 6.05598151,28.866985 5.55748504,29.2016491 C5.43484595,29.28388 5.51215405,29.4627645 5.65652025,29.4352825 C6.02212764,29.3653933 6.37799032,29.2871089 6.73269806,29.1737365 C6.99927025,29.0886354 7.27674208,28.965002 7.55471919,28.9211598 C7.53732306,28.9847345 7.51617342,29.0470176 7.49127025,29.1081526 C7.44565053,29.2335799 7.39266813,29.3563523 7.34769806,29.48221 C7.25823227,29.7327776 7.1776229,29.9869299 7.0994606,30.2413232 L7.0605537,30.3685245 C6.89806954,30.9018056 6.74020511,31.6779765 7.49004313,31.8421513 C7.76825077,31.9029669 8.04399479,31.7824942 8.30279712,31.687745 L8.35609595,31.6685766 L9.30010651,31.3359935 C9.41256778,31.2963849 9.6208882,31.2687593 9.71414877,31.1993007 L9.69923863,31.2705595 C9.67991665,31.3650714 9.66096426,31.4578474 9.62002201,31.552047 L9.59717675,31.6040285 C9.36268579,32.1324964 9.06704333,32.6612259 9.34052905,33.2453868 C9.57483539,33.7458761 10.1286963,33.9833842 10.6624181,33.8413098 C11.1696488,33.7063392 11.5366998,33.138544 11.2740977,32.6446562 C11.1762552,32.4605108 10.8899325,32.3704573 10.707998,32.4854696 L10.6591451,32.5177793 C10.6018417,32.5550006 10.5031986,32.6187821 10.5008002,32.6305923 C10.4872298,32.6341083 10.4730097,32.6376243 10.4585731,32.6411402 C10.4891787,32.5515903 10.5098231,32.4139648 10.5366752,32.3529733 L10.6354712,32.1299808 C10.8192575,31.7109483 10.9785542,31.2845792 10.8383283,30.8145519 C10.4367738,29.4687202 9.07503961,30.2339126 8.07053961,30.6179439 C8.08519278,30.5611142 8.09970158,30.5049302 8.11197271,30.4498943 C8.15528257,30.2550264 8.20265273,30.0612483 8.24951535,29.8672885 L8.34561037,29.4669858 C8.43210503,29.0981185 8.49943354,28.687306 8.23056954,28.3845062 Z M59.6240695,26.8823927 C59.6249357,26.8505336 59.5855238,26.826137 59.5578776,26.8446497 C58.9156646,27.2738147 58.4860308,28.1698878 58.7273389,28.9332864 C58.8444921,29.3039713 59.0936681,29.629092 59.4434674,29.8090528 C59.8783932,30.0326585 60.3586166,29.9475577 60.8155607,29.8518539 L61.0096438,29.8106045 C61.1464313,29.7820243 61.2814079,29.7610489 61.4206347,29.7992224 C61.4684199,29.8123536 61.5238565,29.853756 61.5692597,29.8626536 C61.5504921,29.8943692 61.5305695,29.9494051 61.5204639,29.9697834 L61.4873691,30.035994 C61.4541322,30.1031261 61.4217174,30.1728314 61.4013618,30.2433842 C61.3330766,30.479816 61.3499674,30.7336843 61.4605519,30.9543301 C61.6665625,31.3653412 62.0986505,31.5970372 62.5484956,31.6363588 C62.8165114,31.6599661 63.4917843,31.4266915 63.6514533,31.7093333 C63.9683371,32.2703118 64.8706981,31.8930254 64.6952931,31.2718447 C64.5766963,30.8518643 64.2402509,30.5804879 63.8233935,30.4669002 C63.6012861,30.406411 63.3713829,30.414591 63.145522,30.4393464 C63.0570544,30.4490476 62.968864,30.4626523 62.8802855,30.4720045 L62.8137685,30.4780939 C62.8310924,30.4767306 62.6302069,30.471923 62.5495062,30.4666132 L62.5667232,30.4206157 C62.5692522,30.4140728 62.5715701,30.4083962 62.5736153,30.4040431 C62.6634111,30.2131037 62.7299639,30.0228819 62.7245502,29.8095551 C62.7146611,29.424878 62.4641857,29.0892811 62.135103,28.9040822 C61.8317174,28.7332342 61.470441,28.6650672 61.1255502,28.7031689 C60.7464445,28.7450737 60.2076699,29.0435734 59.8348442,28.886287 C59.5539798,28.7677482 59.4586259,28.3543692 59.4542949,28.0834951 C59.4477984,27.6754977 59.6126646,27.2888115 59.6240695,26.8823927 Z M33.4665026,24.2064436 C32.4332738,23.7454912 31.5459991,24.5327841 30.9396611,25.2860652 C30.9084058,25.3249563 30.9477456,25.3903966 30.9970467,25.3601161 L31.0775763,25.310198 C31.57263,25.0015649 32.1215548,24.636894 32.7349991,24.7420209 C33.2904366,24.837203 33.4279721,25.1984614 33.317429,25.6907712 L33.28496,25.8292272 C33.1674952,26.3362191 33.0774203,26.860897 33.3699938,27.3323666 C33.6462386,27.7775329 34.1852298,27.97206 34.6900062,27.9839713 C35.2722869,27.9976746 35.7748685,27.7284665 36.3072567,27.5406819 L36.3493512,27.5260326 C36.5754287,27.4484658 37.400265,27.2456869 37.4116699,27.7075003 C37.4170114,27.918531 37.1896347,28.1665871 37.102221,28.3563066 C36.9878107,28.604578 36.9116576,28.8653346 36.913029,29.1410163 C36.9164217,29.8284984 37.4934533,30.3868937 38.1762333,30.0533777 C38.4416505,29.9236451 38.5100801,29.5515969 38.3716329,29.3125101 C38.1766834,28.9755274 38.0977413,28.9930465 38.2343573,28.6391927 L38.2737896,28.5395901 C38.441863,28.1131686 38.5757417,27.6741783 38.3868636,27.2266719 C38.0096347,26.3328232 36.8785255,26.2245453 36.0704357,26.5205336 L36.0409169,26.5316443 C35.537936,26.7253449 34.0315779,27.5014107 34.1354234,26.4039322 C34.176279,25.9716099 34.3082298,25.5570111 34.2159798,25.119953 C34.1302262,24.7141083 33.8453195,24.375426 33.4665026,24.2064436 Z M28.4878178,20.5355434 C28.2992033,20.2053999 27.6660132,20.3235082 27.7184903,20.7426275 L27.7352908,20.8730762 C27.7567553,21.0516266 27.7614649,21.2193729 27.6373565,21.3781592 C27.4867826,21.5708924 27.2290167,21.6291572 26.9950713,21.599666 C26.4997509,21.5373112 26.1838776,21.0808076 25.6387509,21.1874351 C25.1962685,21.2739713 24.8907174,21.633893 24.7137967,22.0263196 C24.5264815,22.441923 24.5304516,22.892471 24.3909217,23.3204162 C24.2302421,23.8125819 23.8875889,23.7899074 23.4596875,23.617696 L23.3675876,23.5800708 C22.9582346,23.410899 22.5475147,23.2229365 22.0913847,23.3037691 C21.3338231,23.4381657 20.6814322,24.5960718 21.3912086,25.1551846 C21.5193336,25.2560718 21.7432456,25.2034038 21.7378319,25.0125362 L21.737124,24.9763675 C21.7335281,24.6290337 21.8216829,24.1808247 22.2221083,24.098955 C22.6467614,24.0121318 23.1265625,24.3973112 23.5208988,24.508244 C24.5422174,24.7954064 25.1240132,24.0312903 25.2974692,23.1275395 L25.3038049,23.0929133 C25.3591879,22.7765626 25.4029287,22.1912198 25.735765,22.0431102 C25.9132632,21.9641083 26.1025995,22.1584918 26.2509357,22.2367763 C26.4814164,22.3583288 26.7287157,22.4355369 26.989441,22.4552694 C27.9539516,22.5283875 29.0499076,21.5200183 28.4878178,20.5355434 Z M52.6239692,19.2872264 C52.306147,19.1503901 51.8321928,19.2265219 51.7545238,19.6388245 L51.7074383,19.898277 C51.6150932,20.3994122 51.4680545,21.0260031 50.9724921,21.2065219 C50.6625379,21.319392 50.306603,21.1215643 50.0286259,21.0009446 C49.694779,20.8559282 49.3693055,20.7315773 49.0036981,20.697135 C48.2618724,20.6272459 47.7093107,21.0538995 47.4469252,21.7206445 L47.4240374,21.7800251 C47.2124151,22.3402564 46.9264018,23.4117388 47.3897562,23.8661826 C47.4573917,23.9325558 47.5937456,23.9649172 47.6767562,23.9029928 C47.9505206,23.6988008 48.0198038,23.3632342 48.1137877,23.0485479 L48.1219093,23.0216295 C48.2216664,22.6947867 48.3034498,22.334865 48.4835467,22.0403836 C48.8183319,21.4931102 49.6918195,22.1180222 50.1119974,22.2623209 C50.8019956,22.4993268 51.5175467,22.3608402 52.0448442,21.853893 C52.377897,21.5336517 52.5748125,21.1283092 52.710228,20.6992877 C52.7967033,20.7437038 52.8864269,20.7821644 52.9830801,20.8081396 C53.3512139,20.9072329 53.7879217,20.8549954 54.0682086,20.5777352 C54.594279,20.0574416 54.3089393,19.1241279 53.5068407,19.275028 C53.348904,19.3047345 53.2452491,19.4547019 53.2264815,19.6078982 L53.2157262,19.6320796 L53.2157262,19.6320796 C53.0139023,19.5657782 52.7932386,19.3600574 52.6239692,19.2872264 Z M15.4557368,14.638668 C14.7063319,13.8722557 13.405809,14.2877156 12.8932368,15.1006967 C12.7869111,15.2692485 12.9625326,15.4829341 13.1491981,15.4317012 C13.5953618,15.3095029 14.2249428,14.8284592 14.6964428,15.1346367 C15.0459533,15.3615969 14.8558231,15.9547932 14.823846,16.2866588 L14.8192388,16.3361461 C14.778781,16.7878967 14.7696081,17.4059993 15.1235502,17.7441409 C15.3273107,17.9387922 15.639766,17.9124941 15.9084488,17.8846795 L15.9938618,17.8758826 C16.3106012,17.8442387 16.6252474,17.7887006 16.9286329,17.6918317 C17.2075484,17.6028779 17.4718257,17.4819478 17.7338982,17.3538738 L17.7993776,17.3217208 C17.9153759,17.2645323 18.3022051,17.0377156 18.418059,17.1802205 C18.4784762,17.2545584 18.3287685,17.5801813 18.2976576,17.6527971 C18.1801435,17.9258956 18.0307245,18.1830646 17.9229551,18.4610424 C17.7330414,18.9507684 17.7171611,19.5032798 17.9838776,19.9706184 C18.2422931,20.4234625 18.8022174,20.7903444 19.2984762,20.4424775 C19.5825889,20.2432864 19.5817949,19.880925 19.2984762,19.6815903 C19.1485519,19.5761109 18.9974005,19.5065806 18.9354674,19.3296334 C18.8546224,19.0989093 18.9586495,18.8541901 19.0593631,18.6405988 L19.1799187,18.3865552 C19.4470085,17.8192097 19.7138344,17.1666809 19.3407033,16.5867371 C18.95539,15.9879439 18.1722755,15.9784723 17.5798688,16.2278917 C17.2417632,16.3702531 16.9332526,16.5611924 16.5809269,16.6713359 C16.3371646,16.7476112 16.0924639,16.7985571 15.8427826,16.8264697 C15.7871294,16.5278265 15.8658812,16.1935212 15.8666752,15.8968154 C15.8679745,15.4461239 15.7835202,14.9739061 15.4557368,14.638668 Z M54.0998248,3.9774938 C52.8351769,3.79308415 52.2230643,4.91748076 52.1357227,6.00025962 C52.0570431,6.98329941 52.2172896,7.96920939 52.467765,8.92505414 C52.561603,9.27945075 52.6669903,9.62961383 52.7774305,9.97403653 C52.9550009,10.5273372 53.1477298,11.0797769 53.3823248,11.612197 C53.4537861,11.7729276 53.5259692,11.9343757 53.6068143,12.0893659 C53.8837349,12.3150672 54.1206863,12.6191056 54.3361076,12.9112891 L54.4776365,13.104302 L54.4776365,13.104302 L54.5155995,13.1563588 C54.8815678,13.6543366 55.1941206,14.1709706 55.4496488,14.7328102 C55.6930089,15.2678954 55.8741705,15.82576 56.0149576,16.3952466 L56.0495774,16.5374177 C56.1578803,16.9756451 56.3175603,17.4987487 56.1245607,17.9065936 C56.503522,18.0227645 56.8803178,18.128244 57.2830995,18.1842127 C57.8389093,18.2617078 58.417096,18.2667306 58.9779586,18.2466393 C59.5198732,18.2269067 60.0611813,18.1848654 60.6007709,18.1277004 L60.9895144,18.0851592 C61.0298033,18.0806068 61.0700654,18.0758869 61.1102474,18.0708402 C61.0950889,18.052184 61.082096,18.0313751 61.0727121,18.0084853 C60.9341979,17.67837 60.9520715,17.2956119 60.9366972,16.9405691 L60.9348424,16.9012381 C60.9146312,16.5073764 60.90236,16.1133712 60.8973072,15.7187202 C60.8879234,14.9782114 60.9081347,14.2355499 60.9897016,13.4986288 C61.0603688,12.8536256 61.1708812,12.2084788 61.3433988,11.58206 C61.51736,10.9470307 61.7829938,10.3507489 62.0284164,9.74083366 C62.2709516,9.13809393 62.470971,8.51892237 62.4492438,7.8615773 C62.435529,7.44396477 62.3431347,7.03783301 62.1864974,6.65394521 C62.1792069,6.65968558 62.1699674,6.66399087 62.1590678,6.66327332 C61.6675009,6.64533464 61.2019199,6.50397782 60.7269551,6.38486497 C60.2231171,6.25793085 59.7070079,6.15381474 59.1916206,6.09210568 L59.0820772,6.07934994 C58.6525168,6.03140709 58.1845714,6.00805823 57.7876593,6.1911272 C57.3581699,6.38995956 57.0874833,6.83196869 56.9243495,7.25596738 L56.9061634,7.30484054 C56.6163289,8.10872785 56.6827815,9.18173516 57.5790502,9.56216438 C57.8569551,9.68055969 58.4914445,9.75303196 58.6343671,9.37847228 C58.69861,9.20769602 58.566515,8.95519113 58.5167086,8.79374299 C58.4582403,8.60136856 58.4199833,8.41193607 58.4243143,8.21102283 C58.4278173,8.03482276 58.5632393,7.90188409 58.735541,7.88765581 L58.7513037,7.88669145 C59.0645783,7.87312981 59.7106171,7.51435616 59.7734164,8.03091846 C59.7856875,8.13137508 59.7084516,8.23685453 59.6268847,8.2857195 C59.4623072,8.38251663 59.2905114,8.44716765 59.1114974,8.48656099 C59.1360396,8.59419309 59.1706875,8.69967254 59.2046857,8.80443444 C59.2248248,8.79438878 59.2472016,8.78800261 59.271022,8.78577821 C59.535934,8.76425179 59.7979586,8.80594129 60.0628706,8.80873973 L60.2076783,8.80974374 C60.4132765,8.81177075 60.5925341,8.82274519 60.7919199,8.92857012 C60.9759868,9.02615656 60.9435044,9.27084018 60.7919199,9.37560209 C60.394191,9.64970515 59.7207227,9.48897456 59.3063917,9.21056621 C59.3244375,9.35192303 59.3157755,9.49615003 59.2551417,9.64755251 C59.0761276,10.0968089 58.5629058,10.3206119 58.1038935,10.3399856 C57.6959868,10.3572068 57.3061981,10.2294834 56.9806523,10.0056086 C56.9142438,10.2416817 56.8074129,10.4684266 56.7612157,10.713182 C56.7005819,11.0345714 56.772765,11.4105662 56.6602315,11.7126536 C56.5475537,12.0169654 56.1122896,12.2206771 55.8603706,11.9221774 C55.491515,11.4859087 55.6062861,10.7949106 55.9303882,10.3529015 C56.1029058,10.1189811 56.4161805,9.8506184 56.7352298,9.80828311 C56.5136276,9.60098369 56.3360572,9.34474755 56.2241734,9.06203392 C56.2162333,9.06562166 56.2068495,9.0663392 56.1967438,9.06346902 C55.1594727,8.78154468 54.5950009,7.84722635 54.560353,6.8663392 C54.4838389,6.9208728 54.4045097,6.96973777 54.3214269,7.0134364 C54.1229234,7.11970515 53.8681171,7.02635225 53.8067614,6.80606523 C53.7504586,6.60084671 53.9143143,6.34762427 54.1445783,6.36477365 C54.2759516,6.37553686 54.4080467,6.3762544 54.5386981,6.35472798 C54.5567438,6.3518578 54.5740678,6.34834181 54.5921136,6.34468232 C54.6036629,6.26933986 54.6188213,6.19399739 54.6375889,6.11937247 C54.2456347,6.1638604 53.8356347,6.0999987 53.4566734,6.01676321 C53.1304058,5.94572603 53.2061981,5.42980952 53.5346312,5.44200783 L53.5873938,5.44429764 C54.0183201,5.46486601 54.6544913,5.53402609 55.0237685,5.262621 C55.0887333,5.16933986 55.1609164,5.08108154 55.2388741,4.99784605 C55.2489798,4.97703718 55.2576417,4.95486497 55.2655819,4.9318317 C55.4640854,4.36353425 54.5235396,4.03920287 54.0998248,3.9774938 Z M42.7474445,11.972334 C42.2550836,11.8414534 41.7369533,12.0197639 41.3983424,12.3893007 C41.1138076,12.699919 40.966455,13.0813618 40.8347393,13.4712805 L40.7595728,13.6956106 C40.6500937,14.0132031 40.5243765,14.265216 40.1331893,14.1441344 C39.6318055,13.9889289 39.197191,13.7185571 38.6519921,13.7398682 C38.1563829,13.7593138 37.6713847,13.9712055 37.3263495,14.3263914 C36.9734304,14.6896626 36.8049149,15.1958599 36.8798413,15.6945829 L36.8847333,15.7251063 C36.9237843,15.954865 37.2618178,16.774878 37.6201347,16.3973764 C37.7800202,16.2290398 37.7484762,16.0426928 37.7864445,15.8287919 C37.8225361,15.6250085 37.899772,15.4251716 38.026309,15.2599204 C38.250654,14.9670176 38.6114974,14.8528558 38.9642562,14.9564697 C39.4295484,15.0931624 39.8404868,15.3749432 40.3417262,15.3815447 C40.8690238,15.3885766 41.3167033,15.1167697 41.607529,14.6900444 C41.8423407,14.3455499 41.9260731,13.9423601 42.0913002,13.5678004 L42.107208,13.5320709 C42.2459338,13.2238635 42.3405016,13.1126012 42.658262,13.2599652 L42.7692768,13.3128929 C43.2449953,13.5376069 43.7801559,13.7432738 44.2720238,13.4264436 C44.729015,13.1321774 44.9238371,12.540775 44.5394621,12.1101748 C44.3273882,11.8724514 43.836471,11.9129211 43.6986734,12.2178787 C43.6744921,12.2703314 43.6520431,12.3235016 43.6299551,12.3768154 C43.5878724,12.3640431 43.5469445,12.348544 43.50811,12.3268741 C43.250272,12.211349 43.02636,12.0465284 42.7474445,11.972334 Z M28.3744181,8.49079452 C27.812804,8.18995205 27.3439388,8.78169746 27.4336531,9.31601752 L27.4379975,9.33944501 C27.4413092,9.35554664 27.4488985,9.39076625 27.4583424,9.43106849 C27.4296857,9.42762427 27.4013178,9.42260144 27.373022,9.41542596 L27.24254,9.39956481 C27.0374455,9.37586632 26.838594,9.36354729 26.6332896,9.42898761 C26.1487245,9.58354729 25.9104481,10.0517469 25.8987544,10.5315708 C25.8871329,11.0097443 26.1360202,11.395426 26.2091417,11.8522166 C26.2839497,12.3193641 25.7975306,12.1859743 25.4799782,12.151797 L25.4675326,12.150501 C25.025772,12.1060848 24.561346,12.1052955 24.1942227,12.3915251 C23.8150449,12.6870828 23.6470748,13.197833 23.7006347,13.6654586 C23.7489974,14.0878069 24.0148477,14.737833 24.4964533,14.8045649 C24.544022,14.8111663 24.5981593,14.8007619 24.6225572,14.7535473 C24.8173072,14.377122 24.5463319,13.9614468 24.5769375,13.5642844 C24.610647,13.1275134 24.8907896,13.0548258 25.2770414,13.0830972 C25.6518882,13.1105075 26.0257967,13.1895812 26.3960238,13.0784331 C26.7976505,12.9577417 27.0891259,12.6151846 27.171559,12.211062 C27.2624375,11.7656804 27.0954058,11.3512968 26.987059,10.9280157 C26.9510396,10.7874481 26.9333548,10.6460196 26.9581857,10.5022948 C26.9635273,10.471225 26.9906681,10.4425232 27.000485,10.4302531 C27.0621294,10.4187723 27.1543794,10.44812 27.2071452,10.4537169 L27.2820017,10.4610557 C27.6887491,10.4975853 28.0805982,10.4730865 28.3712421,10.1390007 C28.5201971,9.96781949 28.5751851,9.75860742 28.5603476,9.53780734 L28.5528648,9.44862143 C28.5449244,9.36286607 28.5297161,9.24967254 28.4848583,9.20245793 L28.4842808,9.20016177 L28.4842808,9.20016177 C28.499331,9.18008839 28.5136097,9.15944993 28.5266906,9.13803451 L28.5393565,9.11635225 C28.6639445,8.90991389 28.5916893,8.60718069 28.3744181,8.49079452 Z M57.1474674,3.25348858 C56.5880484,3.25348858 56.059596,3.43502805 55.636603,3.92941813 C55.7874657,4.07221005 55.9080114,4.23796347 55.9744921,4.43241879 C56.1815854,4.31976386 56.401022,4.2315773 56.6255114,4.16907893 C57.310529,3.9789289 58.2474657,3.98179909 58.8234868,4.44892237 C59.1252121,4.69288845 58.7938917,5.1305923 58.4690678,5.05524984 C58.1781699,4.98780039 57.925529,4.86294716 57.6201945,4.84859622 C57.3552826,4.83568037 57.0954234,4.87012264 56.8413389,4.94618265 C56.4537157,5.06249706 56.1014621,5.28271233 55.8423248,5.58623483 C55.7557051,5.68812655 55.6799129,5.79862883 55.6163917,5.91781344 C55.132765,6.83046184 55.4972896,8.1392681 56.1649833,8.89054012 C55.9029586,8.02517808 56.1642614,7.00482583 56.6861452,6.28806784 C57.314452,5.42501444 58.2542038,5.32717724 59.2442133,5.46188014 L59.2768688,5.46640444 C60.2346664,5.60065753 61.4206347,5.83522374 62.136691,6.53483235 C62.0652298,6.37338421 61.982941,6.2169589 61.8904745,6.06555643 C61.3477298,5.17723288 60.4476065,4.48408219 59.5135572,3.98969211 C59.3569199,3.90573907 59.1988389,3.82824397 59.0414798,3.75648924 C58.4430819,3.48310372 57.77611,3.25348858 57.1474674,3.25348858 Z M57.4534516,-3.52589824 L57.4512594,-3.51579942 C57.4508049,-3.51393912 57.4503237,-3.51202566 57.4498424,-3.5101122 C57.4167694,-3.21833138 57.494848,-2.88339987 57.5346603,-2.58894442 L57.5400713,-2.54716373 C57.6238037,-1.87697456 57.7342438,-1.20606784 57.7703354,-0.530855838 C57.8054754,0.11845923 57.7919456,0.791964834 57.7134229,1.4384864 L57.7017614,1.53065753 C57.6555643,1.88297326 57.6281347,2.2962805 57.5083829,2.65792433 C57.9688389,2.70169472 58.4293671,2.84879191 58.848029,3.00528898 C58.9981699,3.06190346 59.1475889,3.12145988 59.2962861,3.1846758 C59.1100537,2.20084671 59.010441,1.20273842 58.8083283,0.221851272 L58.7685538,0.0266422652 C58.5488423,-1.05842552 58.3425975,-2.15048193 57.7746664,-3.12120157 C57.6988741,-3.25036008 57.6173072,-3.35870972 57.5249129,-3.47423483 C57.5047016,-3.50071233 57.4808812,-3.51793346 57.4534516,-3.52589824 Z" id="ðŸ–-Ink" fill="#000000"></path>
                        </g>
                        <g id="head/Bun" transform="translate(16.852113, 0.915851)" fill-rule="evenodd">
                            <path d="M8.69314771,1.90292962 C13.2417241,1.656095 17.2716499,0.385662297 20.4734222,3.22894722 C23.9265235,0.665522234 25.9411538,-0.128032035 26.517313,0.84828441 C27.0964127,1.82958345 26.2933119,3.14690493 26.5086511,4.35780223 C27.9127596,6.73723278 27.833374,10.7646842 27.9127596,11.7085068 C28.1128522,14.0874257 29.3731959,23.0393066 29.3731959,25.1650678 C29.3731959,26.2501366 28.4732359,29.0919618 27.9127596,30.6734468 C26.6652653,34.1934771 24.2840016,35.9874298 20.3788245,35.9874298 C16.4736475,35.9874298 10.0996262,32.7428355 8.05537136,29.8621155 C7.87621441,29.6096513 6.7176691,30.3461962 5.50587892,29.0685529 C4.19309252,27.6844249 3.46483202,25.0444265 3.46483202,23.4707162 C3.46483202,21.4737366 2.16651562,20.0888514 2.31753024,17.5326553 C2.65478881,11.8239431 3.82595863,2.16705419 8.69314771,1.90292962 Z" id="ðŸŽ¨-Background" fill="#FFFFFF"></path>
                            <path d="M8.18497148,-4.73423353 C8.24416162,-4.73782127 8.30407359,-4.73495108 8.36398556,-4.72913894 C8.42967218,-4.72626875 8.4953588,-4.71988258 8.56104542,-4.70689498 C8.89525317,-4.64310502 9.19336937,-4.46730594 9.42435528,-4.21975212 C9.43085176,-4.21329419 9.43590458,-4.20604697 9.44167923,-4.1996608 C9.54995387,-4.11857795 9.65028838,-4.02666014 9.74051725,-3.92914547 C9.75639754,-3.94421396 9.77155599,-3.9592107 9.7881581,-3.97427919 C9.83579894,-4.01596869 9.88560528,-4.05543379 9.93757711,-4.09267449 C10.1550679,-4.27805752 10.4102031,-4.41282375 10.684663,-4.48950042 L10.7222074,-4.49959556 C10.7294257,-4.50174821 10.736644,-4.5031833 10.7438623,-4.5046184 C10.9387567,-4.5691259 11.1437567,-4.60213307 11.3502004,-4.60148728 C11.5970665,-4.6093803 11.8446546,-4.5691259 12.0756405,-4.47448141 C12.3492144,-4.36175473 12.5874187,-4.18387476 12.7873658,-3.96997391 C12.9187391,-3.86377691 13.0335102,-3.74688845 13.1547778,-3.61837573 C13.4052532,-3.35223744 13.6030349,-3.04082192 13.7279116,-2.69776256 C13.7452356,-2.64968689 13.760394,-2.60024788 13.7741088,-2.55073712 C14.0794433,-2.58582518 14.3862215,-2.61093933 14.6929996,-2.62320939 C15.037313,-2.64394651 15.3816264,-2.65119374 15.7266616,-2.63964123 C16.677313,-2.60885845 17.6070313,-2.44231572 18.5071546,-2.13735812 C18.6876123,-2.08433138 18.8630173,-2.01688193 19.0319257,-1.93364644 C19.2968377,-1.82888454 19.547313,-1.69542074 19.7833518,-1.5339726 L19.984425,-1.41543379 C20.0854236,-1.35576256 20.1864222,-1.29531637 20.2843025,-1.23332029 C20.5174539,-1.08471624 20.7383342,-0.918317025 20.9476651,-0.738930202 C21.1685454,-0.561624266 21.3771546,-0.368604044 21.5756581,-0.166327462 C21.6295789,-0.111578604 21.6816229,-0.0561121983 21.7329451,-0.000287018917 C22.1905137,0.24518591 22.5969768,0.559471624 22.9760824,0.93431833 C23.276725,0.762393999 23.5880507,0.606542727 23.9093377,0.467984344 C24.2406581,0.325192433 24.6614856,0.178095238 25.0086863,0.0812981083 C25.3205173,-0.00552511415 25.6287391,-0.0650815395 25.9412919,-0.108923679 C26.0834926,-0.133320287 26.2264151,-0.152694064 26.3700595,-0.169197652 L26.3642849,-0.166973255 L26.3642849,-0.166973255 C26.4653412,-0.177808219 26.5656757,-0.187136334 26.6674539,-0.195746901 L26.6645665,-0.196464449 L26.6645665,-0.196464449 C26.7078764,-0.199980431 26.7519081,-0.203639922 26.795218,-0.206510111 L26.9006053,-0.215048924 L26.9006053,-0.215048924 C26.9323658,-0.217919113 26.978563,-0.144083496 26.9814504,-0.118251794 L26.9850595,-0.091702544 L26.9850595,-0.091702544 C27.0088799,-0.0650815395 27.0305349,-0.0356621005 27.0456933,-0.0177234181 C27.0644609,-0.0192302674 27.0832285,-0.0205936073 27.1019961,-0.0213829093 C27.1582989,-0.0263339856 27.2232637,0.0733333333 27.256468,0.11136334 L27.2864872,0.146427789 C27.3206896,0.187308715 27.3548591,0.234395103 27.3604116,0.285727332 C27.397225,0.583581213 27.4318729,0.882009132 27.4636335,1.18050881 C27.4759046,1.4065362 27.4636335,1.63041096 27.4260982,1.85213307 C27.3979468,2.06739726 27.3690736,2.28266145 27.3402004,2.49720809 C27.2940032,2.64796477 27.2485278,2.79864971 27.2030525,2.94926288 C27.1850067,3.00673842 27.1647954,3.0633529 27.145306,3.12003914 C27.0298852,3.49861709 26.8945419,3.86714938 26.733357,4.22427267 C26.8509433,4.35357469 26.9605894,4.48761252 27.0625842,4.6260274 C27.086982,4.65092629 27.1115243,4.67568167 27.1344785,4.70151337 C27.140975,4.69153947 27.1503588,4.68221135 27.1604644,4.67711676 C27.1951123,4.66204827 27.2203764,4.67998695 27.2420313,4.70947815 C27.4694081,4.92538813 27.6347074,5.17731898 27.7372074,5.46498369 L27.8010493,5.61500954 C27.8116362,5.64009712 27.8221428,5.66520331 27.8324891,5.69029354 C27.914056,5.90849967 27.9768553,6.13237443 28.0288271,6.35904762 C28.075313,6.53742988 28.1086616,6.71825179 28.1301722,6.90101109 C28.2860877,7.42144814 28.4093764,7.95386823 28.5256634,8.47911285 C28.5439979,8.5617743 28.5353359,8.63553816 28.5087004,8.6983953 L28.5766968,8.76426614 L28.5766968,8.76426614 L28.6928682,8.87927469 C28.8880466,9.07271182 29.0871516,9.27605675 29.2321194,9.50621005 C29.3822602,9.74515329 29.4927004,10.0006001 29.6154116,10.2539661 L29.6418487,10.3077821 L29.6418487,10.3077821 L29.6958845,10.415706 C29.7543077,10.5335404 29.782335,10.5986489 29.8341264,10.7411089 C29.9200243,10.9786888 29.9662215,11.2175603 29.9878764,11.4694912 C30.019637,11.8360861 30.015306,12.2357599 29.8536158,12.5765949 C29.852894,12.5794651 29.8514504,12.5816895 29.8500067,12.5837704 C29.7763799,12.9131963 29.5944785,13.2187997 29.3180173,13.4139726 C29.2588271,13.4692955 29.195306,13.5188063 29.1274539,13.5581996 C28.9646088,13.6532603 28.8150685,13.6617579 28.6373221,13.6177833 L28.6149539,13.6120157 C28.5925771,13.6062753 28.5723658,13.6012524 28.5528764,13.5969472 C28.5817496,13.6206262 28.5961863,13.6486823 28.5528764,13.6687019 C28.5110102,13.6887932 28.473475,13.700274 28.4381053,13.7045793 C28.4532637,13.723953 28.4547074,13.7447619 28.4229468,13.761983 C28.3536511,13.798578 28.2973482,13.8101305 28.2396018,13.800013 L28.2517451,13.899767 C28.346443,14.6546383 28.4311521,14.8039232 28.5052356,15.6147619 C28.5543201,16.4448924 28.6322778,17.2729419 28.7398306,18.0974755 L28.776901,18.3970745 C28.8956381,19.3466455 29.0291474,20.3031783 29.233563,21.2373907 C29.3367849,21.6456751 29.4255701,22.0568297 29.5006405,22.4708545 C29.6067496,22.7858578 29.6810982,23.1080365 29.7222426,23.4366732 C29.7821546,23.7710502 29.8232989,24.1082975 29.8471194,24.4484149 C29.9301299,24.6659035 29.9705525,24.8868363 29.968387,25.1121461 C29.9792144,25.4149511 29.9691088,25.7171102 29.9366264,26.0177626 C29.9185806,26.3305414 29.8752708,26.6405219 29.8066968,26.9476321 C29.7453412,27.3689041 29.6334574,27.7757534 29.4732109,28.1704044 C29.344725,28.6109067 29.1873658,29.0429419 29.0083518,29.4655055 C28.7304468,30.1199087 28.3947954,30.7276712 28.0129468,31.3268232 C27.6549187,31.8886628 27.2709046,32.4296934 26.8320313,32.9327658 C26.2646722,33.5827919 25.6179116,34.1783562 24.9090736,34.6806393 C24.5048482,34.9777756 24.0782461,35.2446314 23.6321546,35.4728832 C23.0864504,35.7526549 22.5320842,36.004514 21.9409046,36.1745727 C21.5720489,36.2807697 21.1966968,36.3539596 20.8170137,36.41 C20.0713623,36.519713 19.2990032,36.5032094 18.5490208,36.3747684 C18.065394,36.3101892 17.5897074,36.1982518 17.1400067,36.0382387 C16.7704292,35.9062818 16.4181757,35.7548076 16.0659222,35.5840313 C15.8847426,35.4972081 15.7100595,35.3967515 15.5425947,35.2840965 C15.2610806,35.1025571 14.9976123,34.8974103 14.7521898,34.6705936 C14.6720665,34.6024266 14.5941088,34.5328245 14.5175947,34.4596347 C14.4807813,34.4273451 14.5009926,34.3792694 14.5435806,34.3678604 L14.5565736,34.3663536 L14.5565736,34.3663536 C14.5399715,34.3512851 14.5226475,34.3362166 14.5060454,34.3204305 C14.5024363,34.3175603 14.4995489,34.3140444 14.4966616,34.3103849 C14.4887215,34.3032094 14.4800595,34.2961057 14.4728412,34.2889302 C14.4446898,34.2644618 14.4728412,34.2099282 14.4973835,34.1970124 C14.5067673,34.1919896 14.5190384,34.1913438 14.5327532,34.1927071 C14.5298658,34.1898369 14.5277004,34.1876843 14.524813,34.1856034 C14.5219257,34.183379 14.5212039,34.1776386 14.5219257,34.1718982 L14.5110982,34.1633594 L14.5110982,34.1633594 C14.4742849,34.130998 14.4930525,34.0837117 14.5363623,34.0714416 C14.557536,34.0650634 14.5923978,34.0683234 14.6287805,34.076182 L14.6424715,34.0793346 L14.6179292,34.0563731 C14.5746194,34.0190607 14.5883342,33.9774429 14.6417496,33.9645988 C14.6815947,33.966895 14.7209778,33.9723598 14.7598989,33.9818016 L14.7890032,33.9896412 C14.8034398,33.993229 14.8171546,33.9975342 14.8315912,34.0019113 C14.8070489,33.9795956 14.7825067,33.9581409 14.7586863,33.9358252 C14.7348658,33.9150881 14.7601299,33.8554599 14.7817849,33.8433333 C14.8113799,33.8268297 14.8691264,33.8497195 14.8958342,33.8690933 C14.9615208,33.8763405 15.0481405,33.9049706 15.0799011,33.9322374 C15.1672426,34.0154729 15.2574715,34.0951207 15.349144,34.1726158 C15.404725,34.1898369 15.4574187,34.2127984 15.4978412,34.2472407 C15.6017849,34.3462622 15.7100595,34.4396151 15.8204996,34.5299543 L15.9044459,34.5874644 C15.9185083,34.5969254 15.9326241,34.6062535 15.9468201,34.6153425 C16.1056229,34.7079061 16.2644257,34.7997521 16.4225067,34.8923157 C17.002137,35.0874886 17.5817673,35.2827332 18.1606757,35.4771885 L18.2371898,35.5000783 L18.2371898,35.5000783 L18.7994961,35.5689628 L18.7994961,35.5689628 C19.1690736,35.6077104 19.5393729,35.6056295 19.9089504,35.5632224 C20.1861335,35.5668819 20.4611511,35.5395434 20.7318377,35.4835747 C21.191644,35.4060796 21.6427884,35.2920613 22.0816616,35.1326941 C22.5869433,34.9497195 23.0684046,34.7086954 23.5383165,34.4489432 C23.707225,34.3548728 23.8732461,34.2551337 24.0363799,34.149726 C24.0890736,34.1124136 24.1417673,34.0743118 24.1944609,34.0355643 C24.5416616,33.7765297 24.8737039,33.500274 25.193475,33.2082322 C25.3436158,33.0711807 25.487982,32.9284605 25.6272954,32.7806458 C25.6475067,32.7590476 25.6669961,32.7383105 25.6864856,32.7167123 C25.8200243,32.5717678 25.949232,32.4218721 26.0726651,32.2668102 L26.1903236,32.1348532 L26.1903236,32.1348532 C26.6652884,31.547182 27.0875595,30.9150228 27.4672426,30.2641357 C27.8440384,29.6190607 28.1544257,28.9402609 28.4012919,28.2377821 C28.4806933,27.9873581 28.5499891,27.7334181 28.6077356,27.4765362 C28.7145665,27.1679191 28.7845842,26.8515525 28.8170665,26.5286562 C28.827894,26.4654403 28.836556,26.4022962 28.845218,26.339152 L28.8501906,26.2396149 C28.8509124,26.222997 28.8514738,26.2064057 28.8517144,26.1899022 C28.8661511,26.0895173 28.8784222,25.9889889 28.887806,25.8885323 C28.8935806,25.7874299 28.8971898,25.686184 28.8979116,25.5850098 L28.8899715,24.9643314 L28.8899715,24.9643314 C28.887806,24.9449576 28.8856405,24.924938 28.8841968,24.904775 L28.8683165,24.7677952 C28.8336687,24.4850098 28.8069609,24.2015786 28.772313,23.9189367 C28.772313,23.9174299 28.772313,23.9152772 28.7715912,23.9131246 C28.7585982,23.8076451 28.7448835,23.7014481 28.7290032,23.5952511 C28.721063,23.532107 28.7109574,23.4689628 28.7015736,23.4058187 L28.6835278,23.2953881 L28.6835278,23.2953881 C28.6500529,23.1032648 28.6093935,22.9127347 28.5600989,22.7238939 L28.5384398,22.6430659 L28.4128412,22.015212 L28.2713623,21.3974038 C28.1796898,20.983379 28.1031757,20.566484 28.0425419,20.1460013 C27.9328236,19.4758839 27.8389856,18.8049054 27.7574187,18.1311285 C27.7530877,18.0988389 27.7487567,18.0658317 27.7451475,18.0335421 C27.662137,17.4086301 27.602225,16.781422 27.5632461,16.1521331 C27.5105525,15.532244 27.4802356,14.9107763 27.4722954,14.2887345 C27.4715736,14.2606784 27.4903412,14.2377886 27.512718,14.224801 L27.5107152,14.1051998 C27.5080505,13.9993905 27.5061376,14.1263213 27.5052176,14.0056947 L27.5038442,13.6739152 C27.5039266,13.6462641 27.5041957,13.6270185 27.5047778,13.6256491 C27.1190921,13.6521605 26.8597369,13.6304361 26.4873491,13.6109319 L26.4241968,13.6077104 C26.0827708,13.5919961 25.7435102,13.5546836 25.4064151,13.4986432 C25.4049715,13.5159361 25.3934222,13.5280626 25.3739327,13.5316504 C25.3392849,13.5330855 25.3068025,13.5330855 25.2735982,13.5338748 L25.2858694,13.5804436 L25.2858694,13.5804436 C25.2865912,13.6041944 25.2757637,13.6191911 25.2526651,13.6256491 L25.1563729,13.6299486 C25.0278292,13.6353216 24.8988236,13.6378474 24.7712039,13.6206262 C24.6564327,13.6056295 24.5445489,13.5790085 24.433387,13.5474364 C24.364813,13.5359556 24.2947954,13.5202414 24.2233342,13.5000783 C24.0399891,13.4476973 23.8580877,13.3773777 23.6740208,13.3214808 C23.4863447,13.2819439 23.2957813,13.2690998 23.096556,13.3163862 C22.8857813,13.3658969 22.7074891,13.4555903 22.4866088,13.4010568 C22.4425771,13.3903653 22.3999891,13.3738617 22.3574011,13.3565688 L22.3179944,13.3538368 C22.3112841,13.3532522 22.3044668,13.3525266 22.2974891,13.351546 C22.067225,13.3186106 21.862225,13.173666 21.6427884,13.0960992 C21.5661632,13.0775533 21.4901532,13.0822407 21.4158936,13.1130397 L21.3973658,13.1212851 L21.3244609,13.1751011 C21.2951065,13.2094955 21.2660728,13.2442408 21.23736,13.2791029 L21.1945313,13.3314547 C21.1158518,13.4283235 21.0321194,13.5151468 20.9303412,13.5782909 C20.8076299,13.6909459 20.6618201,13.7569602 20.4878588,13.7612655 C20.388968,13.7641357 20.2907989,13.7433268 20.1955173,13.7132616 C19.8360454,13.8237639 19.4513095,13.8460078 19.0925595,13.7383757 C18.9503588,13.7167776 18.8110454,13.6788193 18.6775067,13.6191911 C18.6147074,13.5912068 18.5519081,13.5581996 18.4912743,13.5216047 C18.2379116,13.6278735 17.9982637,13.7691585 17.753563,13.8912133 L17.6984478,13.9187227 C17.4484182,14.0425348 17.1717424,14.1632627 16.8888095,14.145225 C16.532225,14.1221918 16.182137,14.0749054 15.8327708,14.0152772 C15.8298835,14.0152772 15.8262743,14.0145597 15.823387,14.0138421 L15.775295,14.0058863 L15.775295,14.0058863 L15.6005283,13.9754029 L15.6005283,13.9754029 L15.4595842,13.9493346 L15.4595842,13.9493346 L15.387559,13.976765 C14.8089881,14.194372 14.1750426,14.36412 13.5936511,14.2118852 C13.3402884,14.1811024 13.102806,14.0963601 12.8884222,13.9521331 C12.8812039,13.9471102 12.8739856,13.9420874 12.8667673,13.936347 C12.8328412,13.9191259 12.8010806,13.8998239 12.7729292,13.879015 L12.7668839,13.8743151 L12.7668839,13.8743151 L12.7613799,13.8696151 L12.7584926,13.86818 C12.4416088,13.7233072 12.2597074,13.4146902 12.291468,13.0689041 C12.2719785,12.9590476 12.2727004,12.8514155 12.2943553,12.7366797 C12.1911335,12.8578735 12.0857461,12.9777756 11.9789151,13.0968167 C11.5881468,13.564555 11.2054696,14.0416357 10.8511113,14.5382851 L10.7698482,14.6532485 C10.5749539,14.9265623 10.3937743,15.2093477 10.2263095,15.5006001 C10.0566792,15.7883366 9.88271796,16.0732746 9.70298204,16.3545532 C9.46928926,16.6112826 9.2433336,16.874165 9.02559865,17.1434888 L8.93278838,17.2593085 L8.61951373,17.669028 C8.39791162,17.930287 8.21384472,18.2158708 8.06875669,18.5257795 C7.94965458,18.7461383 7.83993627,18.9707306 7.74104542,19.2010633 C7.70928486,19.2705936 7.67896796,19.3409132 7.64937289,19.4112329 C7.54759472,19.6860535 7.46169683,19.9659687 7.39456655,20.2550685 C7.34064577,20.4643053 7.30192676,20.6764481 7.27893572,20.8915494 L7.27185528,20.9633594 C7.26319331,21.0479583 7.25669683,21.1326288 7.25308768,21.2172994 C7.27402077,21.2295695 7.29134472,21.241696 7.30433768,21.2538943 L7.35703134,21.2726223 L7.35703134,21.2726223 L7.39963751,21.2851706 C7.46605614,21.3056704 7.58074916,21.3480167 7.55336937,21.400274 L7.41405599,21.6644031 L7.41405599,21.6644031 C7.42849261,21.6794716 7.43498908,21.6951859 7.42560528,21.7124788 C7.33248908,21.8896412 7.23865106,22.0668754 7.14481303,22.2441813 C7.1419257,22.2506393 7.13687289,22.2555903 7.13182007,22.2592498 C7.21194331,22.295773 7.28990106,22.3359556 7.36424965,22.379726 C7.50933768,22.4659035 7.61616866,22.5655708 7.71505951,22.6818134 C7.81900317,22.7435943 7.91717218,22.8110437 8.00956655,22.8884671 C8.12361585,23.0075799 8.22322852,23.1382453 8.30768275,23.2795303 C8.38564049,23.4129941 8.44916162,23.5521983 8.49824613,23.6978604 C8.51990106,23.774638 8.53000669,23.8542857 8.52928486,23.9353686 C8.44194331,24.5482257 7.73671444,24.1283888 7.72299965,24.0745727 C7.6262743,23.7043183 7.51511232,23.4704697 7.2653588,23.1949315 L7.25886232,23.1905545 L7.25886232,23.1905545 C7.11449613,23.1274103 6.97157359,23.0649837 6.82215458,23.0161905 C6.79977782,23.0204958 6.77667923,23.0234377 6.75358063,23.0269537 C6.77956655,23.0636204 6.76657359,23.0994977 6.71387993,23.1058839 C6.48650317,23.1504436 6.25696092,23.1625701 6.025975,23.1431963 L5.67516514,23.0937573 L5.67516514,23.0937573 C5.52964401,23.1492309 5.3905544,23.2204554 5.25947495,23.305286 L5.21608063,23.3340639 L5.20814049,23.3398043 C4.86960176,23.6103196 4.60829894,23.9698108 4.42928486,24.3615917 C4.41340458,24.3965123 4.39816592,24.4317518 4.3835689,24.4673103 L4.36215458,24.5208871 L4.36071092,24.5237573 C4.12683768,25.4372668 4.33544683,26.4403262 4.76277077,27.2690933 C4.99592218,27.6400652 5.23917923,28.0038617 5.49326373,28.3604827 L5.74012993,28.6812981 L5.74012993,28.6812981 C5.88593979,28.8176321 6.02886232,28.9574821 6.1681757,29.1009915 C6.18983063,29.1225897 6.21292923,29.1440444 6.23602782,29.1648532 C6.30965458,29.2129289 6.384725,29.2553359 6.46123908,29.2912133 C6.49083415,29.3011872 6.52115106,29.3105153 6.55146796,29.3184801 C6.69872148,29.388728 6.85319331,29.4261122 7.01560528,29.4304175 C7.23012443,29.4445442 7.43829936,29.4195071 7.6395353,29.3560157 L7.67968979,29.342805 L7.70928486,29.3320417 C7.81900317,29.2624397 7.92078134,29.1756164 8.01750669,29.0737247 C8.03916162,29.0514808 8.07958415,29.0514808 8.12578134,29.0636791 C8.15104542,29.0378474 8.17630951,29.0105806 8.20012993,28.9811611 C8.21673204,28.9632224 8.24271796,28.9625766 8.26292923,28.9761383 C8.33150317,28.968317 8.51701373,29.0730789 8.46865106,29.1282583 C8.46071092,29.1411742 8.45060528,29.1526549 8.44194331,29.1648532 C8.4744257,29.1813568 8.5069081,29.200013 8.53578134,29.2194586 C8.68736585,29.2612457 8.91127269,29.4116187 8.89308164,29.4568667 L8.89092218,29.4604827 C8.8558412,29.5264181 8.81023592,29.5817755 8.75410634,29.6256655 L8.73500669,29.6398695 L8.69241866,29.669289 C8.75233063,29.7066732 8.8028588,29.7496543 8.77759472,29.7797913 C8.76604542,29.8020352 8.7537743,29.8236334 8.73933768,29.8430072 C8.86204894,29.9936921 8.98403838,30.1457404 9.10530599,30.2978604 C9.22657359,30.5591194 9.37671444,30.8030137 9.55572852,31.0290411 C9.70514754,31.2744423 9.88488345,31.494801 10.0949363,31.6913372 C10.1122602,31.7086301 10.130306,31.7251337 10.1476299,31.7416373 C10.3023724,31.8552789 10.4642994,31.9617236 10.6329273,32.0640001 L10.7056053,32.1075864 C10.7438623,32.1304762 10.8081053,32.1591781 10.7777884,32.2144292 C10.7741792,32.2216047 10.7698482,32.2274168 10.7647954,32.2316504 C10.8709046,32.3006067 10.9806229,32.3658317 11.0939504,32.4261774 L11.104693,32.4327478 C11.1475333,32.4599371 11.2055743,32.5092551 11.1444785,32.5495238 C11.0925067,32.5839661 10.954637,32.4906849 10.8896722,32.4476321 C10.8774011,32.4476321 10.8629644,32.4441161 10.8485278,32.4398108 C10.8701827,32.4512437 10.8915169,32.4636653 10.9131718,32.4757998 L10.945975,32.4936269 C10.9712391,32.5086236 11.095394,32.590424 11.0087743,32.624938 C10.9661863,32.628454 10.9272074,32.6176908 10.8911158,32.5932942 C10.8485278,32.5724853 10.8066616,32.5503131 10.7655173,32.5272798 C10.7799539,32.5495238 10.7799539,32.5717678 10.7438623,32.5861905 C10.7315912,32.5868363 10.7193201,32.5861905 10.7070489,32.5847554 C10.792225,32.6385714 10.8795665,32.688728 10.9697954,32.7360861 L10.9843787,32.7451715 C11.0225116,32.7697323 11.0833033,32.8164604 11.0390912,32.8567058 C10.9892849,32.901122 10.852137,32.8064057 10.8167673,32.7849511 L10.7113799,32.7224527 L10.7113799,32.7224527 C10.7034398,32.7260404 10.6947778,32.7274755 10.685394,32.7282648 C10.7171546,32.7476386 10.7467496,32.7684475 10.779232,32.787032 L10.8234228,32.810957 C10.8787863,32.8413795 10.9569896,32.8913421 10.9286511,32.9413046 C10.9003125,32.9907357 10.8161286,32.9500451 10.761767,32.918012 L10.7032794,32.8819927 C10.7007129,32.8804247 10.6981464,32.8789019 10.6954996,32.8774429 L10.693254,32.8860694 C10.6927727,32.8874966 10.6921311,32.8889237 10.6911687,32.8903588 C10.6641,32.9371787 10.5960223,32.9065036 10.5490582,32.8794913 L10.5114327,32.8567058 C10.4474304,32.8183888 10.3840697,32.7804226 10.3211367,32.7421693 L10.2270313,32.6844945 L10.2255877,32.6844945 C9.9000419,32.4899674 9.59903838,32.2963014 9.3153588,32.0465949 C9.14572852,31.8972733 8.98764754,31.7394129 8.83750669,31.5707893 C8.53578134,31.2328245 8.3112919,30.8461383 8.09474261,30.4514873 C8.09113345,30.4449576 8.09618627,30.428454 8.10484824,30.4105153 C8.08102782,30.3617939 8.05792923,30.3122114 8.03483063,30.2612655 C7.81250669,30.3230463 7.56419683,30.340985 7.33537641,30.3259165 C7.21266514,30.3179517 7.09139754,30.2964253 6.97085176,30.2641357 C6.58611585,30.2110372 6.21509472,30.0366732 5.89460176,29.8278669 C5.87439049,29.8149511 5.85634472,29.8006001 5.83757711,29.787756 C5.70548204,29.7137769 5.57988345,29.627743 5.46078134,29.5293673 C5.22835176,29.3384997 5.00674965,29.1261057 4.8053588,28.9043836 C4.65954894,28.732244 4.52167923,28.5535029 4.39247148,28.3683757 C4.26109824,28.1854012 4.12828134,28.0024984 3.99546444,27.8194521 C3.6266088,27.2454142 3.39057007,26.5845532 3.29889754,25.9093412 C3.25414401,25.660424 3.23104542,25.4084932 3.23609824,25.1573516 C3.23970739,24.9758121 3.25991866,24.79212 3.29528838,24.6092172 C3.27435528,24.5890541 3.25342218,24.5690346 3.23248908,24.5482257 C3.22093979,24.5682453 3.20939049,24.582668 3.20217218,24.5754207 L3.03673189,24.4107572 C2.91937648,24.2931464 2.84063798,24.2066014 2.70555246,24.0164514 C2.49044683,23.7129289 2.33020035,23.3792694 2.21109824,23.027743 C2.12520035,22.7766014 2.0681757,22.4909459 2.04579894,22.2147619 C2.03858063,22.1687671 2.03136232,22.1221265 2.02558768,22.0747684 C1.97939049,21.7009263 2.02197852,21.3428702 2.07900317,20.9740509 C2.08261232,20.949726 2.09488345,20.9346575 2.11148556,20.9266928 C2.11567218,20.8974886 2.12065282,20.8674951 2.12556127,20.8375734 C1.64742042,20.3344292 1.30332359,19.72803 1.33140282,18.9957012 C1.34020915,18.764938 1.38785,18.5374755 1.4788007,18.3250815 L1.48984472,18.3011155 L1.48984472,18.3011155 C1.09074437,18.2401239 0.774149296,17.9614286 0.536305986,17.6160013 C0.515228521,17.599426 0.494800704,17.5827071 0.475166901,17.56606 C0.0498640845,17.2049902 -0.245003873,16.6937378 -0.4469,16.1537117 C-0.591482746,15.8401435 -0.687269718,15.5050489 -0.727908803,15.157469 C-0.730796127,15.1326419 -0.732528521,15.10803 -0.734766197,15.0833464 C-0.833512676,14.5337769 -0.858632394,13.9786823 -0.813012676,13.4318395 C-0.91212007,13.0933725 -0.992748592,12.7489498 -1.04796866,12.3964905 C-1.07395458,12.2286562 -1.09200035,12.0606784 -1.10571514,11.8927723 L-1.1071588,11.883516 L-1.1093243,11.8533072 L-1.11541976,11.7779914 C-1.1163822,11.7655273 -1.11726444,11.7530898 -1.11798627,11.7406523 C-1.2399757,10.203666 -0.894218662,8.69107632 -0.322528521,7.26746249 C-0.272722183,7.13943412 -0.221291725,7.01172864 -0.168237148,6.8850423 L-0.111970423,6.75269406 L-0.111970423,6.75269406 C0.461885211,5.83279843 1.32360704,5.08877365 2.05345035,4.30298761 C2.30529718,4.03189824 1.89796796,3.62490541 1.64518275,3.8970711 C1.16025669,4.41915851 0.640033099,4.91921722 0.170337676,5.45587084 C0.0873992958,5.46189824 0.0043165493,5.46412264 -0.0785496479,5.46003262 C-0.222915845,5.45278539 -0.362951056,5.42989563 -0.498655282,5.39322896 C-0.837194014,5.3437182 -1.14541585,5.20810176 -1.42548627,5.00862361 C-1.80011655,4.83504892 -2.11988768,4.5077756 -2.15164824,4.08083496 C-2.15525739,4.03778213 -2.15453556,3.99544684 -2.15164824,3.9531833 C-2.18629613,3.74430528 -2.15525739,3.52552511 -2.06719401,3.32382257 C-2.05203556,3.26857143 -2.03254613,3.21403783 -2.00800387,3.16022179 C-1.93654261,3.00020874 -1.81888415,2.84672538 -1.67523979,2.74260926 C-1.67163063,2.74045662 -1.66874331,2.73909328 -1.66585599,2.73686888 C-1.65069754,2.7211546 -1.63626092,2.7052968 -1.6196588,2.69101761 C-1.59511655,2.66870189 -1.56913063,2.64796477 -1.54170106,2.628591 C-1.63914824,2.46922374 -1.72721162,2.30569472 -1.80228204,2.13125897 C-1.88384894,1.94182648 -1.92571514,1.74959556 -1.94881373,1.54645793 C-1.95819754,1.46609263 -1.96180669,1.38644488 -1.96325035,1.30686888 C-1.96758134,1.27020222 -1.97046866,1.23288976 -1.97335599,1.1955773 C-1.99140176,0.911428571 -1.95819754,0.616588389 -1.85136655,0.351024136 C-1.84342641,0.331004566 -1.83332077,0.310841487 -1.82393697,0.290032616 C-1.8037257,0.229758643 -1.78134894,0.169556425 -1.75391937,0.110645793 C-1.64708838,-0.115381605 -1.49550387,-0.306966732 -1.30854965,-0.464109589 C-1.20749331,-0.565283757 -1.09416585,-0.654977169 -0.970732746,-0.731037182 C-0.897827817,-0.776242661 -0.814817254,-0.81642531 -0.727475704,-0.849432485 C-0.571560211,-0.931232877 -0.371613028,-1.0058578 -0.209201056,-1.01152642 C-0.18971162,-1.01231572 -0.172387676,-1.01009132 -0.15362007,-1.01009132 C-0.13846162,-1.42203523 -0.0850461268,-1.87050228 0.078809507,-2.24362688 C0.174091197,-2.51407045 0.317013732,-2.75444879 0.532119366,-2.92744945 C0.656875822,-3.056887 0.810605771,-3.16200325 1.0024305,-3.23070865 L1.03667923,-3.24245271 L1.04967218,-3.24604044 C1.22218979,-3.32927593 1.40842218,-3.36228311 1.59970739,-3.3614938 C1.82275317,-3.37304631 2.05012993,-3.33135682 2.24430246,-3.22953686 C2.284725,-3.20801044 2.32803486,-3.18146119 2.36917923,-3.1527593 C2.40021796,-3.21446836 2.43486585,-3.27689498 2.47456655,-3.33924984 C2.61387993,-3.56104371 2.78206655,-3.75406393 2.97696092,-3.92986301 C3.00005951,-3.95067189 3.02532359,-3.96932811 3.04986585,-3.98934768 C3.1444257,-4.07473581 3.24476021,-4.15366601 3.34870387,-4.22542074 C3.57319331,-4.38048271 3.81933768,-4.49593607 4.07775317,-4.57063275 C4.37609904,-4.68022179 4.69088744,-4.73110136 5.00579543,-4.72039607 L5.07099261,-4.71765819 L5.07099261,-4.71765819 C5.08542923,-4.71629485 5.09986585,-4.7155773 5.11358063,-4.71485975 C5.42613345,-4.69469667 5.73435528,-4.61863666 6.02886232,-4.50390085 C6.33419683,-4.3839987 6.59261232,-4.20253098 6.83298204,-3.99444227 C6.88928486,-4.07186562 6.95352782,-4.1451272 7.03220739,-4.21401174 C7.05458415,-4.23331376 7.07840458,-4.25060665 7.10078134,-4.26854534 C7.11810528,-4.28576647 7.13615106,-4.30227006 7.15491866,-4.31877365 C7.24081655,-4.39411611 7.33176725,-4.45941292 7.43137993,-4.51753425 C7.54326373,-4.5827593 7.66380951,-4.62796477 7.78868627,-4.65594912 C7.91572852,-4.69907371 8.04926725,-4.72562296 8.18497148,-4.73423353 Z M6.70161602,24.846665 C6.71439598,24.8459622 7.38293446,25.0951734 7.7160205,25.2562992 L7.73239067,25.2642805 C8.11640475,25.453713 8.30119349,25.590047 8.6462287,25.8332955 C8.66932729,25.8497991 8.69314771,25.8749132 8.69314771,25.8993098 C8.69314771,26.2535931 8.60654625,26.6867898 8.30696813,26.4948741 C8.26365827,26.4671289 8.2200276,26.4400216 8.17607612,26.4133395 L8.10990827,26.3736086 L8.10774278,26.3743262 C8.10846461,26.3743262 8.10918644,26.3736086 8.10990827,26.3728911 C7.45737306,25.9775225 6.76802447,25.6675421 6.04041884,25.44582 C5.9906125,25.4278813 6.35946092,24.8739204 6.46123908,24.904775 C6.40277077,24.8818134 6.69189198,24.847205 6.70161602,24.846665 Z M13.5577761,9.19802348 C13.1238835,9.24416177 12.6899908,9.28958252 12.2560982,9.3339987 C11.979637,9.36557078 11.7024539,9.39355512 11.4252708,9.41723418 C11.0087743,9.44816047 10.5922778,9.45311155 10.177225,9.39642531 C10.0299715,9.37640574 9.88560528,9.34763209 9.74268275,9.31247228 C9.64523556,9.38350946 9.54417923,9.45024136 9.44095739,9.51417482 L8.29468979,10.385923 L8.29468979,10.385923 C7.52593979,10.9865819 6.7737919,11.6229746 6.09671444,12.3254534 C4.91421092,13.5527462 3.95107183,14.9885584 3.34552782,16.579002 C3.29059648,16.6112198 3.24815282,16.6674038 3.23400493,16.7535812 C3.12702958,17.4054729 2.81418803,18.0000326 2.7011493,18.6492694 C2.58984296,19.2887476 2.73789049,19.8323614 3.14197148,20.3392368 C3.22823028,20.4475147 3.40493451,20.4417743 3.51335352,20.3686562 C3.53854542,20.41788 3.64768627,20.4157991 3.68601549,20.1983823 C3.86567923,20.0050033 4.01935704,19.8022962 4.12344507,19.5512981 C4.20010352,19.3664579 4.07125669,19.238304 3.9149081,19.2131181 C3.97987289,18.9806327 4.05313873,18.7502283 4.13549965,18.5222635 C4.37947852,17.8448271 4.68986585,17.1976712 5.08037641,16.5906262 C5.42396796,16.0566993 5.82169683,15.5917286 6.24902077,15.1253229 C6.25407359,15.118865 6.26273556,15.1167841 6.27211937,15.115349 L6.36090458,15.0176908 L6.36090458,15.0176908 C6.3731757,15.0040574 6.39843979,15.0054925 6.4265912,15.012668 C6.45329894,14.9846836 6.47928486,14.9559817 6.50671444,14.9279974 C6.53342218,14.8992955 6.56301725,14.9079061 6.57961937,14.9308676 C6.62509472,14.9208219 6.70810528,14.9696151 6.73336937,14.9854729 C6.77667923,15.0141031 6.79039401,15.0463927 6.75358063,15.0872929 C6.74708415,15.0945401 6.74058768,15.1017156 6.7340912,15.1081018 C6.78389754,15.1289824 6.83298204,15.156895 6.87123908,15.1842335 C7.00477782,15.2135812 7.19245387,15.3369993 7.15997148,15.373666 C7.09139754,15.4446314 7.02498908,15.5171755 6.95930246,15.5910111 C7.01704894,15.6312655 7.05458415,15.6706588 7.0394257,15.6879517 C6.75791162,15.9827919 6.49805246,16.2949967 6.25984824,16.6257143 C6.07866866,16.8725506 5.91481303,17.1294325 5.76828134,17.3970776 C5.55028838,17.7759426 5.36549965,18.1655708 5.20164401,18.5659622 C5.17854542,18.6270254 5.15616866,18.6879452 5.13451373,18.7489367 C4.89486585,19.4155382 4.71585176,20.1072538 4.64005951,20.8118852 L4.63689201,20.8594162 C4.62277406,21.1132455 4.61724965,21.792868 4.590975,21.954938 C4.75049965,22.0331507 4.91652077,22.0998826 5.08903838,22.1544879 C5.12152077,22.163816 5.154725,22.1724266 5.18792923,22.1803196 C5.20669683,22.1724266 5.22618627,22.1658969 5.2456757,22.1601566 C5.40447852,22.0962948 5.57049965,22.0503718 5.74012993,22.0281279 C5.85444991,22.0131221 5.96821724,22.0078953 6.08191549,22.0111493 L6.13064049,22.0130594 C6.18116866,22.0144945 6.230975,22.0180822 6.28150317,22.0231768 C6.27861585,21.9944031 6.27717218,21.9664905 6.27500669,21.9377169 C6.26057007,21.9283888 6.24974261,21.9155447 6.24902077,21.8982518 C6.21509472,21.5753555 6.21437289,21.2524592 6.24685528,20.9295629 C6.26851021,20.7609393 6.2937743,20.5930333 6.32120387,20.425199 C6.34935528,20.2873581 6.38183768,20.1518134 6.41720739,20.0161252 C6.51104542,19.6358969 6.63592218,19.2648532 6.78750669,18.9018461 C7.21916162,17.8663536 7.83777077,16.9328245 8.45998908,16.0043183 C8.91402077,15.3263079 9.34351021,14.6330855 9.81342218,13.966484 C10.2133165,13.3989041 10.6334222,12.8399348 11.0816792,12.3089498 C11.5292144,11.7787541 12.0020137,11.2685062 12.5123482,10.7964318 C12.594637,10.7210176 12.6776475,10.6478278 12.7621018,10.5754273 C13.2457285,10.1448989 13.7712215,9.79107632 14.3183694,9.44385519 C14.3393025,9.43022179 14.3768377,9.44529028 14.4078764,9.47105023 L14.4961537,9.4171013 C14.5109378,9.40814525 14.5257755,9.3992955 14.5406933,9.39068493 C14.5544081,9.38214612 14.5695665,9.39642531 14.5775067,9.40862361 C14.6150419,9.38924984 14.6525771,9.37066536 14.6901123,9.35193738 C14.7174697,9.32998043 14.7456933,9.30917156 14.7732673,9.28750163 C14.3675261,9.26719504 13.9623623,9.23705806 13.5577761,9.19802348 Z M18.646468,4.41449446 C18.3187567,4.34926941 17.9896018,4.33986954 17.6590032,4.38866275 C17.5204838,4.40882583 17.3826141,4.43307893 17.2458993,4.46242661 C17.5563588,4.73150685 17.8060401,5.0758578 17.9680912,5.47215917 C18.1432074,5.9005349 17.4446915,6.08515982 17.2720296,5.66295499 C17.1055032,5.25567515 16.7902796,4.94325506 16.4095137,4.75597521 C16.327225,4.80168297 16.2474627,4.85119374 16.1713095,4.90601435 C16.0716968,4.98637965 15.9778588,5.07320287 15.8897954,5.16863666 C15.6977884,5.37607958 15.5216616,5.65298108 15.4061687,5.92708415 C15.3614151,6.07633399 15.3282109,6.22988911 15.3072778,6.38774951 C15.3029468,6.42362688 15.2986158,6.46022179 15.2950067,6.4968167 C15.2238342,7.23940639 15.4374239,7.96190476 15.8049081,8.6012394 L15.8193447,8.60145466 L15.8193447,8.60145466 C16.1473447,8.42465101 16.4907197,8.27568819 16.844056,8.15435095 C17.1270137,7.96499022 17.4207989,7.78983692 17.7232461,7.63125897 C18.3662104,7.29406489 19.0453197,7.03412143 19.7451045,6.85636224 L19.8259398,6.83621657 C19.9907579,6.79435964 20.1570798,6.75748569 20.32407,6.72522097 L20.4243377,6.70641226 L20.4257813,6.70641226 L20.4149539,6.59942596 L20.4149539,6.59942596 C20.3586511,6.1796608 20.1933518,5.79003262 19.9796898,5.42989563 C19.8194433,5.15794521 19.5776299,4.87953686 19.3091088,4.6570972 L19.3076651,4.65630789 C19.1857559,4.58742335 19.057573,4.53044478 18.9256512,4.48335636 L18.8760102,4.46615786 L18.646468,4.41449446 Z M9.84734824,3.77666667 C9.16593979,3.7127332 8.48453134,3.71919113 7.80312289,3.77444227 C7.35775317,3.81828441 6.91527077,3.87920417 6.47495387,3.95669928 C6.17683768,4.00764514 5.88449613,4.07939987 5.59720739,4.16844749 L5.76153088,4.49878135 C6.03616084,5.04892585 6.31747441,5.59545771 6.64891514,6.11508154 C6.81998908,6.38272668 7.00549965,6.63752772 7.20761232,6.8821396 C7.34403838,7.05722114 7.49417923,7.21945858 7.65875669,7.36863666 C7.70206655,7.42108937 7.74826373,7.47060013 7.79518275,7.51860404 C7.94532359,7.64632746 8.10701373,7.75826484 8.28386232,7.85082844 C8.42566201,7.95351743 8.57373539,8.04322324 8.72808246,8.12186092 L8.78625669,8.15083496 L9.32762993,8.35741683 C9.35650317,8.36554903 9.38569722,8.37368124 9.41499821,8.38140949 L9.45900317,8.3926484 L9.5412919,8.40979778 L9.60304855,8.3764717 C9.6133948,8.3709705 9.62382124,8.36554903 9.6344081,8.36028702 C9.65173204,8.35103066 9.66400317,8.36896934 9.66761232,8.38181344 C9.66905599,8.38690802 9.66689049,8.39401174 9.66328134,8.40118721 L9.74217746,8.35878017 L9.74217746,8.35878017 C9.87780951,8.41352903 10.0217426,8.45729941 10.1761423,8.48614481 C10.2460155,8.49913242 10.3160331,8.50910633 10.3861229,8.51764514 L10.395512,8.52387983 C10.3970787,8.5249721 10.3986587,8.52616003 10.4002708,8.52754729 L10.4769292,8.52754729 L10.4769292,8.52754729 C11.0165701,8.57928245 11.5638623,8.5109002 12.102637,8.4146771 C12.8650349,8.33847358 13.6272884,8.25444879 14.3891088,8.17587736 C14.4035454,8.17451402 14.4093201,8.1809002 14.4093201,8.19101761 L14.4562391,8.18671233 L14.4562391,8.18671233 C14.5240912,8.1794651 14.6034926,8.29212003 14.5522426,8.33309198 C14.593387,8.35741683 14.6330877,8.3926484 14.6626827,8.4199152 L14.6800067,8.41840835 C14.5753412,8.21462492 14.4944961,8.00151337 14.4367496,7.77986301 L14.3631229,7.40810176 L14.3631229,7.40810176 C14.3429116,7.26961513 14.3313623,7.12187215 14.3291968,6.97613829 C14.324144,6.90940639 14.3205349,6.84705153 14.3205349,6.79244618 C14.3205349,6.74078278 14.3212567,6.68911937 14.3234222,6.63752772 C14.1797778,6.57861709 14.033968,6.52702544 13.8852708,6.4831833 C13.4629996,6.43159165 13.0414504,6.37985649 12.6191792,6.32891063 C12.3658165,6.33823875 12.1124539,6.35617743 11.859813,6.38416177 C11.5732461,6.40927593 11.2874011,6.44156556 11.0022778,6.48031311 C10.9755701,6.4831833 10.9279292,6.44730594 10.899056,6.40568819 L10.7770665,6.42226354 L10.7770665,6.42226354 C10.7135454,6.43015656 10.647137,6.30379648 10.7308694,6.27796477 C10.7611863,6.26600565 10.7915032,6.25468435 10.8218201,6.24378826 L10.8672954,6.22773646 L10.8413095,6.23060665 C10.8326475,6.23139596 10.8218201,6.22917156 10.8095489,6.22493803 C10.7424187,6.23347684 10.6752884,6.24208741 10.6088799,6.24998043 C10.5246577,6.26042843 10.5437991,6.15004486 10.6028765,6.124068 L10.6312567,6.11364644 C10.5813637,6.08271729 10.5374579,5.99809125 10.5991655,5.97042094 L10.6074363,5.9672668 C10.6363095,5.9558578 10.6644609,5.94645793 10.6933342,5.93569472 C10.6911687,5.92643836 10.6911687,5.91775603 10.694056,5.90993477 L10.5749539,5.92493151 L10.5749539,5.92493151 C10.5640839,5.92634972 10.6158759,5.85079522 10.6406624,5.83585948 L10.6449715,5.833803 L10.7019961,5.81658187 C10.7106581,5.79218526 10.7568553,5.73836921 10.7727356,5.73341813 C10.9820665,5.66804958 11.1769609,5.60928245 11.3805173,5.56400522 C11.3906229,5.55180691 11.4021722,5.5424788 11.4151651,5.53960861 C11.5422074,5.50947162 11.6706933,5.48579256 11.7991792,5.46577299 C11.8078412,5.45278539 11.8165032,5.44352903 11.8266088,5.44273973 C12.1449363,5.40255708 12.4639856,5.39322896 12.7844785,5.41482714 C12.8458342,5.42049576 12.9071898,5.42702544 12.9685454,5.43484671 C13.0862039,5.44783431 13.2038623,5.4643379 13.3207989,5.48658187 C13.6137076,5.53655391 13.89977,5.61251142 14.1784081,5.71497144 L14.2425771,5.73908676 C14.3125947,5.76499022 14.3818905,5.79218526 14.4504644,5.82167645 C14.4851123,5.69897586 14.5284222,5.57835616 14.5796722,5.46003262 C14.5876123,5.43699935 14.5962743,5.41482714 14.6056581,5.39258317 L14.5356405,5.35089367 L14.5356405,5.35089367 C14.520482,5.37959556 14.4894433,5.40183953 14.469232,5.38971298 C13.9675595,5.0531833 13.4370137,4.77255055 12.8775947,4.5486758 C12.5643201,4.41090672 12.2438271,4.29401826 11.915394,4.19636008 C11.7515384,4.14405088 11.5862391,4.09669276 11.420218,4.05148728 C11.3372074,4.03419439 11.2541968,4.01697326 11.1697426,4.00262231 C10.7359222,3.88637965 10.2948835,3.81110894 9.84734824,3.77666667 Z M26.3782162,4.91562948 C26.3172937,5.02024788 26.2539169,5.12386171 26.1867144,5.22604044 C25.8603746,5.72251142 25.4691423,6.18841487 25.0255049,6.5946184 C25.1412144,6.59433138 25.2566352,6.59870841 25.3706123,6.60932811 C25.5671669,6.62776908 25.7596792,6.66020222 25.9473553,6.70562296 C25.9625859,6.69349641 25.9796211,6.68739726 25.9932637,6.69701239 L26.0422039,6.73066536 L26.0422039,6.73066536 C26.444769,6.83865623 26.8227197,7.00842792 27.1650842,7.23589041 L27.1589459,7.19097195 C27.1578979,7.18348554 27.156759,7.17599913 27.1554116,7.16851272 C27.1611863,7.0802544 27.1626299,6.99192433 27.1597426,6.90438356 C27.0890032,6.38703196 26.9121546,5.91058056 26.7100419,5.42846053 C26.7062162,5.41913242 26.7089592,5.40700587 26.714806,5.39466406 C26.6128113,5.22905414 26.501144,5.06889759 26.3782162,4.91562948 Z M26.4711158,0.84828441 C26.3202532,0.875551207 26.1708342,0.910711024 26.022137,0.954481409 C25.7427884,0.996170907 25.4721018,1.06936073 25.2107989,1.17333333 C24.8506053,1.3003392 24.5012391,1.44815395 24.1533165,1.60465101 C23.4776827,1.90881931 22.8439151,2.29349641 22.2671722,2.75703196 C22.2303588,2.78494455 22.1949891,2.8137182 22.1596194,2.84242009 C22.0304116,2.95356817 21.904813,3.06981083 21.7857109,3.19251142 C21.6608342,3.32741031 21.5352356,3.46238095 21.4103588,3.59792564 C21.2573306,3.75729289 21.0812039,3.90144814 20.9426123,4.07365949 C20.9144609,4.10881931 20.8899187,4.14756686 20.8675419,4.18638617 L20.9491088,4.21429876 L20.9491088,4.21429876 C21.0176827,4.23726027 21.0061335,4.36498369 20.9382813,4.34632746 C20.9151827,4.33986954 20.8935278,4.33197652 20.8718729,4.3234377 C20.8812567,4.33563601 20.8877532,4.34783431 20.8891968,4.35852577 C20.8935278,4.39296804 20.8668201,4.44039791 20.824232,4.42819961 C20.8047426,4.42310502 20.7852532,4.41592955 20.7657637,4.40803653 C20.7599891,4.4302805 20.7556581,4.45252446 20.7556581,4.47405088 C20.7592673,4.47548598 20.7628764,4.47692107 20.7672074,4.47771037 C20.8148482,4.49421396 20.9043553,4.56804958 20.9173482,4.61834964 C20.9274539,4.6570972 20.8942496,4.69864318 20.8516616,4.68716243 C20.8199011,4.67855186 20.7888623,4.66563601 20.7585454,4.65128506 C20.7787567,4.67073059 20.794637,4.69153947 20.7960806,4.70947815 C20.798968,4.74248532 20.7700947,4.78905414 20.730394,4.77836269 C20.6567673,4.75819961 20.5975771,4.72741683 20.5484926,4.68866928 C20.5354996,4.70581866 20.516732,4.71945205 20.5015736,4.71521853 L20.4734222,4.70660796 L20.4734222,4.70660796 C20.4811217,4.71373559 20.4881796,4.72124592 20.4950236,4.72862869 L20.5051827,4.73954338 C20.7044081,4.95337247 20.8783694,5.19016308 21.0176827,5.44496412 C21.0241792,5.43771689 21.0321194,5.43125897 21.042225,5.42336595 C21.1071898,5.36883235 21.1743201,5.31573386 21.2414504,5.2641422 L21.2617518,5.24649951 L21.2617518,5.24649951 L21.2825947,5.22891063 L21.131732,5.2784214 L21.1350697,5.27453618 C21.1457299,5.26097192 21.1789257,5.21572858 21.1943922,5.20065504 L21.1981405,5.19733855 C21.405306,5.01300065 21.6312391,4.85650359 21.875218,4.72885192 C22.0332989,4.62688845 22.1993201,4.54078278 22.3732813,4.4697456 C22.7883342,4.27816047 23.2113271,4.13257012 23.6458694,3.99767123 C23.7108342,3.97686236 23.7757989,3.9546184 23.8407637,3.93445532 C23.8595313,3.92799739 23.8631405,3.93589041 23.8602532,3.94880626 L23.8941792,3.9387606 L23.8941792,3.9387606 C23.954813,3.91938682 24.0580349,4.02558382 24.0168905,4.07509459 C24.0417215,4.09518591 24.0660905,4.11757339 24.0874105,4.13858317 L24.1027884,4.15402479 L24.1201123,4.14900196 C24.1716799,4.13318721 24.2586865,4.21311165 24.3139565,4.26971054 L24.3547074,4.31260274 C24.3857461,4.34560992 24.4463799,4.41377691 24.3720313,4.44039791 L24.2789151,4.47189824 L24.2789151,4.47189824 C24.2818025,4.49055447 24.2738623,4.50634051 24.2449891,4.51710372 C24.2125067,4.52786693 24.1807461,4.53934768 24.1489856,4.5509002 C24.1682344,4.56759513 24.1871624,4.58495977 24.2057696,4.60254766 L24.2334398,4.6290411 C24.2661093,4.66220773 24.3436255,4.73529715 24.275198,4.76757661 L24.266644,4.77111546 L24.1778588,4.80268754 C24.1894081,4.82851924 24.1865208,4.85298761 24.1475419,4.8672668 C23.6292673,5.04234834 23.1232637,5.24763862 22.6288095,5.48084149 C22.2585102,5.68455316 21.8672778,5.83674494 21.4551123,5.93641226 C21.4211863,5.94724723 21.3475595,5.89630137 21.3172426,5.84535551 L21.2556998,5.86335798 C21.2454605,5.86633181 21.2351945,5.869202 21.2248482,5.87183301 L21.2147426,5.8740574 L21.2147426,5.8740574 C21.2919785,6.07855838 21.3490032,6.30020874 21.3807637,6.51475538 C21.3843729,6.53412916 21.3872602,6.55429224 21.3894257,6.57366601 C21.4702708,6.56713633 21.550394,6.56139596 21.6312391,6.55716243 C22.1906581,6.52767123 22.7565736,6.54560992 23.3174363,6.61162427 C23.5440912,6.47744292 23.7620842,6.33034573 23.9706933,6.17112198 C24.0342144,6.12225701 24.0970137,6.0720287 24.1590912,6.02108284 C24.531556,5.69962166 24.8686511,5.33876712 25.1674891,4.94906719 C25.4439504,4.5881409 25.6843201,4.20066536 25.8864327,3.79460535 C26.0654468,3.41351598 26.2134222,3.01742988 26.325306,2.60842792 C26.427806,2.23458578 26.4631757,1.8707893 26.4891616,1.48403131 C26.4978236,1.42088715 26.5035982,1.35781474 26.5086511,1.29459883 L26.5080629,1.26754464 L26.5080629,1.26754464 L26.5072074,1.25441618 C26.4999891,1.11887149 26.4862743,0.983183301 26.4711158,0.84828441 Z M21.1832161,5.65369863 C21.1663043,5.66065515 21.1486573,5.66761167 21.1310102,5.67369863 C21.1413043,5.70065515 21.1508632,5.72682906 21.160422,5.75369863 L21.1615249,5.75316602 L21.1615249,5.75316602 L21.2310102,5.68848124 L21.2310102,5.68848124 C21.2163043,5.68065515 21.1993926,5.6685682 21.1832161,5.65369863 Z M26.3700595,-0.14628185 C26.4999891,-0.21328185 26.5981581,-0.22628185 26.6645665,-0.18428185 C26.5663975,-0.17428185 26.4682285,-0.16128185 26.3700595,-0.14628185 Z" id="ðŸ–-Ink" fill="#000000"></path>
                        </g>
                        <g id="FACE" stroke-width="1" fill-rule="evenodd" transform="translate(30.329225, 18.262231)">
                            <path d="M10.3299057,5.78498826 C10.8749876,6.11434574 11.705525,6.88234313 11.1191424,7.69886045 C10.4289139,8.41881074 9.43514071,7.59333856 8.9454265,7.22000963 C8.49134054,6.93067762 7.98114952,7.67481789 8.40245073,8.0126618 C11.9411358,10.6170166 13.3772092,5.87111065 10.6056005,5.3977446 C10.3004365,5.3455817 10.1870978,5.68309792 10.3299057,5.78498826 Z M4.59666901,1.22146967 C5.33957746,1.18616634 5.99427817,1.5178167 6.70225,1.66850163 C7.35651761,1.80784932 8.00111268,1.7241833 8.63740669,1.54694912 C9.6700581,1.25928441 10.0969489,2.83071298 9.07837324,3.13696217 C8.33661972,3.35997586 7.55559859,3.37547489 6.79442782,3.26052381 C6.11828873,3.15834508 5.55150704,2.83114351 4.90683979,2.6406347 C4.35359159,2.47722415 3.70276293,2.5451375 3.1185021,2.62207163 L2.89170423,2.65240248 C2.55460915,2.6975362 2.21570951,2.74281344 1.88193486,2.80832551 C1.59233627,2.86522701 1.30324296,2.96934312 1.00765317,2.98139791 C0.974088028,2.98283301 0.945647887,2.93949315 0.966797535,2.91057599 C1.31016451,2.44197615 1.97194643,2.07223045 2.49836021,1.8256206 L2.53403697,1.80899739 C3.18382923,1.50784279 3.87317782,1.25576843 4.59666901,1.22146967 Z M4.32449012,4.67686035 L4.32439703,4.660695 C4.32540759,4.20313042 4.59349635,3.15841078 5.25614513,3.15841078 C5.67011356,3.15841078 5.92144535,3.86941439 5.96495484,4.602357 L5.96646604,4.63224096 C5.98567965,5.0879212 5.85988501,6.08395881 5.25614513,6.08395881 C4.64601605,6.08395881 4.33076336,5.14058714 4.32449012,4.67686035 L4.32449012,4.67686035 Z M14.0804178,4.67686035 L14.0805109,4.660695 C14.0795003,4.20313042 13.8114116,3.15841078 13.1487628,3.15841078 C12.7451436,3.15841078 12.4961308,3.83430858 12.4436053,4.5474382 L12.4399531,4.602357 C12.4138159,5.04265247 12.5314557,6.08395881 13.1487628,6.08395881 C13.7588919,6.08395881 14.0741446,5.14058714 14.0804178,4.67686035 L14.0804178,4.67686035 Z M14.0702596,0.664170205 L14.1176558,0.665205479 C14.8920361,0.691898239 15.6885766,1.14789954 15.895309,1.91388128 C15.9059921,1.9536334 15.856691,1.98039791 15.8274569,1.95313112 C15.190721,1.3605291 14.3343859,1.92677663 13.6967891,2.22358218 L13.462598,2.33112855 C12.6406324,2.71126895 11.7057672,3.15819067 10.7931188,2.87489237 C10.3596593,2.74035225 10.084353,2.29762557 10.2080026,1.8504501 C10.3180032,1.45257119 10.8011306,1.11819374 11.2195861,1.26180436 L11.2385607,1.26866275 C11.5785431,1.39794086 11.9965735,1.26695858 12.3477008,1.13782 L12.6361381,1.03014904 C13.0999524,0.855197357 13.5659112,0.659463081 14.0702596,0.664170205 L14.0702596,0.664170205 Z" id="ðŸ–-Ink" fill="#000000"></path>
                        </g>
                        <g id="accessories/*-None" transform="translate(20.244718, 18.208741)"></g>
                    </g>
                </g>
            </g>
            <path d="M46,54.4479012 C48.1101695,57.8422886 51.5131437,54.8846849 50.9348101,53 C50.9348101,53 49.8957243,53.8360796 48.7289972,54.1206037 C47.4407511,54.4347622 46,54.4479012 46,54.4479012 Z" id="Combined-Shape" stroke="#000000" stroke-width="0.8" fill="#FFFFFF" stroke-linejoin="round"></path>
        </g>
    </g>
</svg>