<?xml version="1.0" encoding="UTF-8"?>
<svg width="115px" height="115px" viewBox="0 0 115 115" version="1.1" xmlns="http://www.w3.org/2000/svg" xmlns:xlink="http://www.w3.org/1999/xlink">
    <!-- Generator: Sketch 63.1 (92452) - https://sketch.com -->
    <title>Group</title>
    <desc>Created with Sketch.</desc>
    <defs>
        <circle id="path-1" cx="44.5" cy="44.5" r="44.5"></circle>
    </defs>
    <g id="Page-1" stroke="none" stroke-width="1" fill="none" fill-rule="evenodd">
        <g id="Sysl-homepage" transform="translate(-710.000000, -376.000000)">
            <g id="Group" transform="translate(710.000000, 376.000000)">
                <circle id="Oval" fill="#FDC82F" cx="57.5" cy="57.5" r="57.5"></circle>
                <g id="peep-92" transform="translate(13.000000, 14.000000)">
                    <mask id="mask-2" fill="white">
                        <use xlink:href="#path-1"></use>
                    </mask>
                    <use id="Mask" fill="#FFFFFF" xlink:href="#path-1"></use>
                    <g id="a-person/bust" mask="url(#mask-2)">
                        <g transform="translate(-9.000000, -9.000000)">
                            <g id="body/Button-Shirt-1" transform="translate(13.975352, 60.857143)">
                                <path d="M7.38362111,68.0425238 C19.8040831,69.9324286 32.4498573,70.0274762 44.9735281,69.3411905 C49.9299203,68.9694762 54.9015043,68.9025238 59.8539087,69.3777619 C62.7803079,69.5957619 75.6110412,70.5782381 76.6593645,67.952619 C75.9995693,53.9711905 74.663268,39.8707143 70.5638785,26.4240476 C68.8779778,21.6494762 67.4300078,17.6866424 64.1395771,13.7355948 C63.1025525,12.6568329 60.8661162,10.394342 59.5846949,9.65643727 C58.4744654,9.01729441 58.0104372,9.24530906 57.3729548,8.16569001 C56.7394722,6.97305107 56.2722279,4.98124661 55.3727438,4.13968507 C54.456913,3.28282937 53.0996635,3.58939443 51.4174067,3.86538131 C51.726464,-0.318488574 49.7986069,-1.38404762 47.1427152,-2.17966667 C42.4743009,-3.96452381 37.863759,-3.06786365 36.6887747,2.62518397 C34.5101347,2.62518397 33.2863556,3.56438549 31.9633538,4.46682236 C31.4225322,4.83572386 31.798748,5.77559547 31.1527616,6.06554221 C29.9575754,6.4918275 27.8455096,6.38741228 26.6947303,6.91204362 C21.461712,9.29773605 16.8008417,12.7573267 13.73993,17.8098571 C6.87773697,28.5970952 2.16393744,51.3205238 2.97963764,64.1058571 C2.62225252,64.6672857 3.11645803,65.4723333 3.24207453,66.0760476 C3.40063806,66.6011905 3.91411806,66.9505238 4.45000583,66.8908095 C5.19781805,67.6964286 6.35447731,67.8757619 7.38362111,68.0425238 Z" id="ðŸŽ¨-Background" fill="#FFFFFF"></path>
                                <path d="M58.793831,9.34017143 C58.7175845,9.2976 58.7847042,9.18845714 58.861331,9.22455238 C62.5448345,10.9556 65.3706127,13.9926476 67.3589155,17.5016952 C69.4177685,21.1351567 70.5912085,25.2605036 71.6028693,29.2925709 L71.6393662,29.4382667 C72.7181303,33.7516 73.6353697,38.1095048 74.4611514,42.4780762 C75.2974859,46.901981 75.9687782,51.3533143 76.5087782,55.8230286 C76.7759261,58.0330286 77.0140775,60.2469333 77.1998451,62.4653143 C77.2926338,63.5738857 77.3769613,64.6833143 77.4527324,65.793219 C77.4830028,66.2371048 77.5115087,66.6809905 77.5359624,67.1252663 L77.553507,67.4585524 C77.5686232,67.7608381 77.6044648,68.0638857 77.5299296,68.3620762 C77.4655669,68.6191238 77.3297113,68.8518857 77.2102077,69.0878857 C76.9738627,69.5543619 76.3259577,69.4775048 76.0712641,69.0878857 L75.9973028,68.9743907 C75.8284067,68.7128946 75.6880709,68.4698738 75.635081,68.1444571 C75.583838,67.8293143 75.5819366,67.4991238 75.5589296,67.1808381 C75.5166232,66.595219 75.4805915,66.0090286 75.4395211,65.423219 C75.3532923,64.1900762 75.2564155,62.9576952 75.1491761,61.7262667 C74.9370739,59.295219 74.7095704,56.8663619 74.4301585,54.441981 C73.9337007,50.1334095 73.3107042,45.8362667 72.5762852,41.561981 C71.858719,37.3865333 70.9515725,33.2534472 70.0052158,29.1255583 L69.9071831,28.6985524 C68.2502007,21.4915048 65.696419,13.1916952 58.793831,9.34017143 Z M19.5594655,37.5613524 C19.5865606,37.4892571 19.7031169,37.4726857 19.7227965,37.5613524 C19.9709303,38.6804952 19.9954585,39.8331619 20.0333915,40.9789714 C20.0707542,42.1092571 20.0692331,43.2446857 20.0527859,44.3756381 C19.992131,48.5321143 19.8782366,52.6850667 19.7797437,56.8408762 C19.7304972,58.9196381 19.684293,60.9986857 19.6488317,63.0777333 C19.6354268,63.857519 19.6241609,64.6372512 19.6147935,65.4170503 L19.6033354,66.4455152 C19.5976377,66.9002247 19.5857196,67.3493744 19.5303739,67.8036381 C19.4938669,68.1024 19.4160993,68.3873524 19.2514373,68.6434476 C19.134579,68.8252291 18.968034,68.9175013 18.8056998,69.0410326 L18.7753246,69.0645905 C18.5682613,69.2284952 18.3501697,69.2296381 18.1451028,69.0645905 L18.0855561,69.0173904 C17.8896674,68.863934 17.7203714,68.7440364 17.5953106,68.5013524 C17.4213317,68.1639238 17.3934761,67.7973524 17.3639092,67.4255429 C17.3190359,66.8617333 17.348793,66.2896381 17.3545923,65.7242095 C17.3661908,64.5899238 17.3818775,63.4558286 17.4017472,62.3216381 C17.4746662,58.1624952 17.618793,54.0025905 17.8814725,49.8508762 C18.0052207,47.8952908 18.1730131,45.9333781 18.3980863,43.9857029 L18.440962,43.6206857 C18.5092225,43.0476381 18.5714937,42.4644 18.6416556,41.8792571 C17.5942648,41.1412571 16.6736028,40.2458286 15.8885113,39.230019 C15.8307085,39.1552571 15.9258739,39.0504 15.9956556,39.122781 C16.7978599,39.9548762 17.7176662,40.6182095 18.7359655,41.1398286 C18.9028141,39.9149714 19.132219,38.6966857 19.5594655,37.5613524 Z M37.0574144,0.486495238 C37.0717701,0.475352381 37.0942067,0.470495238 37.1078968,0.486495238 C37.3330236,0.749421645 37.2873702,1.15142471 37.2946257,1.48460994 L37.2954708,1.5156381 C37.3116327,2.00278095 37.314675,2.4884 37.3130588,2.97582857 L37.3080201,4.52735238 L37.3080201,4.52735238 C37.307344,4.74068571 37.290067,4.96274803 37.3009924,5.17735225 L37.3066891,5.2604 L37.3066891,5.2604 C37.4249567,5.38173333 37.4799074,5.55706667 37.4397877,5.7331619 C37.4325623,5.95906667 37.314675,6.14754286 37.1426926,6.26601905 L37.5112925,6.78987619 L37.5112925,6.78987619 L37.8802489,7.31344762 C38.6407173,8.39392381 39.4095518,9.46478095 40.2108053,10.5155429 C41.0278405,11.5868762 41.8994461,12.6178286 42.8115518,13.6090667 C43.2571468,14.0934476 43.7103475,14.5710667 44.1741011,15.038019 C44.3625544,15.2278048 44.5557137,15.4128762 44.7467206,15.6000235 L44.936756,15.7881143 C45.0490342,15.9005905 45.1903088,16.0118286 45.264844,16.1544 C45.3086715,16.2384952 45.3186539,16.4457333 45.3343405,16.480019 C45.4750447,16.7898286 45.2349919,17.2838286 44.8360764,17.1292571 L44.854178,17.1171913 C44.9268077,17.0665887 44.8802678,17.0658548 44.7144813,17.1150667 C44.6099039,17.1147203 44.5118478,17.0906039 44.4202416,17.0428603 L44.3929532,17.0278286 C44.2639499,16.9621582 44.1487988,16.8350577 44.0439854,16.7334193 L44.0179954,16.7085905 C43.7783229,16.4836381 43.5498687,16.2450667 43.3201785,16.0099238 C42.8407384,15.5193524 42.3721363,15.0183048 41.9184602,14.5038286 C41.0133898,13.4773524 40.1553792,12.4092571 39.3428123,11.308019 C38.5151292,10.1864 37.7458194,9.0071619 37.0842243,7.77954286 C36.8331433,7.3136381 36.6029778,6.83878095 36.3823194,6.3584 C35.9527912,6.22030476 35.8530623,5.76268571 35.8830095,5.2471619 C35.7245271,4.87744762 35.5817313,4.50011429 35.4973088,4.11459048 C35.4858053,4.06173333 35.5535905,4.01192381 35.5941856,4.05811429 C35.7315623,4.21449524 35.8587665,4.38097143 35.9810271,4.55173333 C36.0548018,4.19030476 36.1481609,3.8576381 36.1920835,3.64554286 L36.3825095,2.70954286 L36.3825095,2.70954286 C35.3094496,2.65354286 34.1336187,3.0951619 33.3938757,3.86830476 C33.3541363,4.0696381 33.1994567,4.21373333 33.048675,4.40192381 C32.8764074,4.61706667 32.7261011,4.85849524 32.614013,5.11097143 C32.3654039,5.67059048 32.5057278,6.49525714 32.0232454,6.90582857 C31.9729532,6.94859048 31.9167665,6.97830476 31.8587736,6.99668571 C32.0877195,8.12122993 31.9838211,9.36036307 31.9788301,10.5012335 L31.9786574,10.6016381 C31.9797982,11.8784952 31.9372067,13.1564 31.8879602,14.4322095 L31.8378581,15.6948739 C31.7729364,17.3788571 31.7307708,19.0636571 31.8941398,20.7384 C32.6399673,20.0766857 33.4111785,19.4451619 34.2089144,18.8435429 C34.7334496,18.4478603 35.2685013,18.0662495 35.8132681,17.698978 L36.2559101,17.4026908 C36.7863268,17.0463782 37.32963,16.6797458 37.9103863,16.4245905 C38.6699989,16.0909714 39.392344,16.2056381 40.1257173,16.5478286 C40.8560482,16.8886857 41.5646081,17.2845905 42.2809637,17.654019 C43.0095835,18.0296381 43.7397243,18.4021143 44.4693898,18.7755429 C44.9527278,19.0229714 45.6610025,19.2463048 46.0155201,19.7017333 C46.0381468,19.6009714 46.0644813,19.5004952 46.0952842,19.4004 C46.0601081,19.2477333 46.0737032,19.082781 46.1591715,18.9255429 C47.3504039,16.7328762 48.4525553,14.4878286 49.547006,12.2455429 C50.1009813,11.110781 50.6276715,9.96259048 51.1826926,8.82849524 L51.7222419,7.72394497 C51.8123968,7.53994497 51.9028194,7.35608254 51.9937384,7.17249524 C52.1298792,6.8976381 52.2716292,6.62544762 52.4092912,6.35125714 C52.4674743,6.23542041 52.5403953,6.12035335 52.5970417,6.00341708 L52.6238651,5.94478095 C52.6251611,5.9417208 52.7558874,5.52991095 52.654909,5.56916425 L52.6462067,5.57335238 C52.5946785,5.60259048 52.553418,5.5376381 52.5867877,5.49620952 C52.7295835,5.31935238 52.9284708,5.47601905 53.0099461,5.63973333 C53.2344496,6.09028007 52.8231,6.79752489 52.6648692,7.22894483 L52.6561891,7.25306667 C52.1651504,8.64535238 51.6091785,10.0115429 51.0395165,11.3729714 C49.9472525,13.9831619 48.7738933,16.5532571 47.6031011,19.1278286 L47.5892208,19.1721143 L47.5892208,19.1721143 C47.8388757,18.9804 48.1054532,18.8064 48.3337173,18.6370667 C48.9095588,18.2097333 49.5022278,17.8034476 50.0939461,17.3984952 C51.1790859,16.6558167 52.293638,15.9621057 53.4266356,15.2957821 L53.6534778,15.1628762 C54.219432,14.8325905 54.7800623,14.564781 55.4518299,14.6639238 C56.0759324,14.7560794 56.6561489,15.0919024 57.2199599,15.3647024 L57.2782278,15.3926857 L59.0203933,16.2224 C58.8341504,15.4784 58.632506,14.738019 58.4221151,14.0004 C58.0117912,12.5616381 57.5603018,11.1349714 57.0706891,9.72106667 C56.6134004,8.40001905 56.1190594,7.0934243 55.5961915,5.79716475 L55.4387424,5.40812757 C55.2255591,4.87441506 55.0135757,4.29243231 54.4042489,4.12811429 C53.7953229,3.96382857 53.0968405,4.20744762 52.5402982,3.85973333 C52.4897208,3.82811429 52.4959954,3.74459048 52.5573158,3.7291619 L52.9007298,3.64245581 C53.5455229,3.48177585 54.301425,3.32013757 54.9111644,3.4764 C55.5746609,3.64668571 56.1235975,4.20449524 56.445506,4.7844 C56.8034319,5.42949524 57.0557366,6.1514319 57.3273767,6.83932283 L57.3704461,6.9476381 C57.682182,7.72611429 57.9820342,8.50925714 58.2689567,9.29735238 C58.8426116,10.8725905 59.3648335,12.466781 59.8375236,14.0753524 C60.0653123,14.8505905 60.2814074,15.6295429 60.4891363,16.4104 C60.5488405,16.6349714 60.6473335,16.9072571 60.7281433,17.1912571 C60.8207419,17.2817333 60.9083968,17.3826857 60.9906327,17.4978286 C61.1270588,17.6888762 61.0291363,17.9128762 60.8595306,18.0272571 C60.8529708,18.2226857 60.8096187,18.4064952 60.7059919,18.564019 C60.3014673,19.1791619 59.2320201,19.0206857 59.2754673,18.1937333 C59.2820271,18.0671619 59.3312736,17.9463048 59.4058088,17.8442095 L59.4037173,17.8276381 L59.4037173,17.8276381 L59.395256,17.7973524 L59.395256,17.7973524 C59.2095835,17.7082095 59.0231504,17.6088762 58.8266398,17.5116381 L56.9982454,16.6065905 L56.9982454,16.6065905 C56.4687032,16.3444 55.8817384,15.9393524 55.2928722,15.8394476 C54.7438911,15.7463291 54.1646754,16.1560622 53.6929315,16.4032765 L53.6623194,16.4191619 C52.5219496,17.0046857 51.3900412,17.6096381 50.2626011,18.2195429 C49.7122384,18.5173524 49.169006,18.8275429 48.6207349,19.1288762 C48.1623053,19.3808762 47.6675588,19.7425905 47.1522771,19.884781 C46.9321891,20.0562095 46.6707454,20.0332571 46.4606398,19.9036381 C46.5566609,20.4993524 46.5507665,21.1106857 46.5802384,21.7197333 C46.6198722,22.5339556 46.6259285,23.3504353 46.6390042,24.1657612 L46.6443158,24.4714476 C46.6789215,26.2739238 46.6974602,28.0768762 46.7043053,29.8797333 C46.7286433,36.2995429 46.6578158,42.7212571 46.6412736,49.1410667 C46.6329074,52.3665905 46.5691151,55.5948762 46.4854532,58.8191619 C46.4499773,60.1854183 46.3758387,61.5500382 46.2957519,62.9142332 L46.251675,63.6583048 C46.1584109,65.2283048 46.1033651,66.8156381 45.8132102,68.3644952 C45.7753722,68.5664952 45.4340694,68.5716381 45.4006046,68.3644952 C45.1335755,66.7048524 45.1187245,65.0087977 45.0673847,63.3296933 L45.0565447,62.9941143 C44.994844,61.1912571 44.9655623,59.3895429 44.971837,57.5857333 C44.9946539,51.1633524 45.1613123,44.7449714 45.2976433,38.3244 C45.3661891,35.0984952 45.4122982,31.8711619 45.5187771,28.6463048 C45.5720165,27.0326857 45.6322912,25.4201143 45.7037842,23.8071619 C45.7357278,23.0869952 45.7664341,22.3675577 45.8141819,21.6484666 L45.8357419,21.3403048 C45.8505729,21.1392571 45.8625518,20.9406857 45.8770975,20.7439238 C45.228432,20.9812571 44.6351926,20.5418286 44.0516504,20.2411619 C43.3791222,19.8945905 42.7068792,19.5474476 42.0340658,19.2015429 L41.3607173,18.8562377 L41.3607173,18.8562377 L40.0131539,18.1674476 C39.4064144,17.8572571 38.9389532,17.5485905 38.2918088,17.9124 C35.9603968,19.2226857 33.8179849,20.9661143 31.8764567,22.7955429 C31.5041609,23.1464 30.7174532,23.0521143 30.6231433,22.4641143 C30.2202993,19.9521579 30.4653038,17.4038452 30.670975,14.8842713 L30.746793,13.9488493 C30.838668,12.8315984 30.9387296,11.7143365 31.0720658,10.6016381 C31.131694,10.1038857 31.1910788,9.6064381 31.2567915,9.10963657 L31.3073651,8.7371619 C31.389506,8.14830476 31.4431257,7.56297143 31.6182454,6.99820952 C31.5630095,6.98030476 31.5098651,6.95097143 31.4623299,6.90582857 C30.9358299,6.40544762 31.189668,5.5371619 31.4299109,4.94192381 C31.6671116,4.3544 32.0288546,3.8416381 32.4818651,3.40030476 C32.5806433,3.30392381 32.7199215,3.24192381 32.8598651,3.23868571 C33.9582137,2.50973333 35.1631363,2.14592381 36.4172102,2.54382857 C36.4524338,2.37511429 36.4883526,2.20666786 36.5261698,2.03865 L36.5646644,1.87078095 C36.6622067,1.45392381 36.6984285,0.765352381 37.0574144,0.486495238 Z M48.3142944,66.3168476 C48.6551218,66.2229429 49.0282732,66.3218952 49.2780232,66.5720857 C49.5276782,66.8222762 49.6265514,67.1959905 49.5326218,67.537419 C49.485657,67.7055143 49.4007592,67.851419 49.2780232,67.9753238 C49.1632597,68.0894939 49.0293961,68.1709808 48.8765088,68.2197845 L48.8408894,68.2304667 L48.7851782,68.2537048 C48.6143366,68.2997048 48.4434,68.2997048 48.2726535,68.2537048 C48.1093225,68.2078 47.9675725,68.1250381 47.8472134,68.005419 C47.7277099,67.8848476 47.6450937,67.7428476 47.5992697,67.5791333 C47.5533507,67.4079905 47.5533507,67.2368476 47.5992697,67.0657048 L47.622562,67.0098952 L47.622562,67.0098952 C47.6695268,66.8418 47.7544246,66.6958 47.8771606,66.5720857 C48.0007521,66.4491333 48.1464951,66.3639905 48.3142944,66.3168476 Z M68.5518687,32.2941238 C68.6078651,32.2297429 68.6986574,32.312219 68.6638616,32.3806952 C68.1329884,33.4232667 67.5412701,34.4584095 66.9597243,35.4745048 C67.0063088,35.7561238 67.052513,36.0354571 67.1056574,36.3077429 C67.3322102,37.4683143 67.6097208,38.6079333 67.7906398,39.7795524 C68.4409215,43.9908857 68.7785165,48.2479333 69.0681961,52.4970762 C69.3587313,56.7614571 69.3959039,61.0277429 69.4395412,65.3005048 C69.443344,65.6707905 69.1589884,66.1011714 68.7779461,66.170981 C68.6034919,66.2028857 68.4729602,66.1966952 68.2988863,66.170981 C67.9023475,66.1125048 67.6543088,65.6574571 67.6372912,65.3005048 C67.523587,62.9125048 67.3706187,60.5275524 67.1934074,58.1432667 C66.8792947,53.916219 66.6873475,49.6781238 66.4336046,45.4466952 L66.3442403,43.9678015 C66.248337,42.3653303 66.1606127,40.7617485 66.1320412,39.1568857 C66.1130271,38.0936476 66.1697842,37.0306952 66.1348933,35.9686952 C66.1026644,34.988219 66.0034109,33.9221238 66.2192208,32.9587905 C66.2272067,32.9226952 66.2841539,32.9135524 66.3006011,32.9481238 C66.5249673,33.4212667 66.6670975,33.9355524 66.7766187,34.4605048 C67.354837,33.7279333 67.9437032,32.9937429 68.5518687,32.2941238 Z M30.6761356,6.3943292 C30.7573257,6.38849524 30.7540933,6.51068571 30.6761356,6.51973333 C29.5413776,6.65158519 28.4451706,7.11417263 27.3737105,7.50735422 L27.2819313,7.54087619 C26.1994595,7.93430476 25.1440827,8.39182857 24.1284454,8.9371619 C22.1427095,10.0034476 20.3192588,11.3783048 18.7070546,12.9522095 C12.2703116,19.2352571 9.33691373,28.2956381 7.18746655,36.8101143 C5.9931919,41.5406857 5.14392782,46.3512571 4.59347007,51.1986857 C4.32128345,53.596019 4.12886092,56.0024952 4.01667782,58.4126857 C3.95925528,59.6479238 3.92303345,60.8843048 3.90791725,62.120781 C3.90012148,62.7541143 3.89783979,63.3876381 3.89860035,64.0209714 C3.89898063,64.3112571 3.95069894,64.6766857 3.87321655,64.9584952 C3.80134331,65.2195429 3.59865317,65.4494476 3.44872711,65.6669714 C3.27104049,65.9250667 2.95169894,65.9114476 2.77154049,65.6669714 L2.70510543,65.5779938 C2.51296545,65.3226854 2.32496521,65.0785642 2.29751937,64.7448762 C2.26814261,64.3871619 2.28886796,64.0184 2.28753697,63.6590667 C2.28449472,62.9351619 2.29343134,62.2111619 2.30788204,61.4874476 C2.33573768,60.1002095 2.3903081,58.7135429 2.47140317,57.3284 C2.63606514,54.5174476 2.90711092,51.7122095 3.29518838,48.9233524 C3.98501937,43.9662095 5.01900528,39.0564 6.37337852,34.2388762 C7.651125,29.6942095 9.16483627,25.1629714 11.3212236,20.9532571 C13.3234067,17.0446857 15.9500123,13.4085905 19.4158996,10.6769714 C21.0276285,9.40668571 22.7821532,8.34801905 24.6737694,7.55078095 C25.6278011,7.14868571 26.6296532,6.8204 27.6485229,6.63325714 C28.6560792,6.44820952 29.6592623,6.47401905 30.6761356,6.3943292 Z M48.5096261,58.2838667 C48.6895944,58.2825333 48.890288,58.3221524 49.0446824,58.4218667 L49.2509852,58.581581 L49.2509852,58.581581 C49.3068866,58.6534857 49.3625028,58.7256762 49.4179289,58.7980571 C49.5469394,58.9664381 49.5640521,59.2389143 49.5371472,59.439581 C49.5310627,59.573581 49.4913232,59.6981524 49.4179289,59.8136762 L49.2608725,60.0173905 L49.2608725,60.0173905 C49.1099007,60.1407238 48.9840275,60.2287238 48.801207,60.2880571 C48.7056327,60.319 48.6136008,60.3254886 48.5218537,60.3207837 L48.4912775,60.318819 L48.5096261,60.3212952 L48.4774923,60.3176762 L48.4774923,60.3176762 C48.4476401,60.3151048 48.417693,60.3118667 48.3876507,60.3077714 C48.3672106,60.3052 48.3466754,60.3036762 48.3262352,60.300819 C48.3065556,60.2992 48.2875415,60.2984381 48.2676718,60.3002476 C48.0353197,60.3221623 47.8017317,60.1901524 47.6367845,60.0385333 C47.4881894,59.9018667 47.3548056,59.6120571 47.375531,59.4066286 L47.3843712,59.3207745 C47.4000366,59.1759395 47.4128651,59.1189571 47.474119,58.9734857 C47.5336331,58.8319619 47.6168197,58.7071048 47.7300486,58.601581 C47.9468092,58.399581 48.2121507,58.2859619 48.5096261,58.2838667 Z M47.7903898,47.6854667 C48.0987982,47.3488 48.6284356,47.3240381 49.0109039,47.5276571 C49.1040729,47.5773714 49.1896363,47.6570857 49.2717771,47.7235619 C49.4787454,47.891181 49.5600306,48.1935619 49.5714391,48.4483238 C49.5827525,48.7002286 49.4501292,48.9993714 49.2717771,49.1732762 L49.2285201,49.2152762 L49.2285201,49.2152762 C49.1219461,49.3190857 48.969263,49.4093714 48.8201926,49.4368 C48.5797595,49.4810857 48.3778299,49.4797524 48.1539391,49.3850857 C47.9615566,49.3037925 47.7957959,49.1730936 47.6830094,48.9957424 L47.6647067,48.9657524 C47.6569743,48.9533079 47.6496644,48.9406519 47.6428053,48.9277277 L47.6328581,48.9081333 C47.4185694,48.4953714 47.476182,48.0281333 47.7903898,47.6854667 Z M47.9501271,37.0312286 C48.0892151,36.9875143 48.2282081,36.9813238 48.3672961,37.0125619 C48.4617011,37.0127524 48.5497363,37.0366571 48.6313067,37.0839905 C48.7199123,37.1088476 48.7969194,37.1538 48.8621377,37.2188476 C48.9406658,37.2653238 49.0033173,37.3279905 49.0498067,37.4067524 C49.1423102,37.5079905 49.2046764,37.6267524 49.2370954,37.7631333 L49.274363,38.0417048 L49.2370954,38.3203714 L49.1315673,38.5707524 L49.1315673,38.5707524 C49.1025708,38.6086571 49.0733842,38.6465619 49.0439123,38.6842762 C48.9973278,38.7632286 48.9345813,38.826181 48.855768,38.8728476 C48.804525,38.9238952 48.7457715,38.9620857 48.6800778,38.9885619 C48.4471553,39.1558 48.1368454,39.2103714 47.860856,39.134181 C47.6969546,39.0882762 47.5546342,39.0051333 47.4339898,38.8850381 C47.314106,38.7640857 47.2311095,38.6215143 47.1852856,38.457419 L47.1663819,38.3263575 C47.1420301,38.1505595 47.1381479,38.0531853 47.1878525,37.8297048 C47.2096236,37.731419 47.2728454,37.5928476 47.3059299,37.5344667 C47.4473947,37.2853238 47.6785109,37.1145619 47.9501271,37.0312286 Z M60.0271701,29.3662667 C60.4265419,29.3634476 60.8259137,29.3642248 61.2252369,29.3686469 L61.5247194,29.3726476 C62.0262158,29.3805524 62.455744,29.3287429 62.8500011,29.6773143 C63.136163,29.9302667 63.0100996,30.3546476 62.7384835,30.545219 C62.3269236,30.8337905 61.8106912,30.6886476 61.3376208,30.6568381 C60.8386912,30.6233143 60.3393813,30.5955048 59.8398813,30.5730286 C58.8727299,30.5296952 57.9051982,30.5020762 56.9370961,30.4977905 C55.9710856,30.4936952 55.0036489,30.5028381 54.0377335,30.5184571 C53.0548954,30.5344571 52.0315574,30.6261714 51.0542335,30.5242667 C50.919994,30.5102667 50.8897616,30.3334095 51.0222898,30.2874095 C51.943237,29.9682667 52.9792194,29.8648381 53.9443743,29.7428381 C54.9398567,29.6168381 55.9353391,29.5276952 56.9370961,29.4698857 C57.9660433,29.4107429 58.9965116,29.3735048 60.0271701,29.3662667 Z M47.9482969,26.2316034 L47.9812532,26.2322476 C48.157032,26.2326921 48.3215478,26.2741202 48.4749551,26.3565321 L48.5076581,26.374819 L48.7187144,26.5380571 C48.8479151,26.6685333 48.9373764,26.8221524 48.986813,26.9991048 L49.0240806,27.276819 L49.0240806,27.276819 C49.0295947,27.4206286 48.9995525,27.5547238 48.9343342,27.6792952 C48.892218,27.808819 48.8203447,27.920819 48.7187144,28.0154857 C48.6242144,28.1172952 48.5123165,28.1892952 48.3831158,28.2314857 C48.2683293,28.2917934 48.145442,28.3220757 48.0142298,28.322108 L47.9812532,28.3214857 C47.7931088,28.320819 47.6176088,28.2732952 47.4550384,28.178819 L47.243887,28.0154857 L47.243887,28.0154857 C47.1146863,27.8851048 47.025225,27.7314857 46.9757884,27.5545333 L46.9384257,27.276819 L46.9384257,27.276819 C46.9331018,27.1330095 46.9629539,26.9987238 47.0283623,26.8743429 C47.0703835,26.744819 47.1422567,26.6327238 47.243887,26.5380571 C47.338387,26.4362476 47.4501898,26.3642476 47.5795806,26.3221524 C47.6942794,26.2617568 47.8171599,26.2315488 47.9482969,26.2316034 L47.9482969,26.2316034 Z M51.0398683,1.6915619 C51.2645197,1.3655619 51.6717063,1.65546667 51.6134282,1.9175619 C51.6288296,2.65365714 51.6663824,3.3680381 51.8336113,4.08908571 C51.910143,4.41918095 52.0104423,4.74965714 52.1651218,5.0520381 L52.2300875,5.17936818 C52.4303148,5.5756222 52.585739,5.94933114 52.3160937,6.3840381 C52.1889845,6.58899048 51.9592944,6.74289524 51.7103049,6.73213333 C50.606062,6.68441905 50.4543296,5.14470476 50.3872099,4.28518095 C50.3179986,3.39994286 50.533238,2.42708571 51.0398683,1.6915619 Z" id="ðŸ–-Ink" fill="#000000"></path>
                            </g>
                            <g id="head/Twists" transform="translate(35.366197, 17.142857)">
                                <path d="M6.46221232,9.75242857 C6.95524754,9.22242857 7.58584965,8.82757143 8.27520528,8.70138095 C7.64507852,9.01671429 7.02911725,9.34538095 6.46221232,9.75242857 Z M5.49648697,14.3223333 C5.40930739,13.9184286 5.35074401,13.510619 5.33230035,13.1029048 C5.44248697,13.2707143 5.61846232,13.3828095 5.81611373,13.4407143 C5.68843415,13.7270952 5.57986373,14.0221429 5.49648697,14.3223333 Z M38.4878393,20.6550298 C37.9187478,18.2819822 35.2636344,13.7174912 34.6360847,12.8389557 C33.9546199,10.6636223 37.6712651,8.91909524 35.6499729,7.21804762 C34.734825,6.45052381 33.5253391,6.17890476 32.3907687,5.90671429 C24.5350996,4.01680952 16.0949377,4.96995238 8.80912077,8.44528571 C7.70088486,8.21166667 6.54625458,8.6682381 5.74034261,9.47014286 C1.95416303,13.2823333 7.11401514,20.160619 8.24231092,24.4583333 C10.1781349,29.2504286 6.19050106,30.0565238 6.61812782,34.1110952 C6.95039894,36.2057619 9.06828275,36.759381 10.8555116,37.0759524 C11.1419588,37.1430952 11.5249025,37.1531905 11.6173109,37.4565238 C11.9068954,39.2270952 12.8996208,40.9144286 14.232413,42.0595714 C14.1158567,42.4054762 14.2048426,42.825381 14.615832,43.1291905 C18.3395504,45.9012857 23.0348043,47.2885632 27.6791736,47.0391905 C33.2139929,46.7420064 36.0762687,43.5640476 36.7669553,42.7457619 C40.5858391,37.579381 40.1295219,30.7628095 39.3505149,24.6057619 C38.8078431,20.3166401 39.4959787,24.8588573 38.4878393,20.6550298 Z" id="ðŸŽ¨-Background" fill="#FFFFFF"></path>
                                <path d="M21.4214292,0.908714286 C21.5954081,0.363952381 22.0878729,0.0363333333 22.6516405,0.103952381 C23.1507602,0.163 23.685056,0.659190476 23.6242109,1.20680952 C23.6128025,1.31252381 23.5975912,1.41157143 23.5795278,1.50490476 L23.5819046,1.5057381 L23.5819046,1.5057381 L23.5842813,1.50585714 L23.5719222,1.54204762 C23.5348447,1.71633333 23.4835067,1.87252381 23.4074504,2.02014286 C23.3104785,2.303 23.2173095,2.58680952 23.1250912,2.87157143 C23.2581898,2.86585714 23.3941405,2.87347619 23.5319926,2.89919048 C23.6745982,2.53347619 23.8181546,2.16871429 23.9607602,1.80204762 C24.1138236,1.41061905 24.2212532,0.907761905 24.5235771,0.604904762 C24.9105137,0.218238095 25.5817109,0.138238095 26.0532602,0.414428571 C26.5514292,0.705857143 26.7292109,1.22395238 26.6208306,1.77919048 C26.5657554,2.06240887 26.3768535,2.25950756 26.1431186,2.38334481 L26.1179081,2.39633333 L25.938225,2.823 C25.9933658,2.79919048 26.0504081,2.77728571 26.1122039,2.75919048 C26.2091757,2.73061905 26.3042461,2.71252381 26.3974151,2.70490476 C26.6541053,2.23919048 26.9364644,1.78680952 27.2283306,1.343 C27.5639292,0.83252381 28.2199151,0.615380952 28.7703729,0.938238095 C29.2628377,1.22680952 29.5271335,1.98490476 29.1744222,2.483 C28.9063236,2.86109524 28.6524856,3.24680952 28.4024504,3.63633333 C28.445232,3.64395238 28.4880137,3.65347619 28.528894,3.66585714 C28.5479081,3.64014286 28.5678729,3.61442857 28.5887884,3.58871429 C28.8616405,3.24966667 29.1791757,2.99538095 29.5052673,2.71347619 C29.8104433,2.44871429 29.9511475,2.03252381 30.3523447,1.83157143 C30.8571687,1.57919048 31.4656194,1.70014286 31.7660419,2.203 C32.4106194,3.28014286 31.328718,4.06680952 30.6366053,4.71919048 C31.2384011,4.343 31.8649151,3.99919048 32.5075912,3.70204762 C32.8688588,3.53538095 33.2358306,3.37442857 33.6085067,3.23538095 C34.1608658,3.02966667 34.6076968,3.09547619 35.0611827,3.4782381 C35.2636827,3.64966667 35.3644574,4.02404762 35.2712884,4.27347619 C35.0906546,4.75157143 34.8054433,5.04204762 34.3053729,5.18014286 C33.9536123,5.27728571 33.5932954,5.343 33.2415349,5.44490476 C32.6520982,5.61442857 32.0797743,5.82109524 31.524563,6.07919048 C31.5644926,6.10395238 31.6025208,6.13061905 31.6376968,6.16109524 C32.0522039,6.02680952 32.4743165,5.91061905 32.8983306,5.81157143 C33.6015547,5.64639286 34.3173124,5.53478571 35.0362036,5.46497893 L35.2750299,5.44270711 C36.1368876,5.35985374 37.173274,5.20694558 37.7022391,6.03347619 C37.876218,6.30585714 37.895232,6.75538095 37.7022391,7.02490476 C37.3333658,7.543 36.966394,7.64585714 36.3560419,7.65538095 C36.956887,7.71919048 37.5567813,7.7982381 38.1538236,7.89061905 C38.5653427,7.95347619 38.9768618,8.02472983 39.3865849,8.10378023 L39.5912884,8.14395238 C40.0904081,8.24395238 40.6475208,8.30204762 41.0762884,8.59157143 C42.0117813,9.22395238 41.572556,10.455381 40.5362884,10.5868095 C40.0352673,10.6496667 39.4791053,10.4372857 38.9875912,10.3382381 C38.5103377,10.2420476 38.0311827,10.1572857 37.5501264,10.083 C37.3010419,10.0439524 37.0519574,10.0096667 36.8019222,9.9782381 C37.3105489,10.0515714 37.8153729,10.155381 38.306887,10.3020476 L38.4434163,10.343319 C39.3936273,10.6334237 40.6762409,11.0954695 40.9726616,12.1125238 C41.1523447,12.730619 40.6608306,13.2696667 40.0656898,13.3058571 C39.5123799,13.3391905 39.0512884,13.0087143 38.5816405,12.7649048 C38.239387,12.5877619 37.8914292,12.455381 37.522556,12.3420476 C37.1413236,12.2249048 36.7524856,12.1277619 36.3607954,12.0487143 C36.6918133,12.2313983 37.0141885,12.4321854 37.3236352,12.6567999 L37.4658776,12.7620705 C38.2883707,13.3759977 39.5425933,14.3264857 39.2528377,15.4772857 C39.1615701,15.8401429 38.7575208,16.1868095 38.3696335,16.1496667 C37.3599856,16.055381 36.8028729,14.9782381 36.0413588,14.4010952 C35.8426616,14.250619 35.6249504,14.1020476 35.3967813,13.9572857 C36.5509363,15.3363333 37.4693165,16.930619 38.1680842,18.5772857 C39.7038013,22.1999388 40.174927,25.5548083 40.1862257,29.4499768 L40.1864292,29.570619 C40.1883306,31.7191905 40.1398447,33.9068095 39.9306898,36.0458571 C39.7367461,38.0220476 39.3811827,39.9725238 38.4865701,41.7621429 C36.9873095,44.763 34.0657954,47.1001429 30.8438588,47.9896667 C27.2587532,48.9801429 23.2515349,48.2058571 20.3148095,45.9201429 C19.5656546,45.3372857 20.5591405,44.0716667 21.3244574,44.6096667 C24.3809715,46.7572857 28.3339996,47.4372857 31.8420982,45.9839524 C34.6248095,44.8315714 36.8656194,42.3525238 37.8153729,39.4982381 C38.4198968,37.6823996 38.5958961,35.7462532 38.8115319,33.8538552 L38.8259715,33.7277619 C39.0541405,31.7487143 39.1862884,29.7563333 39.184387,27.7639524 C39.1815349,24.0639524 38.6510419,21.0182381 37.0262884,17.6620476 C36.2619222,16.0810952 35.2703377,14.6192857 34.0857602,13.3363333 C33.726394,13.4096667 33.3442109,13.3068095 32.9810419,13.2677619 C32.7956546,13.2477619 32.6102673,13.2287143 32.4248799,13.2115714 C32.6142602,13.3342381 32.7999898,13.461781 32.9825554,13.5922983 L33.2220066,13.7652745 C33.9713151,14.3028443 34.9219785,14.9151481 34.729387,15.9544286 C34.6770982,16.235381 34.3975912,16.4934762 34.1266405,16.5572857 C33.144563,16.7915714 32.469563,15.835381 31.8059715,15.2677619 C31.228894,14.7744286 30.6251968,14.3325238 30.0100912,13.8896667 C29.8703377,13.7896667 29.7296335,13.6896667 29.5879785,13.590619 C29.7210771,13.7460476 29.850525,13.9039143 29.9768089,14.0632438 L30.1635135,14.3002991 C30.7284679,15.0084268 31.5428793,15.9288561 31.0397039,16.8468095 C30.8970982,17.1058571 30.5928729,17.2782381 30.2981546,17.2725238 C29.2847039,17.2515714 28.8816053,16.0991905 28.4062532,15.3715714 C27.9974504,14.7477619 27.5534715,14.1601429 27.0942813,13.5725238 C26.9678377,13.4115714 26.8404433,13.250619 26.7111475,13.0896667 C24.5825208,13.2001429 22.4614996,13.4820476 20.377556,13.9325238 C18.9457954,14.2420476 17.5378025,14.6430952 16.1402673,15.0820476 L16.0241237,15.1190601 C15.2677883,15.3630062 14.4884998,15.6752184 13.9431898,16.210619 C13.8653461,16.5794952 13.9251021,16.9685238 13.9995675,17.3369163 L14.0576051,17.6188919 C14.2967282,18.7980048 14.4596599,19.9552857 14.337732,21.1658571 C14.2112884,22.4144286 13.8357602,23.5372857 13.3775208,24.6972857 C13.1607602,25.2439524 12.936394,25.1449048 12.859387,25.7315714 C12.8003958,26.1784286 12.8368814,26.6397357 12.8771793,27.090343 L12.9108558,27.472345 C12.9953728,28.4730103 13.0378122,29.5639993 12.3830842,30.3896667 C12.2813588,30.5163333 12.0636475,30.4658571 11.991394,30.3391905 C11.9628729,30.2887143 11.9324504,30.2401429 11.8991757,30.1934762 C11.5835419,29.735381 11.0996335,29.4744286 10.5463236,29.3734762 C10.4759715,29.3610952 10.5035419,29.2668095 10.5624856,29.2591905 C11.030232,29.2039524 11.4732602,29.3210952 11.8497391,29.563 C11.6712057,28.9445615 10.2890468,29.2453199 9.83468253,29.3655017 L9.81903486,29.3696667 C9.25241514,29.5220476 8.71621796,29.7696667 8.24371796,30.1201429 C7.29301373,30.8249048 6.74350669,31.9239524 6.77107711,33.1077619 C6.79864754,34.2715714 7.3985419,35.3468095 8.42910528,35.9039524 C8.92632359,36.1725238 9.49199261,36.3020476 10.0548095,36.2963333 C10.6423447,36.290619 11.165232,36.0325238 11.753718,36.0687143 C12.0940701,36.0896667 12.354563,36.455381 12.1577673,36.7744286 C12.0265701,36.9877619 11.8554433,37.155381 11.6576968,37.2839524 C12.1397039,38.3972857 12.7548095,39.4591905 13.4640349,40.4391905 C13.8566757,40.983 14.3016053,41.4849048 14.791218,41.943 C15.1734011,42.3010952 16.0014644,42.715381 15.9548799,43.3125238 C15.938718,43.5277619 15.8274856,43.6591905 15.6316405,43.7391905 C15.0227588,43.9885492 14.2823784,43.1299271 13.8751281,42.715989 L13.8424151,42.683 C13.3347391,42.1763333 12.8717461,41.6163333 12.4686475,41.0220476 C11.753718,39.9668095 11.3097391,38.7772857 11.1262532,37.5277619 C10.1498799,37.8220476 8.85692218,37.5458571 8.06023204,37.1849048 C5.55607711,36.0515714 4.73752077,32.6734762 6.25959824,30.4239524 C6.55431655,29.9887143 6.92318979,29.6163333 7.34340106,29.315381 C7.25118275,29.2649048 7.16466866,29.2001429 7.08766162,29.1182381 C6.661673,28.6649414 6.36049946,28.0734015 6.06159099,27.5281911 L6.025725,27.463 C5.76037289,26.983 5.51004425,26.495475 5.27540679,26.000425 L5.18815458,25.8144286 C4.66431655,24.6858571 4.20512641,24.1925238 3.83149965,23.0058571 C3.47213345,21.8610952 3.18882359,20.6944286 3.00533768,19.5077619 L2.95657824,19.1936585 C2.85046162,18.5050868 2.75010528,17.7687778 2.82755599,17.0696667 C2.29421092,17.2439524 1.75801373,17.3515714 1.23037289,17.0896667 C0.882415141,16.9172857 0.690372887,16.4144286 0.809210915,16.0534762 C0.895725,15.7877619 1.04023204,15.5791905 1.22371796,15.415381 C1.11438697,15.3601429 1.01171092,15.2896667 0.921394014,15.2115714 L0.842485563,15.1430952 L0.842485563,15.1430952 C0.523048944,14.8649048 0.500232042,14.3363333 0.694175704,13.9877619 C0.713189789,13.9544286 0.732203873,13.9201429 0.750267254,13.8868095 C0.934703873,13.5563333 1.31593627,13.3401429 1.69241514,13.3458571 C1.75326021,13.3468095 1.81410528,13.3468095 1.87590106,13.3458571 C1.70002077,13.3068095 1.52794331,13.2468095 1.36442218,13.1458571 C0.626675704,12.6915714 0.719844718,11.4601429 1.61255599,11.243 C1.98713345,11.1525238 2.40068979,11.1896667 2.81329542,11.2868095 C2.79808415,11.2782381 2.78287289,11.2696667 2.76766162,11.2601429 C2.45583063,11.0687143 2.19438697,10.6944286 2.2238588,10.310619 C2.25618275,9.88585714 2.39308415,9.583 2.76766162,9.36014286 C3.09280246,9.1677619 3.55294331,9.14966667 3.87618275,9.36014286 C4.15664049,9.54395238 4.43139401,9.74680952 4.69568979,9.96490476 C4.43044331,9.6382381 4.20037289,9.283 4.10720387,8.90585714 C3.99216866,8.43633333 4.18421092,7.92490476 4.60632359,7.67728571 C4.94287289,7.48014286 5.29843627,7.50204762 5.61597148,7.65442857 C5.5988588,7.4077619 5.65875317,7.15633333 5.8222743,6.93347619 C6.15692218,6.47642857 6.76537289,6.21347619 7.29491514,6.54680952 C7.36431655,6.59061905 7.45748556,6.66585714 7.54780246,6.7582381 C7.37192218,6.19728571 7.53068979,5.60871429 8.13058415,5.35538095 C8.49660528,5.20014286 8.99192218,5.2782381 9.30945739,5.54585714 C9.1079081,4.45347619 10.7174504,3.65061905 11.3430137,4.77919048 C11.4849856,5.03485185 11.625455,5.3040582 11.751068,5.57945176 L11.7974504,5.683 L11.8022039,5.68109524 L11.7702364,5.60538095 L11.7702364,5.60538095 L11.737556,5.52966667 C11.5635771,5.12490476 11.342063,4.70395238 11.281218,4.26490476 C11.1918518,3.61538095 11.4808658,2.99919048 12.1862884,2.90395238 C12.5504081,2.85442857 12.9554081,3.02014286 13.1997391,3.3097619 C13.0675912,2.30204762 14.1913236,1.56966667 15.0003729,2.32204762 C15.3835067,2.6782381 15.5879081,3.19919048 15.8312884,3.65633333 C15.9691405,3.91442857 16.1098447,4.17157143 16.2476968,4.43061905 C16.2828729,4.38871429 16.3209011,4.34680952 16.3608306,4.30585714 C16.1564292,3.69252381 15.9976616,3.06395238 15.8636123,2.43157143 C15.736218,1.83538095 16.0337884,1.21633333 16.6479433,1.04785714 C17.2060067,0.89347619 17.9047743,1.23833333 18.0293165,1.83357143 C18.1167813,2.25252381 18.2204081,2.66690476 18.3344926,3.07919048 C18.4124504,3.06014286 18.4894574,3.04680952 18.5655137,3.03728571 C18.5718518,2.9598254 18.5790349,2.8819418 18.587063,2.80448148 L18.6169863,2.52898606 C18.6834695,1.89951596 18.7505258,1.18094486 19.078894,0.645857143 C19.6388588,-0.268428571 21.0744222,0.110619048 21.0896335,1.19157143 C21.0981898,1.75061905 20.8709715,2.30490476 20.792063,2.8582381 C20.7578377,3.09919048 20.7378729,3.343 20.7264644,3.58680952 C20.8795278,2.77728571 21.0896335,1.9782381 21.3330137,1.19157143 C21.3615349,1.09728571 21.3919574,1.003 21.4214292,0.908714286 Z M9.03564507,32.1258857 C10.2953282,31.9306476 11.446631,32.6344571 12.1929338,33.6201714 C12.3288845,33.8001714 12.2395183,34.0544571 12.1168775,34.2058857 C12.028462,34.3173143 11.9096239,34.3306476 11.7755746,34.3477905 C11.6215606,34.3677905 11.4266662,34.2430286 11.3591662,34.1087429 C10.8790606,33.1487429 10.0224761,32.5420762 9.03564507,32.1687429 C9.01758169,32.1620762 9.01187746,32.1296952 9.03564507,32.1258857 Z M10.7818816,14.9254606 L10.8200313,14.8844286 C11.0749151,14.6195714 10.6721018,14.215 10.4166475,14.4804286 C10.1476933,14.7598571 9.96896092,15.0992857 9.79707359,15.4432857 C9.63326725,15.7712857 10.1251616,16.061 10.2896335,15.7317619 L10.3645274,15.5821182 C10.4820711,15.349435 10.6074268,15.1195558 10.7818816,14.9254606 L10.7818816,14.9254606 Z M7.24424261,14.3818571 C7.60551021,14.3209048 7.45235176,13.7701429 7.09260528,13.8309048 C6.62657007,13.9095714 6.1623412,13.999 5.69621092,14.0777619 C5.33503838,14.1387143 5.48819683,14.6894762 5.84794331,14.6288095 C6.31397852,14.5500476 6.77820739,14.460619 7.24424261,14.3818571 Z M28.765144,10.6217619 C28.4161405,10.5050952 28.2664046,11.0568095 28.6135067,11.1728095 C29.093137,11.3330952 29.5688694,11.497381 30.0238764,11.7199524 C30.3525349,11.8807143 30.6420243,11.3880476 30.3117496,11.2265238 C29.8123447,10.9822381 29.291644,10.7977619 28.765144,10.6217619 Z M7.16210176,9.88119048 C6.8212743,9.74461905 6.67324965,10.2970952 7.01046444,10.4322381 L8.24257711,10.9258571 L8.24257711,10.9258571 C8.58340458,11.0624286 8.73142923,10.5100476 8.39421444,10.3749048 L7.16210176,9.88119048 L7.16210176,9.88119048 Z M33.0674573,8.53952097 L33.0224926,8.51109524 C32.7135137,8.31052381 32.4272567,8.805 32.7345243,9.00452381 C32.9149173,9.12159048 33.1342342,9.20099196 33.2994109,9.34044756 L33.3339433,9.37128571 C33.6007109,9.62366667 34.0048553,9.22042857 33.7373271,8.96719048 C33.5416009,8.78210119 33.293818,8.67904315 33.0674573,8.53952097 L33.0674573,8.53952097 Z" id="ðŸ–-Ink" fill="#000000"></path>
                            </g>
                            <g id="face/Old" transform="translate(50.482394, 34.857143)">
                                <path d="M16.7352189,22.8232527 C16.1275456,22.8282305 15.4444184,22.599793 14.9876551,22.4209356 L14.8685496,22.3736799 C14.4731601,22.215044 14.067074,22.0329256 13.7642339,21.7273269 C13.6673906,21.6280108 13.5642815,21.5156255 13.5119106,21.3974394 C13.4812336,21.32821 13.4684814,21.2565365 13.4981199,21.1853296 C13.6076453,21.1745456 13.7114222,21.1605095 13.8097191,21.1425122 C13.8565235,21.1339428 13.901358,21.1250565 13.9357432,21.1248266 C14.0624478,21.1240177 14.1877833,21.1401673 14.3130266,21.1560268 C14.3311642,21.1583235 14.3492996,21.1606199 14.3674408,21.1628696 C14.4649502,21.1749571 14.5619853,21.1880154 14.658842,21.201048 C14.9405793,21.2389572 15.2208339,21.2765505 15.5066568,21.2902429 C15.7130329,21.300166 15.9294066,21.2885483 16.1477034,21.2766478 C16.7139015,21.2457812 17.2992691,21.2036511 17.7355146,21.6009191 C17.8497607,21.704959 17.8975211,21.8360245 17.8975211,21.9695287 C17.8975211,22.1317592 17.8293523,22.2969014 17.7253819,22.4264741 C17.4898861,22.7197968 17.1274649,22.8200396 16.7352189,22.8232527 Z M20.0486635,17.7070665 C19.7843207,18.1043753 19.3438811,18.3598524 18.7403819,18.332094 C17.5409207,18.2771521 16.1093876,17.8238114 15.1047963,17.1682786 C14.8431791,16.9976153 14.6735409,16.7247547 14.6431191,16.4324304 L14.5889958,15.9123585 L14.2965163,16.3454499 C14.2660432,16.3905732 14.2353056,16.4355709 14.2045533,16.4805909 C14.1198643,16.604572 14.0352462,16.728531 13.9553889,16.8555828 C13.6489224,17.3434031 13.3679873,17.8360663 13.1128658,18.3527967 C12.9322544,18.7186787 12.8002,19.1279153 12.6677662,19.5407927 C12.4442121,20.2378813 12.2282458,20.9234695 11.7505761,21.4134022 C11.6783535,21.4875062 11.5673296,21.5140232 11.465717,21.5009238 C11.3761485,21.489377 11.2883725,21.4453851 11.2453514,21.3577463 C10.6746271,20.1951027 11.4422643,18.7940537 12.0649676,17.8200324 L12.1308288,17.7183204 C12.7082388,16.8381283 13.6512629,15.6732781 14.7312529,15.5149263 L14.8549014,15.7124651 L15.0346664,15.5923609 C15.3286723,15.3959303 15.7167594,15.4050676 16.0565341,15.558746 L16.3963289,15.7123765 C17.028848,15.9967274 17.6527644,16.2590891 18.3371244,16.4027959 C18.3869954,16.4132682 18.4368255,16.4230361 18.4865792,16.4321177 C18.5335391,16.4406893 18.580778,16.4487128 18.628266,16.4561548 C18.6180281,16.4094188 18.6070955,16.3628941 18.5961379,16.3164959 C18.5845463,16.2674134 18.5728663,16.2182171 18.5603444,16.1691728 C18.5474146,16.1185312 18.5336194,16.0681792 18.5198406,16.0180214 C18.4650169,15.8180524 18.4030757,15.6198724 18.3296339,15.4258405 C18.0533189,14.6964025 17.6121344,14.0141902 17.1828737,13.3634827 L17.1323558,13.286936 C17.0708104,13.1936897 17.0034243,13.0964041 16.9336985,12.9957731 C16.5989632,12.5129026 16.2277211,11.988849 16.2014188,11.4628034 C16.6457648,11.490826 17.0175813,11.7673574 17.3448796,12.0081254 C17.7940386,12.3383195 18.2103043,12.7159129 18.5879091,13.1261489 C19.320336,13.9219842 19.9776948,14.9394189 20.2659776,15.9911793 C20.4310295,16.5934407 20.3584275,17.2414894 20.0486635,17.7070665 L20.0486635,17.7070665 Z M8.32981626,11.7070363 L8.32969365,11.6855805 C8.33102464,11.0782675 8.68411714,9.69163959 9.55687407,9.69163959 C10.1021008,9.69163959 10.4331231,10.6353353 10.4904283,11.60815 L10.4924187,11.6478142 C10.5177244,12.2526261 10.3520437,13.5746397 9.55687407,13.5746397 C8.75328944,13.5746397 8.33807858,12.3225282 8.32981626,11.7070363 L8.32981626,11.7070363 Z M21.1790869,11.5165601 L21.1792095,11.4951043 C21.1778785,10.8877913 20.824786,9.5011634 19.952029,9.5011634 C19.420433,9.5011634 19.092465,10.3982641 19.023285,11.3447816 L19.0184748,11.4176738 C18.9840502,12.002066 19.1389905,13.3841635 19.952029,13.3841635 C20.7556137,13.3841635 21.1708245,12.132052 21.1790869,11.5165601 L21.1790869,11.5165601 Z M11.269105,7.59696179 C11.1534488,7.61054141 11.0383664,7.62833781 10.9233424,7.64664309 C10.5877394,7.7002005 10.2539536,7.76448854 9.92245056,7.83941426 C9.29282858,7.98180993 8.66826164,8.16159587 8.05563207,8.36476232 C7.48236081,8.55495144 6.91800843,8.76988276 6.3537933,8.98479399 C6.3236851,8.99626229 6.29357727,9.00773046 6.26345656,9.01919922 C6.06424581,9.0950813 5.86569953,9.18009533 5.66654211,9.26540028 C5.36344145,9.39522715 5.05895081,9.52592416 4.7482308,9.62440849 C5.5668595,8.49051237 6.8283218,7.65033781 8.04209499,7.04911527 C8.7346292,6.70609166 9.46932521,6.42947794 10.2083795,6.20282519 L10.6199574,6.07893176 C11.2259975,5.89981701 11.8886338,5.73436681 12.4579273,6.09150681 C12.6830909,6.23276443 12.8267702,6.45233933 12.872022,6.68971712 C12.9163994,6.92250755 12.8657729,7.17210363 12.7053137,7.38040847 C12.5654985,7.56187176 12.3912823,7.66521834 12.2058573,7.70063768 C12.0012017,7.73973043 11.7843127,7.69679791 11.5868798,7.59116435 C11.4287072,7.57936237 11.3820302,7.58362745 11.3352363,7.58884002 L11.269105,7.59696179 Z M20.3861532,7.71232606 C19.9805321,7.62399206 19.5788857,7.58852797 19.1627428,7.60124297 C18.974555,7.60690775 18.7924944,7.63602932 18.6109172,7.66533569 C18.3289116,7.71085109 18.0479913,7.75786075 17.7441711,7.70263761 C17.585665,7.67379979 17.4506619,7.5809259 17.3463852,7.45968828 C17.2244769,7.3179513 17.143822,7.1368016 17.1179596,6.96455703 C17.0912421,6.7866299 17.117824,6.63102814 17.1835388,6.49362499 C17.2611742,6.33129698 17.3919632,6.19449403 17.5500276,6.07465667 C18.0283222,5.71192652 18.8489754,5.79916435 19.4134543,5.87250045 C19.9712666,5.94514768 20.5259874,6.11842279 21.0191019,6.39362521 C21.5055787,6.66527579 21.9284869,7.0311948 22.2585064,7.4784738 C22.5366572,7.85547508 22.6676865,8.28937516 22.8029961,8.73117846 C22.1665039,8.19629367 21.1924572,7.88766874 20.3861532,7.71232606 Z" id="ðŸ–-Ink" fill="#000000"></path>
                            </g>
                            <g id="facial-hair/Goatee-2" transform="translate(47.059853, 49.333301)">
                                <path d="M22.5882095,6.27421905 C22.8487025,6.5418381 23.0987377,6.82850476 23.3345123,7.12469524 C23.4001109,7.59517143 23.4153222,8.0713619 23.3554278,8.56279048 C23.267963,9.27517143 23.0740194,9.9713619 22.811625,10.6399333 C22.6566602,10.6180286 22.5035968,10.574219 22.3543363,10.5056476 C21.8808856,10.2875524 21.6165898,9.84850476 21.2962025,9.46088571 C20.6582799,8.69040952 19.494618,8.23517143 18.6808151,9.03421905 C18.3271532,9.3818381 18.1008856,9.86279048 17.7852518,10.2446952 C17.4382447,10.6646952 17.048456,11.0637429 16.6415546,11.4256476 C16.5911673,11.4713619 16.5388785,11.5208857 16.4846884,11.5694571 C16.2584208,11.3104095 16.035956,11.0494571 15.8182447,10.7846952 C15.1708151,9.99612381 14.6118011,9.12279048 14.3180335,8.13802857 C14.2248644,7.82564762 14.1668715,7.49993333 14.1440546,7.1713619 C14.432118,6.81326667 14.7610616,6.48755238 15.1346884,6.21802857 C16.2612729,5.40374286 17.5589842,5.2713619 18.9089842,5.20088571 C20.3055687,5.12850476 21.5633504,5.22374286 22.5882095,6.27421905 M25.9955335,10.0523143 C25.9413433,9.50755238 25.8576813,8.94088571 25.7340898,8.37517143 C25.2825053,6.27612381 24.3042306,4.18374286 22.3429278,3.22469524 C21.4150405,2.77040952 20.3607095,2.61040952 19.3605687,2.82945714 C17.6055687,2.1713619 15.656625,2.84279048 14.2752518,4.0466 C12.6457447,5.4666 11.8937377,7.69517143 11.6408504,9.78279048 C11.4649701,11.2351714 11.398706,13.1756476 11.8100757,14.2294571 C12.2214454,15.2832667 14.835787,18.1012667 18.5676813,18.1208857 C23.8830687,18.1487905 25.1750757,14.5580286 25.3319419,14.2437429 C25.9869771,12.9370762 26.1390898,11.494219 25.9955335,10.0523143" id="ðŸ–-Ink" fill="#000000"></path>
                            </g>
                            <g id="accessories/Glasses-4" transform="translate(39.834507, 40.095238)">
                                <path d="M35.2014619,8.96011606 C34.3287429,10.0523971 30.912232,11.2648231 29.0938745,9.94865939 C27.2755169,8.63249569 26.5569222,7.71526057 26.3138667,6.07065026 C26.2879501,5.89528807 25.9714367,5.77864698 25.8376285,5.90315234 C25.0883755,6.60031426 24.6033643,7.48825837 24.1228487,8.37847426 C23.5809046,9.38249441 23.047118,10.392677 22.0622601,11.0723513 C20.3178713,12.0090488 17.1621161,12.1424515 16.2297834,11.7292684 C14.4437904,10.9377674 13.0309898,9.24500301 12.7097163,6.9155053 C12.491857,6.22662961 12.287505,5.80971551 12.0966604,5.66476301 C11.8252913,5.45864961 10.3276841,5.27503121 10.1636223,5.2445363 C7.20701648,4.69497892 3.46768471,4.34466985 0.834338712,6.27809733 C0.47796612,6.49389366 -0.74206192,7.30462074 -0.760364265,7.10527238 C-0.772854654,6.32441488 0.110491186,4.55702578 2.11949129,3.71605389 C4.60385552,2.67609353 8.29687064,2.61527274 10.4363238,2.84478016 C10.5439232,2.85632277 10.9107179,2.76603439 10.9366339,2.75479417 C14.1779135,1.34899436 17.9074159,1.72235512 21.3755852,2.31321896 C21.8725534,2.40982837 26.3215303,3.51338101 28.0912075,2.84478016 C31.0171123,1.64820151 34.1366654,0.781320057 37.2963026,1.12237361 C37.3227229,1.12522544 37.721597,3.55059235 37.4108758,3.71605389 C37.1636047,3.84772775 36.7428396,4.18513349 36.5933649,4.36978702 C36.4597402,4.53486035 36.3755333,4.74008236 36.3830019,5.02439125 C36.4430906,6.66907521 35.9746398,7.99241914 35.2014619,8.96011606 Z M23.1713581,7.49257907 C23.5423611,6.95495557 23.6594363,5.74724312 23.5041089,4.86617756 C23.4254617,4.42006642 23.2727511,4.06497102 23.0811085,3.88820923 C22.9537226,3.77071464 22.808378,3.71540365 22.6498712,3.7236129 C22.5629658,3.72811382 22.4687988,3.75287451 22.3691683,3.80672128 C21.0198059,3.07551965 19.3851265,2.81224847 17.8356007,2.88796343 C16.6020815,2.88773205 15.7219928,3.17940088 15.1251719,3.63342239 C14.4070396,4.17972944 14.0834981,4.96507589 14.0647787,5.81678139 C14.0425661,6.82741503 14.456995,7.93304859 15.136823,8.80789392 C15.7875167,9.64524741 16.6776379,10.2660225 17.6432941,10.4092481 C18.7395141,10.6272396 19.8566237,10.4163419 20.827897,9.90045429 C21.8240663,9.3713432 22.6655439,8.52157319 23.1713581,7.49257907 Z M33.9883832,8.06271812 C34.613623,7.32256623 35.0293672,6.3596807 35.0926508,5.40564947 C35.1502434,4.5374125 34.9181593,3.67737918 34.2764625,2.96664023 C33.6947181,2.46642868 32.6667417,2.45814069 31.5853574,2.73669395 C30.1870617,3.09688029 28.7404984,3.90181505 28.2582732,4.42167261 C28.1446838,4.48133498 28.0392535,4.58523083 27.9474059,4.80808818 L27.946749,4.88753664 C27.8006678,5.56244614 27.8873452,6.24733535 28.1400412,6.87914868 C28.414534,7.56546025 28.8853092,8.1884931 29.4593284,8.66386287 C30.2219587,9.29318837 31.0180554,9.48584122 31.7631802,9.38421512 C32.6071971,9.26910133 33.3920388,8.76866392 33.9883832,8.06271812 Z" id="ðŸŽ¨-Background" fill="#FFFFFF"></path>
                                <path d="M27.9905958,2.57746667 C30.9534655,1.36565714 34.1205465,0.492228571 37.3268915,0.83832381 C37.592043,0.73727619 37.9211768,0.822419048 38.0386838,1.1980381 C39.1807648,4.68327619 36.6339232,3.7140381 36.6681486,5.01689524 C36.9351063,12.3219429 27.1338211,13.5694667 26.0317648,6.11251429 L26.0115148,6.12451429 L26.0115148,6.12451429 C24.4259303,7.60670476 24.0919479,10.0186095 22.2240993,11.3076571 C18.4561732,14.0681333 13.1149268,11.8809905 12.4288986,6.96670476 L12.4139355,6.90022209 C12.1836512,5.89729676 11.9083213,5.64862168 10.7725817,5.6535619 L10.5931559,5.61785088 C7.64225759,5.03543314 3.71270535,4.51205714 0.994778873,6.51499048 C0.403630986,6.85937143 0.375870423,7.74470476 -0.123629577,8.12937143 C-0.67085493,8.23584762 -1.00797465,7.57651429 -1.04505211,7.12022857 C-1.13175634,2.57137143 6.99391268,2.24413333 10.6330183,2.63451429 C10.7025148,2.56241905 10.8509197,2.57137143 10.9009268,2.66118095 C14.1920746,1.23375238 17.8999162,1.43127619 21.4237965,2.0315619 C23.6067085,2.45489524 25.7627155,3.41918095 27.9905958,2.57746667 Z M37.031888,1.67813333 C35.2539761,1.58908571 33.6094479,1.68651429 31.8643352,2.11460952 C30.9446239,2.33689524 30.2388211,2.61794286 29.358469,2.95594286 C23.8673915,5.39299048 23.2340324,1.06108571 10.9254549,2.75918095 C11.0846979,3.44241905 11.1139796,4.11889524 11.1225359,4.7608 C13.6357206,4.65934857 13.0440107,7.06331277 13.9855719,8.75185438 L14.0145782,8.8028 C15.3868246,11.266419 18.6249232,12.4155619 21.2369831,10.7814667 C23.4161873,9.50908571 23.6287648,6.28194286 25.798462,5.00118095 C27.6792401,4.92708571 26.9279937,7.46994286 27.9515218,8.51508571 C29.392219,10.4408952 32.4545324,10.7101333 34.2610606,8.89870476 C35.1086134,8.02708571 35.559057,6.92041905 35.5839655,5.73146667 C35.6312155,4.97184762 35.5011592,4.19994286 36.0744338,3.66565714 C36.4762965,3.25670476 37.1902754,3.39318095 37.2722261,2.77499048 C37.3243246,2.40946667 37.1725923,2.01299048 37.031888,1.67813333 Z M17.7097183,2.67378095 C19.4758415,2.5866381 21.3445458,2.89387619 22.8610141,3.76159048 C23.9835106,2.86673333 24.2585493,6.42311429 23.5134824,7.45178095 C22.4400423,9.65197143 19.9409261,11.0985429 17.5345986,10.6181619 C13.7806479,10.0732095 11.1650704,2.66720952 17.7097183,2.67378095 Z M22.7532042,4.00006667 L22.6571483,3.98600348 C21.0302659,3.73733048 16.6004594,2.58527048 14.8919261,4.40359048 C13.2338028,7.41968571 17.4403838,12.485781 21.8179014,8.45054286 C23.0362289,7.20797143 23.5084437,5.70120952 22.7532042,4.00006667 Z M27.9088257,4.38554286 C28.7513398,3.38620952 33.0451954,1.36201905 34.5418891,2.66097143 C37.2735475,5.72773333 32.9414736,11.9308762 29.3130158,8.90868571 C28.1044806,7.89849524 27.3094067,6.28897143 27.6573644,4.7304 L27.6578996,4.66506667 C27.6586532,4.64138413 27.6630687,4.64678095 27.6883574,4.61725714 C27.7331356,4.49944762 27.8137553,4.42420952 27.9088257,4.38554286 Z M34.5037658,6.24430476 C35.4249982,1.23887619 31.5747412,3.14173333 28.4126989,4.47773333 C28.5823996,4.63306667 28.5816391,4.8451619 28.532868,5.01944762 C28.1993609,8.73335238 32.7054137,10.8379238 34.5037658,6.24430476 Z M10.569131,2.87775238 C9.25021901,3.32518095 0.526461972,2.52499048 -0.27945,6.6215619 C0.571240141,5.24089524 2.33308521,4.69299048 3.91695845,4.39565714 C6.0713493,3.99118095 8.21395141,4.22537143 10.3381099,4.65099048 L10.3819807,4.21060588 C10.4290919,3.74348512 10.4787638,3.30649748 10.569131,2.87775238 Z" id="ðŸ–-Ink" fill="#000000"></path>
                            </g>
                        </g>
                    </g>
                </g>
            </g>
        </g>
    </g>
</svg>