<?xml version="1.0" encoding="UTF-8"?>
<svg width="198px" height="198px" viewBox="0 0 198 198" version="1.1" xmlns="http://www.w3.org/2000/svg" xmlns:xlink="http://www.w3.org/1999/xlink">
    <!-- Generator: Sketch 63.1 (92452) - https://sketch.com -->
    <title>Group 15</title>
    <desc>Created with Sketch.</desc>
    <g id="Page-1" stroke="none" stroke-width="1" fill="none" fill-rule="evenodd">
        <g id="Sysl-homepage" transform="translate(-216.000000, -2287.000000)">
            <g id="Group-15" transform="translate(216.000000, 2287.000000)">
                <g id="Group-10">
                    <circle id="Oval-Copy" fill="#DF7A00" cx="99" cy="99" r="99"></circle>
                    <ellipse id="Oval" fill="#FFFFFF" cx="99" cy="98.5" rx="79" ry="78.5"></ellipse>
                    <path d="M131.422416,63.8379211 L102.887182,55.4864431 C100.671867,54.8378523 98.3289892,54.8378523 96.1129895,55.4864431 L67.5780981,63.8377512 C65.4713402,64.4542269 64,66.4069662 64,68.5867208 L64,92.0382841 C64,102.891518 67.2555094,113.342208 73.4146598,122.260545 C79.4277549,130.967838 87.796056,137.666489 97.6139517,141.63161 C98.2221445,141.877147 98.8611578,142 99.5001712,142 C100.139185,142 100.778198,141.876977 101.386219,141.63161 C111.204115,137.666489 119.572416,130.968178 125.585511,122.260545 C131.744491,113.342038 135,102.891518 135,92.0382841 L135,68.5868907 C135,66.4071361 133.529002,64.4542269 131.422416,63.8379211 Z M131.009077,92.0381142 C131.009077,102.088469 127.995167,111.764826 122.293531,120.020978 C116.723567,128.086477 108.973904,134.290656 99.8820039,137.962492 C99.6357817,138.061896 99.3647319,138.061896 99.1185097,137.962492 C90.0266099,134.290656 82.2767751,128.086647 76.7069826,120.020978 C71.0053466,111.764826 67.9914363,102.088639 67.9914363,92.0381142 L67.9914363,68.5867208 C67.9914363,68.1508718 68.2857729,67.760392 68.7071587,67.6370289 L97.2422213,59.2855509 C97.9808878,59.0692406 98.7406151,58.9613404 99.5003424,58.9613404 C100.259898,58.9613404 101.019626,59.0694105 101.758292,59.2857208 L130.293697,67.6370289 C130.714741,67.760222 131.009077,68.1507019 131.009077,68.5867208 L131.009077,92.0381142 Z" id="Shape" fill="#000000" fill-rule="nonzero"></path>
                    <path d="M99.162379,66.1222113 C99.7105168,65.9590921 100.289483,65.9594338 100.837282,66.1222113 L100.837282,66.1222113 L121.87622,72.3788116 C123.126469,72.7506549 124,73.9283579 124,75.2432175 L124,75.2432175 L124,91.9218486 C124,100.735064 121.356201,109.188392 116.354867,116.367853 C112.47708,121.934742 107.295687,126.531285 101.371191,129.659927 C100.941794,129.886756 100.470897,130 100,130 C99.5289335,130 99.0580364,129.886756 98.6288086,129.659927 C92.7041436,126.531114 87.5227509,121.934912 83.6451333,116.367853 C78.6437994,109.188221 76,100.735064 76,91.9218486 L76,91.9218486 L76,75.2432175 C76,73.9286995 76.8735311,72.7508257 78.1239493,72.3788116 L78.1239493,72.3788116 Z M113.254161,93.2351564 L106.501387,99.131478 L108.703147,102.215254 L112.395848,98.9899662 C111.42025,105.509332 106.302358,110.501551 100.137786,110.501551 C95.711165,110.501551 91.5813107,107.865896 89.3617805,103.620544 L86.2857143,105.589916 C89.1396498,111.044013 94.4459085,114.432432 100.137786,114.432432 C107.953233,114.432432 114.464329,108.19609 115.848648,99.9903755 L118.652826,103.86819 L121.428571,101.413354 L115.742025,93.5496269 C115.130721,92.702522 114.018291,92.5649412 113.254161,93.2351564 Z M107.554588,86.7567568 L98.2271576,96.448659 L94.3778646,91.7097882 L91.4285714,94.2510693 L97.9868359,102.324324 L110.285714,89.5446983 L107.554588,86.7567568 Z M99.7331817,72.9189189 C91.9158866,72.9189189 85.3826437,79.0426212 83.9084944,87.1394292 L81.4408188,83.5351705 L78.5714286,85.8934641 L83.9515353,93.7544427 C84.3030356,94.2693368 84.8428396,94.5405405 85.3880238,94.5405405 C85.7610445,94.5405405 86.1394454,94.4127996 86.4622518,94.1474916 L93.6357274,88.2517577 L91.4836847,85.1073662 L87.3410025,88.5131352 C88.2663809,81.9197394 93.4617706,76.8494082 99.7331817,76.8494082 C104.202257,76.8494082 108.370046,79.4887318 110.609964,83.7356255 L113.714286,81.7684156 C110.835929,76.3109312 105.479136,72.9189189 99.7331817,72.9189189 Z" id="Combined-Shape" fill="#000000" fill-rule="nonzero"></path>
                </g>
                <g id="shield-(1)" transform="translate(66.000000, 55.000000)"></g>
            </g>
        </g>
    </g>
</svg>