<?xml version="1.0" encoding="UTF-8"?>
<svg width="198px" height="198px" viewBox="0 0 198 198" version="1.1" xmlns="http://www.w3.org/2000/svg" xmlns:xlink="http://www.w3.org/1999/xlink">
    <!-- Generator: Sketch 63.1 (92452) - https://sketch.com -->
    <title>Group 14</title>
    <desc>Created with Sketch.</desc>
    <g id="Page-1" stroke="none" stroke-width="1" fill="none" fill-rule="evenodd">
        <g id="Sysl-homepage" transform="translate(-1012.000000, -2287.000000)">
            <g id="Group-14" transform="translate(1012.000000, 2287.000000)">
                <g id="Group-12">
                    <circle id="Oval-Copy-8" fill="#00C6D7" cx="99" cy="99" r="99"></circle>
                    <ellipse id="Oval-Copy-9" fill="#FFFFFF" cx="99" cy="98.5" rx="79" ry="78.5"></ellipse>
                    <g id="Group-8" transform="translate(28.000000, 48.000000)"></g>
                </g>
                <path d="M96.8942561,49.4696209 C70.9330498,53.1395353 50.8358816,62.424159 52.0524448,71.1310016 C53.2702753,79.8469134 75.139691,83.2009786 101.105744,79.5303791 C127.06695,75.8604647 147.164118,66.575841 145.947555,57.8689984 C144.729725,49.1530866 122.860309,45.7990214 96.8942561,49.4696209 Z M143.361034,58.2234849 C144.266639,64.7048253 125.203917,73.5115487 100.736782,76.9702589 C76.2744933,80.4282841 55.5433041,77.2487863 54.6389663,70.7765151 C53.7333613,64.2951747 72.7960835,55.4884513 97.2632183,52.0297411 C121.725507,48.5717159 142.456696,51.7512137 143.361034,58.2234849 Z" id="Oval" fill="#000000" fill-rule="nonzero"></path>
                <path d="M112.91739,120.323694 C86.8603223,123.633248 66.8038487,131.95849 68.0555395,140.007379 C69.2953532,147.979893 91.0692004,150.980315 117.08261,147.676306 C143.139678,144.366752 163.196151,136.04151 161.94446,127.992621 C160.704647,120.020107 138.9308,117.019685 112.91739,120.323694 Z M145.749604,122.48342 L146.42487,122.580095 C154.32466,123.754257 158.989365,125.991242 159.365499,128.409941 C159.744655,130.848066 155.755437,134.245 148.149408,137.402186 C140.115215,140.7371 128.926524,143.487796 116.759973,145.033091 C104.59192,146.578577 92.9952002,146.721608 84.2503959,145.51658 L83.5751305,145.419905 C75.6753404,144.245743 71.010635,142.008758 70.6345007,139.590059 C70.2553454,137.151934 74.2445631,133.755 81.8505923,130.597814 C89.8847849,127.2629 101.073476,124.512204 113.240027,122.966909 C125.40808,121.421423 137.0048,121.278392 145.749604,122.48342 Z" id="Oval-Copy-8" fill="#000000" fill-rule="nonzero"></path>
                <path d="M37.0080579,97.6381597 C36.5299125,106.263864 57.3907255,113.497053 83.6897341,114.799254 C109.979356,116.100991 131.514758,110.970205 131.991942,102.36184 C132.470088,93.7361355 111.609274,86.5029471 85.3102659,85.2007455 C59.2835399,83.912026 37.9164256,88.9278227 37.0286746,97.380955 L37.0080579,97.6381597 Z M85.1828531,87.863509 C109.896918,89.0872317 129.721881,95.9612537 129.375399,102.21175 C129.027957,108.479587 108.540599,113.360679 83.8171469,112.136491 C59.1030815,110.912768 39.2781194,104.038746 39.6246008,97.7882497 C39.9720434,91.5204127 60.4594014,86.6393214 85.1828531,87.863509 Z" id="Oval-Copy-9" fill="#000000" fill-rule="nonzero"></path>
                <path d="M97.2795243,53.7092623 C74.1655195,57.0943605 56.6838907,64.144426 58.0778924,70.6555035 C59.4386796,77.0114439 78.7056038,78.6613176 101.720476,75.2907377 C124.834481,71.9056395 142.316109,64.855574 140.922108,58.3444965 C139.56132,51.9885561 120.294396,50.3386824 97.2795243,53.7092623 Z M126.338397,54.9406187 C133.609027,55.5632205 137.998655,57.180432 138.366189,58.8971014 C138.711489,60.5099231 135.339257,63.2121017 128.836157,65.8346992 C121.838887,68.6565881 112.039351,71.1245108 101.343445,72.6909504 C90.6451026,74.2577468 80.4127538,74.7231312 72.6616029,74.0593813 C65.3909731,73.4367795 61.0013447,71.819568 60.6338111,70.1028986 C60.2885109,68.4900769 63.6607435,65.7878983 70.1638426,63.1653008 C77.161113,60.3434119 86.9606488,57.8754892 97.6565548,56.3090496 C108.354897,54.7422532 118.587246,54.2768688 126.338397,54.9406187 Z" id="Oval-Copy-10" fill="#000000" fill-rule="nonzero"></path>
                <path d="M113.301238,123.485559 L111.913081,123.666559 C89.357768,126.683504 72.6634345,132.648978 74.0843434,138.406255 C75.4701989,144.021502 94.6321265,145.444941 117.698762,142.514441 L119.086919,142.333441 C141.642232,139.316496 158.336565,133.351022 156.915657,127.593745 C155.529801,121.978498 136.367873,120.555059 113.301238,123.485559 Z M142.352359,124.859515 C149.590852,125.397224 154.032817,126.816856 154.375577,128.205661 C154.673455,129.412612 151.308168,131.75188 144.887755,133.998013 C137.881263,136.449182 128.071515,138.592296 117.365307,139.952465 L116.000827,140.120959 C106.01545,141.318451 96.5129011,141.67683 89.1465621,141.175967 L88.6476414,141.140485 C81.4091485,140.602776 76.9671834,139.183144 76.6244232,137.794339 C76.3265448,136.587388 79.6918318,134.24812 86.1122445,132.001987 C93.1187368,129.550818 102.928485,127.407704 113.634693,126.047535 L114.999173,125.879041 C124.98455,124.681549 134.487099,124.32317 141.853438,124.824033 L142.352359,124.859515 Z" id="Oval-Copy-11" fill="#000000" fill-rule="nonzero"></path>
                <path d="M43,98.2317249 C43.115951,104.64459 61.7584925,109.792976 85.113749,110.822041 C108.565027,111.855338 127.117171,108.330439 127,101.768464 C126.883488,95.3554102 108.240947,90.2070242 84.8856904,89.1779586 C61.6689254,88.1549952 43.2538008,91.5995188 43.0020519,98.035589 L43,98.2317249 Z M84.7718701,91.8403917 C95.6180314,92.3182889 105.79259,93.767862 113.304488,95.8423728 L113.944331,96.0226249 C120.572358,97.9273487 124.345674,100.201604 124.375038,101.817185 C124.402537,103.358453 120.665888,105.297469 113.965547,106.607982 L113.649301,106.668948 C106.206664,108.083046 96.0716201,108.637412 85.2275693,108.159608 C74.381408,107.681711 64.2068496,106.232138 56.6949512,104.157627 L56.055108,103.977375 C49.4270816,102.072652 45.6537656,99.7984016 45.6244052,98.1830044 C45.5969023,96.6415496 49.3335517,94.7025306 56.0338924,93.3920179 L56.3501385,93.3310519 C63.7927754,91.9169544 73.9278193,91.3625876 84.7718701,91.8403917 Z" id="Oval-Copy-12" fill="#000000" fill-rule="nonzero"></path>
                <path d="M163.96125,71.882119 C163.842136,71.1664496 163.303395,70.5928325 162.596048,70.4285393 L158.410624,69.369759 L156.614304,65.9421822 C156.300729,65.3617854 155.693738,65 155.033544,65 C154.373349,65 153.766358,65.3617854 153.452783,65.9421822 L151.656463,69.369759 L147.36326,70.4285393 C146.685425,70.5972234 146.16695,71.1431836 146.033984,71.8282827 C145.899145,72.511593 146.172236,73.2111351 146.734548,73.6228255 L149.321248,75.5070955 L147.794377,80.7112696 C147.58797,81.4457682 147.86897,82.2303516 148.494941,82.6673213 C149.118559,83.1108929 149.955054,83.1108929 150.578672,82.6673213 L154.979654,79.4012534 L159.308783,82.5775942 C159.607976,82.8262383 159.979907,82.9710851 160.368612,82.990339 C160.942368,83.0117542 161.491803,82.7578787 161.846999,82.3072249 C162.202196,81.8565712 162.320354,81.2634432 162.164931,80.7112696 L160.709912,75.5609317 L163.296612,73.6766618 C163.845527,73.2562077 164.104029,72.5582464 163.96125,71.882119 Z" id="Shape" fill="#000000" fill-rule="nonzero" transform="translate(155.000000, 74.000000) rotate(-13.000000) translate(-155.000000, -74.000000) "></path>
                <path d="M56.9634032,125.499779 C56.8509063,124.823869 56.342095,124.28212 55.6740451,124.126954 L51.7211447,123.126995 L50.0246209,119.889839 C49.7284667,119.341686 49.1551972,119 48.53168,119 C47.9081628,119 47.3348933,119.341686 47.0387391,119.889839 L45.3422153,123.126995 L41.2875235,124.126954 C40.6473463,124.286267 40.1576754,124.801896 40.0320959,125.448934 C39.904748,126.094282 40.1626677,126.754961 40.6937402,127.14378 L43.1367344,128.923368 L41.6946892,133.838421 C41.4997493,134.532114 41.7651386,135.27311 42.3563335,135.685803 C42.945306,136.104732 43.7353285,136.104732 44.324301,135.685803 L48.4807843,132.601184 L52.5694066,135.601061 C52.8519773,135.835892 53.203246,135.972692 53.5703556,135.990876 C54.1122365,136.011101 54.631147,135.77133 54.9666106,135.345712 C55.3020741,134.920095 55.4136674,134.359919 55.2668794,133.838421 L53.8926951,128.974213 L56.3356894,127.194625 C56.8541091,126.79753 57.0982492,126.138344 56.9634032,125.499779 Z" id="Shape-Copy" fill="#000000" fill-rule="nonzero" transform="translate(48.500000, 127.500000) rotate(-13.000000) translate(-48.500000, -127.500000) "></path>
            </g>
        </g>
    </g>
</svg>