<svg xmlns="http://www.w3.org/2000/svg" version="1.1" x="0px" y="0px"
     viewBox="0 0 512 512" style="enable-background:new 0 0 512 512;" xml:space="preserve"><g><path d="M427,253.6c0-23.7-15-43.7-37-50v-52.3C390,76.7,329.9,16,256.1,16c-60.7,0-113.9,41.3-129.5,100.5   c-1.7,6.4,2.1,13,8.5,14.7c6.4,1.7,13-2.2,14.6-8.6C162.6,74,206.3,40,256.1,40C316.7,40,366,89.9,366,151.3V202H136.5   c-28.7,0-51.5,22.9-51.5,51.6V444c0,28.7,22.8,52,51.5,52h239c28.7,0,51.5-23.4,51.5-52V253.6z M404,444c0,15.5-12.5,28-28,28H137   c-15.5,0-28-12.5-28-28V254c0-15.5,12.5-28,28-28h239c15.5,0,28,12.5,28,28V444z"/><path
        d="M256,303.9c-18.8,0-34,15.3-34,34c0,14.5,9.2,27,22,31.8V403c0,6.6,5.4,12,12,12s12-5.4,12-12v-33.2   c12.9-4.9,22-17.3,22-31.8C290,319.2,274.8,303.9,256,303.9z M256,348c-5.5,0-10-4.5-10-10s4.5-10,10-10s10,4.5,10,10   S261.5,348,256,348z"/></g></svg>
