<svg
	xmlns="http://www.w3.org/2000/svg"
	xmlns:xlink="http://www.w3.org/1999/xlink"
	version="1.1"
	viewBox="10 3 44 55"
	width="200px"
	height="200px"
	>
	<g>
		<path d="M46,21h-5V8c0-0.552-0.447-1-1-1s-1,0.448-1,1v13H25V8c0-0.552-0.448-1-1-1s-1,0.448-1,1v13h-5c-0.552,0-1,0.448-1,1v6   c0,7.934,6.195,14.431,14,14.949V56c0,0.553,0.448,1,1,1s1-0.447,1-1V42.949C40.805,42.431,47,35.934,47,28v-6   C47,21.448,46.553,21,46,21z M45,28c0,7.168-5.832,13-13,13c-7.168,0-13-5.832-13-13v-5h26V28z"/>
	</g>
</svg>
