<?xml version="1.0" encoding="UTF-8"?>
<svg width="198px" height="198px" viewBox="0 0 198 198" version="1.1" xmlns="http://www.w3.org/2000/svg" xmlns:xlink="http://www.w3.org/1999/xlink">
    <!-- Generator: Sketch 63.1 (92452) - https://sketch.com -->
    <title>Group 13</title>
    <desc>Created with Sketch.</desc>
    <g id="Page-1" stroke="none" stroke-width="1" fill="none" fill-rule="evenodd">
        <g id="Sysl-homepage" transform="translate(-614.000000, -2287.000000)">
            <g id="Group-13" transform="translate(614.000000, 2287.000000)">
                <g id="Group-11">
                    <circle id="Oval-Copy-6" fill="#FDC82F" cx="99" cy="99" r="99"></circle>
                    <ellipse id="Oval-Copy-7" fill="#FFFFFF" cx="99" cy="98.5" rx="79" ry="78.5"></ellipse>
                    <g id="quality" transform="translate(37.000000, 52.000000)"></g>
                </g>
                <path d="M121.366804,122.768642 C134.772324,112.614984 140.240239,94.9374731 134.941242,78.8831293 C129.642245,62.8287855 114.765363,52 98.0084632,52 C81.2515631,52 66.374681,62.8287855 61.0756839,78.8831293 C55.7766869,94.9374731 61.2446026,112.614984 74.6501226,122.768642 L54.4908592,143.110354 C53.9852014,143.625265 53.8562954,144.406357 54.1692588,145.059055 C54.4784782,145.705408 55.1546241,146.087797 55.8618922,146.016312 L69.2336958,144.529145 L69.2336958,156.289731 C69.2371068,156.979814 69.6510561,157.600142 70.2831285,157.862368 C70.4840092,157.958062 70.7042954,158.004897 70.9263292,157.999595 C71.3762362,158.001746 71.8086671,157.823371 72.1280989,157.503396 L98.0084632,131.349768 L123.888827,157.503396 C124.208259,157.823371 124.64069,158.001746 125.090597,157.999595 C125.312631,158.004897 125.532917,157.958062 125.733798,157.862368 C126.36587,157.600142 126.77982,156.979814 126.78323,156.289731 L126.78323,144.529145 L140.138108,146.016312 C140.845376,146.087797 141.521522,145.705408 141.830741,145.059055 C142.143705,144.406357 142.014799,143.625265 141.509141,143.110354 L121.366804,122.768642 Z M62.4631624,91.3330063 C62.4631624,71.5075647 78.3773356,55.4358689 98.0084632,55.4358689 C117.639591,55.4358689 133.553764,71.5075647 133.553764,91.3330063 C133.553764,111.158448 117.639591,127.230144 98.0084632,127.230144 C78.3773356,127.230144 62.4631624,111.158448 62.4631624,91.3330063 L62.4631624,91.3330063 Z" id="Shape" fill="#000000" fill-rule="nonzero"></path>
                <path d="M131,91.5 C131,73.5507456 116.673112,59 99,59 C81.326888,59 67,73.5507456 67,91.5 C67,109.449254 81.326888,124 99,124 C107.486928,124 115.626253,120.575903 121.627417,114.48097 C127.628581,108.386038 131,100.119536 131,91.5 Z M71.6315789,82.9473684 L88.8947368,82.9473684 C89.342405,82.9499971 89.7726841,82.7715032 90.0905263,82.4513158 L96.8273684,75.6092105 C97.1426299,75.286402 97.3183777,74.8493998 97.3157895,74.3947368 L97.3157895,69.2631579 C99.1761171,69.2631579 100.684211,70.7948153 100.684211,72.6842105 L100.684211,81.2368421 C100.684211,82.1815397 101.438257,82.9473684 102.368418,82.9473684 L117.526316,82.9473684 L117.526316,86.3684211 L104.052632,86.3684211 L104.052632,89.7894737 L117.526316,89.7894737 L117.526316,93.2105263 L104.052632,93.2105263 L104.052632,96.6315789 L117.526316,96.6315789 L117.526316,100.052632 L104.052632,100.052632 L104.052632,103.473684 L117.526316,103.473684 L117.526316,105.184211 C117.526316,106.128908 116.772269,106.894737 115.842105,106.894737 L96.0357895,106.894737 L89.6526316,103.661842 C89.4179835,103.539738 89.158387,103.47529 88.8947368,103.473684 L72.9452632,103.473684 C71.2454802,99.7181252 70.3663979,95.6333371 70.3684176,91.5 C70.3721147,88.6014742 70.7977703,85.7194314 71.6315789,82.9473684 Z M74.7473684,106.894737 L88.4905263,106.894737 L94.8736842,110.127632 C95.1083323,110.249736 95.3679288,110.314184 95.6315789,110.315789 L115.842105,110.315789 C118.632597,110.315789 120.894737,108.018303 120.894737,105.184211 L120.894737,81.2368421 C120.894737,80.2921445 120.14069,79.5263158 119.210526,79.5263158 L104.052632,79.5263158 L104.052632,72.6842105 C104.052632,68.9054201 101.036445,65.8421053 97.3157895,65.8421053 L95.6315789,65.8421053 C94.7014152,65.8421053 93.9473684,66.607934 93.9473684,67.5526316 L93.9473684,73.6934211 L88.2042105,79.5263158 L72.9452632,79.5263158 C78.3522574,67.3724136 91.2067957,60.5122538 104.129195,62.8841969 C117.051594,65.2561399 126.728673,76.2520419 127.604902,89.5592474 C128.48113,102.866453 120.331851,115.07312 107.835498,119.171502 C95.3391443,123.269885 81.699664,118.209197 74.7473684,106.894737 Z" id="Shape" fill="#000000" fill-rule="nonzero"></path>
                <path d="M59.6078889,69.9908484 C60.1499134,70.0111345 60.6689612,69.7706439 61.0045137,69.3437496 C61.3400661,68.9168554 61.4516889,68.3549986 61.304862,67.8319369 L59.8624349,62.9531368 L62.3060761,61.16821 C62.8372892,60.7782249 63.0952773,60.1155643 62.9678956,59.4682796 C62.8604513,58.7997128 62.3671375,58.2587933 61.7121355,58.0913361 L57.7581883,57.1393751 L56.0612152,53.8925082 C55.7649825,53.3427113 55.1915613,53 54.5678789,53 C53.9441966,53 53.3707753,53.3427113 53.0745426,53.8925082 L51.3775696,57.1393751 L47.3218039,58.0913361 C46.6535771,58.2469674 46.1446311,58.790342 46.0321044,59.4682796 C45.9047227,60.1155643 46.1627108,60.7782249 46.6939239,61.16821 L49.1715046,62.9531368 L47.7290775,67.8319369 C47.534086,68.5277109 47.7995455,69.2709292 48.3908969,69.6848609 C48.9800254,70.1050464 49.7702572,70.1050464 50.3593857,69.6848609 L54.5169697,66.5909877 L58.6066748,69.5998644 C58.8893204,69.8353994 59.2406821,69.9726096 59.6078889,69.9908484 Z" id="Shape" fill="#000000" fill-rule="nonzero"></path>
                <path d="M151.963403,58.499779 C151.850906,57.823869 151.342095,57.2821196 150.674045,57.1269538 L146.721145,56.1269946 L145.024621,52.8898388 C144.728467,52.3416862 144.155197,52 143.53168,52 C142.908163,52 142.334893,52.3416862 142.038739,52.8898388 L140.342215,56.1269946 L136.287523,57.1269538 C135.647346,57.2862665 135.157675,57.8018956 135.032096,58.4489336 C134.904748,59.0942823 135.162668,59.754961 135.69374,60.1437796 L138.136734,61.9233679 L136.694689,66.8384213 C136.499749,67.5321144 136.765139,68.2731098 137.356333,68.6858035 C137.945306,69.1047322 138.735329,69.1047322 139.324301,68.6858035 L143.480784,65.6011838 L147.569407,68.6010612 C147.851977,68.8358917 148.203246,68.9726915 148.570356,68.9908758 C149.112237,69.0111012 149.631147,68.7713298 149.966611,68.3457124 C150.302074,67.920095 150.413667,67.3599186 150.266879,66.8384213 L148.892695,61.9742133 L151.335689,60.194625 C151.854109,59.7975295 152.098249,59.1383438 151.963403,58.499779 Z" id="Shape" fill="#000000" fill-rule="nonzero"></path>
            </g>
        </g>
    </g>
</svg>