<?xml version="1.0" encoding="UTF-8"?>
<svg width="93px" height="93px" viewBox="0 0 93 93" version="1.1" xmlns="http://www.w3.org/2000/svg" xmlns:xlink="http://www.w3.org/1999/xlink">
    <!-- Generator: Sketch 63.1 (92452) - https://sketch.com -->
    <title>Group 6</title>
    <desc>Created with Sketch.</desc>
    <defs>
        <circle id="path-1" cx="36.5" cy="36.5" r="36.5"></circle>
    </defs>
    <g id="Page-1" stroke="none" stroke-width="1" fill="none" fill-rule="evenodd">
        <g id="Sysl-homepage" transform="translate(-1190.000000, -393.000000)">
            <g id="Group-6" transform="translate(1190.000000, 393.000000)">
                <circle id="Oval-Copy-5" fill="#AA9C8F" cx="46.5" cy="46.5" r="46.5"></circle>
                <g id="peep-53" transform="translate(10.000000, 10.000000)">
                    <mask id="mask-2" fill="white">
                        <use xlink:href="#path-1"></use>
                    </mask>
                    <use id="Mask" fill="#FFFFFF" xlink:href="#path-1"></use>
                    <g id="a-person/bust" mask="url(#mask-2)">
                        <g transform="translate(39.000000, 48.500000) scale(-1, 1) translate(-39.000000, -48.500000) translate(0.000000, -4.000000)">
                            <g id="body/Tee-2" transform="translate(10.093310, 43.767123)" fill-rule="evenodd">
                                <path d="M3.29576988,24.0271572 L52.4901676,27.9229551 L52.5416782,28.2564191 C53.3660221,33.6119113 53.7823998,37.2452256 53.7908115,39.1563622 L53.7909416,39.2149204 C53.7909416,41.1098845 54.3741018,44.1236832 55.5404221,48.2563165 L55.6125581,48.5107329 L3.22710791,48.6017731 L2.60915016,36.1626084 L3.29576988,24.0271572 Z M32.4201003,-2.66498839 C34.4203782,-2.5665211 36.4362881,-1.7111018 36.5919973,-1.16438815 C36.9387809,0.0532108604 37.4964653,5.26532446 39.3303878,6.0660929 C41.1643104,6.86686134 45.0795233,6.13682424 46.1989347,8.04913096 C47.3183461,9.96143768 50.994533,17.7568223 50.994533,19.5732193 C50.994533,20.7841507 39.0142533,21.2044848 15.0536938,20.8342216 C15.3595724,11.0806813 16.6348052,5.95356404 18.8793923,5.45286993 L19.0797652,5.40869339 C22.3258036,4.70136337 24.2658087,4.67855874 25.373135,3.53832746 C26.5030599,2.37482616 26.7081027,0.377666047 27.1768593,-1.16438815 C27.4351397,-2.01404522 29.9655116,-2.78581995 32.4201003,-2.66498839 Z" id="ðŸŽ¨-Background" fill="#FFFFFF"></path>
                                <path d="M36.8067306,0.383335616 C36.8142835,0.377666047 36.8219049,0.37580137 36.8300757,0.379910959 C36.9859384,0.454568493 37.0182095,0.603883562 37.0717658,0.759363014 C37.1500405,0.986760274 37.2406743,1.20867808 37.3244419,1.43402055 C37.4913592,1.88607534 37.6505863,2.33744521 37.8366602,2.78196575 C38.0275405,3.2395 38.225287,3.68881507 38.4518715,4.13059589 C38.561044,4.34429452 38.678456,4.55388356 38.7979278,4.76210274 C38.8803222,4.90662329 38.9572236,5.10525342 39.0657095,5.24086986 C39.0739489,5.19771918 39.0856215,5.15662329 39.0993539,5.11826712 C39.0850035,5.12511644 39.0712025,5.13265068 39.0581567,5.14086986 C39.0306919,5.15799315 38.9977342,5.12374658 39.014213,5.09703425 C39.0732623,4.99977397 39.1501637,4.93402055 39.2380511,4.8895 C39.4811144,4.62032192 44.8387394,5.90491096 46.303368,7.34771918 C48.9559859,9.96080137 50.7464842,13.1915548 51.924037,16.6285411 C52.5742658,18.5251164 53.1729982,20.4401849 53.7916426,22.3470342 C54.4453046,24.3634726 55.1278046,26.3710068 55.7828398,28.3860753 C55.9263433,28.829226 55.6132447,29.2319658 55.2177518,29.3778562 C54.4810088,29.649089 53.7387729,29.9045685 52.9903574,30.1408699 C53.3535792,31.5319658 53.6076285,32.9525137 53.7902694,34.3771712 C54.1672236,37.3148425 54.2146004,40.3121027 54.8085951,43.2189521 C54.9449725,43.8861243 55.1175231,44.5438472 55.2998043,45.1997984 L55.3420299,45.3511438 C55.4505158,45.7360753 55.5494577,46.1244315 55.6825933,46.5011438 C55.7972588,46.8251164 55.9455687,47.1518288 56.0259032,47.4860753 C56.1199701,47.879226 55.9812729,48.3086781 55.6125581,48.5107329 C55.316625,48.6730616 54.8929806,48.6059384 54.7144595,48.3011438 C54.6780687,48.2388151 54.6560968,48.1710068 54.6471708,48.1025137 C54.6203926,48.0456644 54.5956743,47.9874452 54.5737025,47.9278562 C54.5651197,47.904911 54.5575669,47.8811096 54.5503574,47.8572226 L54.5290722,47.7860753 C54.4768891,47.6162123 54.4288257,47.4449795 54.3807623,47.2737466 C54.3024877,46.9989912 54.2237086,46.7252422 54.136642,46.452931 L54.092382,46.3168973 C53.8767835,45.6621027 53.6838433,45.0018288 53.5156215,44.3333356 C52.9136049,41.9363075 52.785888,39.4545549 52.6206147,36.9980447 L52.6120299,36.8710068 C52.4623468,34.669637 52.3730863,32.4730616 52.5564137,30.2764863 L52.5313521,30.2846199 L52.5313521,30.2846199 L52.5062905,30.2922397 C52.2681021,30.3648425 52.0290898,30.4360753 51.7894595,30.5052534 C51.7819067,30.5079932 51.7750405,30.5107329 51.7674877,30.5127877 C51.6141426,30.5601621 51.4565062,30.6051583 51.2961677,30.6469835 L51.1996532,30.6716918 L51.1316778,30.6901849 L51.0601205,30.7104941 C50.8330527,30.7761865 50.601542,30.8517309 50.3660968,30.8442945 C49.9760968,30.9066233 49.5792306,30.9442945 49.1892306,30.9456644 C49.3093891,32.9052534 49.4480863,34.8634726 49.6135616,36.819637 C49.7797236,38.7860753 50.0001285,40.7449795 50.2287729,42.7038836 C50.3413785,43.6716918 50.4622236,44.6374452 50.5954278,45.6018288 C50.6627165,46.0908699 50.7327518,46.5771712 50.8220123,47.0621027 C50.9140194,47.5579932 51.0767482,48.0881301 50.9785616,48.5895 C50.9765018,48.5888151 50.9744419,48.5881301 50.972382,48.5881301 C50.9394243,48.7333356 50.851537,48.8634726 50.6984208,48.9531986 C50.4175933,49.1168973 50.0248468,49.0210068 49.8634912,48.7347055 C49.8497588,48.7107329 49.836713,48.6860753 49.8243539,48.6607329 C49.6589472,48.7312808 49.4776109,48.7586781 49.2551461,48.7607329 L46.2381391,48.7908699 L46.2381391,48.7908699 C44.8669595,48.8045685 43.4957799,48.8189521 42.1239137,48.8388151 C37.8168245,48.9021332 33.5097353,48.9751925 29.2026461,49.027206 L27.5874877,49.0456644 C25.1650933,49.0710068 22.7413257,49.1210068 20.3189313,49.1203219 C19.1071162,49.1203219 17.896537,49.1162123 16.6846532,49.0867603 C16.0975933,49.0723767 15.5119067,49.049774 14.9255335,49.0258014 L14.8220098,49.0210808 C14.3538994,48.9980344 13.8568927,48.9547811 13.3991778,49.059363 C13.2728398,49.3045685 12.9501285,49.3552534 12.7812201,49.1045685 C12.3952274,48.5309695 12.2899011,47.7306713 12.2185916,47.0296324 L12.1934736,46.7771712 C12.1145123,45.9915548 12.0451637,45.2059384 11.9936673,44.4189521 C11.8110264,41.6305959 11.7444243,38.8395 11.8281919,36.0456644 C11.8707623,34.6216918 12.0019067,33.2059384 12.1570827,31.7901849 C12.2058327,31.3484041 12.2566426,30.9073082 12.3115722,30.4668973 L12.3125163,30.3103048 C12.3126021,30.2602192 12.3122588,30.2124452 12.3108856,30.1675822 L12.2971961,29.7426357 C12.2858239,29.3884244 12.2752564,29.0340125 12.2708578,28.6795672 L12.2690018,28.4668973 L12.2669419,28.0710068 C11.9277518,28.0388151 11.5659032,27.9264863 11.2734032,27.8723767 C10.7990176,27.7840205 10.325868,27.6888151 9.85416021,27.5881301 C8.90937148,27.3853904 7.97488204,27.1456644 7.04657218,26.8805959 L6.84914124,26.8240274 C5.99256187,26.5778177 5.1241841,26.3152828 4.3138257,25.9470342 C3.99660739,25.8025137 3.6800757,25.6395 3.40199472,25.4258014 C3.38551585,25.6504589 3.36011092,25.8744315 3.34500528,26.0970342 C3.31486268,26.5374452 3.27908979,26.9764863 3.24956514,27.4168973 L3.22133108,27.8359326 C3.17495246,28.5341347 3.1331831,29.2316233 3.11430106,29.9319658 C3.03053345,32.9867603 3.01611444,36.0545685 3.17815669,39.1073082 C3.2584912,40.6353904 3.37315669,42.1634726 3.53863204,43.6853904 C3.61965317,44.4340205 3.70548063,45.1847055 3.81122007,45.9305959 C3.92039261,46.6970342 4.11745246,47.4586781 4.177875,48.2305959 C4.23555106,48.9751164 3.09438908,49.0833356 2.9069419,48.4025137 C2.68249082,47.5861732 2.62531396,46.7055077 2.5070054,45.8661484 L2.49359683,45.7730616 C2.36245246,44.8812808 2.25739965,43.9860753 2.16676585,43.0895 C1.85389936,39.9970342 1.77264613,36.8888151 1.93674824,33.7847055 C2.01476858,32.298049 2.19975467,30.8171087 2.42365026,29.3461659 L2.44965317,29.1764863 C2.55157805,28.5177344 2.64699276,27.8589825 2.76242022,27.2031169 L2.80669542,26.9573082 C2.910375,26.3936096 2.99002289,25.7805959 3.15824472,25.2168973 L3.10824055,25.1708999 C3.01475339,25.0840246 2.91343838,24.9834937 2.83965317,24.8751164 C2.58560387,24.8408699 2.36931866,24.6586781 2.39609683,24.3278562 C2.48329754,23.2408699 2.88153697,22.1353904 3.23651937,21.109363 C3.592875,20.0778562 4.00622007,19.0655274 4.47449472,18.079226 C6.12169542,14.6127877 8.49396655,11.4655274 11.3949349,8.94429452 C12.9336496,7.60662329 14.6199877,6.42032192 16.4834736,5.57580137 C17.4021708,5.15867808 18.3524525,4.83607534 19.3480511,4.66210274 C19.841044,4.57580137 20.3388433,4.50867808 20.8400757,4.49429452 C21.246714,4.25481311 21.7295186,4.35558606 22.1232654,4.6181686 L22.1446532,4.63265068 L22.1454085,4.63265068 L22.2462729,4.6525137 L22.2462729,4.6525137 C22.2709912,4.65730822 22.2703046,4.69634932 22.2462729,4.70182877 C22.2448996,4.70182877 22.2428398,4.7025137 22.2414665,4.70319863 C22.3060088,4.75388356 22.367118,4.80799315 22.4241074,4.86621233 C22.6122412,5.05799315 22.6115546,5.2895 22.5147412,5.4764863 C23.0908151,6.00936301 23.4547236,6.69360959 23.8357975,7.38333562 C24.2443363,8.12169178 24.779213,8.76004795 25.4301285,9.29840411 C27.816132,11.2723767 31.3254454,12.1456644 34.3149877,11.2134726 C36.513544,10.5285411 38.3914489,8.67443151 38.9105335,6.44223973 C38.7876285,6.48607534 38.6544243,6.49292466 38.5280863,6.44771918 C37.9348032,6.23673853 37.7085976,5.58993022 37.4816742,5.04914372 L37.4706919,5.02306164 C37.2489137,4.49908904 37.0628398,3.96689726 36.9159032,3.41758219 C36.767662,2.86278767 36.6803926,2.27717123 36.6440018,1.70456849 C36.6299573,1.4781675 36.6361368,1.2517665 36.6478739,1.0253655 L36.6582972,0.838163014 C36.6663172,0.668535008 36.6638222,0.495207763 36.8067306,0.383335616 Z M27.1535783,-1.14337671 C27.1618178,-1.16392466 27.1940889,-1.17488356 27.2064481,-1.15022603 C27.7316435,-0.0694041096 27.387029,1.41141781 26.8905343,2.44223973 C26.3708319,3.52032192 25.5880854,4.33813014 24.6604621,5.04566438 C24.5327509,5.14292466 24.4015379,5.23881507 24.2684023,5.33265068 C23.4945132,5.87785616 22.805147,4.40799315 23.6985079,4.12717123 C24.6295643,3.65525342 25.3862192,2.81415753 25.9121012,1.93059589 C26.1964305,1.45319863 26.4484199,0.955938356 26.64136,0.434020548 C26.8336136,-0.0865273973 26.9489657,-0.628308219 27.1535783,-1.14337671 Z" id="ðŸ–-Ink" fill="#000000"></path>
                            </g>
                            <g id="head/Mohawk" transform="translate(25.542254, 12.328767)" fill-rule="evenodd">
                                <path d="M26.9939708,16.6129642 C27.0292631,14.8942655 26.869418,13.1328957 26.0321539,11.5967313 C25.305161,10.1549505 24.22655,8.90515595 23.1193071,7.74179978 C22.6573493,7.25638882 22.0404215,6.76727923 22.0981662,6.03145732 C22.1587948,5.25933403 22.6243916,3.58673129 22.696212,2.8076217 C22.8375183,1.27570389 21.7383775,0.85412855 20.4534374,0.126183344 C18.9037367,-0.751830354 17.0518546,-0.650255012 15.3721081,-0.25607693 C12.2396803,0.489539509 8.51744616,1.72700526 7.33371377,5.03823814 C7.04917856,5.85488197 7.12017504,6.71440252 7.06352891,7.56152581 C7.01045321,8.35447102 6.69220497,9.10967649 6.38720849,9.83419704 C4.77475074,13.4152929 4.78930708,17.3692655 5.08208173,21.2130327 C4.2210606,21.4116628 3.38853419,22.0826902 3.1987525,22.9731012 C2.88071025,24.5321422 4.51980884,25.2528272 5.48794264,26.0954984 C6.66865391,27.1231012 7.52816447,28.4531696 8.60148842,29.5822107 C15.5661469,37.2426217 30.9343441,33.7169368 27.7394338,21.7850875 C27.3059708,20.0895395 26.9293599,18.374334 26.9939708,16.6129642 Z" id="ðŸŽ¨-Background" fill="#FFFFFF"></path>
                                <path d="M13.217306,-0.0908493151 C14.9470384,-0.761534247 16.8166352,-1.04509589 18.6659768,-0.807424658 C19.6610261,-0.679547945 20.6257268,-0.412561644 21.5357039,0.0111369863 C21.9745912,0.215520548 22.3956264,0.457849315 22.7905014,0.737780822 L22.8265185,0.763491814 C23.1390838,0.988347746 23.4578653,1.26645155 23.4213676,1.63969863 C23.4455366,1.71784932 23.4497937,1.80373973 23.430637,1.88942466 C23.1223447,3.26956164 22.7988782,4.64531507 22.4796687,6.02278082 C22.4125173,6.31236986 22.347563,6.60243836 22.2831581,6.89271233 C24.4555542,8.52449315 26.4976986,10.7553151 27.2710384,13.4062055 C28.0280366,16.001274 27.6966053,18.7344247 27.964181,21.3903151 C28.0276246,22.0195616 28.1347373,22.6437397 28.3029592,23.2540137 C28.4836775,23.9092192 28.7855842,24.5285342 28.9382197,25.1910685 C29.2454134,26.5240137 28.7998658,27.8325753 28.0947761,28.9627808 C26.7876581,31.0579863 24.8128711,32.826 22.5166775,33.7647671 C21.3417338,34.2450411 20.0484169,34.506137 18.7774151,34.4857945 C17.5309257,34.465863 16.1118887,34.2104521 15.0683641,33.4929178 C14.3629996,33.0079863 14.9657831,32.0528493 15.7246352,32.3729178 L15.930828,32.4595682 C16.4570137,32.6793173 16.9794195,32.8830258 17.5436282,32.9999041 C18.1742884,33.1304521 18.8223201,33.1583288 19.4643782,33.1181918 C20.7094944,33.0403836 21.8900683,32.6269589 22.9647655,32.006137 C23.9346158,31.4457945 24.7986581,30.7222329 25.5702127,29.9138082 L25.6561128,29.8233634 C26.3866239,29.0503424 27.1220173,28.1692812 27.5328465,27.1857945 C27.7443254,26.6796986 27.8588535,26.1232603 27.7672585,25.5773699 C27.6616563,24.9480548 27.3807602,24.3553151 27.2168641,23.7403151 C26.9055679,22.5720514 26.8005305,21.3539124 26.7648624,20.1486199 L26.7622532,20.0559315 C26.6961317,17.5823699 26.8840595,15.0773699 26.0058042,12.7130548 C25.2104926,10.5718219 23.570982,8.93380822 22.2300824,7.13189041 C22.1642356,7.4300411 22.0986634,7.72832877 22.0320613,8.02627397 C21.9525507,8.38230137 21.8800437,8.74058904 21.7933923,9.09483562 L21.7868694,9.12065753 L21.7868694,9.12065753 C21.8129609,9.1970274 21.8038975,9.28387671 21.734137,9.33853425 C21.7264468,9.34456164 21.718688,9.34976712 21.7109292,9.35538356 C21.6398641,9.51921918 21.5295243,9.64490411 21.3186634,9.69709589 C21.1167285,9.7470274 20.9568835,9.66189041 20.8672109,9.51476712 L19.813181,9.52010959 L19.813181,9.52010959 C19.1439327,9.52353425 18.4095243,9.60024658 17.7513306,9.46435616 C17.6501229,9.44339726 17.662894,9.2999726 17.7513306,9.27236986 C18.3732708,9.07853425 19.0996458,9.08319178 19.745343,9.02312329 L20.762982,8.92839726 L20.762982,8.92839726 C20.8079327,8.92424201 20.8532191,8.9188691 20.8986378,8.91323237 L20.9668394,8.90469863 L21.3205859,7.33449315 L21.3205859,7.33449315 C21.460931,6.71147945 21.6078676,6.08949315 21.7361282,5.46394521 C21.967313,4.33606849 22.220813,3.21332877 22.4741757,2.09031507 C21.6786581,1.89572603 20.866593,1.80860274 20.0434732,1.84326027 L19.9485985,1.84744824 C19.6297145,1.86262119 19.2877609,1.89446202 19.0211651,2.07908219 C18.6904204,2.3079863 18.6665261,2.78017808 18.5932637,3.14428767 C18.3922215,4.14284932 18.248306,5.15093151 18.1221739,6.16154795 C18.0612021,6.65024658 18.0151299,7.14024658 17.961093,7.62956164 C17.936512,7.85161644 17.921475,8.07736986 17.8883113,8.29805479 C17.8567268,8.50812329 17.7811986,8.71257534 17.7385595,8.92017808 C17.8120278,9.2370274 17.3719046,9.53805479 17.126232,9.25654795 C16.8225401,8.90853425 16.556475,8.54524658 16.2171475,8.2270274 C15.8767215,7.90771233 15.5047796,7.62819178 15.1038623,7.38867123 C14.2891194,6.90182192 13.4425859,6.60236986 12.5326775,6.34928767 C12.5024662,6.34093151 12.4853694,6.32223288 12.4770613,6.30058904 C11.569144,6.55757534 10.6810701,6.90579452 9.85705775,7.35339726 C7.94674437,8.39113699 6.44290986,10.1828493 5.87308415,12.2870959 C5.51933768,13.5937397 5.44126901,14.9739452 5.43646268,16.3220959 C5.43426549,16.9479178 5.44758592,17.5809315 5.54680246,18.2001781 C5.65755423,18.8910685 5.90885704,19.5087397 6.1113412,20.1716164 C6.16421092,20.3446986 6.1512338,20.4992192 6.09493099,20.6282603 L6.14652818,20.6360166 C6.56006292,20.7004959 7.37017262,20.8824726 7.44400141,21.3322329 C7.46466866,21.4583288 7.39394683,21.5569589 7.26396972,21.5679178 C7.03292218,21.5874384 6.88763345,21.4200411 6.70313873,21.305726 C6.669975,21.2852466 6.63585,21.266411 6.60186232,21.2473699 C6.59307359,21.2533973 6.58126373,21.2549041 6.56911056,21.2479863 C5.47814049,20.6281918 4.14479366,21.576137 3.90200493,22.6759315 C3.6752831,23.7028493 4.06109472,24.8920274 5.05593803,25.3409315 C5.55614049,25.5666849 6.08806479,25.7083973 6.54844331,26.0171644 C6.93590282,26.2770274 7.27825141,26.5946986 7.57686232,26.9518219 C8.19173028,27.6868904 8.6555419,28.5250411 9.20023732,29.3095616 C9.43931831,29.6538767 9.70476549,29.9792192 10.0202673,30.2574384 C10.365843,30.5620959 10.8466827,30.6823014 10.9930701,31.1592192 C11.0501282,31.3451781 10.9552373,31.5685342 10.7874275,31.6631918 C10.1733148,32.0097671 9.47763169,31.4069589 9.04801373,30.9982603 C8.60699789,30.5787397 8.24720915,30.070726 7.91701373,29.5623699 C7.36401021,28.711 6.89175317,27.7396986 6.08051197,27.0943562 C5.59356127,26.7070274 4.98693275,26.5605205 4.43887289,26.2865479 C3.80999789,25.9723014 3.36335176,25.4573014 3.09646268,24.8133973 C2.60518627,23.6279863 2.73454542,22.1166849 3.66532711,21.1734658 C3.96757711,20.8670274 4.35009296,20.6710685 4.75059824,20.5922329 C4.33704718,19.8705205 4.18345035,18.960726 4.07970211,18.1531233 C3.97540458,17.3417534 3.96448732,16.5251096 4.00740106,15.7090822 L4.01604572,15.5505107 C4.09819847,14.0954353 4.26375836,12.6010457 4.79172676,11.2348356 C5.2361757,10.0849041 5.91064225,9.0299726 6.80681831,8.17757534 C6.89930599,8.08963014 6.99426549,8.00346575 7.09073556,7.91873973 C7.06485,7.89894521 7.03999437,7.87771233 7.01781655,7.85367123 C6.76671972,7.58106849 6.82048204,7.21305479 6.85392042,6.87421918 C6.89106655,6.49757534 6.95121444,6.1220274 7.04157359,5.75435616 C7.67189049,3.1890137 9.61035528,1.096 12.1047761,0.230246575 C12.4649768,0.105178082 12.8377426,-0.00242465753 13.217306,-0.0908493151 Z M4.81327975,22.6101918 C5.21701215,22.3557397 5.83318468,22.453274 6.25408257,22.6200548 C6.74920405,22.8161507 7.27652799,23.1820411 7.47152799,23.693274 C7.65210898,24.1665616 6.97826039,24.3343014 6.72695757,24.0063562 C6.57164419,23.8036849 6.45670405,23.6084795 6.30935546,23.4318356 C6.29056954,23.4500822 6.27270644,23.4692055 6.25685596,23.4900121 L6.2453625,23.5059452 C6.18288011,23.597589 6.06896989,23.692863 5.94716356,23.6764932 L5.91427447,23.6721781 L5.91427447,23.6721781 C5.79132295,23.6557324 5.65598547,23.5962972 5.62203406,23.4628586 L5.61868468,23.447726 L5.61415299,23.4236164 C5.58607025,23.2753973 5.63042588,23.1121096 5.77289947,23.0345753 C5.78244349,23.0293699 5.79219349,23.0249178 5.80180616,23.0199863 C5.48802095,22.8560137 5.16441708,22.8047123 4.82323574,22.6864932 C4.78931673,22.6747123 4.78169525,22.6301233 4.81327975,22.6101918 Z M16.0378711,0.537643836 C13.9339996,0.484972603 11.6258588,1.13031507 10.0706651,2.58415068 C9.33440282,3.27257534 8.83564225,4.07339726 8.38837817,4.966 C8.17717394,5.38743836 8.04122324,5.85435616 7.94056479,6.31346575 C7.88549789,6.56463014 7.84423204,6.8179863 7.82226021,7.07428767 C7.81800317,7.12367123 7.81882711,7.17579452 7.81113697,7.22469863 C7.80461408,7.26634247 7.79671796,7.27716438 7.78943979,7.27442466 C7.79301021,7.28606849 7.81038169,7.30983562 7.82713521,7.33250685 C9.40237817,6.20230137 11.3521035,5.54449315 13.280269,5.97305479 C13.3416528,5.98668493 13.3416528,6.08326027 13.280269,6.09689041 C13.1816704,6.11880822 13.0833465,6.14332877 12.9849539,6.16736986 C13.8286722,6.18593151 14.6956669,6.44963014 15.4243764,6.84175342 C16.1525366,7.23360274 16.9183923,7.78757534 17.4462655,8.46141096 C17.4311599,8.36305479 17.4192127,8.26428767 17.4169468,8.16435616 C17.4111106,7.89743836 17.4172901,7.62915068 17.4272461,7.36243836 C17.448806,6.7840137 17.4882866,6.20565753 17.535938,5.62887671 L17.5569325,5.37748861 C17.6423612,4.36936994 17.7474116,3.33265437 17.9516863,2.34647945 C18.0708148,1.77134247 18.389681,1.421 18.818269,1.21558904 C18.0226141,0.703123288 16.9428359,0.560383562 16.0378711,0.537643836 Z M19.939313,0.20209589 C18.9912285,-0.0813287671 18.0042813,-0.206191781 17.0165789,-0.189136986 C17.3756123,-0.0986575342 17.7231792,0.0328493151 18.0502849,0.214424658 C18.4711827,0.448123288 18.7675278,0.757712329 19.0329063,1.12661644 C19.2826299,1.03990411 19.5603676,0.992027397 19.852593,0.971342466 C20.5274028,0.92360274 21.2096282,0.959493151 21.879975,1.06552055 C21.7548729,0.988671233 21.6279169,0.91490411 21.4989011,0.844835616 C21.002887,0.575726027 20.4798887,0.363671233 19.939313,0.20209589 Z" id="ðŸ–-Ink" fill="#000000"></path>
                            </g>
                            <g id="face/Suspicious" transform="translate(36.459507, 25.068493)" fill-rule="evenodd">
                                <path d="M10.703296,17.1871027 C11.2223118,17.1150479 11.7803963,16.8218288 12.2761357,17.0601164 C12.5078699,17.1714863 12.6178664,17.5523767 12.4611798,17.764089 C12.2218928,18.0874452 11.974847,18.1409384 11.5864262,18.1720342 C11.2952308,18.1953219 11.0024562,18.1970342 10.712016,18.1635411 L10.6381377,18.1545225 C10.119899,18.087794 9.58125946,17.9435037 9.17975546,17.5960753 C9.09763574,17.5249795 9.13972553,17.3714178 9.24512165,17.349226 C9.72191039,17.2491575 10.220671,17.2541575 10.703296,17.1871027 Z M10.092433,15.9949452 C10.0922319,15.9907671 10.0986174,15.9907671 10.0988234,15.9949452 C10.1113886,16.2908356 10.1947442,16.5651507 10.3488217,16.8183014 C10.3509502,16.8219315 10.3453886,16.8251507 10.34326,16.821589 C10.1891139,16.5682329 10.105003,16.2911096 10.092433,15.9949452 Z M11.7284469,9.88816127 C12.2469395,10.202548 13.0369628,10.9356364 12.4791842,11.7150393 C11.8226254,12.4022645 10.877329,11.6143138 10.4115033,11.2579544 C9.97956783,10.9817738 9.49426418,11.6920896 9.89501411,12.0145769 C13.2610804,14.500552 14.6271014,9.97036901 11.9906932,9.5185196 C11.7004152,9.46872774 11.5926052,9.79090231 11.7284469,9.88816127 Z M14.3822113,6.36987671 C14.5039625,6.36987671 14.6204097,6.41110046 14.7264592,6.48738028 C14.830834,6.56245549 14.9253227,6.67202625 15.0040213,6.80868656 C15.152948,7.06729821 15.2460475,7.4243722 15.2460475,7.81919178 C15.2460475,8.21401136 15.152948,8.57108535 15.0040213,8.829697 C14.9253227,8.96635731 14.830834,9.07592807 14.7264592,9.15100328 C14.6204097,9.2272831 14.5039625,9.26850685 14.3822113,9.26850685 C14.26046,9.26850685 14.1440128,9.2272831 14.0379633,9.15100328 C13.9335886,9.07592807 13.8390999,8.96635731 13.7604013,8.829697 C13.6114745,8.57108535 13.518375,8.21401136 13.518375,7.81919178 C13.518375,7.4243722 13.6114745,7.06729821 13.7604013,6.80868656 C13.8390999,6.67202625 13.9335886,6.56245549 14.0379633,6.48738028 C14.1440128,6.41110046 14.26046,6.36987671 14.3822113,6.36987671 Z M8.74387553,6.77258904 L8.78971003,6.76391924 C9.05713122,6.71539973 9.19226711,6.73173107 9.42513961,6.91354795 C9.60015898,7.05019178 9.55003574,7.31930137 9.42513961,7.463 C9.20759664,7.7134094 8.99503747,7.66905789 8.69703668,7.67861149 L8.67610616,7.67936986 C8.42775581,7.68943836 8.17919947,7.69649315 7.93064313,7.70026027 C7.86266778,7.70135616 7.79462377,7.70108219 7.72664842,7.70149315 C7.73385792,8.3289589 7.37118539,8.80669863 6.89357271,9.16991781 C6.58486849,9.40478082 6.19438785,9.13382192 6.08425405,8.84149315 C5.99313961,8.59957534 5.97357095,8.30210959 6.02081039,8.03724658 C6.03830775,7.9396153 6.0747868,7.83363879 6.13056488,7.74326882 L6.14625581,7.7190274 L6.14371532,7.68436986 C6.14309736,7.67580822 6.14371532,7.66752055 6.14344067,7.6589589 C5.70005599,7.63208219 5.25922965,7.58772945 4.81855904,7.53199233 L4.6716713,7.513 C4.29554102,7.46334247 3.74315546,7.44738356 3.43877694,7.20334247 C3.42916426,7.19553425 3.43259736,7.17847945 3.44275933,7.17306849 C3.61008544,7.08317123 3.77985145,7.08825897 3.96698691,7.07997154 L3.99384032,7.07868493 C4.1973544,7.06820548 4.40040502,7.05945976 4.60380324,7.05250557 L4.80734736,7.04615068 C5.32794243,7.03128767 5.84901813,7.00608219 6.36913257,6.97847945 C6.45956039,6.97368493 6.5499882,6.968 6.64055335,6.96245205 C6.7352382,6.92286301 6.83589665,6.89916438 6.93531919,6.89478082 C7.01771356,6.89108219 7.09694947,6.90245205 7.17144771,6.92608219 C7.36141822,6.91144178 7.55127287,6.89549144 7.74098267,6.87834675 L7.93064313,6.86080822 C8.1982875,6.83539726 8.47966426,6.82430137 8.74387553,6.77258904 Z M12.030628,2.06983562 C12.6027882,1.78935616 13.2984713,1.78250685 13.8877283,2.01463014 L13.92678,2.03040433 C14.5219053,2.2767679 15.2390166,2.84582472 15.0837512,3.55463014 C14.9416896,4.20339726 13.9215787,4.09346575 13.8698762,3.48024658 C13.5405048,3.0250411 12.8019079,2.92517808 12.3376157,3.21463014 C12.0560329,3.39024658 11.8627495,3.68593151 11.7306438,3.98415068 C11.6180382,4.23812329 11.5968217,4.55175342 11.4238621,4.7729863 C11.4182319,4.78017808 11.4069713,4.78147945 11.3988005,4.77956164 C10.8830118,4.66052055 10.8710646,3.84291781 10.9590206,3.44634247 C11.0868005,2.86976712 11.4969185,2.33161644 12.030628,2.06983562 Z" id="ðŸ–-Ink" fill="#000000"></path>
                            </g>
                            <g id="facial-hair/*-None" transform="translate(33.987672, 35.479429)"></g>
                            <g id="accessories/*-None" transform="translate(28.769366, 28.835616)"></g>
                        </g>
                    </g>
                </g>
            </g>
        </g>
    </g>
</svg>