<?xml version="1.0" encoding="UTF-8"?>
<svg width="86px" height="86px" viewBox="0 0 86 86" version="1.1" xmlns="http://www.w3.org/2000/svg" xmlns:xlink="http://www.w3.org/1999/xlink">
    <!-- Generator: Sketch 63.1 (92452) - https://sketch.com -->
    <title>Group 3</title>
    <desc>Created with Sketch.</desc>
    <defs>
        <circle id="path-1" cx="35" cy="35" r="35"></circle>
    </defs>
    <g id="Page-1" stroke="none" stroke-width="1" fill="none" fill-rule="evenodd">
        <g id="Sysl-homepage" transform="translate(-1254.000000, -192.000000)">
            <g id="Group-3" transform="translate(1254.000000, 192.000000)">
                <circle id="Oval-Copy-2" fill="#00C6D7" cx="43" cy="43" r="43"></circle>
                <g id="peep-26" transform="translate(8.000000, 8.000000)">
                    <mask id="mask-2" fill="white">
                        <use xlink:href="#path-1"></use>
                    </mask>
                    <use id="Mask" fill="#FFFFFF" xlink:href="#path-1"></use>
                    <g id="a-person/bust" mask="url(#mask-2)">
                        <g transform="translate(37.500000, 43.500000) scale(-1, 1) translate(-37.500000, -43.500000) translate(0.000000, -7.000000)">
                            <g id="body/Sweater-Dots" transform="translate(9.705106, 42.099804)" fill-rule="evenodd">
                                <path d="M7.78497548,47.6174845 C9.98794509,47.6242802 12.1285099,47.6995378 14.3376682,47.7068922 C23.3177948,47.7367876 32.3805572,47.6932705 41.3932572,47.3299976 C43.9405869,47.227323 44.5764483,47.229849 47.1127835,47.0705256 C48.6103408,47.0651746 53.1087431,46.9415867 52.883545,44.9060922 C52.7841172,41.1149652 51.8435142,37.3398911 51.5472774,33.5590148 C50.9787035,26.4513206 50.4945045,19.1213356 47.6394209,12.4734377 C46.9785494,10.8858126 45.5592272,9.84759628 44.1542316,8.91401393 C42.7452088,7.90687193 42.399408,6.78865773 41.0989899,5.65090059 C40.8240173,5.41029963 39.2625466,5.31239103 38.422416,4.7021594 C37.1995971,3.81396081 36.5931826,2.35978055 36.1369561,2.11222733 C35.8012387,1.93010109 35.8073819,0.673474865 35.1345102,0.228699874 C34.2315711,-0.368152067 31.3541846,-0.811945892 30.3073372,-0.894950758 C29.3025561,-0.974620174 27.5549119,-0.807272585 26.6121923,-0.440113806 C25.0400767,0.172174326 24.4130378,1.34014104 23.7206929,2.84485835 C14.5736639,5.66597774 6.21307847,10.4431007 3.6165996,20.0788362 C1.37749308,28.1603417 1.29542882,36.8241999 2.16043763,45.1125879 C2.333479,45.7186653 2.21219819,46.6688163 2.73706615,47.0705256 C0.913034457,47.1749661 7.53752829,47.5503074 7.78497548,47.6174845 Z" id="ðŸŽ¨-Background" fill="#FFFFFF"></path>
                                <path d="M49.3890647,39.6377629 C49.2159573,39.5515209 49.0355216,39.4528928 48.8378543,39.4460408 C48.4983737,39.4342476 48.4979115,38.9071106 48.8378543,38.9189697 C49.1343552,38.9293135 49.3947425,39.0526481 49.655658,39.1826371 C49.9600814,39.3343018 49.6922997,39.7887688 49.3890647,39.6377629 M48.8378543,24.8018973 C49.0695224,24.802095 49.3030392,24.8312815 49.4809661,24.9929606 C49.586732,25.0891511 49.5783473,25.2684211 49.4809661,25.3656658 C49.3767188,25.4695646 49.2128543,25.4614609 49.1074186,25.3656658 C49.1418156,25.3968288 49.1077487,25.3659293 49.0952707,25.3590115 C49.0922997,25.3574303 49.0906492,25.3563102 49.089857,25.3555855 C49.0872161,25.3549267 49.0845753,25.3543996 49.0802839,25.3532796 C49.0526871,25.3463618 49.0254203,25.3395757 48.9974934,25.3345686 C48.9970313,25.3358862 48.9385365,25.3306814 48.9248041,25.3301543 C48.8957548,25.3291002 48.8668376,25.3289684 48.8378543,25.3289684 C48.6945885,25.3289025 48.5737698,25.2084668 48.5737698,25.0654329 C48.5737698,24.9231237 48.6951166,24.8018314 48.8378543,24.8018973 M46.3544696,30.7140539 C46.2788094,31.0451204 45.7697205,30.9041289 45.8451827,30.5739189 C45.9549098,30.093823 45.9349054,29.6019339 45.8451827,29.120125 C45.7833869,28.7880702 46.2924758,28.6470128 46.3544696,28.9800558 C46.4620841,29.5579893 46.4861818,30.1379652 46.3544696,30.7140539 M45.6873922,11.7717773 C45.2940383,11.6785516 44.9049758,11.6674831 44.502643,11.6673513 C44.1622381,11.6672196 44.1627663,11.1401485 44.502643,11.1402802 C44.9513886,11.140412 45.3894388,11.1596501 45.8278191,11.263549 C46.158849,11.3420167 46.0178279,11.8500474 45.6873922,11.7717773 M44.3693464,24.6099117 C44.1412434,24.4960643 43.9130084,24.382217 43.6849054,24.2683696 C43.3804159,24.1165072 43.6482636,23.6620402 43.9514327,23.8132437 L44.6359397,24.1548517 C44.9402971,24.306714 44.6725154,24.7611811 44.3693464,24.6099117 M44.274342,34.9893252 C43.9849714,35.4056455 43.5780832,35.6643057 43.0897909,35.793504 C42.7603455,35.8806684 42.6210409,35.3721106 42.949364,35.2852757 C43.2985497,35.1929065 43.608783,35.0247049 43.818268,34.7232861 C44.0108517,34.4461785 44.4685101,34.7099776 44.274342,34.9893252 M42.44932,16.4322059 C42.3710189,16.2862072 42.2531712,16.2245399 42.1068684,16.2212457 C41.7669916,16.2134714 41.7669256,15.6864003 42.1068684,15.6941746 C42.4402751,15.7016853 42.7460189,15.8687669 42.9053279,16.1662326 C43.0656932,16.4655431 42.6095533,16.7315164 42.44932,16.4322059 M39.099276,20.0148399 C39.0046017,20.1177506 38.8209969,20.1151811 38.7257945,20.0148399 C38.6674978,19.9534361 38.6185101,19.884851 38.5799538,19.8096775 C38.5652971,19.7811498 38.5514987,19.752095 38.5353895,19.7243579 C38.5281932,19.7120376 38.5202047,19.6997832 38.512018,19.6879241 C38.5092452,19.6854864 38.5035013,19.6795568 38.4975594,19.6732978 C38.3960849,19.5662365 38.3986598,19.4081811 38.4975594,19.3005927 C38.5922997,19.1976821 38.7759045,19.2002515 38.871107,19.3005927 C38.9293376,19.3619965 38.9783913,19.4305816 39.0168816,19.5057551 C39.0315383,19.5342828 39.0453367,19.5633376 39.0615119,19.5911406 C39.0687082,19.6034609 39.0766967,19.6156494 39.0848834,19.6275085 C39.0876563,19.6299462 39.0933341,19.6358758 39.099276,19.6421348 C39.2008165,19.7491961 39.1982416,19.9072515 39.099276,20.0148399 M38.8176298,27.7976377 C38.4736598,27.9547049 38.0964151,27.9547049 37.752445,27.7976377 C37.6221853,27.7381446 37.5912874,27.5504414 37.6577707,27.4370552 C37.7347513,27.3056827 37.8894388,27.2833481 38.0190383,27.3425118 C38.1750462,27.4137323 38.3952927,27.4136664 38.5511026,27.3425118 C38.6812962,27.2830845 38.8344652,27.3041674 38.9123702,27.4370552 C38.9792496,27.5511661 38.9473614,27.7384081 38.8176298,27.7976377 M37.8794036,33.306519 C37.8203147,33.4461269 37.6926959,33.5203122 37.5434881,33.5259782 C37.3956668,33.5315783 37.2856096,33.4007329 37.2794036,33.2624427 C37.2754423,33.1731041 37.3238358,33.0967447 37.3933561,33.0494401 C37.3934221,33.0445646 37.3935541,33.0396892 37.3935541,33.0347479 C37.3936202,32.8870363 37.5145048,32.7776031 37.6576386,32.7712124 C37.8001783,32.7648217 37.9217892,32.8969189 37.9217232,33.0347479 C37.9216571,33.127776 37.9159133,33.2200793 37.8794036,33.306519 M36.5167276,42.0645301 C36.0952487,42.0713161 35.6834089,42.1715255 35.261864,42.1783774 C34.921261,42.1838458 34.9223173,41.6567747 35.261864,41.6513063 C35.6833429,41.6444544 36.0951827,41.544245 36.5167276,41.537459 C36.8573305,41.5319247 36.8562742,42.0589958 36.5167276,42.0645301 M34.7639987,8.28856204 C34.5172777,8.52310868 34.2125242,8.63866902 33.911996,8.78519478 C33.6075066,8.93363118 33.340055,8.47896647 33.6454027,8.33006888 C33.8999802,8.20594364 34.1818244,8.11423327 34.3905832,7.91592277 C34.636842,7.68183731 35.0107196,8.05414716 34.7639987,8.28856204 M34.1017408,14.3637153 C33.9286334,14.2774733 33.7481976,14.1788451 33.5505964,14.1719932 C33.2110497,14.1601341 33.2105876,13.633063 33.5505964,13.6449221 C33.8470313,13.6552 34.1074186,13.7786005 34.3683341,13.9085894 C34.6728895,14.0602541 34.4050418,14.5147212 34.1017408,14.3637153 M30.9267188,38.7462881 C30.8485497,38.6002235 30.730702,38.5385562 30.5843992,38.535262 C30.2444564,38.5275536 30.2443244,38.0004825 30.5843992,38.0081909 C30.9178059,38.0157675 31.2235497,38.1828491 31.3828587,38.4802489 C31.543158,38.7796253 31.0870841,39.0455327 30.9267188,38.7462881 M29.8272029,27.301005 C29.7220973,27.2047486 29.7294256,27.0259397 29.8272029,26.9283657 C29.9412874,26.8145183 30.0553719,26.700671 30.1695224,26.5868236 C30.2738358,26.4826612 30.4375022,26.4902378 30.5429379,26.5868236 C30.6480436,26.68308 30.6407152,26.8618888 30.5429379,26.9595288 C30.4287874,27.0733761 30.3147689,27.1871576 30.2006844,27.301005 C30.096239,27.4052333 29.9326386,27.3975907 29.8272029,27.301005 M28.5308121,45.1384087 C28.1498041,45.1295144 27.7926298,45.0204107 27.433871,44.9012926 C27.1124142,44.7945607 27.2510585,44.2856736 27.574298,44.3930643 C27.8861158,44.4965679 28.19932,44.6036292 28.5308121,44.6113376 C28.8707548,44.6191778 28.8708869,45.1462489 28.5308121,45.1384087 M26.8195445,33.8675203 C26.4753103,33.8579671 26.1897689,33.6830454 25.9483297,33.4487623 C25.7041175,33.2118438 26.0779952,32.8394681 26.3218112,33.076123 C26.4599934,33.2101309 26.6194344,33.3349149 26.8195445,33.3404492 C27.1593552,33.3498706 27.1596193,33.8769417 26.8195445,33.8675203 M27.8822205,19.373065 C27.8863798,19.5133977 27.9457989,19.6637447 28.0330788,19.7559821 C28.2664635,20.0026514 27.8934441,20.3758177 27.6595973,20.1286873 C27.4666835,19.9248425 27.3621721,19.6520174 27.3540515,19.373065 C27.3442804,19.0332359 27.8725154,19.0346853 27.8822205,19.373065 M23.8535453,7.8937199 C23.743026,7.67775251 23.5981756,7.42449485 23.3778631,7.30517913 C23.0786554,7.14317065 23.3455788,6.6882424 23.6444564,6.85005323 C23.9439283,7.01225936 24.1582328,7.33192798 24.3096193,7.62768076 C24.4641087,7.92949485 24.0081668,8.19586341 23.8535453,7.8937199 M23.1689063,13.3750617 C23.046371,13.3715699 22.9247601,13.3506188 22.8065823,13.3186651 C22.7560761,13.3049613 22.7061642,13.289215 22.655592,13.2755112 C22.6339371,13.2696475 22.5419696,13.2581837 22.5984837,13.2612144 C22.455482,13.2535718 22.3343992,13.1467082 22.3343992,12.9976788 C22.3343992,12.8607062 22.4558781,12.7265007 22.5984837,12.7341432 C22.7945004,12.7446188 22.9727575,12.8424564 23.1689063,12.8479906 C23.5085849,12.8575438 23.508849,13.3846149 23.1689063,13.3750617 M21.4576386,21.7997003 L20.8872161,21.7997003 C20.5468112,21.7997003 20.5474054,21.2726292 20.8872161,21.2726292 L21.4576386,21.2726292 C21.7980436,21.2726292 21.7974494,21.7997003 21.4576386,21.7997003 M20.7922777,45.1023703 C20.6193024,45.188744 20.4154291,45.2705718 20.2753323,45.4027349 C20.0282813,45.6358321 19.6543376,45.2635881 19.9018508,45.0300297 C20.0803059,44.8616964 20.3084749,44.7557551 20.5257504,44.6473102 C20.6537654,44.5834029 20.8111598,44.61226 20.8870841,44.7418536 C20.95568,44.8589952 20.9198305,45.0387264 20.7922777,45.1023703 M19.5177399,38.4428269 C19.4956228,38.4366997 19.4722513,38.4324172 19.4498702,38.4293866 C19.3600814,38.4172639 19.2661334,38.4214805 19.1759485,38.4214146 C18.8355436,38.421217 18.8360717,37.8941459 19.1759485,37.8943435 C19.4437962,37.8944753 19.7225374,37.8982307 19.9331448,38.0854068 C20.040033,38.1804114 20.0296677,38.3617238 19.9331448,38.4580461 C19.8281712,38.5628014 19.6660893,38.5527212 19.5596633,38.4580461 C19.5708869,38.4681263 19.5323966,38.4469117 19.5177399,38.4428269 M19.1760805,29.4863076 C19.2527971,29.3284498 19.2539855,29.2255392 19.2541175,29.0500904 C19.2543816,28.7103931 19.7825506,28.7109202 19.7822866,29.0500904 C19.7821545,29.3047975 19.7441923,29.5216873 19.6321545,29.7523468 C19.5696325,29.8809521 19.3866219,29.914487 19.2708869,29.8468902 C19.1410893,29.7711896 19.1139547,29.61432 19.1760805,29.4863076 M17.6489459,17.1226031 C17.3426078,17.2265679 17.0691483,17.3737525 16.799386,17.5514414 C16.5146369,17.7389469 16.2503543,17.2823057 16.5327927,17.0963155 C16.8406492,16.8935907 17.1590691,16.7329658 17.5085189,16.6143089 C17.8316263,16.5046781 17.9690163,17.0139606 17.6489459,17.1226031 M15.8674978,8.25193059 C15.639923,8.25825545 15.4050198,8.34535395 15.2022029,8.44365271 C14.8973834,8.59136438 14.6299318,8.13669967 14.9356756,7.98852681 C15.2253763,7.84806236 15.5423438,7.73395147 15.8674978,7.72485949 C16.2081008,7.71530633 16.2066483,8.24244331 15.8674978,8.25193059 M15.0689063,31.9321152 C14.9793816,31.9361341 14.9028631,31.8878412 14.8554599,31.8183996 C14.8505084,31.8183996 14.8456228,31.8182678 14.8407372,31.8182678 C14.6927179,31.818202 14.5831228,31.6975686 14.5766527,31.5547323 C14.5702487,31.412489 14.702621,31.2911309 14.8407372,31.2911967 C14.9339591,31.2912626 15.0264547,31.2969286 15.1130744,31.3334283 C15.2529732,31.3923285 15.3273129,31.5196821 15.3329908,31.6685796 C15.3386026,31.8161596 15.2074846,31.9259221 15.0689063,31.9321152 M13.7700726,13.7071824 C13.4457108,13.812926 13.3079908,13.3038412 13.6296457,13.1989541 C14.0072205,13.0758171 14.393048,12.9804831 14.7705568,12.8573461 C15.0949186,12.7516025 15.2326386,13.2607532 14.9109177,13.3656403 C14.5334749,13.4887114 14.1475814,13.5840454 13.7700726,13.7071824 M12.5855876,23.6555177 C12.4849714,23.9790076 11.9753543,23.8401243 12.0762346,23.5153826 C12.1736818,23.2019071 12.18068,22.8864551 12.1808781,22.560791 C12.1810761,22.2210937 12.7092452,22.2216866 12.7090472,22.560791 C12.708849,22.9314538 12.696371,23.2987564 12.5855876,23.6555177 M9.05431558,35.5710141 C9.03510343,35.7022548 8.93079005,35.7967982 8.79425836,35.8029254 C8.65528389,35.8091185 8.52515625,35.6772848 8.53017386,35.5393898 C8.53987896,35.2740754 8.75662632,35.0578445 9.02242738,35.0481596 C9.1703147,35.0427571 9.2803059,35.1732072 9.28651188,35.3116951 C9.29258583,35.4462959 9.17995379,35.5513807 9.05431558,35.5710141 M7.26725572,20.4241765 C6.98818442,20.5171387 6.68996699,20.6056207 6.47117298,20.8117714 C6.22392386,21.0446051 5.84998019,20.672427 6.09769146,20.4390663 C6.38620379,20.1672952 6.75730854,20.0390193 7.12689481,19.9158823 C7.45053037,19.8080963 7.58805238,20.3173129 7.26725572,20.4241765 M6.05609815,30.6631256 C5.9793816,30.793971 5.82403389,30.8176234 5.69483055,30.757669 C5.52159111,30.6772907 5.3303279,30.6799919 5.14355414,30.6797943 C4.80321523,30.6795307 4.8037434,30.1524596 5.14355414,30.1527231 C5.43167033,30.1529867 5.69747139,30.180065 5.96142386,30.3025431 C6.09128741,30.3628928 6.12291153,30.5491465 6.05609815,30.6631256 M5.37172315,43.0891563 C5.22383583,43.0945588 5.11384463,42.9640428 5.10763864,42.8256207 C5.1015647,42.69102 5.21413072,42.5859352 5.33990097,42.5663018 C5.3590471,42.4350611 5.4634265,42.3404518 5.59989217,42.3343905 C5.73893266,42.3281315 5.8690603,42.4599652 5.86397667,42.597926 C5.85427157,42.8632404 5.63765625,43.0794055 5.37172315,43.0891563 M53.4896369,45.0820121 C53.3999142,44.7598399 53.1945885,44.4995986 53.0394388,44.2097095 C52.9874142,44.1120037 52.9693244,44.0512587 52.9411334,43.9797088 C52.9028411,44.0562 52.8285013,44.1137166 52.7167276,44.1137825 C52.5022909,44.1138484 52.2514767,44.1000787 52.0513666,44.1916573 C51.921239,44.2511504 51.7679379,44.2300017 51.690099,44.0971139 C51.6232196,43.9829371 51.6551739,43.7958269 51.7848393,43.7365314 C52.0797557,43.6016671 52.3967892,43.5868432 52.7167276,43.5866455 C52.7957548,43.5866455 52.85557,43.6157003 52.8978235,43.6593155 C53.0200946,41.9885001 53.0170577,40.3164988 52.9013886,38.6444975 C52.7779952,36.8577264 52.4940383,35.1065327 52.1969432,33.342821 C52.0530832,32.4876481 51.8662434,31.6239104 51.902555,30.7529254 C51.9388666,29.8878699 52.3105656,29.0814511 52.0471413,28.2137603 C51.9415075,27.8658934 51.7606096,27.5470154 51.643092,27.2031015 C51.5169916,26.8328341 51.5282152,26.4671785 51.5856536,26.0837342 C51.7038314,25.3030102 51.8998482,24.5315098 51.5862478,23.7692333 C51.4476695,23.4312489 51.2231316,23.1295007 51.114923,22.7803161 C50.9802399,22.3461413 50.9987258,21.8658477 50.9762786,21.4158608 C50.930724,20.5079808 50.9188402,19.5941713 50.8435101,18.6882678 C50.8099054,18.2824231 50.7366219,17.8976612 50.5695885,17.5254172 C50.4090911,17.1670089 50.1708209,16.8408836 50.0645268,16.4607336 C49.958893,16.0865131 49.9496501,15.6918686 49.8928719,15.3090832 C49.8334529,14.9045562 49.7403631,14.5059586 49.614923,14.1172437 C49.1303279,12.6124557 48.2423438,11.2605183 47.193268,10.088444 C46.0781712,8.84257965 44.7452047,7.90439309 43.3303719,7.03011389 C42.5863798,6.57037613 41.8424538,6.11063836 41.0989899,5.65090059 C41.0831448,5.7371426 41.0280172,5.81640091 40.9221853,5.85171468 C40.642982,5.94474273 40.3448966,6.0331589 40.1260365,6.23930959 C39.8788534,6.47214325 39.5048438,6.09996517 39.752555,5.86667032 C40.0109617,5.62316347 40.3357196,5.49501931 40.6662214,5.38242374 C40.327467,5.16935525 39.9850814,4.94871011 39.6028191,4.82563901 C39.268026,4.71758943 38.774254,4.81180339 38.5028411,4.56671533 C38.2896589,4.37367554 38.2222513,4.01592603 38.1404511,3.75370815 C38.0381184,3.42824175 37.9496501,3.08498669 37.8195885,2.76874403 C37.7311202,2.55264488 37.602379,2.34511063 37.439967,2.17776556 C37.3686642,1.90368858 37.2378763,1.65332981 37.0068024,1.50113803 C36.4021149,1.10188167 35.6593772,1.49850267 35.3933121,2.06773947 C35.1734617,2.06708063 34.9417276,2.11517586 34.7278191,2.12835264 C34.2881184,2.15602387 33.8477575,2.16854181 33.4073966,2.16722414 C32.5458209,2.16458878 31.6835849,2.10858748 30.8292716,1.99460835 C29.3015427,1.7903683 27.8193684,1.378594 26.3173878,1.05773947 C26.308805,1.0379743 26.2989018,1.01820913 26.287018,0.998443966 C25.9635145,0.456878408 25.1573966,0.548457012 24.6496281,0.753355903 C24.4318244,0.840981474 24.2099934,0.951666406 24.0852135,1.15722414 C23.9531712,1.24616738 23.8389547,1.35421696 23.7630304,1.46819609 C23.6059001,1.70340157 23.4844212,2.17776556 23.1655392,2.21729589 C22.955592,2.24299061 22.7423438,2.20280144 22.5290955,2.23310802 C22.2623702,2.270003 22.0233737,2.36355812 21.7771149,2.47029002 C19.9021149,3.28263836 17.9637346,4.18590646 15.9288974,4.50083144 C15.4516307,4.5746214 14.9657152,4.65104671 14.5511026,4.91787645 C14.2143948,5.13463444 13.9542055,5.43242962 13.6763226,5.71507149 C13.405636,5.99046614 13.1824846,6.11235134 12.796261,6.16176425 C12.327511,6.22171859 11.9214811,6.35085101 11.5788314,6.69081187 C11.2942804,6.97345375 11.108761,7.33449746 10.8856096,7.66259922 C10.6584309,7.99728937 10.3250902,8.18571729 9.97913952,8.38007476 C9.16113776,8.83994429 8.39925396,9.39534547 7.73574164,10.0614316 C6.33807438,11.4660761 5.49168354,13.2712946 4.63869058,15.0303944 C3.71637544,16.9331211 2.85413952,18.8589071 2.25598812,20.8907662 C1.66972051,22.8857303 1.32112896,24.9380134 1.16003741,27.0094029 C0.990363116,29.1829123 0.966595511,31.3649867 0.825310299,33.5398138 C0.754667694,34.6262391 0.701190581,35.7139821 0.647053257,36.8010663 C0.594236356,37.8749736 0.516991637,38.9508575 0.52946963,40.0260826 C0.553303257,42.1047192 0.969830546,44.1899443 1.6981096,46.1361543 C1.87966769,46.6204009 2.08096611,47.0980591 2.29553477,47.5684701 C2.483761,47.981562 3.12746699,47.9354433 3.32949164,47.5684701 C3.37570643,47.4841387 3.41201805,47.397172 3.44238776,47.3088875 C3.97055678,47.3134994 4.50400748,47.2726514 5.02887544,47.3214055 C5.95581206,47.4077134 6.88466329,47.4558086 7.81424076,47.5131276 C9.65365537,47.6271067 11.496305,47.7028732 13.3363138,47.8076286 C13.5148349,47.8177747 13.6933561,47.8279867 13.8718112,47.838594 C12.5605656,43.7885138 12.730636,39.4099365 12.5231316,35.1978477 C12.5064283,34.8582822 13.0347293,34.8602587 13.0513006,35.1978477 C13.2596633,39.4279886 13.0822645,43.8177662 14.439857,47.8744348 C14.9665735,47.9100121 15.4925638,47.9534955 16.0167716,48.0171393 C16.4405612,48.0678699 16.8664635,48.1278243 17.2942804,48.1067414 C17.7795357,48.0836821 18.2535673,47.9729971 18.7269388,47.8768067 C19.5871941,47.7022144 20.4157592,47.781275 21.2793156,47.8886658 C22.2029511,48.0039626 23.1298878,48.0678699 24.0594652,48.1080591 C27.7817364,48.2707923 31.5290955,48.4190311 35.2500462,48.1706488 C36.1505744,48.1106945 37.0491219,48.0263631 37.9437082,47.9117251 C38.8653631,47.793793 39.7771149,47.5954825 40.6980436,47.482821 C41.6058341,47.3721361 42.4404071,47.6758608 43.3376342,47.7318621 C44.252621,47.7891811 45.1921677,47.5987766 46.0986378,47.4894094 C46.3943464,47.4536344 46.6903851,47.4188477 46.9864899,47.3843246 C46.6052839,44.7769697 46.3885365,42.1499815 46.1779952,39.5240474 C46.1508605,39.1853383 46.6792276,39.1882372 46.7061642,39.5240474 C46.914989,42.1294916 47.1269168,44.7369123 47.5075286,47.3237114 C49.0771809,47.1414766 50.6483517,46.9570676 52.2016307,46.673108 C52.6439723,46.5927297 53.083673,46.4616207 53.3484177,46.0676351 C53.5444344,45.7757695 53.5841131,45.41802 53.4896369,45.0820121" id="ðŸ–-Ink" fill="#000000"></path>
                            </g>
                            <g id="head/Hijab" transform="translate(24.559859, 11.859100)" fill-rule="evenodd">
                                <path d="M17.1841225,6.92923842 C27.1211438,7.24318109 27.720506,11.9533437 27.720506,19.8524781 C27.720506,27.7516125 22.5656027,32.7292011 20.6674912,33.5983814 C18.7693797,34.4675616 13.7713696,38.2008455 9.26096561,36.4804409 C4.75056159,34.7600362 6.05671285,27.491502 6.05671285,24.3684427 C6.05671285,21.2453834 7.24710115,6.61529576 17.1841225,6.92923842 Z" id="Path-2" fill="#FFFFFF"></path>
                                <path d="M21.2153741,31.0040879 C19.3905502,32.0206763 17.3010475,32.0602067 15.3381734,31.4204741 C14.1610167,31.0377546 13.0816373,30.4460514 12.0714481,29.7384584 C11.1927069,29.1224441 10.4083759,28.4392282 9.63130722,27.7137807 C8.9915625,26.3059079 8.4218662,24.9006046 8.15507482,23.3688042 C7.91607835,21.9938074 7.8843882,20.5661036 8.16167694,19.1937422 C10.2123592,17.5104089 12.2504313,15.8132399 14.2857967,14.1108661 C15.3223283,13.2437683 16.3615009,12.3814141 17.4132174,11.5327637 C17.9473283,11.1018831 18.4762236,10.6644141 19.0082879,10.2315569 C19.096096,10.1604023 19.1833099,10.0892477 19.271118,10.0180932 C20.3696435,10.8205589 21.5474604,11.5084526 22.6381954,12.3240292 C23.2092121,12.7516157 23.7644498,13.2068733 24.293279,13.6857833 C24.5705678,13.9368668 24.8413204,14.1957905 25.1054049,14.4613025 C25.3469762,14.7038211 25.5800308,15.0516222 25.9227465,15.1432667 C25.9696215,15.1557187 26.0137896,15.1583541 26.0553829,15.1524245 C26.5135695,19.1555295 26.8390537,23.4781714 24.8762456,27.1136444 C24.0199516,28.6994695 22.8058891,30.1172908 21.2153741,31.0040879 Z M9.34418134,32.475341 C9.09290493,32.2456039 9.46737676,31.8738211 9.71759683,32.10257 C11.2892958,33.5392341 13.3440053,34.3007859 15.4194454,34.6532647 C15.7543046,34.7102543 15.6115009,35.2180214 15.2790185,35.161493 C13.1121391,34.7934656 10.9824296,33.9728159 9.34418134,32.475341 Z M7.45822183,34.6796183 C7.15822183,34.5189933 7.42527729,34.0641969 7.72474912,34.2244924 C8.94924296,34.8798394 10.2923107,35.2203273 11.6545907,35.4502621 C11.9896479,35.5067905 11.8467121,36.0145576 11.5142298,35.9584904 C10.105669,35.7207813 8.72351673,35.3567729 7.45822183,34.6796183 Z M12.4418266,12.4749692 C13.4578917,11.5650468 14.5498812,10.6992667 15.7033363,9.96868023 C16.8705238,9.22946301 18.1453917,8.78738213 19.5232526,8.7768407 C19.4268618,8.85392485 19.3350924,8.93957391 19.2420026,9.01922753 C18.9819454,9.24132211 18.7224164,9.46466849 18.4629533,9.68735603 C17.9440273,10.13339 17.4237808,10.5786992 16.9114569,11.0320462 C15.902654,11.9254317 14.8905502,12.8142053 13.883728,13.7095674 C11.9486488,15.4304545 10.0552289,17.1888296 8.20261004,18.9980671 C8.21257923,18.9539249 8.22314261,18.9097826 8.23363996,18.8657063 C8.84697623,16.3093456 10.5153301,14.2004023 12.4418266,12.4749692 Z M20.4066153,8.88818447 C20.4132174,8.86841931 20.4179049,8.8492471 20.4205458,8.83086549 C23.0646919,9.17477939 25.2730986,11.1163117 26.0032262,13.6726724 C25.939846,13.7609568 25.9048548,13.8657122 25.918059,13.9769901 C25.9246611,14.0330573 25.9312632,14.0897174 25.9378653,14.1457187 C25.8474164,14.0561825 25.7543266,13.9724441 25.6751673,13.8927246 C25.4116769,13.6265537 25.1417165,13.3675641 24.8643618,13.1152288 C24.2972403,12.5994239 23.7083979,12.1171538 23.0877333,11.6671669 C22.0083539,10.8844663 20.8397139,10.1650142 19.5529621,9.78947606 C19.6374692,9.72029798 19.7220423,9.6511199 19.8072095,9.58260065 C20.0613248,9.3763182 20.2970863,9.20640365 20.4066153,8.88818447 Z M25.1469982,6.15466197 C23.5235387,4.3843619 21.2754533,3.08776699 18.9080018,2.6371212 C16.6473724,2.20624057 14.3069234,2.49020013 12.171206,3.32758434 C7.70216989,5.08009576 4.17598151,8.93371024 2.52479313,13.3992543 C1.56220511,16.001009 1.24662412,18.8531225 1.53586268,21.607069 C1.82364877,24.3484317 2.65089349,27.1795282 4.15617518,29.5118179 C4.29415933,29.7253476 4.44534771,29.9301806 4.60379842,30.1284911 C4.53315581,30.9335922 4.26378961,31.7228811 3.83993398,32.4093913 C3.81715669,32.4461545 3.793125,32.4822588 3.76935739,32.5184291 C3.33533451,32.8427755 2.88513644,33.147159 2.4456338,33.4613593 C2.06475792,33.7335915 1.68777729,34.0128733 1.32961268,34.3144239 C0.991518486,34.5991082 0.598890845,34.9161414 0.369995599,35.3003763 C0.182429577,35.6151036 0.10584507,36.0430194 0.361875,36.3431864 C0.670391725,36.7047572 1.19314701,36.5772719 1.61106074,36.5772719 C1.64684419,36.5772719 1.68256162,36.5780625 1.71827905,36.5784578 C1.84378521,36.657189 1.97305458,36.7283436 2.09829665,36.7945569 C3.36392165,37.4640031 4.63416813,38.1261362 5.90573504,38.7849751 C8.43837148,40.098041 10.9603785,41.4638798 13.5450396,42.6727833 C14.7427289,43.2334552 16.0248592,43.7235654 17.3663424,43.7216659 C18.6247711,43.7196783 19.7622491,43.2209372 20.7446435,42.4626137 C21.8643618,41.59881 22.8006074,40.5019092 23.7089921,39.42675 C24.0721083,38.9963965 24.4279621,38.5609699 24.7772139,38.1195478 C25.4479886,37.8962014 26.1134815,37.8309764 26.7116329,38.261857 C27.1916065,38.6077474 27.8240889,38.1373365 27.8353125,37.6181055 C27.8392738,37.4337624 27.8314173,37.251857 27.8115449,37.0726528 C27.6914525,35.9657376 27.1486928,34.9643684 26.5373371,34.0354715 C26.2033363,33.5274408 25.8514437,33.0286339 25.4975044,32.5345048 C25.4143178,32.4179562 25.3324516,32.3013417 25.2532262,32.1826848 C26.6746611,30.0942314 27.8023019,27.7784128 28.4955238,25.3584317 C29.2238028,22.8120853 29.471382,20.1714591 29.3089701,17.5328094 C29.0593442,13.4888564 27.9476144,9.20903901 25.1469982,6.15466197 Z" id="ðŸ–-Ink" fill="#000000"></path>
                            </g>
                            <g id="face/Smile" transform="translate(35.057218, 24.113503)" fill-rule="evenodd">
                                <path d="M9.6778103,15.873178 C9.23399811,15.6925013 8.83800541,15.3911206 8.54849654,15.0061263 C8.44784493,14.8722865 8.42174767,14.7309537 8.44286218,14.6016868 C8.46660396,14.4563353 8.55277524,14.3246001 8.67029356,14.2362361 C8.78817588,14.1475985 8.9356317,14.1038845 9.07819073,14.1261686 C9.20206617,14.1455322 9.32537825,14.2132159 9.42297055,14.3535895 L9.44336003,14.3816609 C9.61547805,14.6140302 9.83976368,14.8046864 10.0953215,14.9275754 C10.3416377,15.0460204 10.6171174,15.1013032 10.902194,15.0691551 C11.4451407,15.0079503 11.819367,14.7149292 12.2171286,14.3170116 C12.2664323,14.2667735 12.3157676,14.2149604 12.365342,14.1623134 C12.3966493,14.1145891 12.4400959,14.0839167 12.4883334,14.0678234 C12.5418927,14.0499546 12.6024806,14.0509656 12.6579746,14.0702916 C12.7114988,14.0889315 12.7593467,14.1242533 12.7914301,14.1712644 C12.8219227,14.2159446 12.8392111,14.2711409 12.8336014,14.3346304 C12.7971936,14.7470069 12.5811493,15.1150354 12.2742673,15.4040155 C11.9334357,15.7249648 11.4816385,15.9469996 11.0562912,16.0248742 C10.5876833,16.1106561 10.1101844,16.0491983 9.6778103,15.873178 L9.6778103,15.873178 Z M11.2773528,9.51146941 C11.7759033,9.81387946 12.5355412,10.5190407 11.9992156,11.2687521 C11.367909,11.9297973 10.4589702,11.1718638 10.0110608,10.8290799 C9.5957383,10.5634206 9.12910017,11.2466766 9.51443665,11.5568788 C12.7510389,13.94815 14.0645206,9.59054542 11.5295127,9.15590933 C11.2503992,9.1080143 11.1467358,9.41791555 11.2773528,9.51146941 Z M5.47733055,6.72980196 C5.53241384,6.04749025 6.5737434,5.89254951 6.67733055,6.56772759 C6.77009023,7.17254168 6.66089129,7.72814051 6.38789393,8.27267084 C6.12704445,8.79289002 5.47142051,8.55018329 5.42183864,8.07647813 C5.35537621,7.44149606 5.44306558,7.1542389 5.47733055,6.72980196 Z M13.4040713,6.42773092 C13.5492518,6.23798532 13.7588688,6.1084576 14.0100132,6.1816546 C14.7946743,6.41046934 14.5634023,7.52212818 14.2878301,8.06323255 C14.1380942,8.35707469 13.6540933,8.43158937 13.4353653,8.17286334 C13.0788512,7.75094292 12.9081206,6.90835388 13.3613556,6.49275832 C13.3736356,6.47128017 13.3873019,6.44960437 13.4040713,6.42773092 Z M6.37684199,3.74421429 L6.50078814,3.72256517 C6.88422557,3.65638843 7.36098592,3.59279993 7.63223371,3.90042498 C7.77609375,4.06355349 7.8256096,4.36675114 7.63223371,4.52289596 C7.29209287,4.79763177 6.91603653,4.69116341 6.5084221,4.71442042 C6.1725066,4.73365851 5.84966329,4.78913275 5.52609375,4.88143607 C4.8162346,5.08389726 4.2378235,5.45350587 3.6315515,5.85935062 C3.55199604,5.9125848 3.47079005,5.81105773 3.5087522,5.73680659 C3.85873019,5.05273418 4.53696523,4.4908105 5.21632262,4.14828017 C5.57891065,3.96545238 5.97569762,3.81378767 6.37684199,3.74421429 Z M12.6887902,3.43778092 L12.783658,3.4571561 C13.8160459,3.67250475 15.1573596,4.10268135 15.6462451,5.11462194 C15.6648739,5.25771392 15.6451908,5.28838139 15.6291849,5.30841777 L15.6238558,5.3150852 C15.6106669,5.33219509 15.6001432,5.35578098 15.5379918,5.37525606 C15.5207447,5.37115531 15.503326,5.36681207 15.4857228,5.3622085 C15.2616263,5.30360309 15.0843225,5.22286589 14.9126737,5.13909141 L14.7265629,5.0475919 C14.5106371,4.94193928 14.2928049,4.84013192 14.0619528,4.76497388 C13.5692945,4.60461613 13.062553,4.4916541 12.5479606,4.43133494 C12.4364267,4.41827237 12.3290265,4.38070794 12.2442955,4.31632863 C12.1638687,4.25521975 12.1024279,4.17061308 12.0744143,4.05815237 C12.0381087,3.91261026 12.0485421,3.80242294 12.1267944,3.67112264 C12.1856353,3.57251893 12.2698272,3.50417367 12.3665008,3.4649275 C12.4650553,3.42491773 12.5772587,3.41548544 12.6887902,3.43778092 Z" id="ðŸ–-Ink" fill="#000000"></path>
                            </g>
                            <g id="facial-hair/*-None" transform="translate(32.680453, 34.127831)"></g>
                            <g id="accessories/Glasses-2" transform="translate(27.662852, 27.737117)" fill-rule="evenodd">
                                <path d="M24.5803983,6.2891244 C23.7788358,7.11563777 22.4407196,7.35281977 21.3742804,6.90955297 C18.6359881,5.76785108 19.976283,2.20682694 22.0881008,1.25052231 C22.3519212,1.18490196 22.704276,1.02921833 23.0256008,0.993904566 C23.0546501,0.979673646 23.1178983,1.02085108 23.1945489,0.981913699 C25.52318,1.24136445 26.0534617,4.84863907 24.5803983,6.2891244 M15.748224,6.50067756 C14.8492143,7.69060646 13.1778235,8.05771148 11.8122425,7.50455036 C9.11448724,6.44434684 10.0713314,3.28659798 11.9170841,2.04863973 C15.8160938,0.586610372 17.426151,4.30667821 15.748224,6.50067756 M9.90997746,3.88318999 C9.90617746,3.88138999 9.90237746,3.88048999 9.89847746,3.87868999 C9.92007746,3.86918999 9.94167746,3.85968999 9.96317746,3.84998999 C9.95617746,3.86828999 9.94857746,3.88638999 9.94177746,3.90468999 C9.93117746,3.89738999 9.92187746,3.88888999 9.90997746,3.88318999 M26.4363842,2.577885 C26.2162698,2.57834618 25.8983121,2.61445055 25.7160938,2.76683999 C25.266754,1.25460711 23.6081712,-0.144964318 22.1657416,0.875577104 C21.0298482,1.24011265 20.1869564,2.04857384 19.7079071,3.12340359 C18.8441527,2.61069517 17.4859661,2.82962733 16.7369564,3.50763842 C16.2464195,1.89012309 15.0391571,1.32371931 13.6022073,1.24011265 C12.0338094,0.983758447 10.4705612,2.50376562 9.9827971,3.72314462 C9.57722931,3.67709178 8.97122139,3.54828878 8.5896853,3.7980546 C6.1134309,3.15002068 1.78409551,2.79273235 1.28068442,3.1527878 C0.921925616,3.29015571 0.725050616,4.13518245 1.22615097,4.1807741 C1.6628147,4.11890913 1.17518266,3.56159733 1.61534551,3.5007865 C3.960614,3.35571018 6.23735255,3.82704351 8.5577971,4.02482694 C8.76497139,4.30292283 9.4343596,4.39595088 9.79146787,4.28421181 C9.22903389,6.35270235 10.4431624,7.75998219 12.2623746,8.18150731 C15.079298,8.82723529 17.5300682,6.31257906 16.7934705,3.69698871 C17.6467936,3.27335532 18.6283297,3.29153927 19.5579071,3.514688 C18.0045621,9.21957384 27.2116703,8.96361494 25.7736642,2.96231748 C26.7306404,3.43734031 26.9384749,2.67374605 26.4363842,2.577885" id="ðŸ–-Ink" fill="#000000"></path>
                            </g>
                        </g>
                    </g>
                </g>
            </g>
        </g>
    </g>
</svg>