<?xml version="1.0" encoding="UTF-8"?>
<svg width="94px" height="94px" viewBox="0 0 94 94" version="1.1" xmlns="http://www.w3.org/2000/svg" xmlns:xlink="http://www.w3.org/1999/xlink">
    <!-- Generator: Sketch 63.1 (92452) - https://sketch.com -->
    <title>Group 2</title>
    <desc>Created with Sketch.</desc>
    <defs>
        <circle id="path-1" cx="36.5" cy="36.5" r="36.5"></circle>
    </defs>
    <g id="Page-1" stroke="none" stroke-width="1" fill="none" fill-rule="evenodd">
        <g id="Sysl-homepage" transform="translate(-1021.000000, -163.000000)">
            <g id="Group-2" transform="translate(1021.000000, 163.000000)">
                <circle id="Oval-Copy-4" fill="#5BC6E8" cx="47" cy="47" r="47"></circle>
                <g id="peep-46" transform="translate(11.000000, 10.000000)">
                    <mask id="mask-2" fill="white">
                        <use xlink:href="#path-1"></use>
                    </mask>
                    <use id="Mask" fill="#FFFFFF" xlink:href="#path-1"></use>
                    <g id="a-person/bust" mask="url(#mask-2)">
                        <g transform="translate(-5.000000, -6.000000)">
                            <g id="body/Macbook" transform="translate(10.740317, 46.684932)" fill-rule="evenodd">
                                <path d="M72.7770888,15.3038685 C71.7337869,15.4062977 70.690485,15.5085808 69.6471831,15.61101 C64.650524,15.9927452 59.6558396,16.7899689 54.6974312,17.2684347 C54.5739756,17.0675215 54.3323304,17.1006174 54.1856172,17.2402338 C53.6908442,17.1969096 53.1363181,16.8187543 52.6881334,17.2121059 C52.6735791,17.2100603 52.6590248,17.2076493 52.6443242,17.2062612 C51.8463244,15.6747178 51.2947238,14.0411836 50.7593597,12.4054575 C50.4176627,11.3997954 49.9579224,10.4262795 49.1083609,9.75106484 C47.6584894,8.74467215 44.3364524,6.70390502 42.633965,6.78967671 C42.6057341,6.48487306 42.4636285,6.17071781 42.2303209,5.9677589 C42.7445485,5.09111963 40.6884429,4.5191379 40.5434118,4.62076347 C40.6363692,1.69195982 39.258611,-0.851528767 36.2206387,-1.43476164 C33.4989848,-2.0018484 29.6279069,-2.09711781 28.1641393,0.747010046 C28.0032375,0.728891324 26.3585018,0.720328767 26.1993553,0.738155251 C25.9519322,0.424803653 23.2347407,3.39408814 24.3484005,4.42780504 C14.3918703,8.83196942 8.73056624,8.3064621 5.97475724,20.6877589 C5.60219643,21.8508639 5.57506254,23.1236311 5.18165764,24.2608 C3.78203139,27.5288183 2.64679606,31.0087087 2.36426713,34.5646539 C1.68189722,34.7394849 1.60342102,35.9425534 2.39381455,36.1165808 C2.69572483,36.1831379 2.94819438,36.2740237 3.1683373,36.4463708 C2.99624551,39.3604164 3.70106853,46.017147 4.1451575,45.9966174 C5.05066895,48.8782977 9.08972864,49.6915811 11.9492462,48.6789053 C11.4563016,49.6062477 11.9492462,50.1893171 11.9492462,50.6847991 C22.2385506,51.0740593 33.4888187,50.8498776 43.7752708,51.3837224 C45.0910818,51.3650192 46.4750567,51.7068639 47.772876,51.5101151 C48.5643666,51.3203799 48.565683,50.0759598 47.7628562,49.9220968 L51.2708329,49.1602244 C51.1924299,49.1306353 52.7168408,48.1167351 53.8689708,46.2220867 C54.9413813,44.1026346 54.2115078,41.5442566 54.6974312,39.2387954 C58.4926658,38.9284392 62.3506522,38.7957406 66.1043449,38.1530374 C66.6161589,39.6842886 68.8317035,37.8529826 69.5359414,37.1163251 C69.5350638,37.1151562 69.5341861,37.1140603 69.5333085,37.1128913 C69.8741278,37.0196676 70.1474414,36.7002521 70.1565836,36.3220968 C70.3955959,35.9806174 70.445768,35.4993023 70.2165561,35.1692932 C71.2670985,29.1077041 72.8686565,22.9186995 73.4475373,16.8001242 C73.6521752,16.7548274 73.8448916,16.6651105 74.0082801,16.5268822 L73.9950423,16.5136584 C74.2718665,16.2050557 74.3256955,15.6723799 73.8641999,15.4101699 C73.4919316,15.1984438 73.1810986,15.2641242 72.7770888,15.3038685 Z" id="ðŸŽ¨-Background" fill="#FFFFFF"></path>
                                <path d="M28.3538156,0.0864657534 C28.6638235,-0.69256621 29.7117716,-0.38973516 29.5949432,0.428675799 C29.5250216,0.91890411 29.2565136,1.4366758 29.0153314,1.8663379 C28.8189371,2.21607306 28.5949247,2.55740639 28.2912003,2.81954338 C28.8318693,3.32394521 29.3930691,3.80993607 29.9685163,4.271379 C30.596423,4.77483105 31.2566967,5.23890411 31.9391818,5.66542466 C32.5376439,6.03948858 33.1631395,6.37088584 33.7272619,6.79769863 C34.2517839,7.19448402 34.7296184,7.67170776 34.9727733,8.29468493 C35.231799,8.95808917 35.1192304,9.64320302 34.9284894,10.3061595 L34.9065779,10.3811142 C34.7117179,11.0379178 34.3743842,11.8296621 34.842136,12.4484749 C35.0802496,12.7635068 35.4264239,12.9866301 35.7253261,13.2384658 C35.9909846,13.4623196 36.2403499,13.7057534 36.4690383,13.9672329 C36.9676959,14.537242 37.3732707,15.1786301 37.6292117,15.8932968 L37.6520998,15.9582235 C37.8714728,16.5908746 38.0317982,17.3658935 37.7353728,17.987032 C37.650327,18.1650776 37.3760471,18.1072146 37.3284098,17.9338447 C37.2207143,17.5410776 37.2263402,17.1297534 37.1360339,16.7314338 C37.0420744,16.3171872 36.8857187,15.9239817 36.6815066,15.5519635 C36.2863914,14.832273 35.7512844,14.2175186 35.1190812,13.6977863 L34.9298303,13.5438935 C34.4366393,13.1391721 33.9835051,12.7098156 33.8833983,12.04 C33.7762874,11.3233607 34.0634265,10.6406941 34.2480577,9.96241096 C34.3767223,9.48971689 34.4187337,9.03660274 34.2796941,8.60942466 C34.1098217,8.88668493 33.8780647,9.14984475 33.6947487,9.38458447 C33.329651,9.85223744 32.9611193,10.3170411 32.5935374,10.7827215 C32.2166765,11.2602374 31.8490946,11.7452785 31.499048,12.2428858 C31.3424732,12.4654977 31.1875788,12.6894247 31.0331959,12.9135708 C30.9170982,13.0820457 30.7551897,13.2503744 30.6286439,13.42221 C30.6594036,13.5141187 30.6570656,13.6200548 30.6013182,13.6953059 C29.9302311,14.6019726 28.9755119,12.7101735 28.7265119,12.2322192 C28.219452,11.2588493 27.8420797,10.2247671 27.3333393,9.25161644 C26.8061871,8.24281279 26.2058983,7.26089498 25.536857,6.33990868 C25.1321589,5.78283105 24.6785814,5.25957991 24.3083693,4.68482192 C23.4362117,5.47561644 22.2885321,6.00573516 21.2343737,6.48646575 C20.0761451,7.01458056 18.8728526,7.44601182 17.6853387,7.90414238 L17.3345549,8.04037896 C15.2884332,8.83887407 13.1923094,9.71611684 11.4915911,11.1344292 C9.49308847,12.8011324 8.31077685,15.1241279 7.43058231,17.5296804 C6.41733935,20.2989954 5.57908319,23.1430502 4.79767033,25.9852785 C4.39779445,27.4395251 4.01837632,28.900347 3.6616809,30.3658447 C3.34736224,31.6569498 3.08681822,32.9609132 2.72296259,34.2387215 C3.46090273,34.2126393 4.30251981,34.4983014 4.93254533,34.5807854 C7.80386312,34.9566027 10.6365304,35.5556895 13.347401,36.5929132 C13.6822504,36.7210594 13.7791325,37.0554521 13.7062152,37.3265023 C13.8993217,37.272 14.0922821,37.2167671 14.2853886,37.1625571 C14.073822,36.838406 14.1748002,36.2588739 14.1914334,35.8995889 L14.192452,35.8748858 C14.2095489,35.3961279 14.2614969,34.9168584 14.2951791,34.4389772 C14.3593175,33.5280056 14.4428173,32.623695 14.5538387,31.717943 L14.5821721,31.4914703 C14.7079872,30.5060457 14.8009969,29.5148493 14.938283,28.531105 L14.9545031,28.4185205 C14.888673,28.1668311 14.8120295,27.91821 14.7315867,27.6706849 C14.5172187,27.0113242 14.2146633,26.3906849 13.9495163,25.7520731 C13.9182452,25.676895 14.0253561,25.6337169 14.0754045,25.6787945 C14.524452,26.0827397 14.8811474,26.5951781 15.167702,27.1311416 C15.1726703,27.105863 15.1770541,27.0805114 15.1822416,27.0552329 L15.2149404,26.8942979 C15.2955744,26.5018195 15.3936538,26.0888789 15.6344309,25.7705571 C15.6600761,25.7367306 15.7107821,25.7296438 15.7350392,25.7705571 C15.9654811,26.1604749 15.9912724,26.6542831 16.0267082,27.0979726 C16.06682,27.5998904 16.0718614,28.1081644 16.0647742,28.6114703 C16.0509652,29.5950685 15.9816281,30.5814429 15.9263922,31.5634338 C15.8722049,32.5284362 15.7657882,33.4811424 15.6286445,34.4366581 L15.6025753,34.6158539 C15.5355335,35.0706545 15.4806477,35.531103 15.3922205,35.9827932 L15.3672381,36.1057534 C15.3199661,36.3297534 15.2908869,36.645589 15.1967812,36.9079452 C17.6179555,36.2326575 20.0428561,35.5727854 22.4723596,34.9245297 C24.2282918,34.4559269 25.9860506,33.9943379 27.7430788,33.5298265 C27.8357962,33.3627397 27.9512364,33.2066849 28.0953173,33.0672146 C28.5700101,32.6075251 29.1990858,32.4024475 29.7760673,32.756274 C29.822974,32.7851324 29.8269195,32.8586301 29.7760673,32.8864658 C29.6655224,32.9468858 29.5547584,33.0088402 29.445967,33.0734247 L30.5010022,32.7876895 C31.2895753,32.5739909 32.0875735,32.3069589 32.8947047,32.1579909 C34.3813253,31.4244018 35.9802443,30.8934064 37.5462848,30.368621 L37.7308254,30.3062035 C38.5326766,30.0328461 39.3620716,29.7268258 40.1905216,29.5752694 C40.7970207,29.4643653 41.5089503,29.59821 41.7528358,30.2195068 C42.0616017,30.4229772 42.3521017,30.6621005 42.6324459,30.8972785 C42.8351237,31.0672146 43.0293992,31.2478904 43.2269626,31.4238174 L43.2633843,31.4557896 C43.4248956,31.5959159 43.5528404,31.6897635 43.5924987,31.9128037 C43.6129564,32.0280183 43.5397469,32.1837808 43.3976386,32.1685114 C42.9628385,32.1219726 42.6092848,31.6180091 42.314401,31.3170776 C42.0865893,31.0844566 41.8569511,30.8439452 41.6490128,30.5883105 C41.5278006,30.6542831 41.3616545,30.6424475 41.2844996,30.4963288 C40.8844045,29.7387763 39.7883807,30.2637078 39.1819547,30.4433607 L38.3132357,30.7004736 C37.8789043,30.8292135 37.4447413,30.95859 37.0113147,31.0902283 C35.8200893,31.4519452 34.6347091,31.8567671 33.4326703,32.188968 C33.5402196,32.3071781 33.5253878,32.5174429 33.3211026,32.5974429 C32.3801923,32.9666119 31.3479529,33.157516 30.3704379,33.4108128 C29.7532716,33.5708858 29.1364705,33.7319087 28.5198886,33.8938813 C28.4141659,34.0651324 28.338107,34.2588858 28.3061052,34.4844201 C28.1884403,35.3136826 28.4153742,36.2704712 28.6364286,37.0725233 L28.6697272,37.1921903 C28.8514415,37.837029 29.1187828,38.627519 29.6751668,39.0347032 C29.8109916,39.1339909 29.9839327,39.203105 30.1582619,39.2187397 C31.2474177,38.6581553 32.3365004,38.0976438 33.4262408,37.5381553 C33.6281149,37.434484 33.8146457,37.5748311 33.859945,37.7416986 C34.2441853,37.6786484 34.6275489,37.5792877 34.9767187,37.4607854 C35.5634177,37.2615525 36.0215251,36.8815708 36.5715462,36.6187763 C37.6357933,36.1104234 38.7225976,36.7348558 39.6754614,37.209586 L39.8950726,37.3175169 C40.3223728,37.5248261 41.2113417,37.9230858 41.416379,37.3560913 C41.614673,36.8075616 40.9877161,36.2213333 40.5827989,35.9744658 C40.1001422,35.6801096 39.5381386,35.5225936 38.9926474,35.391379 C38.6811783,35.3164201 38.3659098,35.2552694 38.0487416,35.2106301 C37.6889776,35.16 37.3173772,35.1675982 36.9709837,35.0509224 C36.7988464,34.9930594 36.7723974,34.7196712 36.9709837,34.6745205 C37.5042066,34.5531769 38.1406286,34.6855367 38.697067,34.8207952 L38.9878983,34.8924566 C39.5485136,35.0300274 40.1145357,35.2026667 40.6251756,35.4770776 C40.9964837,35.6766758 41.3883957,35.9798721 41.6444098,36.3510137 C41.866736,36.144503 42.1434441,36.1514847 42.4316845,36.2280761 L42.5881341,36.2715643 C42.8464768,36.3431531 43.0558795,36.3924279 43.3072592,36.3428311 C43.3408684,36.1599635 43.3749159,35.9770228 43.4113746,35.7940822 C43.7696043,33.9957991 44.1624661,32.2043836 44.5959511,30.4225388 C45.3436724,27.3490965 46.2088804,24.3093861 47.1842912,21.3008254 L47.2821994,21.0000731 C47.5071615,20.3119269 47.6882126,19.5621918 48.0508992,18.9300091 C48.3939318,18.3322374 48.9435145,17.9879087 49.596482,17.8055525 C50.3374908,17.5986484 51.1161272,17.4903744 51.8720409,17.3506119 C52.0406712,17.3194886 52.2097399,17.2898995 52.3785163,17.2592877 C52.2358844,17.0017778 52.1294222,16.7094686 52.033525,16.4851433 L52.0167064,16.4462831 C51.8106896,15.9766064 51.625623,15.4984672 51.4469124,15.0177775 L51.31323,14.6564059 C50.9905588,13.7862108 50.6574614,12.9303066 50.2037848,12.1164201 C49.7262425,11.2598721 49.0927099,10.5595982 48.3029679,9.98001826 C46.6927971,8.79821005 44.7520145,8.19539726 43.1902848,6.93242009 C43.1262812,6.88069406 43.2083314,6.79221918 43.2732848,6.82494977 C44.3278085,7.35477626 45.4662091,7.71503196 46.5630365,8.14637443 L46.7794031,8.23173942 C47.6463265,8.57538591 48.5267498,8.94948788 49.2771219,9.50586301 C50.1136976,10.1262831 50.7725832,10.8967671 51.2678068,11.8130046 C51.7558702,12.7161644 52.06807,13.7270868 52.4124177,14.6917626 L52.5045159,14.9488046 C52.6434085,15.3342442 52.7868675,15.7185322 52.9512601,16.0936256 C53.0817513,16.3914155 53.3252716,16.7313607 53.4359626,17.0715251 C53.7388103,17.0189954 54.0415849,16.9663196 54.3447249,16.9156895 C60.9107117,15.8195068 67.5500541,15.1754155 74.2041554,14.9869954 C74.4644802,14.9796164 74.599136,15.2280183 74.5607777,15.4550868 C73.9222038,19.2308676 73.3547205,23.0195799 72.7320744,26.79821 C72.4602786,28.447379 72.1830761,30.0953059 71.899371,31.7424292 C71.7556554,32.5769132 71.5895092,33.4081826 71.4533922,34.2439087 C71.3435048,34.9188311 71.2637196,35.5990137 71.07507,36.2583014 C70.9058552,36.8494247 70.6461879,37.4194338 70.219717,37.8704292 C69.7600022,38.3565662 69.1183596,38.5918904 68.4724793,38.7030868 C66.832864,38.985242 65.1510911,39.1004566 63.4981783,39.2884384 L54.6979133,40.2895708 C54.8265149,41.4584198 54.8361259,42.609084 54.7771206,43.7915405 L54.7434923,44.4370457 C54.716001,44.9562511 54.6831362,45.4762374 54.6085568,45.9901005 C54.5150357,46.6347032 54.2201518,47.1805297 53.7857901,47.6619909 C53.3869371,48.1041461 52.9023807,48.4814247 52.4310489,48.8429224 C51.9418165,49.2183014 51.4362909,49.5806027 50.8610629,49.8127123 L50.7864013,49.8423438 C50.2817623,50.0393598 49.3351115,50.3444431 48.6453429,50.2329498 C48.7355031,50.6846758 48.9099784,51.1703744 48.7553033,51.6173516 C48.683555,51.8249132 48.4121246,51.9284384 48.2458323,51.7518539 C47.9163895,51.4018265 47.8906712,50.9395068 47.8126395,50.4828858 C47.7314661,50.0077078 47.6614714,49.5308493 47.5992945,49.0528219 C47.4790321,48.1285479 47.3854379,47.1957991 47.3568702,46.2637078 C47.3274987,45.306484 47.3388235,44.3479452 47.3904062,43.3917443 C47.4169283,42.9007123 47.4498068,42.4099726 47.5121298,41.9220822 C47.5387249,41.7140091 47.5659045,41.50579 47.5969564,41.2982283 C47.6082812,41.2225388 47.6208482,41.1472146 47.6343649,41.0720365 L46.8444899,41.1611467 C45.6333399,41.29635 44.4216141,41.4184423 43.2019018,41.4374064 C43.0574555,41.4395982 42.9463261,41.3738447 42.8737011,41.2780639 C42.796327,41.4040913 42.6615982,41.4942466 42.4686378,41.493516 C40.7653112,41.4871598 39.1791052,40.9302283 37.6298693,40.273863 C36.8489679,39.9429041 36.080195,39.584621 35.2981246,39.2565114 C34.5681483,38.9502466 33.7877584,38.731726 33.0753904,38.3867397 L31.2035066,39.3685114 C31.1897707,39.4168037 31.1721624,39.4624658 31.1534582,39.5006758 C31.0315885,39.7494429 30.791283,39.8843836 30.5458631,39.9860091 C30.3103068,40.0837626 30.0663482,40.1141553 29.828673,40.0894612 C28.4090332,40.8333516 26.9890647,41.5765434 25.5681509,42.3179886 L24.1468992,43.0588128 C21.3152548,44.5330776 18.4947892,46.0315251 15.6453173,47.4711598 L15.4355387,47.5767559 C14.4513201,48.0702466 13.3944684,48.5704791 12.3022293,48.9437443 C12.2827945,49.2202009 12.2950691,49.4890594 12.3182302,49.7816621 L12.3238057,49.8454032 C12.356371,50.1911811 12.4261964,50.6244448 12.1487962,50.8706119 C12.004496,50.9986119 11.7467284,50.9991233 11.6486043,50.8061005 C11.4705489,50.4560731 11.6304115,49.9042557 11.6868165,49.5239817 C11.7068358,49.3887489 11.731239,49.2497169 11.7673323,49.1148493 C10.5151721,49.4875982 9.22509199,49.668347 7.95086664,49.459032 C6.71025044,49.2554155 5.74939393,48.4738995 4.97477597,47.5179909 C4.15726981,46.5092603 3.57634287,45.3336621 3.26465449,44.0734612 C2.90993178,42.6394521 2.88677069,41.1585388 2.89509991,39.6896804 C2.90394058,38.1255525 2.96180678,36.5536804 3.15206382,35.0000731 C2.943614,34.9510502 2.71244146,34.9086758 2.50179974,34.9232877 C2.39746523,35.0902283 2.19507967,35.1605114 2.01220202,35.1388128 C1.61451805,35.5773881 2.62323107,36.0256073 2.94558671,36.1378265 C3.05751981,36.1768402 3.04553741,36.3586119 2.91643442,36.3531324 L2.83511321,36.3492671 C2.33701373,36.3227695 1.82240982,36.2377301 1.52954533,35.7748676 C1.29486576,35.4038721 1.36537192,34.964347 1.6451316,34.6618082 C1.82990889,32.9148128 2.27165009,31.2136256 2.68277773,29.5094429 C3.08623371,27.8367489 3.53491593,26.1747945 4.01048548,24.521242 L4.22368622,23.7811443 C4.97246156,21.1883722 5.75511828,18.5746802 6.78798988,16.0849315 C7.30374428,14.8417534 7.89789569,13.6214429 8.70327333,12.5374612 C9.45399956,11.5269772 10.3403314,10.6623196 11.3591272,9.92383562 C13.2584108,8.54697932 15.4870237,7.71505021 17.6767302,6.92244247 L17.7747496,6.88697717 C18.9094969,6.47652968 20.0414679,6.06118721 21.163283,5.61647489 C22.1554107,5.22319635 23.1058922,4.72456621 24.0933437,4.32536986 C24.0612689,4.26714155 24.0302901,4.20825571 24.0004802,4.14871233 L23.9822252,4.16406562 C23.9791051,4.16654693 23.9759065,4.16894977 23.97257,4.17121461 C23.8732768,4.24003653 23.727077,4.20621005 23.645246,4.1289863 C23.4141883,3.91097568 23.4924132,3.66896857 23.6466429,3.44287407 L23.6667267,3.41410046 C23.8553763,3.14984475 24.0236413,2.87046575 24.1977513,2.59663927 L24.3067804,2.42539815 C24.5990307,1.96792829 24.9061495,1.50740538 25.2958209,1.12931507 C25.4762874,0.954118721 25.6738508,0.823050228 25.8831774,0.725369863 C25.8652768,0.687525114 26.022217,0.610155251 26.0667126,0.64909589 C26.7299089,0.406392694 27.4929098,0.457242009 28.215945,0.524164384 M54.2720999,40.3379361 L53.3500401,40.4427763 C52.3356281,40.5581954 51.3208216,40.6698009 50.3058888,40.7803228 L48.101386,41.0198721 C48.0957601,41.1455342 48.0804899,41.2684201 48.0777135,41.3633242 C48.06332,41.8526027 48.0525797,42.3421005 48.0424239,42.8315251 C48.0220392,43.8125662 48.0443966,44.7945571 48.1089846,45.7736986 C48.1715908,46.7224658 48.2540397,47.6713613 48.3821581,48.6137032 L48.4083983,48.8020822 L48.4235955,48.9011507 C48.5281492,48.9112329 48.6308763,48.9609132 48.7162874,49.0629772 C48.9027452,49.285589 49.5779239,49.0691872 49.8416096,48.975379 C50.2752408,48.8210776 50.683592,48.5604018 51.0603798,48.2989954 C51.4283442,48.0437518 51.7596768,47.7461186 52.0780729,47.4325917 L52.3385836,47.1749564 C52.597725,46.9174569 52.8571469,46.6431378 53.0159212,46.3192329 C53.231239,45.88 53.2590761,45.3408219 53.3222029,44.8624292 C53.3999423,44.2740091 53.4925136,43.6856621 53.5903455,43.1001644 M27.5049652,34.1613516 L27.4093253,34.186484 C23.9350885,35.109589 20.4660392,36.0599452 16.9811351,36.9422831 C15.2565471,37.379032 13.523776,37.784 11.7970691,38.212347 L11.5175108,38.2822614 C10.1553235,38.6265234 8.77678352,39.0408561 7.73364921,40.0288219 C7.69514481,40.0652055 7.63925132,40.0093151 7.67549076,39.9706667 C8.79971699,38.7739543 10.398636,38.2673607 11.9338437,37.8282009 C12.2176219,37.747032 12.5017654,37.6677626 12.7856166,37.587032 C10.6977575,36.8427763 8.57694674,36.1952511 6.40718354,35.7334429 C5.84846787,35.6145023 5.28324956,35.5271963 4.72497227,35.4078174 C4.33562482,35.3245078 3.9553913,35.2040935 3.57015696,35.1042022 L3.26713864,35.0279817 L3.26311434,35.9856164 C3.25807133,37.3419682 3.26047944,38.6972142 3.3296809,40.0533699 L3.34278062,40.3045892 C3.42352018,41.8137993 3.54954784,43.3543456 4.08515625,44.7773881 C4.52039481,45.9337717 5.2141316,47.0231598 6.1213596,47.8654612 C6.58041681,48.2916164 7.07395995,48.623379 7.68403917,48.7871781 C8.25049956,48.9392146 8.8439934,48.9570411 9.42630854,48.9164932 C12.2194485,48.7216438 14.7057953,47.2044201 17.1320841,45.9482374 C21.1006677,43.893589 25.0696897,41.8399635 29.0422918,39.7932055 C28.9348886,39.7197808 28.8337689,39.6351781 28.7417821,39.5401279 C28.209077,38.9899909 27.9280753,38.236895 27.7435172,37.5075434 C27.5470497,36.7312146 27.4295638,35.8991416 27.415901,35.0976804 M32.5597164,40.5863452 C32.5947868,40.5674959 32.63541,40.5910941 32.6370174,40.6306922 C32.6492921,40.9340851 32.4816164,41.2333234 32.3563342,41.5066408 L32.3430835,41.5358247 C32.1908924,41.8743817 32.0242349,42.2084091 31.8518783,42.5371763 C31.5073845,43.194053 31.1493739,43.843916 30.7757278,44.4845735 C30.024344,45.7734137 29.1893757,47.0079708 28.2024356,48.1301626 C27.9795192,48.3836785 27.6128871,48.0586374 27.7559452,47.7856877 C28.4456636,46.4698886 29.2497261,45.2275142 30.077388,43.9959525 C30.4917305,43.3793315 30.9057806,42.762126 31.3242146,42.1482813 C31.4987752,41.8921473 31.6755683,41.6369266 31.8571308,41.3855788 L31.9666609,41.2352584 M73.7641677,15.7406027 C70.2778024,15.8458813 66.7955286,16.073242 63.3257487,16.4295525 C60.0988314,16.7608767 56.8837504,17.2019361 53.6867892,17.7517808 C53.0190508,17.8666058 52.3521242,17.9861492 51.6860517,18.110411 L51.286511,18.1855342 C50.6203191,18.3117808 49.8064661,18.3638721 49.2133376,18.7197443 C48.5879881,19.0949041 48.4189925,19.8789772 48.210908,20.5255525 C47.9662918,21.2859543 47.727886,22.0485479 47.4959098,22.812968 C46.5747267,25.8480731 45.7332557,28.9094795 44.9826026,31.9911233 C44.6099793,33.5207671 44.2793675,35.0589589 43.9310013,36.5941553 C43.6215048,37.9581735 43.2800066,39.3067763 42.9232381,40.6571324 C42.9672223,40.6229406 43.021143,40.5969315 43.0862425,40.5830502 C44.8578697,40.2061667 46.666318,40.042313 48.4644253,39.8341045 L48.6384018,39.8138082 C50.4985224,39.5950685 52.358643,39.3779361 54.2198596,39.1686941 L66.5426562,37.7829772 C67.2694177,37.7012968 68.0479811,37.6901918 68.7552346,37.4951963 C69.9576942,37.1634966 70.2395431,35.8192238 70.4412925,34.7486665 L70.4473825,34.7163105 C71.0556351,31.4817534 71.5398261,28.2190685 72.1070902,24.9763288 M43.2100119,36.8970594 C42.7315929,36.8654977 42.0767989,36.4273607 41.71382,36.4587763 C41.9043693,36.778484 41.9903649,37.1431233 41.8805506,37.5325297 C41.5749265,38.6161461 40.1927865,38.0554886 39.527033,37.7244566 C38.9811765,37.452895 38.4540973,37.120621 37.8497901,36.9934247 C37.1651862,36.8494977 36.7013798,37.1217169 36.1230101,37.4355068 C35.647952,37.6931872 35.1305902,37.8782466 34.5985427,37.9740274 C34.3156413,38.0250228 34.0469142,38.0304292 33.7786985,38.0105571 C33.7625515,38.0237078 33.7443587,38.0359087 33.7236087,38.0467945 L33.5817196,38.121242 C34.2232892,38.1506119 34.876768,38.3486027 35.473842,38.529863 C36.0925427,38.7175963 36.6999273,38.9439518 37.3040762,39.1754132 L37.8984227,39.4038408 C39.3644703,39.9652167 40.8820299,40.4982968 42.4686378,40.4936256 C42.5826897,40.4933333 42.6761378,40.524895 42.7497126,40.5764018 M40.5332838,33.5016986 C41.0059308,33.4439087 41.4421923,33.505863 41.8198569,33.813516 C42.275334,34.1845114 42.5813234,34.7998174 43.2361174,34.8402192 C43.427032,34.8519817 43.4713815,35.1204018 43.2816359,35.1765114 C42.7942301,35.3208037 42.3996148,35.0571324 42.0675417,34.7147763 L41.8442737,34.4815187 C41.5161119,34.1417387 41.2134536,33.8790598 40.6566148,33.8993607 C40.0602715,33.9211324 39.4629053,34.0589224 38.8704343,34.1289863 C38.1992741,34.2083288 37.52826,34.2759817 36.854981,34.3343562 C36.8237099,34.3370594 36.8183762,34.2878174 36.8476746,34.2805845 L37.6017767,34.09292 M40.0770468,31.5695562 L40.1549986,31.5617549 C40.8413379,31.4951147 41.4690198,31.492529 42.081979,31.8617205 L42.1995439,31.9328112 C42.7521891,32.2686911 43.3537105,32.6643994 43.69931,33.2082046 C43.7558611,33.2972639 43.662413,33.401958 43.567796,33.3793096 C42.9035768,33.2198941 42.4179975,32.7325881 41.859428,32.3678758 C41.2325442,31.9585973 40.5849835,32.0261041 39.8702044,32.0896658 C39.1781481,32.1512548 38.486457,32.2358575 37.8011956,32.3512183 C37.157288,32.4594922 36.5113347,32.6304511 35.8609245,32.6849534 L35.8610706,32.6836384 C35.7867651,32.6834922 35.7443884,32.5719306 35.8201551,32.5340858 C36.4802097,32.2045151 37.2446718,32.0485333 37.9626657,31.897958 M16.5752971,12.9077699 C16.5744424,12.8534868 16.6507937,12.8331763 16.6774618,12.8801534 C17.1240252,13.6657607 17.3574627,14.6287562 17.595357,15.4942904 C17.8445032,16.4009571 18.0456467,17.3168292 18.2263324,18.2394228 C18.5923069,20.1076237 18.787313,21.9650849 18.8005543,23.869158 C18.8023641,24.1410119 18.3594539,24.2133406 18.3161273,23.9347653 C18.0284768,22.0826374 17.7528817,20.22861 17.4630393,18.3769936 C17.3172048,17.4457059 17.1474785,16.5179982 16.9850586,15.5894868 M20.9962382,14.2761352 C20.9633597,14.1677881 21.1210305,14.1315507 21.1613614,14.2306192 C22.0575569,16.4303635 22.3610621,18.923295 21.785688,21.2440256 C21.6976467,21.599021 21.1776546,21.4452311 21.2440692,21.0946922 M32.5561363,12.3215196 C32.5516063,12.2404237 32.6568907,12.2276384 32.6965641,12.2834557 C33.1212085,12.8817388 33.2973643,13.6829808 34.0423915,13.992168 C34.4143572,14.1465425 34.8329373,14.1196566 35.1615764,14.3804055 C35.381278,14.5547982 35.5497621,14.8300858 35.3848581,15.0941954 C35.331668,15.1795288 35.1827648,15.2222685 35.1105782,15.1295562 C35.0052208,14.9944694 34.9494734,14.832716 34.8063423,14.7314557 C34.6044681,14.5886247 34.332234,14.5797845 34.1007692,14.5126429 C33.8013555,14.4258484 33.5374505,14.273958 33.321329,14.0482776 M39.650459,2.34278721 C39.6942239,2.32050411 39.7362354,2.33475068 39.7642187,2.37259543 C39.8041843,2.42651324 39.7992891,2.47896986 39.7503366,2.5159379 C39.8157283,2.64956347 39.8929563,2.98432146 39.9039889,3.03305205 C39.9487037,3.23060457 39.996268,3.42698813 40.0460241,3.62322557 C40.1464132,4.01898813 40.2343815,4.41781918 40.3348437,4.81372785 C40.4413701,5.23338082 40.5682812,5.64857717 40.7095127,6.05778265 C40.7186212,6.08427884 40.728639,6.11132704 40.7391548,6.13877571 L40.7552504,6.18023014 L40.7591958,6.17394703 C40.7879097,6.12857717 40.8476755,6.16028493 40.8405884,6.20821187 C40.8340127,6.25190137 40.825172,6.29537169 40.8177195,6.33906119 L40.8325186,6.37820101 C40.9249017,6.62683397 40.9881691,6.88869041 40.8186694,7.10808402 C40.7552504,7.19012968 40.6854748,7.23871416 40.5985294,7.25317991 C40.4591245,7.71272329 40.2842107,8.16371872 40.0969493,8.59681461 L40.0420646,8.72329768 C39.7666072,9.35527409 39.4728282,9.97894703 39.0342424,10.5169607 C38.555385,11.104358 37.8967187,11.5054539 37.4795998,12.1491068 C37.2855435,12.4485041 37.1505224,12.7633169 37.0409273,13.1014356 L36.9996999,13.2297773 C36.9219101,13.4689304 36.8321609,13.7007327 36.6078076,13.8410155 C36.5362055,13.8857279 36.4289484,13.8714813 36.3712283,13.8104767 C35.9111482,13.3238283 36.392782,12.415116 36.6702037,11.9439562 C37.0558322,11.2887598 37.6139634,10.8696183 38.1728252,10.3752986 C38.7752327,9.84247671 39.1594731,9.12970959 39.5311465,8.42753607 C39.758812,7.99736256 39.9785866,7.5579105 40.2099783,7.12583744 C39.968231,6.91218394 39.8908466,6.48778843 39.8089438,6.19280003 L39.801481,6.16634886 C39.6660945,5.69394703 39.5585452,5.20927123 39.4905963,4.72247671 C39.4252003,4.25441547 39.3979246,3.79308479 39.4152262,3.32240442 L39.420219,3.20250511 M40.5493066,4.57049863 C40.4958973,4.49729315 40.584304,4.41437078 40.6575865,4.42964018 C41.1031421,4.52176552 41.5387535,4.79144751 41.9386416,5.00951564 L41.9813489,5.03267215 C42.3005628,5.2048 42.6217494,5.41564932 42.7893568,5.75004201 C42.9716521,6.11347912 42.9566342,6.53208121 42.9317731,6.92704058 L42.9294193,6.96399635 C42.8989518,7.43764018 42.8940566,7.92976804 42.7938136,8.39486393 C42.7425232,8.63289132 42.5269131,8.69995982 42.3425742,8.64370411 C42.1232379,9.33623379 41.5070945,9.84648037 41.057024,10.3929644 C40.4831842,11.0896584 40.5911719,12.0302977 40.651157,12.8693845 C40.675414,13.2091105 40.2528154,13.305695 40.0351596,13.1244347 L39.5335605,12.707834 C39.4500275,12.6382977 39.3666053,12.5686234 39.2834105,12.4986813 C39.2121493,12.4387239 39.1415376,12.3783119 39.0715104,12.3171423 L38.9668999,12.2247817 C38.9205047,12.183284 38.7158541,11.9546813 38.6560152,11.9451836 C38.511077,11.9221455 38.166733,12.3041009 38.0488847,12.4238983 L38.0339536,12.4388457 C37.8121332,12.6563434 37.6117203,12.8903525 37.4250434,13.1385352 C37.3907036,13.1841242 37.3235584,13.1462795 37.3481077,13.0936037 C37.5153771,12.735316 37.7098741,12.3927603 37.9408096,12.0721372 L37.9874853,12.0083068 C38.1411376,11.8012566 38.3473955,11.4356676 38.6186068,11.3745169 C38.9497711,11.2999035 39.2804451,11.6319826 39.5213913,11.8162918 L39.5366482,11.8278502 C39.6512846,11.9138411 39.7646059,12.0013662 39.877708,12.0894758 C39.8658717,11.4647452 39.9447802,10.8335123 40.267355,10.2951379 C40.4948013,9.9154484 40.8355689,9.63424292 41.1271649,9.30795982 C41.4517855,8.94463562 41.6212925,8.4980968 41.9151534,8.11972237 C41.9530003,8.07106484 42.0051675,8.04483653 42.0616455,8.03650776 C42.0729371,7.73231515 42.1177413,7.42510356 42.1523627,7.12420438 L42.1623999,7.03413333 C42.1973973,6.70719269 42.280105,6.30785023 42.1200232,6.00165845 C41.9688087,5.71245297 41.6218537,5.5083118 41.3649289,5.31208767 L41.1551454,5.14937055 M26.0889969,1.11346119 C25.9548526,1.19105023 25.8294758,1.28756164 25.7157161,1.40818265 C25.3576325,1.78801826 25.1016184,2.26071233 24.8524723,2.71543379 C24.7183279,2.96032877 24.5890057,3.20792694 24.4537654,3.45223744 C24.3949494,3.55853881 24.3344529,3.66367123 24.2732989,3.76865753 C24.2450233,3.81702283 24.1610004,3.91316895 24.1193543,3.97242009 C24.1656292,4.03725421 24.2134735,4.1010931 24.2622778,4.16424154 C24.2808984,4.18833504 25.5654072,5.58752079 26.0131571,6.13512329 C26.6987839,6.97391781 27.3116395,7.85990868 27.835577,8.80821918 C28.3486281,9.73687671 28.7392249,10.7201096 29.2145022,11.6667397 C29.4523966,12.1406758 29.718055,12.6112511 30.0567038,13.0214064 C30.0697821,13.0374064 30.0835911,13.0525297 30.0969617,13.0683105 C30.2262063,12.7191712 30.5573844,12.3453487 30.720041,12.1306987 L30.7352434,12.1104292 C31.1041404,11.6131872 31.4937143,11.1309224 31.8917636,10.6568402 C32.255327,10.2239391 32.6281271,9.80038965 33.0099585,9.38383143 L33.1535682,9.22794521 C33.419592,8.94060274 33.7575101,8.5106484 34.1469379,8.3053516 C34.1052187,8.23097717 34.0569239,8.15740639 34.0013957,8.08478539 C33.6365172,7.60801826 33.1207333,7.26201218 32.6117898,6.94980649 L32.2817365,6.7490467 C31.0376197,5.99092545 29.8128842,5.19766834 28.7327953,4.21263927 C28.1613666,3.69143379 27.5978288,3.14546119 27.1175101,2.53753425 L26.9476421,2.32258506 M28.1648737,0.738155251 C27.5822663,0.787031963 26.9531175,0.775415525 26.4147135,0.965223744 C26.8933517,1.41768037 27.3483173,1.90622831 27.8157038,2.36628311 C27.8572768,2.05512329 27.9423226,1.74776256 28.0143631,1.44434703" id="ðŸ–-Ink" fill="#000000"></path>
                            </g>
                            <g id="head/Twists" transform="translate(27.179577, 13.150685)" fill-rule="evenodd">
                                <path d="M4.96632984,7.48131507 C5.34523653,7.07473973 5.82986593,6.77183562 6.3596485,6.67503196 C5.87538442,6.91693151 5.40200678,7.16905936 4.96632984,7.48131507 Z M4.22415202,10.9869954 C4.1571529,10.6771507 4.11214586,10.3643105 4.09797157,10.0515434 C4.18265202,10.180274 4.31789234,10.2662648 4.46979111,10.3106849 C4.37166699,10.5303744 4.28822861,10.7567123 4.22415202,10.9869954 Z M29.5786173,15.8449544 C29.1412599,14.0245343 27.1007561,10.5230069 26.6184725,9.84906187 C26.0947542,8.18031301 28.9510649,6.84204566 27.3976643,5.53713242 C26.6943563,4.94834703 25.7648439,4.73998174 24.8929055,4.53117808 C18.8556784,3.08138813 12.3692577,3.81256621 6.76997245,6.47857534 C5.91827262,6.29936073 5.03091787,6.64960731 4.4115596,7.26476712 C1.50181048,10.1891872 5.46725238,15.4656804 6.33436857,18.7625571 C7.82208512,22.4386849 4.7575147,23.0570594 5.08615379,26.1674155 C5.3415103,27.7742831 6.96914322,28.1989772 8.34266171,28.4418265 C8.56280167,28.4933333 8.85710097,28.5010776 8.92811857,28.7337717 C9.15066963,30.0920183 9.91359745,31.386411 10.937873,32.2648767 C10.8482973,32.5302283 10.9166846,32.852347 11.2325376,33.0854064 C14.0942841,35.2119452 17.7026737,36.2761581 21.2719575,36.0848584 C25.5255686,35.8568816 27.7252805,33.4189954 28.256086,32.7912694 C31.1909689,28.8280183 30.8402807,23.5988676 30.2415994,18.875653 C29.8245461,15.5853677 30.353391,19.0698083 29.5786173,15.8449544 Z" id="ðŸŽ¨-Background" fill="#FFFFFF"></path>
                                <path d="M16.4627651,0.69709589 C16.596471,0.279196347 16.9749393,0.0278721461 17.4082052,0.0797442922 C17.7917879,0.125041096 18.2024041,0.505680365 18.1556436,0.925771689 C18.146876,1.00686758 18.1351858,1.08284932 18.1213038,1.15444749 L18.1231304,1.15508676 L18.1231304,1.15508676 L18.124957,1.15517808 L18.1154587,1.18294064 C18.086964,1.31663927 18.0475098,1.43645662 17.9890591,1.54969863 C17.9145344,1.76668493 17.8429323,1.98440183 17.7720608,2.20284932 C17.8743496,2.19846575 17.9788302,2.2043105 18.0847721,2.22403653 C18.1943672,1.94348858 18.3046929,1.66367123 18.4142879,1.38239269 C18.53192,1.08211872 18.6144816,0.696365297 18.8468232,0.46403653 C19.1441911,0.167415525 19.6600186,0.106045662 20.0224129,0.317917808 C20.4052651,0.541479452 20.5418936,0.938922374 20.4586013,1.36485845 C20.4162749,1.58212187 20.2711004,1.73332087 20.0914708,1.8283193 L20.072096,1.83828311 L19.9340062,2.16558904 C19.976383,2.1473242 20.020221,2.13052055 20.0677122,2.11663927 C20.1422369,2.09472146 20.2153003,2.08084018 20.2869024,2.07499543 C20.4841735,1.71773516 20.7011717,1.3707032 20.9254763,1.03024658 C21.1833901,0.638648402 21.6875274,0.472073059 22.1105643,0.719744292 C22.4890327,0.941114155 22.6921489,1.52266667 22.4210837,1.90476712 C22.215045,2.19481279 22.0199658,2.4907032 21.8278091,2.78951598 C21.8606876,2.79536073 21.8935661,2.80266667 21.9249834,2.81216438 C21.939596,2.79243836 21.9549393,2.77271233 21.9710133,2.7529863 C22.1807052,2.49289498 22.4247369,2.29782648 22.6753443,2.08157078 C22.9098777,1.87846575 23.0180115,1.55919635 23.326339,1.4050411 C23.7143055,1.21143379 24.1819112,1.30421918 24.4127915,1.6899726 C24.9081612,2.51627397 24.0766999,3.11974429 23.5447985,3.62020091 C24.0072897,3.33161644 24.4887774,3.06787215 24.9826858,2.83992694 C25.2603267,2.71207306 25.5423513,2.58860274 25.8287598,2.48193607 C26.253258,2.32412785 26.5966559,2.37461187 26.9451682,2.66823744 C27.1007932,2.79974429 27.1782404,3.08694064 27.1066383,3.27828311 C26.9678179,3.6450411 26.7486277,3.86787215 26.3643143,3.97380822 C26.0939798,4.04832877 25.8170696,4.09873973 25.5467351,4.17691324 C25.0937422,4.3069589 24.6539006,4.46549772 24.2272105,4.66348858 C24.2578971,4.68248402 24.2871224,4.70294064 24.3141559,4.72631963 C24.6327122,4.62330594 24.9571136,4.53417352 25.2829763,4.45819178 C25.823417,4.33147945 26.3734901,4.24586301 26.9259712,4.19231261 L27.1095137,4.17522737 C27.7718673,4.11166862 28.5683495,3.99436921 28.9748689,4.62842009 C29.1085749,4.83736986 29.1231876,5.18221005 28.9748689,5.38896804 C28.691383,5.78641096 28.4093584,5.86531507 27.9402915,5.872621 C28.402052,5.92157078 28.863082,5.98221005 29.32192,6.05307763 C29.63818,6.1012968 29.9544401,6.15595713 30.2693198,6.21659853 L30.4266383,6.24741553 C30.810221,6.32412785 31.2383724,6.36869406 31.5678883,6.59079452 C32.286832,7.07590868 31.9492791,8.02056621 31.1528883,8.12138813 C30.7678443,8.16960731 30.3404235,8.00668493 29.9626858,7.9307032 C29.5959077,7.85691324 29.2276682,7.79189041 28.8579675,7.73490411 C28.6665415,7.70494977 28.4751154,7.6786484 28.2829587,7.65453881 C28.6738478,7.71079452 29.0618143,7.79042922 29.439552,7.90294064 L29.5444773,7.93460088 C30.2747321,8.15714691 31.2604444,8.51159308 31.4882492,9.29179909 C31.626339,9.76595434 31.2486013,10.1794703 30.7912246,10.2072329 C30.3659957,10.2328037 30.0116383,9.97928767 29.6507052,9.79225571 C29.387677,9.6563653 29.1202651,9.55481279 28.8367791,9.46787215 C28.543795,9.37800913 28.2449658,9.30348858 27.9439446,9.24284932 C28.198338,9.38299045 28.4460893,9.53701891 28.6839049,9.70932592 L28.7932207,9.79008145 C29.4253219,10.2610393 30.3892152,10.9901808 30.1665327,11.8729863 C30.0963918,12.1513425 29.7858724,12.4172785 29.4877739,12.3887854 C28.7118408,12.3164566 28.2836893,11.4901553 27.6984517,11.0474155 C27.5457492,10.9319817 27.3784341,10.8180091 27.203082,10.7069589 C28.0900714,11.7648584 28.7958636,12.9878721 29.3328795,14.2510685 C30.5131066,17.03009 30.8751754,19.6036885 30.8838587,22.591763 L30.8840151,22.6843105 C30.8854763,24.3325297 30.848214,26.0107032 30.6874746,27.6516164 C30.5384253,29.1675982 30.2651682,30.6638539 29.5776418,32.0367123 C28.4254323,34.3387397 26.1801946,36.1316164 23.7040767,36.8139909 C20.9488566,37.5738082 17.8692351,36.9798356 15.6123073,35.226411 C15.0365679,34.7792877 15.8000802,33.8084018 16.3882404,34.2211142 C18.7372281,35.8686027 21.7752034,36.3902466 24.4712422,35.2753607 C26.6098073,34.3913425 28.3319112,32.4896073 29.0618143,30.3000183 C29.5264021,28.9070463 29.6616609,27.4217833 29.827381,25.9700807 L29.8384781,25.8733516 C30.0138302,24.3551781 30.1153883,22.8267763 30.113927,21.2983744 C30.1117351,18.4600183 29.7040415,16.1235799 28.4553883,13.548968 C27.8679587,12.3361826 27.1059077,11.2147945 26.1955379,10.2306119 C25.9193584,10.2868676 25.6256436,10.2079635 25.3465415,10.1780091 C25.2040679,10.1626667 25.0615943,10.1480548 24.9191207,10.1349041 C25.0646629,10.2290046 25.2073996,10.3268457 25.3477046,10.4269685 L25.5317273,10.5596626 C26.1075848,10.972045 26.8381872,11.4417575 26.690177,12.2390137 C26.6499922,12.4545388 26.4351858,12.6525297 26.2269552,12.7014795 C25.4722105,12.8812055 24.9534605,12.1476895 24.4434781,11.7122557 C23.9999834,11.3338082 23.5360309,10.9948128 23.0633108,10.6550868 C22.9559077,10.5783744 22.8477739,10.5016621 22.7389094,10.4256804 C22.8411982,10.5449132 22.9406812,10.6660164 23.0377328,10.7882418 L23.1812187,10.9700925 C23.6153966,11.5133137 24.2412868,12.2193965 23.8545872,12.9235799 C23.7449922,13.1223014 23.5111893,13.2545388 23.2846929,13.2501553 C22.5058372,13.2340822 22.1960485,12.3500639 21.8307316,11.7918904 C21.5165591,11.3133516 21.1753531,10.8625753 20.822457,10.4117991 C20.7252827,10.2883288 20.6273777,10.1648584 20.5280115,10.0413881 C18.8921224,10.126137 17.2620784,10.3423927 15.6605291,10.6879635 C14.5601946,10.9254064 13.478126,11.2330594 12.4040943,11.56979 L12.3148358,11.5981831 C11.733578,11.7853198 11.1346804,12.024825 10.7155996,12.4355434 C10.6557753,12.7185169 10.7016988,13.0169498 10.7589269,13.2995523 L10.8035299,13.5158623 C10.9873004,14.4203872 11.1125164,15.3081644 11.0188126,16.2368219 C10.9216383,17.1946301 10.6330379,18.056 10.2808724,18.945863 C10.1142879,19.3652237 9.94185836,19.289242 9.88267702,19.7392877 C9.8373412,20.0820822 9.8653811,20.4359616 9.89635074,20.781633 L9.92223175,21.0746757 C9.98718464,21.8423093 10.0198001,22.6792323 9.51662949,23.312621 C9.43845167,23.40979 9.27113653,23.3710685 9.21560836,23.2738995 C9.19368935,23.2351781 9.17030907,23.1979178 9.14473688,23.1621187 C8.90216646,22.8107032 8.53027386,22.6105205 8.10504498,22.5330776 C8.05097808,22.5235799 8.07216646,22.4512511 8.11746576,22.4454064 C8.47693759,22.403032 8.81741294,22.492895 9.10674393,22.6784658 C8.96953769,22.2040471 7.90732299,22.434766 7.55813565,22.5269602 L7.54611012,22.5301553 C7.11065238,22.6470502 6.69857491,22.8370046 6.33544991,23.105863 C5.60481611,23.6465023 5.18250977,24.4896073 5.20369815,25.3977352 C5.22488653,26.2905205 5.68591646,27.1153607 6.4779235,27.542758 C6.86004498,27.7487854 7.2947721,27.8481461 7.72730731,27.8437626 C8.178839,27.839379 8.58068759,27.6413881 9.03294991,27.6691507 C9.29451681,27.6852237 9.49471048,27.9657717 9.34346928,28.2105205 C9.24264181,28.3741735 9.11112773,28.502758 8.9591559,28.6013881 C9.32958724,29.4554521 9.80230731,30.2700639 10.3473601,31.0218447 C10.6491119,31.4390137 10.9910485,31.8240365 11.3673249,32.1754521 C11.6610397,32.4501553 12.2974217,32.7679635 12.2616207,33.2260457 C12.2491999,33.3911598 12.1637158,33.4919817 12.0132052,33.5533516 C11.5452683,33.7446405 10.9762723,33.0859715 10.6632929,32.7684299 L10.6381524,32.7431233 C10.2479939,32.3544475 9.89217526,31.9248584 9.58238653,31.468968 C9.03294991,30.6594703 8.69174393,29.7469589 8.5507316,28.7884201 C7.80037069,29.0141735 6.80670871,28.8023014 6.19443759,28.5254064 C4.26994815,27.656 3.64087245,25.0645845 4.81061717,23.3389224 C5.03711364,23.0050411 5.32059956,22.719379 5.6435397,22.4885114 C5.57266822,22.44979 5.50618055,22.4001096 5.44699921,22.3372785 C5.11961906,21.9895441 4.88816162,21.5357601 4.65844493,21.1175164 L4.63088125,21.0675068 C4.42695324,20.6992877 4.23457104,20.3252959 4.05424781,19.9455315 L3.98719287,19.8028493 C3.58461364,18.9370959 3.23171752,18.5586484 2.94457843,17.6483288 C2.66839886,16.7701553 2.45066998,15.8751781 2.30965766,14.9648584 L2.27218513,14.7239024 C2.19063254,14.195683 2.11350684,13.6308432 2.17302914,13.0945388 C1.76314357,13.2282374 1.35106611,13.3107945 0.945564349,13.1098813 C0.678152377,12.9776438 0.530564349,12.5918904 0.621893574,12.3149954 C0.68838125,12.1111598 0.799437588,11.9511598 0.940449912,11.8254977 C0.856427025,11.7831233 0.777518574,11.7290594 0.708108363,11.6691507 L0.647465757,11.616621 L0.647465757,11.616621 C0.401972799,11.4032146 0.384437588,10.9977352 0.533486884,10.7303379 C0.54809956,10.7047671 0.562712236,10.6784658 0.576594278,10.652895 C0.718337236,10.399379 1.01132139,10.2335342 1.30065238,10.2379178 C1.34741294,10.2386484 1.3941735,10.2386484 1.4416647,10.2379178 C1.30649745,10.2079635 1.17425273,10.1619361 1.04858371,10.0844932 C0.481611884,9.736 0.553213996,8.79134247 1.23927914,8.62476712 C1.52714886,8.55536073 1.84497456,8.58385388 2.16206963,8.65837443 C2.15037949,8.65179909 2.13868935,8.64522374 2.12699921,8.63791781 C1.88735132,8.49106849 1.68642702,8.20394521 1.70907667,7.90951598 C1.73391822,7.58367123 1.83912949,7.35134247 2.12699921,7.18038356 C2.37687597,7.03280365 2.73050273,7.01892237 2.97891822,7.18038356 C3.19445519,7.32138813 3.40560836,7.47700457 3.60872456,7.6443105 C3.40487773,7.39371689 3.22806435,7.12120548 3.15646224,6.83189041 C3.06805555,6.47170776 3.21564357,6.079379 3.54004498,5.88942466 C3.79868935,5.73819178 4.07194639,5.75499543 4.31597808,5.87189041 C4.30282667,5.68266667 4.3488566,5.48978995 4.47452562,5.31883105 C4.73170871,4.96821918 5.19931435,4.76650228 5.60627738,5.02221005 C5.65961364,5.05581735 5.73121576,5.11353425 5.80062597,5.18440183 C5.66545871,4.75408219 5.78747456,4.30257534 6.24850449,4.10823744 C6.5297985,3.98915068 6.91045871,4.04905936 7.1544904,4.25435616 C6.99959604,3.4163653 8.23655907,2.80047489 8.71731611,3.66622831 C8.82642409,3.86235211 8.93437749,4.06886657 9.03091336,4.28012738 L9.06655907,4.35956164 L9.07021224,4.35810046 L9.04564467,4.30001826 L9.04564467,4.30001826 L9.02052914,4.24193607 C8.88682315,3.93143379 8.71658548,3.60851142 8.66982491,3.27170776 C8.60114533,2.77344292 8.82325801,2.30074886 9.36538829,2.2276895 C9.64522104,2.18969863 9.95647104,2.31682192 10.1442439,2.53899543 C10.0426858,1.76595434 10.906295,1.20412785 11.5280643,1.7812968 C11.8225098,2.05453881 11.979596,2.45417352 12.1666383,2.80485845 C12.2725802,3.00284932 12.380714,3.20010959 12.4866559,3.39883105 C12.5136893,3.36668493 12.5429147,3.33453881 12.5736013,3.30312329 C12.4165151,2.832621 12.2944992,2.35042922 12.1914798,1.86531507 C12.0935749,1.40796347 12.3222633,0.933077626 12.7942527,0.803835616 C13.2231348,0.685406393 13.7601506,0.949954338 13.8558636,1.40657534 C13.923082,1.72796347 14.002721,2.04584475 14.0903971,2.36211872 C14.1503091,2.34750685 14.2094904,2.33727854 14.2679411,2.3299726 C14.272812,2.27055099 14.2783323,2.21080467 14.2845021,2.15138305 L14.3074988,1.9400441 C14.3585923,1.45716293 14.4101263,0.905930305 14.6624834,0.495452055 C15.0928267,-0.205917808 16.1960837,0.0848584475 16.2077739,0.914082192 C16.2143496,1.34294064 16.0397281,1.76814612 15.9790855,2.192621 C15.9527827,2.37746119 15.9374393,2.56449315 15.9286717,2.75152511 C16.0463038,2.13052055 16.2077739,1.51755251 16.3948161,0.914082192 C16.4167351,0.841753425 16.4401154,0.769424658 16.4627651,0.69709589 Z M6.94406056,24.6445151 C7.91215035,24.4947434 8.79694789,25.0346521 9.37049542,25.7908164 C9.47497606,25.9288986 9.40629648,26.1239671 9.31204472,26.2401315 C9.24409577,26.325611 9.15276655,26.3358393 9.04974718,26.34899 C8.93138451,26.3643324 8.78160458,26.2686247 8.72972958,26.165611 C8.36075951,25.4291726 7.70245845,24.9637845 6.94406056,24.6773918 C6.93017852,24.6722776 6.92579472,24.6474374 6.94406056,24.6445151 Z M8.28607568,11.4496684 L8.31539445,11.4181918 C8.51127738,11.2150137 8.20170783,10.9046575 8.00538653,11.108274 C7.79869023,11.3226301 7.66133107,11.5830137 7.52923248,11.8469041 C7.40334428,12.0985205 7.78137421,12.3207671 7.90777386,12.0682009 L7.96533122,11.9534057 C8.05566575,11.7749091 8.15200395,11.5985633 8.28607568,11.4496684 L8.28607568,11.4496684 Z M5.5673346,11.0326575 C5.84497544,10.9858995 5.72727033,10.5633973 5.4507985,10.6100091 C5.09264181,10.6703562 4.73587333,10.7389589 4.37764357,10.799379 C4.10007579,10.846137 4.2177809,11.2686393 4.49425273,11.2221005 C4.85240942,11.1616804 5.2091779,11.0930776 5.5673346,11.0326575 Z M22.1065459,8.14820091 C21.8383302,8.0587032 21.7232554,8.48193607 21.9900098,8.57092237 C22.3586145,8.69388128 22.7242237,8.81990868 23.073905,8.9906484 C23.3264851,9.1139726 23.5489631,8.73603653 23.2951409,8.61212785 C22.911339,8.42473059 22.5111709,8.28321461 22.1065459,8.14820091 Z M5.50420783,7.58009132 C5.24227562,7.4753242 5.12851593,7.89914155 5.38767174,8.00281279 L6.33457315,8.38147945 L6.33457315,8.38147945 C6.59650537,8.48624658 6.71026505,8.06250228 6.45110924,7.95883105 L5.50420783,7.58009132 L5.50420783,7.58009132 Z M25.4129533,6.5508654 L25.3783971,6.52905936 C25.1409411,6.37519635 24.9209473,6.75452055 25.1570881,6.90757991 C25.2957234,6.99738447 25.4642725,7.0582952 25.5912139,7.16527484 L25.6177527,7.18893151 C25.8227686,7.38253881 26.133361,7.07320548 25.9277607,6.87894064 C25.7773414,6.73695434 25.5869157,6.65789612 25.4129533,6.5508654 L25.4129533,6.5508654 Z" id="ðŸ–-Ink" fill="#000000"></path>
                            </g>
                            <g id="face/Driven" transform="translate(38.796655, 26.739726)" fill-rule="evenodd">
                                <path d="M13.0689867,16.870668 C12.5731112,17.0655957 11.9872482,17.1116385 11.4754147,16.9455565 C10.9860073,16.7867114 10.5416057,16.4331991 10.2727058,15.9886086 C10.0332022,15.5926211 9.93318076,15.1226984 10.074728,14.6542289 C10.0814996,14.6318056 10.103467,14.6174657 10.1246586,14.6118721 C10.2404608,14.7172946 10.3120065,14.8219995 10.3834895,14.926193 C10.5040036,15.101854 10.6247852,15.2757119 10.7905843,15.4258948 C11.0318143,15.6443808 11.356826,15.8218317 11.6793878,15.8803533 C11.9952113,15.93778 12.3184469,15.8870299 12.6012377,15.7358689 C12.7732156,15.6440104 12.912267,15.5211723 13.049959,15.3977887 C13.1998941,15.2634343 13.3474537,15.1270346 13.5539514,15.0511679 C13.7194304,14.9903604 13.8932525,15.0416713 14.0267862,15.1433888 C14.1703079,15.2527145 14.2735139,15.423845 14.2677923,15.6027547 C14.258931,15.8799451 14.1375879,16.1111684 13.9615226,16.301936 C13.7234935,16.5598416 13.3869358,16.7456689 13.0689867,16.870668 Z M12.4802704,9.96289713 C13.0319997,10.2982429 13.8726656,11.0802039 13.2791319,11.911567 C12.580486,12.6446073 11.5745936,11.8041265 11.0789073,11.4240098 C10.6192837,11.1294172 10.1028709,11.8870873 10.5293099,12.2310738 C14.1111497,14.8827806 15.5647361,10.0505854 12.7593274,9.56861269 C12.4504418,9.51550137 12.3357209,9.85915424 12.4802704,9.96289713 Z M6.6771162,5.31640548 C7.42908451,5.28046027 8.09176937,5.61814064 8.808375,5.7715653 C9.47062148,5.91344658 10.1230775,5.82825936 10.7671312,5.64780274 C11.8123759,5.35490776 12.2444727,6.95490776 11.2134754,7.26672511 C10.4626761,7.49379361 9.67213028,7.50957443 8.90167694,7.39253333 C8.21729225,7.2884968 7.64359859,6.95534612 6.99106954,6.76137352 C6.43107441,6.59499187 5.77230882,6.66414 5.18092285,6.74247293 L4.95135915,6.77335525 C4.61015317,6.81930959 4.2671206,6.86541005 3.92927553,6.93211324 C3.63614525,6.99004932 3.34352641,7.09605845 3.04433187,7.10833242 C3.01035739,7.10979361 2.98157042,7.06566575 3.00297799,7.03622283 C3.35053237,6.55910299 4.02038481,6.18263464 4.55321827,5.93154098 L4.58933011,5.91461553 C5.24704665,5.60798539 5.94480194,5.35132785 6.6771162,5.31640548 Z M6.40161805,8.83462145 L6.40152382,8.81816218 C6.40254671,8.35227824 6.67390484,7.2885637 7.34463471,7.2885637 C7.76365153,7.2885637 8.01804834,8.01249465 8.06208843,8.75876349 L8.06361807,8.78919079 C8.08306599,9.25315613 7.95573726,10.2673035 7.34463471,10.2673035 C6.72706503,10.2673035 6.4079678,9.30677963 6.40161805,8.83462145 L6.40161805,8.83462145 Z M16.2765205,8.83462145 L16.2766147,8.81816218 C16.2755918,8.35227824 16.0042337,7.2885637 15.3335038,7.2885637 C14.9249624,7.2885637 14.6729129,7.97675056 14.6197468,8.70284617 L14.6160501,8.75876349 C14.5895942,9.20706434 14.7086686,10.2673035 15.3335038,10.2673035 C15.9510735,10.2673035 16.2701707,9.30677963 16.2765205,8.83462145 L16.2765205,8.83462145 Z M16.2662384,4.7489733 L16.3142126,4.7500274 C17.0980365,4.77720548 17.9042909,5.24149772 18.1135445,6.02140639 C18.1243578,6.06188128 18.0744555,6.08913242 18.0448649,6.06136986 C17.4003639,5.45799327 16.5335857,6.03453621 15.8882133,6.33673822 L15.6511663,6.44623998 C14.8191767,6.83329202 13.8729107,7.28833959 12.9491325,6.99989041 C12.5103869,6.86290411 12.2317232,6.41212785 12.3568807,5.95682192 C12.4682228,5.55170885 12.957242,5.21125181 13.3808006,5.35747353 L13.4000066,5.36445662 C13.7441351,5.49608524 14.1672634,5.36272146 14.5226728,5.23123491 L14.8146276,5.1216063 C15.2840981,4.94347367 15.7557394,4.74418059 16.2662384,4.7489733 L16.2662384,4.7489733 Z" id="ðŸ–-Ink" fill="#000000"></path>
                            </g>
                            <g id="facial-hair/*-None" transform="translate(36.166368, 37.844724)"></g>
                            <g id="accessories/*-None" transform="translate(30.613556, 30.757991)"></g>
                        </g>
                    </g>
                </g>
            </g>
        </g>
    </g>
</svg>