<?xml version="1.0" encoding="UTF-8" standalone="no"?><svg xmlns="http://www.w3.org/2000/svg" xmlns:xlink="http://www.w3.org/1999/xlink" contentScriptType="application/ecmascript" contentStyleType="text/css" height="256px" preserveAspectRatio="none" style="width:351px;height:256px;" version="1.1" viewBox="0 0 351 256" width="351px" zoomAndPan="magnify"><defs><filter height="300%" id="f16wzgqzr9fymd" width="300%" x="-1" y="-1"><feGaussianBlur result="blurOut" stdDeviation="2.0"/><feColorMatrix in="blurOut" result="blurOut2" type="matrix" values="0 0 0 0 0 0 0 0 0 0 0 0 0 0 0 0 0 0 .4 0"/><feOffset dx="4.0" dy="4.0" in="blurOut2" result="blurOut3"/><feBlend in="SourceGraphic" in2="blurOut3" mode="normal"/></filter></defs><g><rect fill="#FFFFFF" filter="url(#f16wzgqzr9fymd)" height="58.2656" style="stroke: #A80036; stroke-width: 1.0;" width="10" x="56" y="125.5625"/><rect fill="#FFFFFF" filter="url(#f16wzgqzr9fymd)" height="29.1328" style="stroke: #A80036; stroke-width: 1.0;" width="10" x="304" y="154.6953"/><line style="stroke: #A80036; stroke-width: 1.0; stroke-dasharray: 5.0,5.0;" x1="61" x2="61" y1="51.2969" y2="201.8281"/><line style="stroke: #A80036; stroke-width: 1.0; stroke-dasharray: 5.0,5.0;" x1="309" x2="309" y1="51.2969" y2="201.8281"/><text fill="#000000" font-family="sans-serif" font-size="14" lengthAdjust="spacingAndGlyphs" textLength="72" x="22" y="47.9951">MobileApp</text><ellipse cx="61" cy="19" fill="#FEFECE" filter="url(#f16wzgqzr9fymd)" rx="12" ry="12" style="stroke: #A80036; stroke-width: 2.0;"/><polygon fill="#A80036" points="57,7,63,2,61,7,63,12,57,7" style="stroke: #A80036; stroke-width: 1.0;"/><text fill="#000000" font-family="sans-serif" font-size="14" lengthAdjust="spacingAndGlyphs" textLength="72" x="22" y="213.8232">MobileApp</text><ellipse cx="61" cy="233.125" fill="#FEFECE" filter="url(#f16wzgqzr9fymd)" rx="12" ry="12" style="stroke: #A80036; stroke-width: 2.0;"/><polygon fill="#A80036" points="57,221.125,63,216.125,61,221.125,63,226.125,57,221.125" style="stroke: #A80036; stroke-width: 1.0;"/><text fill="#000000" font-family="sans-serif" font-size="14" lengthAdjust="spacingAndGlyphs" textLength="44" x="284" y="47.9951">Server</text><ellipse cx="309" cy="19" fill="#FEFECE" filter="url(#f16wzgqzr9fymd)" rx="12" ry="12" style="stroke: #A80036; stroke-width: 2.0;"/><polygon fill="#A80036" points="305,7,311,2,309,7,311,12,305,7" style="stroke: #A80036; stroke-width: 1.0;"/><text fill="#000000" font-family="sans-serif" font-size="14" lengthAdjust="spacingAndGlyphs" textLength="44" x="284" y="213.8232">Server</text><ellipse cx="309" cy="233.125" fill="#FEFECE" filter="url(#f16wzgqzr9fymd)" rx="12" ry="12" style="stroke: #A80036; stroke-width: 2.0;"/><polygon fill="#A80036" points="305,221.125,311,216.125,309,221.125,311,226.125,305,221.125" style="stroke: #A80036; stroke-width: 1.0;"/><rect fill="#FFFFFF" filter="url(#f16wzgqzr9fymd)" height="58.2656" style="stroke: #A80036; stroke-width: 1.0;" width="10" x="56" y="125.5625"/><rect fill="#FFFFFF" filter="url(#f16wzgqzr9fymd)" height="29.1328" style="stroke: #A80036; stroke-width: 1.0;" width="10" x="304" y="154.6953"/><rect fill="#EEEEEE" filter="url(#f16wzgqzr9fymd)" height="3" style="stroke: #EEEEEE; stroke-width: 1.0;" width="336" x="3" y="81.8633"/><line style="stroke: #000000; stroke-width: 1.0;" x1="3" x2="339" y1="81.8633" y2="81.8633"/><line style="stroke: #000000; stroke-width: 1.0;" x1="3" x2="339" y1="84.8633" y2="84.8633"/><rect fill="#EEEEEE" filter="url(#f16wzgqzr9fymd)" height="23.1328" style="stroke: #000000; stroke-width: 2.0;" width="164" x="89" y="71.2969"/><text fill="#000000" font-family="sans-serif" font-size="13" font-weight="bold" lengthAdjust="spacingAndGlyphs" textLength="145" x="95" y="87.3638">MobileApp &lt;- Login</text><polygon fill="#A80036" points="44,121.5625,54,125.5625,44,129.5625,48,125.5625" style="stroke: #A80036; stroke-width: 1.0;"/><line style="stroke: #A80036; stroke-width: 1.0;" x1="3" x2="50" y1="125.5625" y2="125.5625"/><text fill="#000000" font-family="sans-serif" font-size="13" lengthAdjust="spacingAndGlyphs" textLength="34" x="10" y="120.4966">Login</text><polygon fill="#A80036" points="292,150.6953,302,154.6953,292,158.6953,296,154.6953" style="stroke: #A80036; stroke-width: 1.0;"/><line style="stroke: #A80036; stroke-width: 1.0;" x1="66" x2="298" y1="154.6953" y2="154.6953"/><text fill="#000000" font-family="sans-serif" font-size="13" lengthAdjust="spacingAndGlyphs" textLength="86" x="73" y="149.6294">LoginRequest</text><polygon fill="#A80036" points="72,179.8281,62,183.8281,72,187.8281,68,183.8281" style="stroke: #A80036; stroke-width: 1.0;"/><line style="stroke: #A80036; stroke-width: 1.0; stroke-dasharray: 2.0,2.0;" x1="66" x2="308" y1="183.8281" y2="183.8281"/><text fill="#0000FF" font-family="sans-serif" font-size="13" lengthAdjust="spacingAndGlyphs" textLength="166" x="78" y="178.7622">MobileApp.LoginResponse</text><text fill="#000000" font-family="sans-serif" font-size="13" lengthAdjust="spacingAndGlyphs" textLength="11" x="248" y="178.7622">&lt;</text><text fill="#008000" font-family="sans-serif" font-size="13" lengthAdjust="spacingAndGlyphs" textLength="22" x="259" y="178.7622">?, ?</text><text fill="#000000" font-family="sans-serif" font-size="13" lengthAdjust="spacingAndGlyphs" textLength="11" x="281" y="178.7622">&gt;</text><!--MD5=[51ed9673f9d75b13c3c7f85f24187866]
@startuml


control "MobileApp" as _0
control "Server" as _1
skinparam maxMessageSize 250
== MobileApp <- Login ==
[->_0 : Login
activate _0
 _0->_1 : LoginRequest
 activate _1
 _0<- -_1 : <color blue>MobileApp.LoginResponse</color> <<color green>?, ?</color>>
 deactivate _1
deactivate _0
@enduml

PlantUML version 1.2019.13(Tue Dec 10 17:18:29 UTC 2019)
(GPL source distribution)
Java Runtime: Java(TM) SE Runtime Environment
JVM: Java HotSpot(TM) 64-Bit Server VM
Java Version: 1.7.0_25-b15
Operating System: Linux
Default Encoding: UTF-8
Language: en
Country: US
--></g></svg>
