<?xml version="1.0" encoding="UTF-8" standalone="no"?><svg xmlns="http://www.w3.org/2000/svg" xmlns:xlink="http://www.w3.org/1999/xlink" contentScriptType="application/ecmascript" contentStyleType="text/css" height="446px" preserveAspectRatio="none" style="width:125px;height:446px;" version="1.1" viewBox="0 0 125 446" width="125px" zoomAndPan="magnify"><defs><filter height="300%" id="f126y0qbwhd2nq" width="300%" x="-1" y="-1"><feGaussianBlur result="blurOut" stdDeviation="2.0"/><feColorMatrix in="blurOut" result="blurOut2" type="matrix" values="0 0 0 0 0 0 0 0 0 0 0 0 0 0 0 0 0 0 .4 0"/><feOffset dx="4.0" dy="4.0" in="blurOut2" result="blurOut3"/><feBlend in="SourceGraphic" in2="blurOut3" mode="normal"/></filter></defs><g><!--MD5=[770389ab9df153645bc6ef28055eb2b5]
entity A--><rect fill="#FEFECE" filter="url(#f126y0qbwhd2nq)" height="36.2969" style="stroke: #A80036; stroke-width: 1.5;" width="29" x="12" y="295"/><rect fill="#FEFECE" height="5" style="stroke: #A80036; stroke-width: 1.5;" width="10" x="7" y="300"/><rect fill="#FEFECE" height="5" style="stroke: #A80036; stroke-width: 1.5;" width="10" x="7" y="321.2969"/><text fill="#000000" font-family="sans-serif" font-size="14" lengthAdjust="spacingAndGlyphs" textLength="9" x="22" y="317.9951">A</text><!--MD5=[c8da82a3e4fd5c54db14ac48b9861466]
entity Source--><rect fill="#FEFECE" filter="url(#f126y0qbwhd2nq)" height="36.2969" style="stroke: #A80036; stroke-width: 1.5;" width="69" x="24" y="391"/><rect fill="#FEFECE" height="5" style="stroke: #A80036; stroke-width: 1.5;" width="10" x="19" y="396"/><rect fill="#FEFECE" height="5" style="stroke: #A80036; stroke-width: 1.5;" width="10" x="19" y="417.2969"/><text fill="#000000" font-family="sans-serif" font-size="14" lengthAdjust="spacingAndGlyphs" textLength="49" x="34" y="413.9951">Source</text><!--MD5=[b2d39259b6aeabc16b394deeb0238426]
entity B--><rect fill="#FEFECE" filter="url(#f126y0qbwhd2nq)" height="36.2969" style="stroke: #A80036; stroke-width: 1.5;" width="30" x="76.5" y="295"/><rect fill="#FEFECE" height="5" style="stroke: #A80036; stroke-width: 1.5;" width="10" x="71.5" y="300"/><rect fill="#FEFECE" height="5" style="stroke: #A80036; stroke-width: 1.5;" width="10" x="71.5" y="321.2969"/><text fill="#000000" font-family="sans-serif" font-size="14" lengthAdjust="spacingAndGlyphs" textLength="10" x="86.5" y="317.9951">B</text><!--MD5=[16fab723be418f7eaf2ea4bd895a8e51]
entity C--><rect fill="#FEFECE" filter="url(#f126y0qbwhd2nq)" height="36.2969" style="stroke: #A80036; stroke-width: 1.5;" width="30" x="76.5" y="199"/><rect fill="#FEFECE" height="5" style="stroke: #A80036; stroke-width: 1.5;" width="10" x="71.5" y="204"/><rect fill="#FEFECE" height="5" style="stroke: #A80036; stroke-width: 1.5;" width="10" x="71.5" y="225.2969"/><text fill="#000000" font-family="sans-serif" font-size="14" lengthAdjust="spacingAndGlyphs" textLength="10" x="86.5" y="221.9951">C</text><!--MD5=[0ba5ee7700168656dc1b457c6fe9fdac]
entity Client--><rect fill="#FEFECE" filter="url(#f126y0qbwhd2nq)" height="36.2969" style="stroke: #A80036; stroke-width: 1.5;" width="59" x="28" y="7"/><rect fill="#FEFECE" height="5" style="stroke: #A80036; stroke-width: 1.5;" width="10" x="23" y="12"/><rect fill="#FEFECE" height="5" style="stroke: #A80036; stroke-width: 1.5;" width="10" x="23" y="33.2969"/><text fill="#000000" font-family="sans-serif" font-size="14" lengthAdjust="spacingAndGlyphs" textLength="39" x="38" y="29.9951">Client</text><!--MD5=[118f42602524ad482f02b27ef22fc383]
entity D--><rect fill="#FEFECE" filter="url(#f126y0qbwhd2nq)" height="36.2969" style="stroke: #A80036; stroke-width: 1.5;" width="31" x="42" y="103"/><rect fill="#FEFECE" height="5" style="stroke: #A80036; stroke-width: 1.5;" width="10" x="37" y="108"/><rect fill="#FEFECE" height="5" style="stroke: #A80036; stroke-width: 1.5;" width="10" x="37" y="129.2969"/><text fill="#000000" font-family="sans-serif" font-size="14" lengthAdjust="spacingAndGlyphs" textLength="11" x="52" y="125.9951">D</text><!--MD5=[7f47cc6edd67035868970dd881b85ad1]
link A to Source--><path d="M32.519,331.0569 C37.6709,346.5126 45.1216,368.8647 50.7244,385.6731 " fill="none" id="A-&gt;Source" style="stroke: #A80036; stroke-width: 1.0;"/><polygon fill="#A80036" points="52.3992,390.6977,53.3479,380.8946,50.8181,385.9543,45.7584,383.4245,52.3992,390.6977" style="stroke: #A80036; stroke-width: 1.0;"/><!--MD5=[819bb4997c2be26d5a9f4c6d4029a9f3]
link B to Source--><path d="M85.293,331.0569 C79.98,346.5126 72.2965,368.8647 66.5186,385.6731 " fill="none" id="B-&gt;Source" style="stroke: #A80036; stroke-width: 1.0;"/><polygon fill="#A80036" points="64.7914,390.6977,71.4999,383.4869,66.4168,385.9693,63.9344,380.8862,64.7914,390.6977" style="stroke: #A80036; stroke-width: 1.0;"/><!--MD5=[1454d5cde7bc0c276b7bdc83fba84c24]
link C to A--><path d="M79.274,235.0569 C68.6287,250.7791 53.1517,273.6375 41.709,290.5375 " fill="none" id="C-&gt;A" style="stroke: #A80036; stroke-width: 1.0;"/><polygon fill="#A80036" points="38.8922,294.6977,47.2503,289.4879,41.6955,290.5574,40.6259,285.0026,38.8922,294.6977" style="stroke: #A80036; stroke-width: 1.0;"/><!--MD5=[a9a08eed061a1d2941776fe900dc520e]
link C to B--><path d="M91.5,235.0569 C91.5,250.5126 91.5,272.8647 91.5,289.6731 " fill="none" id="C-&gt;B" style="stroke: #A80036; stroke-width: 1.0;"/><polygon fill="#A80036" points="91.5,294.6977,95.5,285.6977,91.5,289.6977,87.5,285.6977,91.5,294.6977" style="stroke: #A80036; stroke-width: 1.0;"/><!--MD5=[82d5360e014fda99232785675274d395]
link Client to D--><path d="M57.5,43.0569 C57.5,58.5126 57.5,80.8647 57.5,97.6731 " fill="none" id="Client-&gt;D" style="stroke: #A80036; stroke-width: 1.0;"/><polygon fill="#A80036" points="57.5,102.6977,61.5,93.6977,57.5,97.6977,53.5,93.6977,57.5,102.6977" style="stroke: #A80036; stroke-width: 1.0;"/><!--MD5=[dd279d86604081708109ffa5c10dbded]
link D to A--><path d="M54.5836,139.0629 C48.9291,174.0841 36.4832,251.1683 30.2343,289.8715 " fill="none" id="D-&gt;A" style="stroke: #A80036; stroke-width: 1.0;"/><polygon fill="#A80036" points="29.4312,294.8452,34.8147,286.5979,30.2282,289.9091,26.917,285.3227,29.4312,294.8452" style="stroke: #A80036; stroke-width: 1.0;"/><!--MD5=[be418e527c743f4eb8fec3865420733b]
link D to C--><path d="M63.8951,139.0569 C69.3691,154.5126 77.2854,176.8647 83.2384,193.6731 " fill="none" id="D-&gt;C" style="stroke: #A80036; stroke-width: 1.0;"/><polygon fill="#A80036" points="85.0179,198.6977,85.7837,188.8787,83.3486,193.9846,78.2427,191.5495,85.0179,198.6977" style="stroke: #A80036; stroke-width: 1.0;"/><!--MD5=[c7132d46bafb231ca93585767c337ba0]
@startuml
[A] - -> [Source]
[B] - -> [Source]
[C] - -> [A]
[C] - -> [B]
[Client] - -> [D]
[D] - -> [A]
[D] - -> [C]
@enduml

PlantUML version 1.2020.13(Sat Jun 13 12:26:38 UTC 2020)
(GPL source distribution)
Java Runtime: OpenJDK Runtime Environment
JVM: OpenJDK 64-Bit Server VM
Default Encoding: UTF-8
Language: en
Country: null
--></g></svg>