<?xml version="1.0" encoding="UTF-8" standalone="no"?><svg xmlns="http://www.w3.org/2000/svg" xmlns:xlink="http://www.w3.org/1999/xlink" contentScriptType="application/ecmascript" contentStyleType="text/css" height="86px" preserveAspectRatio="none" style="width:266px;height:86px;" version="1.1" viewBox="0 0 266 86" width="266px" zoomAndPan="magnify"><defs><filter height="300%" id="fokltw0lj0mrm" width="300%" x="-1" y="-1"><feGaussianBlur result="blurOut" stdDeviation="2.0"/><feColorMatrix in="blurOut" result="blurOut2" type="matrix" values="0 0 0 0 0 0 0 0 0 0 0 0 0 0 0 0 0 0 .4 0"/><feOffset dx="4.0" dy="4.0" in="blurOut2" result="blurOut3"/><feBlend in="SourceGraphic" in2="blurOut3" mode="normal"/></filter></defs><g><!--MD5=[f77682fd75c3e1fc6a82f566c0814d0f]
class _0--><rect fill="#FEFECE" filter="url(#fokltw0lj0mrm)" height="60.8047" id="_0" style="stroke: #A80036; stroke-width: 1.5;" width="240" x="7" y="7"/><ellipse cx="22" cy="23" fill="#DA70D6" rx="11" ry="11" style="stroke: #A80036; stroke-width: 1.0;"/><path d="M21.5938,18.8125 L21.5938,26.7969 L22.25,26.7969 Q23.6875,26.7969 24.2969,25.8906 Q24.9219,24.9688 24.9219,22.7969 Q24.9219,20.625 24.2969,19.7188 Q23.6875,18.8125 22.25,18.8125 L21.5938,18.8125 Z M19.1406,16.6094 L21.7656,16.6094 Q24.7969,16.6094 26.125,18.0625 Q27.4688,19.5 27.4688,22.7969 Q27.4688,26.0938 26.125,27.5469 Q24.7969,29 21.7656,29 L19.1406,29 L19.1406,16.6094 Z "/><text fill="#000000" font-family="sans-serif" font-size="12" lengthAdjust="spacingAndGlyphs" textLength="208" x="36" y="27.1543">PaymentService.PaymentProvider</text><line style="stroke: #A80036; stroke-width: 1.5;" x1="8" x2="246" y1="39" y2="39"/><ellipse cx="18" cy="50" fill="none" rx="3" ry="3" style="stroke: #038048; stroke-width: 1.0;"/><text fill="#000000" font-family="sans-serif" font-size="11" lengthAdjust="spacingAndGlyphs" textLength="92" x="27" y="53.2104">Provider : string</text><line style="stroke: #A80036; stroke-width: 1.5;" x1="8" x2="246" y1="59.8047" y2="59.8047"/><!--MD5=[e38331715918e12ea10f03af682d7b78]
@startuml
''''''''''''''''''''''''''''''''''''''''''
''                                      ''
''  AUTOGENERATED CODE - - DO NOT EDIT!  ''
''                                      ''
''''''''''''''''''''''''''''''''''''''''''

class "PaymentService.PaymentProvider" as _0 << (D,orchid) >> {
+ Provider : string
}
@enduml

@startuml

class "PaymentService.PaymentProvider" as _0 << (D,orchid) >> {
+ Provider : string
}
@enduml

PlantUML version 1.2020.14(Sat Jun 20 14:14:34 UTC 2020)
(GPL source distribution)
Java Runtime: OpenJDK Runtime Environment
JVM: OpenJDK 64-Bit Server VM
Default Encoding: UTF-8
Language: en
Country: null
--></g></svg>
