<?xml version="1.0" encoding="UTF-8" standalone="no"?><svg xmlns="http://www.w3.org/2000/svg" xmlns:xlink="http://www.w3.org/1999/xlink" contentScriptType="application/ecmascript" contentStyleType="text/css" height="233px" preserveAspectRatio="none" style="width:210px;height:233px;" version="1.1" viewBox="0 0 210 233" width="210px" zoomAndPan="magnify"><defs><filter height="300%" id="fzedsyjm5hkj7" width="300%" x="-1" y="-1"><feGaussianBlur result="blurOut" stdDeviation="2.0"/><feColorMatrix in="blurOut" result="blurOut2" type="matrix" values="0 0 0 0 0 0 0 0 0 0 0 0 0 0 0 0 0 0 .4 0"/><feOffset dx="4.0" dy="4.0" in="blurOut2" result="blurOut3"/><feBlend in="SourceGraphic" in2="blurOut3" mode="normal"/></filter></defs><g><!--MD5=[f77682fd75c3e1fc6a82f566c0814d0f]
class _0--><rect fill="#FEFECE" filter="url(#fzedsyjm5hkj7)" height="73.6094" id="_0" style="stroke: #A80036; stroke-width: 1.5;" width="184" x="7" y="141"/><ellipse cx="40.9" cy="157" fill="#DA70D6" rx="11" ry="11" style="stroke: #A80036; stroke-width: 1.0;"/><path d="M40.4938,152.8125 L40.4938,160.7969 L41.15,160.7969 Q42.5875,160.7969 43.1969,159.8906 Q43.8219,158.9688 43.8219,156.7969 Q43.8219,154.625 43.1969,153.7188 Q42.5875,152.8125 41.15,152.8125 L40.4938,152.8125 Z M38.0406,150.6094 L40.6656,150.6094 Q43.6969,150.6094 45.025,152.0625 Q46.3688,153.5 46.3688,156.7969 Q46.3688,160.0938 45.025,161.5469 Q43.6969,163 40.6656,163 L38.0406,163 L38.0406,150.6094 Z "/><text fill="#000000" font-family="sans-serif" font-size="12" lengthAdjust="spacingAndGlyphs" textLength="110" x="59.1" y="161.1543">Payment.CardInfo</text><line style="stroke: #A80036; stroke-width: 1.5;" x1="8" x2="190" y1="173" y2="173"/><ellipse cx="18" cy="184" fill="none" rx="3" ry="3" style="stroke: #038048; stroke-width: 1.0;"/><text fill="#000000" font-family="sans-serif" font-size="11" lengthAdjust="spacingAndGlyphs" textLength="158" x="27" y="187.2104">credit_card_number : string</text><ellipse cx="18" cy="196.8047" fill="none" rx="3" ry="3" style="stroke: #038048; stroke-width: 1.0;"/><text fill="#000000" font-family="sans-serif" font-size="11" lengthAdjust="spacingAndGlyphs" textLength="69" x="27" y="200.0151">type : string</text><line style="stroke: #A80036; stroke-width: 1.5;" x1="8" x2="190" y1="206.6094" y2="206.6094"/><!--MD5=[37d6e5304215b5e345f427169db70937]
class _1--><rect fill="#FEFECE" filter="url(#fzedsyjm5hkj7)" height="73.6094" id="_1" style="stroke: #A80036; stroke-width: 1.5;" width="144" x="27" y="7"/><ellipse cx="42" cy="23" fill="#DA70D6" rx="11" ry="11" style="stroke: #A80036; stroke-width: 1.0;"/><path d="M41.5938,18.8125 L41.5938,26.7969 L42.25,26.7969 Q43.6875,26.7969 44.2969,25.8906 Q44.9219,24.9688 44.9219,22.7969 Q44.9219,20.625 44.2969,19.7188 Q43.6875,18.8125 42.25,18.8125 L41.5938,18.8125 Z M39.1406,16.6094 L41.7656,16.6094 Q44.7969,16.6094 46.125,18.0625 Q47.4688,19.5 47.4688,22.7969 Q47.4688,26.0938 46.125,27.5469 Q44.7969,29 41.7656,29 L39.1406,29 L39.1406,16.6094 Z "/><text fill="#000000" font-family="sans-serif" font-size="12" lengthAdjust="spacingAndGlyphs" textLength="112" x="56" y="27.1543">Payment.Payment</text><line style="stroke: #A80036; stroke-width: 1.5;" x1="28" x2="170" y1="39" y2="39"/><ellipse cx="38" cy="50" fill="none" rx="3" ry="3" style="stroke: #038048; stroke-width: 1.0;"/><text fill="#000000" font-family="sans-serif" font-size="11" lengthAdjust="spacingAndGlyphs" textLength="69" x="47" y="53.2104">Amount : int</text><ellipse cx="38" cy="62.8047" fill="none" rx="3" ry="3" style="stroke: #038048; stroke-width: 1.0;"/><text fill="#000000" font-family="sans-serif" font-size="11" lengthAdjust="spacingAndGlyphs" textLength="56" x="47" y="66.0151">CardInfo :</text><text fill="#000000" font-family="sans-serif" font-size="11" font-weight="bold" lengthAdjust="spacingAndGlyphs" textLength="55" x="107" y="66.0151">CardInfo</text><line style="stroke: #A80036; stroke-width: 1.5;" x1="28" x2="170" y1="72.6094" y2="72.6094"/><!--MD5=[533817dd71937d491a48f9e800845371]
reverse link _1 to _0--><path d="M99,94.4577 C99,109.8663 99,126.5201 99,140.8737 " fill="none" id="_1&lt;-_0" style="stroke: #A80036; stroke-width: 1.0;"/><polygon fill="#A80036" points="99,81.3265,95,87.3265,99,93.3265,103,87.3265,99,81.3265" style="stroke: #A80036; stroke-width: 1.0;"/><text fill="#000000" font-family="sans-serif" font-size="13" lengthAdjust="spacingAndGlyphs" textLength="24" x="68.5063" y="130.0382">1..1</text><!--MD5=[3fcbab87da07e4289e05a6d594eb207c]
@startuml
''''''''''''''''''''''''''''''''''''''''''
''                                      ''
''  AUTOGENERATED CODE - - DO NOT EDIT!  ''
''                                      ''
''''''''''''''''''''''''''''''''''''''''''

class "Payment.CardInfo" as _0 << (D,orchid) >> {
+ credit_card_number : string
+ type : string
}
class "Payment.Payment" as _1 << (D,orchid) >> {
+ Amount : int
+ CardInfo : **CardInfo**
}
_1 *- - "1..1 " _0
@enduml

@startuml

class "Payment.CardInfo" as _0 << (D,orchid) >> {
+ credit_card_number : string
+ type : string
}
class "Payment.Payment" as _1 << (D,orchid) >> {
+ Amount : int
+ CardInfo : **CardInfo**
}
_1 *- - "1..1 " _0
@enduml

PlantUML version 1.2020.14(Sat Jun 20 14:14:34 UTC 2020)
(GPL source distribution)
Java Runtime: OpenJDK Runtime Environment
JVM: OpenJDK 64-Bit Server VM
Default Encoding: UTF-8
Language: en
Country: null
--></g></svg>
