<?xml version="1.0" encoding="UTF-8" standalone="no"?><svg xmlns="http://www.w3.org/2000/svg" xmlns:xlink="http://www.w3.org/1999/xlink" contentScriptType="application/ecmascript" contentStyleType="text/css" height="99px" preserveAspectRatio="none" style="width:210px;height:99px;" version="1.1" viewBox="0 0 210 99" width="210px" zoomAndPan="magnify"><defs><filter height="300%" id="fid8odah4xysy" width="300%" x="-1" y="-1"><feGaussianBlur result="blurOut" stdDeviation="2.0"/><feColorMatrix in="blurOut" result="blurOut2" type="matrix" values="0 0 0 0 0 0 0 0 0 0 0 0 0 0 0 0 0 0 .4 0"/><feOffset dx="4.0" dy="4.0" in="blurOut2" result="blurOut3"/><feBlend in="SourceGraphic" in2="blurOut3" mode="normal"/></filter></defs><g><!--MD5=[f77682fd75c3e1fc6a82f566c0814d0f]
class _0--><rect fill="#FEFECE" filter="url(#fid8odah4xysy)" height="73.6094" id="_0" style="stroke: #A80036; stroke-width: 1.5;" width="184" x="7" y="7"/><ellipse cx="40.9" cy="23" fill="#DA70D6" rx="11" ry="11" style="stroke: #A80036; stroke-width: 1.0;"/><path d="M40.4938,18.8125 L40.4938,26.7969 L41.15,26.7969 Q42.5875,26.7969 43.1969,25.8906 Q43.8219,24.9688 43.8219,22.7969 Q43.8219,20.625 43.1969,19.7188 Q42.5875,18.8125 41.15,18.8125 L40.4938,18.8125 Z M38.0406,16.6094 L40.6656,16.6094 Q43.6969,16.6094 45.025,18.0625 Q46.3688,19.5 46.3688,22.7969 Q46.3688,26.0938 45.025,27.5469 Q43.6969,29 40.6656,29 L38.0406,29 L38.0406,16.6094 Z "/><text fill="#000000" font-family="sans-serif" font-size="12" lengthAdjust="spacingAndGlyphs" textLength="110" x="59.1" y="27.1543">Payment.CardInfo</text><line style="stroke: #A80036; stroke-width: 1.5;" x1="8" x2="190" y1="39" y2="39"/><ellipse cx="18" cy="50" fill="none" rx="3" ry="3" style="stroke: #038048; stroke-width: 1.0;"/><text fill="#000000" font-family="sans-serif" font-size="11" lengthAdjust="spacingAndGlyphs" textLength="158" x="27" y="53.2104">credit_card_number : string</text><ellipse cx="18" cy="62.8047" fill="none" rx="3" ry="3" style="stroke: #038048; stroke-width: 1.0;"/><text fill="#000000" font-family="sans-serif" font-size="11" lengthAdjust="spacingAndGlyphs" textLength="69" x="27" y="66.0151">type : string</text><line style="stroke: #A80036; stroke-width: 1.5;" x1="8" x2="190" y1="72.6094" y2="72.6094"/><!--MD5=[051240c343d0e6713bea02f58375f07e]
@startuml
''''''''''''''''''''''''''''''''''''''''''
''                                      ''
''  AUTOGENERATED CODE - - DO NOT EDIT!  ''
''                                      ''
''''''''''''''''''''''''''''''''''''''''''

class "Payment.CardInfo" as _0 << (D,orchid) >> {
+ credit_card_number : string
+ type : string
}
@enduml

@startuml

class "Payment.CardInfo" as _0 << (D,orchid) >> {
+ credit_card_number : string
+ type : string
}
@enduml

PlantUML version 1.2020.14(Sat Jun 20 14:14:34 UTC 2020)
(GPL source distribution)
Java Runtime: OpenJDK Runtime Environment
JVM: OpenJDK 64-Bit Server VM
Default Encoding: UTF-8
Language: en
Country: null
--></g></svg>
