<?xml version="1.0" encoding="UTF-8" standalone="no"?><svg xmlns="http://www.w3.org/2000/svg" xmlns:xlink="http://www.w3.org/1999/xlink" contentScriptType="application/ecmascript" contentStyleType="text/css" height="205px" preserveAspectRatio="none" style="width:123px;height:205px;" version="1.1" viewBox="0 0 123 205" width="123px" zoomAndPan="magnify"><defs><filter height="300%" id="fxyrrmmyfymf3" width="300%" x="-1" y="-1"><feGaussianBlur result="blurOut" stdDeviation="2.0"/><feColorMatrix in="blurOut" result="blurOut2" type="matrix" values="0 0 0 0 0 0 0 0 0 0 0 0 0 0 0 0 0 0 .4 0"/><feOffset dx="4.0" dy="4.0" in="blurOut2" result="blurOut3"/><feBlend in="SourceGraphic" in2="blurOut3" mode="normal"/></filter></defs><g><!--MD5=[979da56a7f83e2393dc758167ae295d0]
cluster Server--><polygon fill="#FFFFFF" filter="url(#fxyrrmmyfymf3)" points="22,94,81,94,88,116.2969,98,116.2969,98,193,22,193,22,94" style="stroke: #000000; stroke-width: 1.5;"/><line style="stroke: #000000; stroke-width: 1.5;" x1="22" x2="88" y1="116.2969" y2="116.2969"/><text fill="#000000" font-family="sans-serif" font-size="14" font-weight="bold" lengthAdjust="spacingAndGlyphs" textLength="53" x="26" y="108.9951">Server</text><!--MD5=[91550882cf331a9d81ad1b5640a54dff]
class Server.id--><rect fill="#FEFECE" filter="url(#fxyrrmmyfymf3)" height="48" id="Server.id" style="stroke: #A80036; stroke-width: 1.5;" width="43" x="38.5" y="129"/><ellipse cx="53.5" cy="145" fill="#ADD1B2" rx="11" ry="11" style="stroke: #A80036; stroke-width: 1.0;"/><path d="M55.8438,140.6719 L56.0156,140.75 C56.2344,140.4375 56.4375,140.3438 56.7344,140.3438 C57.0313,140.3438 57.3125,140.4844 57.4688,140.75 C57.5625,140.9063 57.5781,141.0313 57.5781,141.4688 L57.5781,142.8906 C57.5781,143.3125 57.5469,143.5 57.4375,143.6563 C57.2656,143.875 57,144.0156 56.7344,144.0156 C56.5156,144.0156 56.2813,143.9063 56.1406,143.7656 C56,143.6406 55.9688,143.5156 55.9063,143.1094 C55.8125,142.7031 55.6406,142.4844 55.1563,142.2031 C54.6875,141.9531 54.0781,141.7969 53.5,141.7969 C51.7656,141.7969 50.5156,143.1094 50.5156,144.8906 L50.5156,145.9844 C50.5156,147.6875 51.8125,148.7813 53.8594,148.7813 C54.625,148.7813 55.3125,148.6563 55.7344,148.3906 C55.9219,148.2969 55.9219,148.2969 56.375,147.8125 C56.5625,147.625 56.7656,147.5469 56.9844,147.5469 C57.4531,147.5469 57.8438,147.9375 57.8438,148.3906 C57.8438,148.7813 57.5156,149.2344 56.9375,149.6406 C56.1875,150.1875 55.0313,150.4844 53.8125,150.4844 C50.9219,150.4844 48.8125,148.5938 48.8125,146.0156 L48.8125,144.8906 C48.8125,142.1719 50.8125,140.0938 53.4375,140.0938 C54.3125,140.0938 54.9063,140.2344 55.8438,140.6719 Z "/><text fill="#000000" font-family="sans-serif" font-size="12" lengthAdjust="spacingAndGlyphs" textLength="11" x="67.5" y="149.1543">id</text><line style="stroke: #A80036; stroke-width: 1.5;" x1="39.5" x2="80.5" y1="161" y2="161"/><line style="stroke: #A80036; stroke-width: 1.5;" x1="39.5" x2="80.5" y1="169" y2="169"/><!--MD5=[f77682fd75c3e1fc6a82f566c0814d0f]
class _0--><rect fill="#FEFECE" filter="url(#fxyrrmmyfymf3)" height="60.8047" id="_0" style="stroke: #A80036; stroke-width: 1.5;" width="105" x="7.5" y="8"/><ellipse cx="42.3" cy="24" fill="#DA70D6" rx="11" ry="11" style="stroke: #A80036; stroke-width: 1.0;"/><path d="M39.5656,27.2969 L39.5656,20.7813 C38.8938,20.7813 38.5188,20.4844 38.5188,19.9375 C38.5188,19.6563 38.675,19.3594 38.925,19.2031 C39.0813,19.1094 39.2063,19.0938 39.6594,19.0938 L43.2688,19.0938 C45.7531,19.0938 47.6438,21.1406 47.6438,23.8125 L47.6438,24.6094 C47.6438,25.8594 47.2375,26.9063 46.4563,27.7188 C45.6281,28.6094 44.6125,29 43.1281,29 L39.6594,29 C39.2531,29 39.0344,28.9531 38.8781,28.8281 C38.6594,28.6719 38.5188,28.4063 38.5188,28.1563 C38.5188,27.6094 38.9094,27.2969 39.5656,27.2969 Z M41.2531,27.2969 L43.1438,27.2969 C44.1594,27.2969 44.7219,27.0938 45.2531,26.5469 C45.7219,26.0313 45.9563,25.4375 45.9563,24.5625 L45.9563,23.7813 C45.9563,22.9844 45.675,22.2344 45.1906,21.6563 C44.675,21.0625 44.0344,20.7813 43.1281,20.7813 L41.2531,20.7813 Z "/><text fill="#000000" font-family="sans-serif" font-size="12" lengthAdjust="spacingAndGlyphs" textLength="29" x="60.7" y="28.1543">User</text><line style="stroke: #A80036; stroke-width: 1.5;" x1="8.5" x2="111.5" y1="40" y2="40"/><ellipse cx="18.5" cy="51" fill="none" rx="3" ry="3" style="stroke: #038048; stroke-width: 1.0;"/><text fill="#000000" font-family="sans-serif" font-size="11" lengthAdjust="spacingAndGlyphs" textLength="18" x="27.5" y="54.2104">id :</text><text fill="#000000" font-family="sans-serif" font-size="11" font-weight="bold" lengthAdjust="spacingAndGlyphs" textLength="57" x="49.5" y="54.2104">Server.id</text><line style="stroke: #A80036; stroke-width: 1.5;" x1="8.5" x2="111.5" y1="60.8047" y2="60.8047"/><!--MD5=[3f710f0fff8a61530167a971f2b24663]
reverse link _0 to Server.id--><path d="M60,82.362 C60,98.086 60,115.2932 60,128.6686 " fill="none" id="_0&lt;-Server.id" style="stroke: #A80036; stroke-width: 1.0;"/><polygon fill="#A80036" points="60,69.058,56,75.058,60,81.058,64,75.058,60,69.058" style="stroke: #A80036; stroke-width: 1.0;"/><text fill="#000000" font-family="sans-serif" font-size="13" lengthAdjust="spacingAndGlyphs" textLength="0" x="59.5125" y="117.9928"/><!--MD5=[cac7a01ec24e9688a17bd8a2ae5e357f]
@startuml


class "User" as _0 << (D,orchid) >> {
+ id : **Server.id**
}
_0  *- - " " Server.id
@enduml

PlantUML version 1.2019.13(Tue Dec 10 17:18:29 UTC 2019)
(GPL source distribution)
Java Runtime: Java(TM) SE Runtime Environment
JVM: Java HotSpot(TM) 64-Bit Server VM
Java Version: 1.7.0_25-b15
Operating System: Linux
Default Encoding: UTF-8
Language: en
Country: US
--></g></svg>