<?xml version="1.0" encoding="UTF-8" standalone="no"?><svg xmlns="http://www.w3.org/2000/svg" xmlns:xlink="http://www.w3.org/1999/xlink" contentScriptType="application/ecmascript" contentStyleType="text/css" height="232px" preserveAspectRatio="none" style="width:306px;height:232px;" version="1.1" viewBox="0 0 306 232" width="306px" zoomAndPan="magnify"><defs><filter height="300%" id="f1i2iwjuou5umt" width="300%" x="-1" y="-1"><feGaussianBlur result="blurOut" stdDeviation="2.0"/><feColorMatrix in="blurOut" result="blurOut2" type="matrix" values="0 0 0 0 0 0 0 0 0 0 0 0 0 0 0 0 0 0 .4 0"/><feOffset dx="4.0" dy="4.0" in="blurOut2" result="blurOut3"/><feBlend in="SourceGraphic" in2="blurOut3" mode="normal"/></filter></defs><g><!--MD5=[f77682fd75c3e1fc6a82f566c0814d0f]
class _0--><rect codeLine="7" fill="#FEFECE" filter="url(#f1i2iwjuou5umt)" height="86.4141" id="_0" style="stroke: #A80036; stroke-width: 1.5;" width="280" x="7" y="7"/><ellipse cx="114.75" cy="23" fill="#DA70D6" rx="11" ry="11" style="stroke: #A80036; stroke-width: 1.0;"/><path d="M112.2656,26.2969 C111.6094,26.2969 111.2188,26.6094 111.2188,27.1563 C111.2188,27.4063 111.3594,27.6719 111.5781,27.8281 C111.7344,27.9531 111.9531,28 112.3594,28 L115.8281,28 C117.3125,28 118.3281,27.6094 119.1563,26.7188 C119.9375,25.9063 120.3438,24.8594 120.3438,23.6094 L120.3438,22.8125 C120.3438,20.1406 118.4531,18.0938 115.9688,18.0938 L112.3594,18.0938 C111.9063,18.0938 111.7813,18.1094 111.625,18.2031 C111.375,18.3594 111.2188,18.6563 111.2188,18.9375 C111.2188,19.4844 111.5938,19.7813 112.2656,19.7813 L112.2656,26.2969 Z M113.9531,26.2969 L113.9531,19.7813 L115.8281,19.7813 C116.7344,19.7813 117.375,20.0625 117.8906,20.6563 C118.375,21.2344 118.6563,21.9844 118.6563,22.7813 L118.6563,23.5625 C118.6563,24.4375 118.4219,25.0313 117.9531,25.5469 C117.4219,26.0938 116.8594,26.2969 115.8438,26.2969 L113.9531,26.2969 Z "/><text fill="#000000" font-family="sans-serif" font-size="12" lengthAdjust="spacingAndGlyphs" textLength="56" x="135.25" y="27.1543">App.User</text><line style="stroke: #A80036; stroke-width: 1.5;" x1="8" x2="286" y1="39" y2="39"/><ellipse cx="18" cy="50" fill="none" rx="3" ry="3" style="stroke: #038048; stroke-width: 1.0;"/><text fill="#000000" font-family="sans-serif" font-size="11" lengthAdjust="spacingAndGlyphs" textLength="37" x="27" y="53.2104">beep :</text><text fill="#000000" font-family="sans-serif" font-size="11" font-weight="bold" lengthAdjust="spacingAndGlyphs" textLength="92" x="68" y="53.2104">Server.ftgyhb</text><ellipse cx="18" cy="62.8047" fill="none" rx="3" ry="3" style="stroke: #038048; stroke-width: 1.0;"/><text fill="#000000" font-family="sans-serif" font-size="11" lengthAdjust="spacingAndGlyphs" textLength="79" x="27" y="66.0151">weuiyfgwihe :</text><text fill="#000000" font-family="sans-serif" font-size="11" font-weight="bold" lengthAdjust="spacingAndGlyphs" textLength="171" x="110" y="66.0151">AnotherApp.AnotherType</text><ellipse cx="18" cy="75.6094" fill="none" rx="3" ry="3" style="stroke: #038048; stroke-width: 1.0;"/><text fill="#000000" font-family="sans-serif" font-size="11" lengthAdjust="spacingAndGlyphs" textLength="79" x="27" y="78.8198">whatever : int</text><line style="stroke: #A80036; stroke-width: 1.5;" x1="8" x2="286" y1="85.4141" y2="85.4141"/><!--MD5=[37d6e5304215b5e345f427169db70937]
class _1--><rect codeLine="12" fill="#FEFECE" filter="url(#f1i2iwjuou5umt)" height="60.8047" id="_1" style="stroke: #A80036; stroke-width: 1.5;" width="114" x="90" y="153"/><ellipse cx="105" cy="169" fill="#DA70D6" rx="11" ry="11" style="stroke: #A80036; stroke-width: 1.0;"/><path d="M102.5156,172.2969 C101.8594,172.2969 101.4688,172.6094 101.4688,173.1563 C101.4688,173.4063 101.6094,173.6719 101.8281,173.8281 C101.9844,173.9531 102.2031,174 102.6094,174 L106.0781,174 C107.5625,174 108.5781,173.6094 109.4063,172.7188 C110.1875,171.9063 110.5938,170.8594 110.5938,169.6094 L110.5938,168.8125 C110.5938,166.1406 108.7031,164.0938 106.2188,164.0938 L102.6094,164.0938 C102.1563,164.0938 102.0313,164.1094 101.875,164.2031 C101.625,164.3594 101.4688,164.6563 101.4688,164.9375 C101.4688,165.4844 101.8438,165.7813 102.5156,165.7813 L102.5156,172.2969 Z M104.2031,172.2969 L104.2031,165.7813 L106.0781,165.7813 C106.9844,165.7813 107.625,166.0625 108.1406,166.6563 C108.625,167.2344 108.9063,167.9844 108.9063,168.7813 L108.9063,169.5625 C108.9063,170.4375 108.6719,171.0313 108.2031,171.5469 C107.6719,172.0938 107.1094,172.2969 106.0938,172.2969 L104.2031,172.2969 Z "/><text fill="#000000" font-family="sans-serif" font-size="12" lengthAdjust="spacingAndGlyphs" textLength="82" x="119" y="173.1543">Server.ftgyhb</text><line style="stroke: #A80036; stroke-width: 1.5;" x1="91" x2="203" y1="185" y2="185"/><ellipse cx="101" cy="196" fill="none" rx="3" ry="3" style="stroke: #038048; stroke-width: 1.0;"/><text fill="#000000" font-family="sans-serif" font-size="11" lengthAdjust="spacingAndGlyphs" textLength="49" x="110" y="199.2104">blah : int</text><line style="stroke: #A80036; stroke-width: 1.5;" x1="91" x2="203" y1="205.8047" y2="205.8047"/><!--MD5=[bde1413f829cc278731640fabc810278]
reverse link _0 to _1--><path codeLine="15" d="M147,106.407 C147,122.3053 147,139.0313 147,152.7402 " fill="none" id="_0-backto-_1" style="stroke: #A80036; stroke-width: 1.0;"/><polygon fill="#A80036" points="147,93.331,143,99.331,147,105.331,151,99.331,147,93.331" style="stroke: #A80036; stroke-width: 1.0;"/><text fill="#000000" font-family="sans-serif" font-size="13" lengthAdjust="spacingAndGlyphs" textLength="24" x="116.1125" y="141.9498">1..1</text><!--MD5=[88b1dfb5fde6df5a9eec750a0901f83c]
@startuml
''''''''''''''''''''''''''''''''''''''''''
''                                      ''
''  AUTOGENERATED CODE - - DO NOT EDIT!  ''
''                                      ''
''''''''''''''''''''''''''''''''''''''''''

class "App.User" as _0 << (D,orchid) >> {
+ beep : **Server.ftgyhb**
+ weuiyfgwihe : **AnotherApp.AnotherType**
+ whatever : int
}
class "Server.ftgyhb" as _1 << (D,orchid) >> {
+ blah : int
}
_0 *- - "1..1 " _1
@enduml

@startuml

class "App.User" as _0 << (D,orchid) >> {
+ beep : **Server.ftgyhb**
+ weuiyfgwihe : **AnotherApp.AnotherType**
+ whatever : int
}
class "Server.ftgyhb" as _1 << (D,orchid) >> {
+ blah : int
}
_0 *- - "1..1 " _1
@enduml

PlantUML version 1.2020.17beta5(Unknown compile time)
(GPL source distribution)
Java Runtime: Java(TM) SE Runtime Environment
JVM: Java HotSpot(TM) 64-Bit Server VM
Default Encoding: UTF-8
Language: en
Country: US
--></g></svg>
