<?xml version="1.0" encoding="UTF-8" standalone="no"?><svg xmlns="http://www.w3.org/2000/svg" xmlns:xlink="http://www.w3.org/1999/xlink" contentScriptType="application/ecmascript" contentStyleType="text/css" height="499px" preserveAspectRatio="none" style="width:451px;height:499px;" version="1.1" viewBox="0 0 451 499" width="451px" zoomAndPan="magnify"><defs><filter height="300%" id="f54ahm99gcz7" width="300%" x="-1" y="-1"><feGaussianBlur result="blurOut" stdDeviation="2.0"/><feColorMatrix in="blurOut" result="blurOut2" type="matrix" values="0 0 0 0 0 0 0 0 0 0 0 0 0 0 0 0 0 0 .4 0"/><feOffset dx="4.0" dy="4.0" in="blurOut2" result="blurOut3"/><feBlend in="SourceGraphic" in2="blurOut3" mode="normal"/></filter></defs><g><text fill="#000000" font-family="sans-serif" font-size="18" lengthAdjust="spacingAndGlyphs" textLength="265" x="104" y="16.708">MY-PROJECT-E2E: End-to-End</text><!--cluster X_0--><rect fill="#FFFAF0" filter="url(#f54ahm99gcz7)" height="182" rx="12.5" ry="12.5" style="stroke: #000000; stroke-width: 1.5;" width="417" x="22" y="306.9531"/><rect fill="#FFFFFF" height="149.7031" rx="12.5" ry="12.5" style="stroke: #FFFFFF; stroke-width: 1.0;" width="411" x="25" y="336.25"/><line style="stroke: #000000; stroke-width: 1.5;" x1="22" x2="439" y1="333.25" y2="333.25"/><text fill="#000000" font-family="sans-serif" font-size="14" lengthAdjust="spacingAndGlyphs" textLength="114" x="173.5" y="323.9482">Internet Banking</text><!--cluster X_1--><rect fill="#FFFAF0" filter="url(#f54ahm99gcz7)" height="107" rx="12.5" ry="12.5" style="stroke: #000000; stroke-width: 1.5;" width="209" x="209.5" y="175.9531"/><rect fill="#FFFFFF" height="74.7031" rx="12.5" ry="12.5" style="stroke: #FFFFFF; stroke-width: 1.0;" width="203" x="212.5" y="205.25"/><line style="stroke: #000000; stroke-width: 1.5;" x1="209.5" x2="418.5" y1="202.25" y2="202.25"/><text fill="#000000" font-family="sans-serif" font-size="14" lengthAdjust="spacingAndGlyphs" textLength="48" x="275.5" y="192.9482">Ledger</text><!--cluster X_2--><rect fill="#FFFAF0" filter="url(#f54ahm99gcz7)" height="107" rx="12.5" ry="12.5" style="stroke: #000000; stroke-width: 1.5;" width="135" x="246.5" y="44.9531"/><rect fill="#FFFFFF" height="74.7031" rx="12.5" ry="12.5" style="stroke: #FFFFFF; stroke-width: 1.0;" width="129" x="249.5" y="74.25"/><line style="stroke: #000000; stroke-width: 1.5;" x1="246.5" x2="381.5" y1="71.25" y2="71.25"/><text fill="#000000" font-family="sans-serif" font-size="14" lengthAdjust="spacingAndGlyphs" textLength="119" x="254.5" y="61.9482">Customer Master</text><rect fill="#FFFAF0" filter="url(#f54ahm99gcz7)" height="40" rx="12.5" ry="12.5" style="stroke: #000000; stroke-width: 1.5;" width="107" x="38" y="395.9531"/><text fill="#000000" font-family="sans-serif" font-size="14" lengthAdjust="spacingAndGlyphs" textLength="97" x="43" y="420.7998">Get Customer</text><rect fill="#FFFAF0" filter="url(#f54ahm99gcz7)" height="40" rx="12.5" ry="12.5" style="stroke: #000000; stroke-width: 1.5;" width="218" x="205" y="432.9531"/><text fill="#000000" font-family="sans-serif" font-size="14" lengthAdjust="spacingAndGlyphs" textLength="208" x="210" y="457.7998">GetAccountByCustomer client</text><rect fill="#FFFAF0" filter="url(#f54ahm99gcz7)" height="40" rx="12.5" ry="12.5" style="stroke: #000000; stroke-width: 1.5;" width="144" x="242" y="357.9531"/><text fill="#000000" font-family="sans-serif" font-size="14" lengthAdjust="spacingAndGlyphs" textLength="134" x="247" y="382.7998">GetCustomer client</text><rect fill="#FFFAF0" filter="url(#f54ahm99gcz7)" height="40" rx="12.5" ry="12.5" style="stroke: #000000; stroke-width: 1.5;" width="177" x="225.5" y="226.9531"/><text fill="#000000" font-family="sans-serif" font-size="14" lengthAdjust="spacingAndGlyphs" textLength="167" x="230.5" y="251.7998">GetAccountByCustomer</text><rect fill="#FFFAF0" filter="url(#f54ahm99gcz7)" height="40" rx="12.5" ry="12.5" style="stroke: #000000; stroke-width: 1.5;" width="103" x="262.5" y="95.9531"/><text fill="#000000" font-family="sans-serif" font-size="14" lengthAdjust="spacingAndGlyphs" textLength="93" x="267.5" y="120.7998">GetCustomer</text><!--link _0 to _1--><path d="M145.035,424.7685 C161.569,427.5429 180.514,430.7219 199.586,433.9222 " fill="none" id="_0-_1" style="stroke: #C0C0C0; stroke-width: 1.0;"/><polygon fill="#C0C0C0" points="204.967,434.8251,196.7527,429.3914,200.0359,433.998,195.4293,437.2811,204.967,434.8251" style="stroke: #C0C0C0; stroke-width: 1.0;"/><!--link _1 to _3--><path d="M212.88,432.8983 C196.564,424.7823 182.131,413.4024 173.25,397.4531 C144.022,344.9661 213.707,296.5781 265.111,269.4971 " fill="none" id="_1-_3" style="stroke: #000000; stroke-width: 1.0;"/><polygon fill="#000000" points="269.713,267.1041,259.8826,267.7071,265.2768,269.4108,263.5732,274.805,269.713,267.1041" style="stroke: #000000; stroke-width: 1.0;"/><!--link _0 to _2--><path d="M145.035,406.8994 C172.369,402.1891 206.295,396.3421 236.486,391.1391 " fill="none" id="_0-_2" style="stroke: #C0C0C0; stroke-width: 1.0;"/><polygon fill="#C0C0C0" points="241.687,390.2431,232.1387,387.8287,236.7595,391.0918,233.4965,395.7126,241.687,390.2431" style="stroke: #C0C0C0; stroke-width: 1.0;"/><!--link _2 to _4--><path d="M272.049,357.8131 C238.413,339.0961 193.586,307.7411 173.25,265.4531 C147.531,211.9711 214.783,164.8261 264.965,138.3931 " fill="none" id="_2-_4" style="stroke: #000000; stroke-width: 1.0;"/><polygon fill="#000000" points="269.459,136.0571,259.6285,136.6576,265.0223,138.3626,263.3173,143.7564,269.459,136.0571" style="stroke: #000000; stroke-width: 1.0;"/><!--
@startuml


title MY-PROJECT-E2E: End-to-End
left to right direction
scale max 16384 height
hide empty description
skinparam state {
  BackgroundColor FloralWhite
  BorderColor Black
  ArrowColor Crimson
}
state "Internet Banking" as X_0 <<highlight>> {
  state "Get Customer" as _0
  state "GetAccountByCustomer client" as _1
  state "GetCustomer client" as _2
}
state "Ledger" as X_1 <<highlight>> {
  state "GetAccountByCustomer" as _3
}
state "Customer Master" as X_2 <<highlight>> {
  state "GetCustomer" as _4
}
_0 -[#silver]-> _1
_1 -[#black]> _3
_0 -[#silver]-> _2
_2 -[#black]> _4
@enduml

PlantUML version 1.2018.02beta13(Unknown compile time)
(GPL source distribution)
Java Runtime: Java(TM) SE Runtime Environment
JVM: Java HotSpot(TM) 64-Bit Server VM
Java Version: 1.7.0_25-b15
Operating System: Linux
Default Encoding: UTF-8
Language: en
Country: US
--></g></svg>