<?xml version="1.0" encoding="UTF-8" standalone="no"?>
<svg xmlns="http://www.w3.org/2000/svg" xmlns:xlink="http://www.w3.org/1999/xlink" contentScriptType="application/ecmascript" contentStyleType="text/css" height="213px" preserveAspectRatio="none" style="width:171px;height:213px;" version="1.1" viewBox="0 0 171 213" width="171px" zoomAndPan="magnify">
  <defs>
    <filter height="300%" id="f4171fxlz61e8" width="300%" x="-1" y="-1">
      <feGaussianBlur result="blurOut" stdDeviation="2.0"/>
      <feColorMatrix in="blurOut" result="blurOut2" type="matrix" values="0 0 0 0 0 0 0 0 0 0 0 0 0 0 0 0 0 0 .4 0"/>
      <feOffset dx="4.0" dy="4.0" in="blurOut2" result="blurOut3"/>
      <feBlend in="SourceGraphic" in2="blurOut3" mode="normal"/>
    </filter>
  </defs>
  <g>
    <!--class _0-->
    <rect fill="#FEFECE" filter="url(#f4171fxlz61e8)" height="73.6094" id="_0" style="stroke: #A80036; stroke-width: 1.5;" width="154" x="6" y="8"/>
    <ellipse cx="48.9" cy="24" fill="#DA70D6" rx="11" ry="11" style="stroke: #A80036; stroke-width: 1.0;"/>
    <path d="M46.1656,27.2969 L46.1656,20.7813 C45.4938,20.7813 45.1188,20.4844 45.1188,19.9375 C45.1188,19.6563 45.275,19.3594 45.525,19.2031 C45.6813,19.1094 45.8063,19.0938 46.2594,19.0938 L49.8688,19.0938 C52.3531,19.0938 54.2438,21.1406 54.2438,23.8125 L54.2438,24.6094 C54.2438,25.8594 53.8375,26.9063 53.0563,27.7188 C52.2281,28.6094 51.2125,29 49.7281,29 L46.2594,29 C45.8531,29 45.6344,28.9531 45.4781,28.8281 C45.2594,28.6719 45.1188,28.4063 45.1188,28.1563 C45.1188,27.6094 45.5094,27.2969 46.1656,27.2969 Z M47.8531,27.2969 L49.7438,27.2969 C50.7594,27.2969 51.3219,27.0938 51.8531,26.5469 C52.3219,26.0313 52.5563,25.4375 52.5563,24.5625 L52.5563,23.7813 C52.5563,22.9844 52.275,22.2344 51.7906,21.6563 C51.275,21.0625 50.6344,20.7813 49.7281,20.7813 L47.8531,20.7813 Z "/>
    <text fill="#000000" font-family="sans-serif" font-size="12" lengthAdjust="spacingAndGlyphs" textLength="60" x="69.1" y="28.1543">Customer</text>
    <line style="stroke: #A80036; stroke-width: 1.5;" x1="7" x2="159" y1="40" y2="40"/>
    <ellipse cx="17" cy="51.9023" fill="none" rx="3" ry="3" style="stroke: #038048; stroke-width: 1.0;"/>
    <text fill="#000000" font-family="sans-serif" font-size="11" lengthAdjust="spacingAndGlyphs" textLength="96" x="26" y="54.2104">customer_id : int</text>
    <ellipse cx="17" cy="64.707" fill="none" rx="3" ry="3" style="stroke: #038048; stroke-width: 1.0;"/>
    <text fill="#000000" font-family="sans-serif" font-size="11" lengthAdjust="spacingAndGlyphs" textLength="46" x="26" y="67.0151">orders :</text>
    <text fill="#000000" font-family="sans-serif" font-size="11" font-weight="bold" lengthAdjust="spacingAndGlyphs" textLength="78" x="76" y="67.0151">set &lt;Order&gt;</text>
    <line style="stroke: #A80036; stroke-width: 1.5;" x1="7" x2="159" y1="73.6094" y2="73.6094"/>
    <!--class _1-->
    <rect fill="#FEFECE" filter="url(#f4171fxlz61e8)" height="60.8047" id="_1" style="stroke: #A80036; stroke-width: 1.5;" width="99" x="33.5" y="142"/>
    <ellipse cx="62.9" cy="158" fill="#DA70D6" rx="11" ry="11" style="stroke: #A80036; stroke-width: 1.0;"/>
    <path d="M60.1656,161.2969 L60.1656,154.7813 C59.4938,154.7813 59.1188,154.4844 59.1188,153.9375 C59.1188,153.6563 59.275,153.3594 59.525,153.2031 C59.6813,153.1094 59.8063,153.0938 60.2594,153.0938 L63.8688,153.0938 C66.3531,153.0938 68.2438,155.1406 68.2438,157.8125 L68.2438,158.6094 C68.2438,159.8594 67.8375,160.9063 67.0563,161.7188 C66.2281,162.6094 65.2125,163 63.7281,163 L60.2594,163 C59.8531,163 59.6344,162.9531 59.4781,162.8281 C59.2594,162.6719 59.1188,162.4063 59.1188,162.1563 C59.1188,161.6094 59.5094,161.2969 60.1656,161.2969 Z M61.8531,161.2969 L63.7438,161.2969 C64.7594,161.2969 65.3219,161.0938 65.8531,160.5469 C66.3219,160.0313 66.5563,159.4375 66.5563,158.5625 L66.5563,157.7813 C66.5563,156.9844 66.275,156.2344 65.7906,155.6563 C65.275,155.0625 64.6344,154.7813 63.7281,154.7813 L61.8531,154.7813 Z "/>
    <text fill="#000000" font-family="sans-serif" font-size="12" lengthAdjust="spacingAndGlyphs" textLength="35" x="80.1" y="162.1543">Order</text>
    <line style="stroke: #A80036; stroke-width: 1.5;" x1="34.5" x2="131.5" y1="174" y2="174"/>
    <ellipse cx="44.5" cy="185.9023" fill="none" rx="3" ry="3" style="stroke: #038048; stroke-width: 1.0;"/>
    <text fill="#000000" font-family="sans-serif" font-size="11" lengthAdjust="spacingAndGlyphs" textLength="73" x="53.5" y="188.2104">order_id : int</text>
    <line style="stroke: #A80036; stroke-width: 1.5;" x1="34.5" x2="131.5" y1="194.8047" y2="194.8047"/>
    <!--link _0 to _1-->
    <path d="M83,95.589 C83,111.1593 83,127.8615 83,141.624 " fill="none" id="_0-_1" style="stroke: #A80036; stroke-width: 1.0;"/>
    <polygon fill="#A80036" points="83,82.3,79,88.3,83,94.3,87,88.3,83,82.3" style="stroke: #A80036; stroke-width: 1.0;"/>
    <text fill="#000000" font-family="sans-serif" font-size="13" lengthAdjust="spacingAndGlyphs" textLength="23" x="57.6281" y="130.8097">0..*</text>
    <!--
@startuml


class "Customer" as _0 << (D,orchid) >> {
+ customer_id : int
+ orders : **set <Order>**
}
class "Order" as _1 << (D,orchid) >> {
+ order_id : int
}
_0  *- - "0..*" _1
@enduml

PlantUML version 1.2018.02(Fri Mar 09 17:20:44 UTC 2018)
(GPL source distribution)
Java Runtime: Java(TM) SE Runtime Environment
JVM: Java HotSpot(TM) 64-Bit Server VM
Java Version: 1.7.0_25-b15
Operating System: Linux
Default Encoding: UTF-8
Language: en
Country: US
-->
  </g>
</svg>
