<?xml version="1.0" encoding="UTF-8" standalone="no"?>
<svg xmlns="http://www.w3.org/2000/svg" xmlns:xlink="http://www.w3.org/1999/xlink" contentScriptType="application/ecmascript" contentStyleType="text/css" height="479px" preserveAspectRatio="none" style="width:289px;height:479px;" version="1.1" viewBox="0 0 289 479" width="289px" zoomAndPan="magnify">
  <defs>
    <filter height="300%" id="f1tasg9ypaxiow" width="300%" x="-1" y="-1">
      <feGaussianBlur result="blurOut" stdDeviation="2.0"/>
      <feColorMatrix in="blurOut" result="blurOut2" type="matrix" values="0 0 0 0 0 0 0 0 0 0 0 0 0 0 0 0 0 0 .4 0"/>
      <feOffset dx="4.0" dy="4.0" in="blurOut2" result="blurOut3"/>
      <feBlend in="SourceGraphic" in2="blurOut3" mode="normal"/>
    </filter>
  </defs>
  <g>
    <!--cluster X_0-->
    <rect fill="#FFFAF0" filter="url(#f1tasg9ypaxiow)" height="107" rx="12.5" ry="12.5" style="stroke: #000000; stroke-width: 1.5;" width="104" x="152.5" y="155"/>
    <rect fill="#FFFFFF" height="74.7031" rx="12.5" ry="12.5" style="stroke: #FFFFFF; stroke-width: 1.0;" width="98" x="155.5" y="184.2969"/>
    <line style="stroke: #000000; stroke-width: 1.5;" x1="152.5" x2="256.5" y1="181.2969" y2="181.2969"/>
    <text fill="#000000" font-family="sans-serif" font-size="14" lengthAdjust="spacingAndGlyphs" textLength="60" x="166" y="171.9951">System2</text>
    <!--cluster X_1-->
    <rect fill="#FFFAF0" filter="url(#f1tasg9ypaxiow)" height="182" rx="12.5" ry="12.5" style="stroke: #000000; stroke-width: 1.5;" width="255" x="22" y="286"/>
    <rect fill="#FFFFFF" height="149.7031" rx="12.5" ry="12.5" style="stroke: #FFFFFF; stroke-width: 1.0;" width="249" x="25" y="315.2969"/>
    <line style="stroke: #000000; stroke-width: 1.5;" x1="22" x2="277" y1="312.2969" y2="312.2969"/>
    <text fill="#000000" font-family="sans-serif" font-size="14" lengthAdjust="spacingAndGlyphs" textLength="122" x="88.5" y="302.9951">IntegratedSystem</text>
    <!--cluster X_2-->
    <rect fill="#FFFAF0" filter="url(#f1tasg9ypaxiow)" height="107" rx="12.5" ry="12.5" style="stroke: #000000; stroke-width: 1.5;" width="104" x="152.5" y="24"/>
    <rect fill="#FFFFFF" height="74.7031" rx="12.5" ry="12.5" style="stroke: #FFFFFF; stroke-width: 1.0;" width="98" x="155.5" y="53.2969"/>
    <line style="stroke: #000000; stroke-width: 1.5;" x1="152.5" x2="256.5" y1="50.2969" y2="50.2969"/>
    <text fill="#000000" font-family="sans-serif" font-size="14" lengthAdjust="spacingAndGlyphs" textLength="60" x="166" y="40.9951">System1</text>
    <rect fill="#FFFAF0" filter="url(#f1tasg9ypaxiow)" height="40" rx="12.5" ry="12.5" style="stroke: #000000; stroke-width: 1.5;" width="72" x="168.5" y="206"/>
    <text fill="#000000" font-family="sans-serif" font-size="14" lengthAdjust="spacingAndGlyphs" textLength="62" x="173.5" y="230.8467">endpoint</text>
    <rect fill="#FFFAF0" filter="url(#f1tasg9ypaxiow)" height="40" rx="12.5" ry="12.5" style="stroke: #000000; stroke-width: 1.5;" width="113" x="148" y="337"/>
    <text fill="#000000" font-family="sans-serif" font-size="14" lengthAdjust="spacingAndGlyphs" textLength="103" x="153" y="361.8467">endpoint client</text>
    <rect fill="#FFFAF0" filter="url(#f1tasg9ypaxiow)" height="40" rx="12.5" ry="12.5" style="stroke: #000000; stroke-width: 1.5;" width="50" x="38" y="337"/>
    <text fill="#000000" font-family="sans-serif" font-size="14" lengthAdjust="spacingAndGlyphs" textLength="16" x="55" y="361.8467">_2</text>
    <rect fill="#FFFAF0" filter="url(#f1tasg9ypaxiow)" height="40" rx="12.5" ry="12.5" style="stroke: #000000; stroke-width: 1.5;" width="50" x="38" y="412"/>
    <text fill="#000000" font-family="sans-serif" font-size="14" lengthAdjust="spacingAndGlyphs" textLength="16" x="55" y="436.8467">_1</text>
    <rect fill="#FFFAF0" filter="url(#f1tasg9ypaxiow)" height="40" rx="12.5" ry="12.5" style="stroke: #000000; stroke-width: 1.5;" width="72" x="168.5" y="75"/>
    <text fill="#000000" font-family="sans-serif" font-size="14" lengthAdjust="spacingAndGlyphs" textLength="62" x="173.5" y="99.8467">endpoint</text>
    <!--link _2 to _1-->
    <path d="M88.299,357 C103.3546,357 123.414,357 142.572,357 " fill="none" id="_2-_1" style="stroke: #C0C0C0; stroke-width: 1.0;"/>
    <polygon fill="#C0C0C0" points="147.946,357,138.946,353,142.946,357,138.946,361,147.946,357" style="stroke: #C0C0C0; stroke-width: 1.0;"/>
    <!--link _1 to _0-->
    <path d="M204.5,336.787 C204.5,308.405 204.5,280.022 204.5,251.639 " fill="none" id="_1-_0" style="stroke: #000000; stroke-width: 1.0;"/>
    <polygon fill="#000000" points="204.5,246.34,200.5,255.34,204.5,251.34,208.5,255.34,204.5,246.34" style="stroke: #000000; stroke-width: 1.0;"/>
    <!--link _3 to _1-->
    <path d="M88.299,418.936 C108.508,408.0708 137.734,392.3582 161.691,379.478 " fill="none" id="_3-_1" style="stroke: #C0C0C0; stroke-width: 1.0;"/>
    <polygon fill="#C0C0C0" points="166.099,377.108,156.2778,377.8454,161.6948,379.4751,160.0651,384.8921,166.099,377.108" style="stroke: #C0C0C0; stroke-width: 1.0;"/>
    <!--link _1 to _4-->
    <path d="M178.686,336.78 C146.864,309.204 98.9801,257.496 116.25,207.5 C128.432,172.234 156.73,139.598 178.021,118.661 " fill="none" id="_1-_4" style="stroke: #000000; stroke-width: 1.0;"/>
    <polygon fill="#000000" points="181.642,115.147,172.3985,118.5466,178.0547,118.63,177.9713,124.2862,181.642,115.147" style="stroke: #000000; stroke-width: 1.0;"/>
    <!--
@startuml


left to right direction
scale max 16384 height
hide empty description
skinparam state {
  BackgroundColor FloralWhite
  BorderColor Black
  ArrowColor Crimson
}
state "System2" as X_0 <<highlight>> {
  state "endpoint" as _0
}
state "IntegratedSystem" as X_1 <<highlight>> {
  state "endpoint client" as _1
  state "_2" as _2
  state "_1" as _3
}
state "System1" as X_2 <<highlight>> {
  state "endpoint" as _4
}
_2 -[#silver]-> _1
_1 -[#black]> _0
_3 -[#silver]-> _1
_1 -[#black]> _4
@enduml

PlantUML version 1.2018.02(Fri Mar 09 17:20:44 UTC 2018)
(GPL source distribution)
Java Runtime: Java(TM) SE Runtime Environment
JVM: Java HotSpot(TM) 64-Bit Server VM
Java Version: 1.7.0_25-b15
Operating System: Linux
Default Encoding: UTF-8
Language: en
Country: US
-->
  </g>
</svg>
