<?xml version="1.0" encoding="UTF-8" standalone="no"?>
<svg xmlns="http://www.w3.org/2000/svg" xmlns:xlink="http://www.w3.org/1999/xlink" contentScriptType="application/ecmascript" contentStyleType="text/css" height="406px" preserveAspectRatio="none" style="width:474px;height:406px;" version="1.1" viewBox="0 0 474 406" width="474px" zoomAndPan="magnify">
  <defs>
    <filter height="300%" id="fwvw77zj91v9c" width="300%" x="-1" y="-1">
      <feGaussianBlur result="blurOut" stdDeviation="2.0"/>
      <feColorMatrix in="blurOut" result="blurOut2" type="matrix" values="0 0 0 0 0 0 0 0 0 0 0 0 0 0 0 0 0 0 .4 0"/>
      <feOffset dx="4.0" dy="4.0" in="blurOut2" result="blurOut3"/>
      <feBlend in="SourceGraphic" in2="blurOut3" mode="normal"/>
    </filter>
  </defs>
  <g>
    <text fill="#000000" font-family="sans-serif" font-size="14" font-weight="bold" lengthAdjust="spacingAndGlyphs" textLength="51" x="207" y="22.9951">Profile</text>
    <rect fill="#FFFFFF" filter="url(#fwvw77zj91v9c)" height="145.6641" style="stroke: #A80036; stroke-width: 1.0;" width="10" x="113" y="169.8594"/>
    <rect fill="#FFFFFF" filter="url(#fwvw77zj91v9c)" height="87.3984" style="stroke: #A80036; stroke-width: 1.0;" width="10" x="319" y="198.9922"/>
    <rect fill="#FFFFFF" filter="url(#fwvw77zj91v9c)" height="29.1328" style="stroke: #A80036; stroke-width: 1.0;" width="10" x="416" y="228.125"/>
    <line style="stroke: #A80036; stroke-width: 1.0; stroke-dasharray: 5.0,5.0;" x1="118" x2="118" y1="95.5938" y2="333.5234"/>
    <line style="stroke: #A80036; stroke-width: 1.0; stroke-dasharray: 5.0,5.0;" x1="324" x2="324" y1="95.5938" y2="333.5234"/>
    <line style="stroke: #A80036; stroke-width: 1.0; stroke-dasharray: 5.0,5.0;" x1="421" x2="421" y1="95.5938" y2="333.5234"/>
    <text fill="#000000" font-family="sans-serif" font-size="14" lengthAdjust="spacingAndGlyphs" textLength="94" x="68" y="92.292">WebFrontend</text>
    <ellipse cx="118" cy="63.2969" fill="#FEFECE" filter="url(#fwvw77zj91v9c)" rx="12" ry="12" style="stroke: #A80036; stroke-width: 2.0;"/>
    <polygon fill="#A80036" points="114,51.2969,120,46.2969,118,51.2969,120,56.2969,114,51.2969" style="stroke: #A80036; stroke-width: 1.0;"/>
    <text fill="#000000" font-family="sans-serif" font-size="14" lengthAdjust="spacingAndGlyphs" textLength="94" x="68" y="345.5186">WebFrontend</text>
    <ellipse cx="118" cy="364.8203" fill="#FEFECE" filter="url(#fwvw77zj91v9c)" rx="12" ry="12" style="stroke: #A80036; stroke-width: 2.0;"/>
    <polygon fill="#A80036" points="114,352.8203,120,347.8203,118,352.8203,120,357.8203,114,352.8203" style="stroke: #A80036; stroke-width: 1.0;"/>
    <text fill="#000000" font-family="sans-serif" font-size="14" lengthAdjust="spacingAndGlyphs" textLength="21" x="310.5" y="92.292">Api</text>
    <ellipse cx="324" cy="63.2969" fill="#FEFECE" filter="url(#fwvw77zj91v9c)" rx="12" ry="12" style="stroke: #A80036; stroke-width: 2.0;"/>
    <polygon fill="#A80036" points="320,51.2969,326,46.2969,324,51.2969,326,56.2969,320,51.2969" style="stroke: #A80036; stroke-width: 1.0;"/>
    <text fill="#000000" font-family="sans-serif" font-size="14" lengthAdjust="spacingAndGlyphs" textLength="21" x="310.5" y="345.5186">Api</text>
    <ellipse cx="324" cy="364.8203" fill="#FEFECE" filter="url(#fwvw77zj91v9c)" rx="12" ry="12" style="stroke: #A80036; stroke-width: 2.0;"/>
    <polygon fill="#A80036" points="320,352.8203,326,347.8203,324,352.8203,326,357.8203,320,352.8203" style="stroke: #A80036; stroke-width: 1.0;"/>
    <text fill="#000000" font-family="sans-serif" font-size="14" lengthAdjust="spacingAndGlyphs" textLength="66" x="385" y="92.292">Database</text>
    <path d="M403,43.2969 C403,33.2969 421,33.2969 421,33.2969 C421,33.2969 439,33.2969 439,43.2969 L439,69.2969 C439,79.2969 421,79.2969 421,79.2969 C421,79.2969 403,79.2969 403,69.2969 L403,43.2969 " fill="#FEFECE" filter="url(#fwvw77zj91v9c)" style="stroke: #000000; stroke-width: 1.5;"/>
    <path d="M403,43.2969 C403,53.2969 421,53.2969 421,53.2969 C421,53.2969 439,53.2969 439,43.2969 " fill="none" style="stroke: #000000; stroke-width: 1.5;"/>
    <text fill="#000000" font-family="sans-serif" font-size="14" lengthAdjust="spacingAndGlyphs" textLength="66" x="385" y="345.5186">Database</text>
    <path d="M403,358.8203 C403,348.8203 421,348.8203 421,348.8203 C421,348.8203 439,348.8203 439,358.8203 L439,384.8203 C439,394.8203 421,394.8203 421,394.8203 C421,394.8203 403,394.8203 403,384.8203 L403,358.8203 " fill="#FEFECE" filter="url(#fwvw77zj91v9c)" style="stroke: #000000; stroke-width: 1.5;"/>
    <path d="M403,358.8203 C403,368.8203 421,368.8203 421,368.8203 C421,368.8203 439,368.8203 439,358.8203 " fill="none" style="stroke: #000000; stroke-width: 1.5;"/>
    <rect fill="#FFFFFF" filter="url(#fwvw77zj91v9c)" height="145.6641" style="stroke: #A80036; stroke-width: 1.0;" width="10" x="113" y="169.8594"/>
    <rect fill="#FFFFFF" filter="url(#fwvw77zj91v9c)" height="87.3984" style="stroke: #A80036; stroke-width: 1.0;" width="10" x="319" y="198.9922"/>
    <rect fill="#FFFFFF" filter="url(#fwvw77zj91v9c)" height="29.1328" style="stroke: #A80036; stroke-width: 1.0;" width="10" x="416" y="228.125"/>
    <rect fill="#EEEEEE" filter="url(#fwvw77zj91v9c)" height="3" style="stroke: #EEEEEE; stroke-width: 1.0;" width="459" x="3" y="126.1602"/>
    <line style="stroke: #000000; stroke-width: 1.0;" x1="3" x2="462" y1="126.1602" y2="126.1602"/>
    <line style="stroke: #000000; stroke-width: 1.0;" x1="3" x2="462" y1="129.1602" y2="129.1602"/>
    <rect fill="#EEEEEE" filter="url(#fwvw77zj91v9c)" height="23.1328" style="stroke: #000000; stroke-width: 2.0;" width="254" x="105.5" y="115.5938"/>
    <text fill="#000000" font-family="sans-serif" font-size="13" font-weight="bold" lengthAdjust="spacingAndGlyphs" textLength="235" x="111.5" y="131.6606">WebFrontend &lt;- RequestProfile</text>
    <polygon fill="#A80036" points="101,165.8594,111,169.8594,101,173.8594,105,169.8594" style="stroke: #A80036; stroke-width: 1.0;"/>
    <line style="stroke: #A80036; stroke-width: 1.0;" x1="3" x2="107" y1="169.8594" y2="169.8594"/>
    <text fill="#000000" font-family="sans-serif" font-size="13" lengthAdjust="spacingAndGlyphs" textLength="91" x="10" y="164.7935">RequestProfile</text>
    <polygon fill="#A80036" points="307,194.9922,317,198.9922,307,202.9922,311,198.9922" style="stroke: #A80036; stroke-width: 1.0;"/>
    <line style="stroke: #A80036; stroke-width: 1.0;" x1="123" x2="313" y1="198.9922" y2="198.9922"/>
    <text fill="#000000" font-family="sans-serif" font-size="13" lengthAdjust="spacingAndGlyphs" textLength="177" x="130" y="193.9263">GET /users/{user_id}/profile</text>
    <polygon fill="#A80036" points="404,224.125,414,228.125,404,232.125,408,228.125" style="stroke: #A80036; stroke-width: 1.0;"/>
    <line style="stroke: #A80036; stroke-width: 1.0;" x1="329" x2="410" y1="228.125" y2="228.125"/>
    <text fill="#000000" font-family="sans-serif" font-size="13" lengthAdjust="spacingAndGlyphs" textLength="68" x="336" y="223.0591">QueryUser</text>
    <polygon fill="#A80036" points="340,253.2578,330,257.2578,340,261.2578,336,257.2578" style="stroke: #A80036; stroke-width: 1.0;"/>
    <line style="stroke: #A80036; stroke-width: 1.0; stroke-dasharray: 2.0,2.0;" x1="334" x2="420" y1="257.2578" y2="257.2578"/>
    <text fill="#000000" font-family="sans-serif" font-size="13" lengthAdjust="spacingAndGlyphs" textLength="30" x="346" y="252.1919">User</text>
    <polygon fill="#A80036" points="134,282.3906,124,286.3906,134,290.3906,130,286.3906" style="stroke: #A80036; stroke-width: 1.0;"/>
    <line style="stroke: #A80036; stroke-width: 1.0; stroke-dasharray: 2.0,2.0;" x1="128" x2="323" y1="286.3906" y2="286.3906"/>
    <text fill="#000000" font-family="sans-serif" font-size="13" lengthAdjust="spacingAndGlyphs" textLength="69" x="140" y="281.3247">UserProfile</text>
    <polygon fill="#A80036" points="14,311.5234,4,315.5234,14,319.5234,10,315.5234" style="stroke: #A80036; stroke-width: 1.0;"/>
    <line style="stroke: #A80036; stroke-width: 1.0; stroke-dasharray: 2.0,2.0;" x1="8" x2="117" y1="315.5234" y2="315.5234"/>
    <text fill="#000000" font-family="sans-serif" font-size="13" lengthAdjust="spacingAndGlyphs" textLength="75" x="20" y="310.4575">Profile Page</text>
  </g>
</svg>
