<svg viewBox="0 0 1333.3333 1333.3333" height="60" width="60" version="1.1" xmlns="http://www.w3.org/2000/svg">
  <g transform="matrix(1.3333333,0,0,-1.3333333,0,1333.3333)">
    <g transform="scale(0.1)">
      <path style="fill:white;fill-opacity:0;fill-rule:nonzero;stroke:none" d="M 10000,0 H 0 V 10000 H 10000 V 0" />
      <path style="fill:#b71c1c;fill-opacity:1;fill-rule:nonzero;stroke:none" d="m 3837.4,6697.92 c 0,0 -8.55,-17.36 -23.62,-49.94 -7.52,-16.29 -16.42,-36.4 -26.57,-60.04 -5.01,-11.82 -10.2,-24.54 -15.46,-38.1 -5.45,-13.57 -10.99,-27.99 -16.51,-43.23 -61.09,-164.45 -89.8,-334.8 -100.56,-507.51 -10.26,-244.14 30.7,-485.32 88.73,-723.7 36.16,-137.77 77.4,-274.11 121.46,-410.1 46.78,-141.54 95.69,-282.52 143.18,-423.88 46.61,-140.51 91.02,-281.3 130.24,-423.53 34.81,-135.6 48.42,-207.95 67.62,-345.88 26.69,-244.9 31.39,-544.94 -39.02,-783.05 -62.13,-180.86 -83.52,-287.72 -207.09,-441.86 -24.25,-30.14 -47.58,-57 -68.79,-80.35 -10.59,-11.67 -20.57,-22.47 -29.86,-32.36 -9.44,-9.88 -18.16,-18.85 -26.06,-26.89 -31.6,-32.14 -37.88,-36.86 -50.41,-49.23 -3.35,-3.3 -68.14,-60.94 -68.14,-60.94 0,0 8.43,17.36 23.32,49.95 3.73,8.15 7.79,17.25 12.11,27.27 4.48,10.02 9.23,20.95 14.14,32.78 9.79,23.65 20.52,50.85 31.61,81.34 59.51,165.24 88.68,334.43 99.21,507.54 11.17,243.72 -31.01,485.76 -88.55,723.69 -35.86,137.78 -76.98,274.1 -120.81,410.09 -46.35,141.51 -94.5,282.55 -141.68,423.84 -46.29,140.46 -89.95,281.29 -128.73,423.49 -34.58,135.59 -62.94,271.1 -81.83,409.04 -26.28,244.83 -16.05,481.81 54.06,719.87 61.58,180.07 149.82,349.76 273.87,502.85 12.15,15.06 23.97,29.31 35.33,42.72 11.54,13.4 22.62,25.96 33.1,37.63 20.85,23.36 39.88,43.19 55.6,59.26" />
      <path style="fill:#b71c1c;fill-opacity:1;fill-rule:nonzero;stroke:none" d="m 5427.43,8783.54 c 0,0 -17.39,-27.62 -48.35,-79.63 -15.46,-26.01 -33.91,-58.16 -55.06,-96.04 -10.48,-18.95 -21.4,-39.36 -32.61,-61.19 -11.51,-21.8 -23.31,-45.01 -35.24,-69.61 -131.23,-265.09 -209.18,-545.76 -257.44,-833.51 -59.93,-407.64 -33.44,-819.29 22.17,-1229.2 36.53,-237.38 81.84,-473.26 131.94,-709.02 53.68,-245.55 111.03,-490.55 165.95,-735.92 53.58,-243.79 103.41,-487.68 144.3,-733.07 34.66,-233.5 44.83,-357.22 52.89,-591.89 1.9,-415.38 -42.71,-919.38 -202.46,-1306.38 -135.84,-292.43 -190.4,-467.89 -424.61,-704.78 -45.95,-46.3 -89.77,-87.27 -129.43,-122.71 -19.79,-17.73 -38.43,-34.08 -55.72,-49.04 -17.57,-14.92 -33.77,-28.45 -48.42,-40.54 -58.62,-48.37 -69.97,-55.19 -93.15,-73.74 -6.21,-4.96 -124.94,-90.28 -124.94,-90.28 0,0 17.17,27.65 47.84,79.69 7.68,13.01 16.09,27.56 25.09,43.61 9.26,16.01 19.14,33.53 29.45,52.5 20.55,37.95 43.31,81.69 67.24,130.88 128.72,266.71 207.25,545.34 255.19,833.81 61.38,406.78 32.98,820.06 -21.88,1229.16 -36.03,237.33 -81.14,473.14 -130.85,708.87 -52.97,245.43 -109.03,490.38 -163.44,735.59 -53.05,243.66 -101.63,487.48 -141.78,732.75 -34.27,233.42 -58.11,465.64 -65.67,700.29 -1.24,415.18 57.39,810.82 216.62,1197.79 134.79,291.21 312.47,560.35 547.29,795.37 23.01,23.15 45.32,44.98 66.72,65.47 21.7,20.46 42.47,39.57 62.1,57.32 39.05,35.52 74.43,65.45 103.61,89.65" />
      <path style="fill:#b71c1c;fill-opacity:1;fill-rule:nonzero;stroke:none" d="m 6357.09,7491.5 c 0,0 -9.33,-16.95 -25.86,-48.82 -8.25,-15.93 -18.06,-35.61 -29.27,-58.76 -5.55,-11.59 -11.31,-24.05 -17.19,-37.37 -6.05,-13.3 -12.24,-27.45 -18.44,-42.43 -68.51,-161.5 -104.93,-330.37 -123.53,-502.41 -21.34,-243.42 8.61,-486.22 55.75,-726.98 29.85,-139.27 64.86,-277.36 102.69,-415.2 40.3,-143.52 82.75,-286.58 123.77,-429.95 40.17,-142.49 78.13,-285.15 110.85,-429.02 28.61,-137.04 38.92,-209.94 51.83,-348.59 15.53,-245.86 6.59,-545.81 -74.58,-780.47 -70.28,-177.85 -96.5,-283.62 -226.96,-431.99 -25.59,-29.01 -50.11,-54.78 -72.37,-77.14 -11.1,-11.18 -21.57,-21.51 -31.29,-30.96 -9.88,-9.45 -19,-18.02 -27.26,-25.69 -33.03,-30.66 -39.51,-35.1 -52.59,-46.88 -3.5,-3.15 -70.84,-57.79 -70.84,-57.79 0,0 9.2,16.97 25.56,48.85 4.1,7.96 8.57,16.87 13.34,26.68 4.93,9.81 10.17,20.52 15.62,32.11 10.85,23.18 22.81,49.87 35.27,79.82 66.96,162.37 103.79,330.06 122.18,502.5 22.23,242.97 -8.91,486.67 -55.57,726.98 -29.56,139.26 -64.44,277.3 -102.05,415.15 -39.87,143.47 -81.55,286.55 -122.27,429.84 -39.85,142.42 -77.07,285.09 -109.34,428.91 -28.39,137.01 -50.55,273.67 -63.16,412.33 -15.13,245.77 5.87,482.04 86.72,716.67 69.71,177.09 165.57,342.59 296.45,489.88 12.83,14.5 25.28,28.2 37.23,41.07 12.14,12.86 23.78,24.9 34.78,36.09 21.89,22.38 41.8,41.33 58.24,56.67" />
    </g>
  </g>
</svg>