<?xml version="1.0" encoding="UTF-8" standalone="no"?><svg xmlns="http://www.w3.org/2000/svg" xmlns:xlink="http://www.w3.org/1999/xlink" contentScriptType="application/ecmascript" contentStyleType="text/css" height="237px" preserveAspectRatio="none" style="width:665px;height:237px;" version="1.1" viewBox="0 0 665 237" width="665px" zoomAndPan="magnify"><defs><filter height="300%" id="f195nrcs4h26v1" width="300%" x="-1" y="-1"><feGaussianBlur result="blurOut" stdDeviation="2.0"/><feColorMatrix in="blurOut" result="blurOut2" type="matrix" values="0 0 0 0 0 0 0 0 0 0 0 0 0 0 0 0 0 0 .4 0"/><feOffset dx="4.0" dy="4.0" in="blurOut2" result="blurOut3"/><feBlend in="SourceGraphic" in2="blurOut3" mode="normal"/></filter></defs><g><!--MD5=[7218ca274122d4b22d92dbfd01e1f3f5]
class Source.Bar--><rect fill="#FEFECE" filter="url(#f195nrcs4h26v1)" height="86.4141" id="Source.Bar" style="stroke: #A80036; stroke-width: 1.5;" width="110" x="536" y="7"/><ellipse cx="555.05" cy="23" fill="#DA70D6" rx="11" ry="11" style="stroke: #A80036; stroke-width: 1.0;"/><path d="M559.1594,29 L551.4406,29 L551.4406,16.6094 L559.1594,16.6094 L559.1594,18.7656 L553.8938,18.7656 L553.8938,21.4375 L558.6594,21.4375 L558.6594,23.5938 L553.8938,23.5938 L553.8938,26.8438 L559.1594,26.8438 L559.1594,29 Z "/><text fill="#000000" font-family="sans-serif" font-size="12" lengthAdjust="spacingAndGlyphs" textLength="69" x="569.95" y="27.1543">Source.Bar</text><line style="stroke: #A80036; stroke-width: 1.5;" x1="537" x2="645" y1="39" y2="39"/><ellipse cx="547" cy="50" fill="#000000" rx="3" ry="3" style="stroke: #000000; stroke-width: 1.0;"/><text fill="#000000" font-family="sans-serif" font-size="11" lengthAdjust="spacingAndGlyphs" textLength="52" x="556" y="53.2104">a : string</text><line style="stroke: #A80036; stroke-width: 1.0;" x1="537" x2="645" y1="59.8047" y2="59.8047"/><ellipse cx="547" cy="70.8047" fill="#000000" rx="3" ry="3" style="stroke: #000000; stroke-width: 1.0;"/><text fill="#000000" font-family="sans-serif" font-size="11" lengthAdjust="spacingAndGlyphs" textLength="14" x="556" y="74.0151">x :</text><text fill="#000000" font-family="sans-serif" font-size="11" font-weight="bold" lengthAdjust="spacingAndGlyphs" textLength="35" x="574" y="74.0151">Foo.x</text><text fill="#000000" font-family="sans-serif" font-size="11" lengthAdjust="spacingAndGlyphs" textLength="27" x="613" y="74.0151">«FK»</text><text fill="#000000" font-family="sans-serif" font-size="11" lengthAdjust="spacingAndGlyphs" textLength="33" x="556" y="86.8198">b : int</text><!--MD5=[e986452442f8854676d2ac2b2c7cb603]
class B.FetchResponse--><rect fill="#FEFECE" filter="url(#f195nrcs4h26v1)" height="65.6094" id="B.FetchResponse" style="stroke: #A80036; stroke-width: 1.5;" width="141" x="7.5" y="17"/><ellipse cx="22.5" cy="33" fill="#DA70D6" rx="11" ry="11" style="stroke: #A80036; stroke-width: 1.0;"/><path d="M26.6094,39 L18.8906,39 L18.8906,26.6094 L26.6094,26.6094 L26.6094,28.7656 L21.3438,28.7656 L21.3438,31.4375 L26.1094,31.4375 L26.1094,33.5938 L21.3438,33.5938 L21.3438,36.8438 L26.6094,36.8438 L26.6094,39 Z "/><text fill="#000000" font-family="sans-serif" font-size="12" lengthAdjust="spacingAndGlyphs" textLength="109" x="36.5" y="37.1543">B.FetchResponse</text><line style="stroke: #A80036; stroke-width: 1.5;" x1="8.5" x2="147.5" y1="49" y2="49"/><ellipse cx="18.5" cy="60" fill="#000000" rx="3" ry="3" style="stroke: #000000; stroke-width: 1.0;"/><text fill="#000000" font-family="sans-serif" font-size="11" lengthAdjust="spacingAndGlyphs" textLength="39" x="27.5" y="63.2104">by : int</text><ellipse cx="18.5" cy="72.8047" fill="#000000" rx="3" ry="3" style="stroke: #000000; stroke-width: 1.0;"/><text fill="#000000" font-family="sans-serif" font-size="11" lengthAdjust="spacingAndGlyphs" textLength="39" x="27.5" y="76.0151">bx : int</text><!--MD5=[d27add52d1c8032bc3c5a0b9605083d9]
class A.FetchResponse--><rect fill="#FEFECE" filter="url(#f195nrcs4h26v1)" height="65.6094" id="A.FetchResponse" style="stroke: #A80036; stroke-width: 1.5;" width="141" x="183.5" y="17"/><ellipse cx="198.5" cy="33" fill="#DA70D6" rx="11" ry="11" style="stroke: #A80036; stroke-width: 1.0;"/><path d="M202.6094,39 L194.8906,39 L194.8906,26.6094 L202.6094,26.6094 L202.6094,28.7656 L197.3438,28.7656 L197.3438,31.4375 L202.1094,31.4375 L202.1094,33.5938 L197.3438,33.5938 L197.3438,36.8438 L202.6094,36.8438 L202.6094,39 Z "/><text fill="#000000" font-family="sans-serif" font-size="12" lengthAdjust="spacingAndGlyphs" textLength="109" x="212.5" y="37.1543">A.FetchResponse</text><line style="stroke: #A80036; stroke-width: 1.5;" x1="184.5" x2="323.5" y1="49" y2="49"/><ellipse cx="194.5" cy="60" fill="#000000" rx="3" ry="3" style="stroke: #000000; stroke-width: 1.0;"/><text fill="#000000" font-family="sans-serif" font-size="11" lengthAdjust="spacingAndGlyphs" textLength="39" x="203.5" y="63.2104">ax : int</text><ellipse cx="194.5" cy="72.8047" fill="#000000" rx="3" ry="3" style="stroke: #000000; stroke-width: 1.0;"/><text fill="#000000" font-family="sans-serif" font-size="11" lengthAdjust="spacingAndGlyphs" textLength="39" x="203.5" y="76.0151">ay : int</text><!--MD5=[4f66dba605cd752ef1d9c078b763a155]
class C.FetchResponse--><rect fill="#FEFECE" filter="url(#f195nrcs4h26v1)" height="65.6094" id="C.FetchResponse" style="stroke: #A80036; stroke-width: 1.5;" width="141" x="359.5" y="17"/><ellipse cx="374.5" cy="33" fill="#DA70D6" rx="11" ry="11" style="stroke: #A80036; stroke-width: 1.0;"/><path d="M378.6094,39 L370.8906,39 L370.8906,26.6094 L378.6094,26.6094 L378.6094,28.7656 L373.3438,28.7656 L373.3438,31.4375 L378.1094,31.4375 L378.1094,33.5938 L373.3438,33.5938 L373.3438,36.8438 L378.6094,36.8438 L378.6094,39 Z "/><text fill="#000000" font-family="sans-serif" font-size="12" lengthAdjust="spacingAndGlyphs" textLength="109" x="388.5" y="37.1543">C.FetchResponse</text><line style="stroke: #A80036; stroke-width: 1.5;" x1="360.5" x2="499.5" y1="49" y2="49"/><ellipse cx="370.5" cy="60" fill="#000000" rx="3" ry="3" style="stroke: #000000; stroke-width: 1.0;"/><text fill="#000000" font-family="sans-serif" font-size="11" lengthAdjust="spacingAndGlyphs" textLength="38" x="379.5" y="63.2104">cy : int</text><ellipse cx="370.5" cy="72.8047" fill="#000000" rx="3" ry="3" style="stroke: #000000; stroke-width: 1.0;"/><text fill="#000000" font-family="sans-serif" font-size="11" lengthAdjust="spacingAndGlyphs" textLength="38" x="379.5" y="76.0151">cx : int</text><!--MD5=[aa79651228798bbf29e1a7f784751bf7]
class D.FetchResponse--><rect fill="#FEFECE" filter="url(#f195nrcs4h26v1)" height="65.6094" id="D.FetchResponse" style="stroke: #A80036; stroke-width: 1.5;" width="142" x="7" y="153"/><ellipse cx="22" cy="169" fill="#DA70D6" rx="11" ry="11" style="stroke: #A80036; stroke-width: 1.0;"/><path d="M26.1094,175 L18.3906,175 L18.3906,162.6094 L26.1094,162.6094 L26.1094,164.7656 L20.8438,164.7656 L20.8438,167.4375 L25.6094,167.4375 L25.6094,169.5938 L20.8438,169.5938 L20.8438,172.8438 L26.1094,172.8438 L26.1094,175 Z "/><text fill="#000000" font-family="sans-serif" font-size="12" lengthAdjust="spacingAndGlyphs" textLength="110" x="36" y="173.1543">D.FetchResponse</text><line style="stroke: #A80036; stroke-width: 1.5;" x1="8" x2="148" y1="185" y2="185"/><ellipse cx="18" cy="196" fill="#000000" rx="3" ry="3" style="stroke: #000000; stroke-width: 1.0;"/><text fill="#000000" font-family="sans-serif" font-size="11" lengthAdjust="spacingAndGlyphs" textLength="39" x="27" y="199.2104">dx : int</text><ellipse cx="18" cy="208.8047" fill="#000000" rx="3" ry="3" style="stroke: #000000; stroke-width: 1.0;"/><text fill="#000000" font-family="sans-serif" font-size="11" lengthAdjust="spacingAndGlyphs" textLength="39" x="27" y="212.0151">dy : int</text><!--MD5=[b8206dade849e21dd2671e436c34cb0c]
class Source.Foo--><rect fill="#FEFECE" filter="url(#f195nrcs4h26v1)" height="65.6094" id="Source.Foo" style="stroke: #A80036; stroke-width: 1.5;" width="103" x="539.5" y="153"/><ellipse cx="554.5" cy="169" fill="#DA70D6" rx="11" ry="11" style="stroke: #A80036; stroke-width: 1.0;"/><path d="M558.6094,175 L550.8906,175 L550.8906,162.6094 L558.6094,162.6094 L558.6094,164.7656 L553.3438,164.7656 L553.3438,167.4375 L558.1094,167.4375 L558.1094,169.5938 L553.3438,169.5938 L553.3438,172.8438 L558.6094,172.8438 L558.6094,175 Z "/><text fill="#000000" font-family="sans-serif" font-size="12" lengthAdjust="spacingAndGlyphs" textLength="71" x="568.5" y="173.1543">Source.Foo</text><line style="stroke: #A80036; stroke-width: 1.5;" x1="540.5" x2="641.5" y1="185" y2="185"/><ellipse cx="550.5" cy="196" fill="#000000" rx="3" ry="3" style="stroke: #000000; stroke-width: 1.0;"/><text fill="#000000" font-family="sans-serif" font-size="11" lengthAdjust="spacingAndGlyphs" textLength="32" x="559.5" y="199.2104">x : int</text><ellipse cx="550.5" cy="208.8047" fill="#000000" rx="3" ry="3" style="stroke: #000000; stroke-width: 1.0;"/><text fill="#000000" font-family="sans-serif" font-size="11" lengthAdjust="spacingAndGlyphs" textLength="32" x="559.5" y="212.0151">y : int</text><!--MD5=[94af4765a840a8f030423c004d6f9455]
class Client.Screen--><rect fill="#FEFECE" filter="url(#f195nrcs4h26v1)" height="65.6094" id="Client.Screen" style="stroke: #A80036; stroke-width: 1.5;" width="115" x="184.5" y="153"/><ellipse cx="199.5" cy="169" fill="#DA70D6" rx="11" ry="11" style="stroke: #A80036; stroke-width: 1.0;"/><path d="M203.6094,175 L195.8906,175 L195.8906,162.6094 L203.6094,162.6094 L203.6094,164.7656 L198.3438,164.7656 L198.3438,167.4375 L203.1094,167.4375 L203.1094,169.5938 L198.3438,169.5938 L198.3438,172.8438 L203.6094,172.8438 L203.6094,175 Z "/><text fill="#000000" font-family="sans-serif" font-size="12" lengthAdjust="spacingAndGlyphs" textLength="83" x="213.5" y="173.1543">Client.Screen</text><line style="stroke: #A80036; stroke-width: 1.5;" x1="185.5" x2="298.5" y1="185" y2="185"/><ellipse cx="195.5" cy="196" fill="#000000" rx="3" ry="3" style="stroke: #000000; stroke-width: 1.0;"/><text fill="#000000" font-family="sans-serif" font-size="11" lengthAdjust="spacingAndGlyphs" textLength="38" x="204.5" y="199.2104">xx : int</text><ellipse cx="195.5" cy="208.8047" fill="#000000" rx="3" ry="3" style="stroke: #000000; stroke-width: 1.0;"/><text fill="#000000" font-family="sans-serif" font-size="11" lengthAdjust="spacingAndGlyphs" textLength="38" x="204.5" y="212.0151">yy : int</text><!--MD5=[1ec2ed1d75833be985a52dc65f5845a9]
link Source.Bar to Source.Foo--><path d="M591,101.337 C591,115.5893 591,130.8822 591,144.4957 " fill="none" id="Source.Bar-Source.Foo" style="stroke: #DC143C; stroke-width: 1.0;"/><line style="stroke: #DC143C; stroke-width: 1.0;" x1="595" x2="587" y1="148.7307" y2="148.7307"/><line style="stroke: #DC143C; stroke-width: 1.0;" x1="595" x2="587" y1="145.7307" y2="145.7307"/><line style="stroke: #DC143C; stroke-width: 1.0;" x1="591" x2="591" y1="144.7307" y2="152.7307"/><line style="stroke: #DC143C; stroke-width: 1.0;" x1="591" x2="585" y1="101.0312" y2="93.0312"/><line style="stroke: #DC143C; stroke-width: 1.0;" x1="591" x2="597" y1="101.0312" y2="93.0312"/><line style="stroke: #DC143C; stroke-width: 1.0;" x1="591" x2="591" y1="101.0312" y2="93.0312"/><ellipse cx="591" cy="107.0312" fill="none" rx="4" ry="4" style="stroke: #DC143C; stroke-width: 1.0;"/><!--MD5=[c092e9c73fa973715f87d9f617be3587]
link B.FetchResponse to A.FetchResponse--><!--MD5=[dc70e0d8814f7ccd8a3270f5512f3bd9]
link A.FetchResponse to C.FetchResponse--><!--MD5=[0901ddb599be7661214c3baa71521f6a]
link B.FetchResponse to D.FetchResponse--><!--MD5=[daab3bb6712cf172d34b02b3eae09e32]
link D.FetchResponse to Client.Screen--><!--MD5=[9f43d427e531378a120a383c1dfd684f]
@startuml
skinparam component {
  BackgroundColor FloralWhite
  BorderColor Black
  ArrowColor Crimson
}
skinparam stereotypeCBackgroundColor Orchid
hide methods

entity Source.Bar {
  * a : string
  - -
}

entity Source.Bar {
  * x : **Foo.x** <<FK>>
}

entity Source.Bar {
  b : int
}

entity B.FetchResponse {
  * by : int
}

entity A.FetchResponse {
  * ax : int
}

entity A.FetchResponse {
  * ay : int
}

entity C.FetchResponse {
  * cy : int
}

entity D.FetchResponse {
  * dx : int
}

entity D.FetchResponse {
  * dy : int
}

entity B.FetchResponse {
  * bx : int
}

entity C.FetchResponse {
  * cx : int
}

entity Source.Foo {
  * x : int
}

entity Source.Foo {
  * y : int
}

entity Client.Screen {
  * xx : int
}

entity Client.Screen {
  * yy : int
}


Source.Bar             }o- -|| Source.Foo
@enduml

PlantUML version 1.2020.14(Sat Jun 20 14:14:34 UTC 2020)
(GPL source distribution)
Java Runtime: OpenJDK Runtime Environment
JVM: OpenJDK 64-Bit Server VM
Default Encoding: UTF-8
Language: en
Country: null
--></g></svg>