<?xml version="1.0" encoding="UTF-8" standalone="no"?><svg xmlns="http://www.w3.org/2000/svg" xmlns:xlink="http://www.w3.org/1999/xlink" contentScriptType="application/ecmascript" contentStyleType="text/css" height="237px" preserveAspectRatio="none" style="width:131px;height:237px;" version="1.1" viewBox="0 0 131 237" width="131px" zoomAndPan="magnify"><defs><filter height="300%" id="fjw2qqr7ye2fj" width="300%" x="-1" y="-1"><feGaussianBlur result="blurOut" stdDeviation="2.0"/><feColorMatrix in="blurOut" result="blurOut2" type="matrix" values="0 0 0 0 0 0 0 0 0 0 0 0 0 0 0 0 0 0 .4 0"/><feOffset dx="4.0" dy="4.0" in="blurOut2" result="blurOut3"/><feBlend in="SourceGraphic" in2="blurOut3" mode="normal"/></filter></defs><g><!--MD5=[7218ca274122d4b22d92dbfd01e1f3f5]
class Source.Bar--><rect fill="#FEFECE" filter="url(#fjw2qqr7ye2fj)" height="86.4141" id="Source.Bar" style="stroke: #A80036; stroke-width: 1.5;" width="105" x="7" y="7"/><ellipse cx="23.8" cy="23" fill="#DA70D6" rx="11" ry="11" style="stroke: #A80036; stroke-width: 1.0;"/><path d="M27.9094,29 L20.1906,29 L20.1906,16.6094 L27.9094,16.6094 L27.9094,18.7656 L22.6438,18.7656 L22.6438,21.4375 L27.4094,21.4375 L27.4094,23.5938 L22.6438,23.5938 L22.6438,26.8438 L27.9094,26.8438 L27.9094,29 Z "/><text fill="#000000" font-family="sans-serif" font-size="12" lengthAdjust="spacingAndGlyphs" textLength="69" x="38.2" y="27.1543">Source.Bar</text><line style="stroke: #A80036; stroke-width: 1.5;" x1="8" x2="111" y1="39" y2="39"/><ellipse cx="18" cy="50" fill="#000000" rx="3" ry="3" style="stroke: #000000; stroke-width: 1.0;"/><text fill="#000000" font-family="sans-serif" font-size="11" lengthAdjust="spacingAndGlyphs" textLength="52" x="27" y="53.2104">a : string</text><line style="stroke: #A80036; stroke-width: 1.0;" x1="8" x2="111" y1="59.8047" y2="59.8047"/><text fill="#000000" font-family="sans-serif" font-size="11" lengthAdjust="spacingAndGlyphs" textLength="33" x="27" y="74.0151">b : int</text><ellipse cx="18" cy="83.6094" fill="#000000" rx="3" ry="3" style="stroke: #000000; stroke-width: 1.0;"/><text fill="#000000" font-family="sans-serif" font-size="11" lengthAdjust="spacingAndGlyphs" textLength="79" x="27" y="86.8198">x : Foo.x «FK»</text><!--MD5=[b8206dade849e21dd2671e436c34cb0c]
class Source.Foo--><rect fill="#FEFECE" filter="url(#fjw2qqr7ye2fj)" height="65.6094" id="Source.Foo" style="stroke: #A80036; stroke-width: 1.5;" width="103" x="8" y="153"/><ellipse cx="23" cy="169" fill="#DA70D6" rx="11" ry="11" style="stroke: #A80036; stroke-width: 1.0;"/><path d="M27.1094,175 L19.3906,175 L19.3906,162.6094 L27.1094,162.6094 L27.1094,164.7656 L21.8438,164.7656 L21.8438,167.4375 L26.6094,167.4375 L26.6094,169.5938 L21.8438,169.5938 L21.8438,172.8438 L27.1094,172.8438 L27.1094,175 Z "/><text fill="#000000" font-family="sans-serif" font-size="12" lengthAdjust="spacingAndGlyphs" textLength="71" x="37" y="173.1543">Source.Foo</text><line style="stroke: #A80036; stroke-width: 1.5;" x1="9" x2="110" y1="185" y2="185"/><ellipse cx="19" cy="196" fill="#000000" rx="3" ry="3" style="stroke: #000000; stroke-width: 1.0;"/><text fill="#000000" font-family="sans-serif" font-size="11" lengthAdjust="spacingAndGlyphs" textLength="32" x="28" y="199.2104">x : int</text><ellipse cx="19" cy="208.8047" fill="#000000" rx="3" ry="3" style="stroke: #000000; stroke-width: 1.0;"/><text fill="#000000" font-family="sans-serif" font-size="11" lengthAdjust="spacingAndGlyphs" textLength="32" x="28" y="212.0151">y : int</text><!--MD5=[1ec2ed1d75833be985a52dc65f5845a9]
link Source.Bar to Source.Foo--><path d="M59.5,101.337 C59.5,115.5893 59.5,130.8822 59.5,144.4957 " fill="none" id="Source.Bar-Source.Foo" style="stroke: #DC143C; stroke-width: 1.0;"/><line style="stroke: #DC143C; stroke-width: 1.0;" x1="63.5" x2="55.5" y1="148.7307" y2="148.7307"/><line style="stroke: #DC143C; stroke-width: 1.0;" x1="63.5" x2="55.5" y1="145.7307" y2="145.7307"/><line style="stroke: #DC143C; stroke-width: 1.0;" x1="59.5" x2="59.5" y1="144.7307" y2="152.7307"/><line style="stroke: #DC143C; stroke-width: 1.0;" x1="59.5" x2="53.5" y1="101.0312" y2="93.0312"/><line style="stroke: #DC143C; stroke-width: 1.0;" x1="59.5" x2="65.5" y1="101.0312" y2="93.0312"/><line style="stroke: #DC143C; stroke-width: 1.0;" x1="59.5" x2="59.5" y1="101.0312" y2="93.0312"/><ellipse cx="59.5" cy="107.0312" fill="none" rx="4" ry="4" style="stroke: #DC143C; stroke-width: 1.0;"/><!--MD5=[e5ba4da9fc94237ff505358cd7db105a]
@startuml
skinparam component {
  BackgroundColor FloralWhite
  BorderColor Black
  ArrowColor Crimson
}
skinparam stereotypeCBackgroundColor Orchid
hide methods

entity Source.Bar {
  *a : string
  - -
  b : int
  *x : Foo.x <<FK>>
}

entity Source.Foo {
  *x : int
  *y : int
}

Source.Bar      }o- -|| Source.Foo
@enduml

PlantUML version 1.2020.13(Sat Jun 13 12:26:38 UTC 2020)
(GPL source distribution)
Java Runtime: OpenJDK Runtime Environment
JVM: OpenJDK 64-Bit Server VM
Default Encoding: UTF-8
Language: en
Country: null
--></g></svg>