<?xml version="1.0" encoding="UTF-8" standalone="no"?><svg xmlns="http://www.w3.org/2000/svg" xmlns:xlink="http://www.w3.org/1999/xlink" contentScriptType="application/ecmascript" contentStyleType="text/css" height="263px" preserveAspectRatio="none" style="width:666px;height:263px;" version="1.1" viewBox="0 0 666 263" width="666px" zoomAndPan="magnify"><defs><filter height="300%" id="f1tum0qtmt4rgr" width="300%" x="-1" y="-1"><feGaussianBlur result="blurOut" stdDeviation="2.0"/><feColorMatrix in="blurOut" result="blurOut2" type="matrix" values="0 0 0 0 0 0 0 0 0 0 0 0 0 0 0 0 0 0 .4 0"/><feOffset dx="4.0" dy="4.0" in="blurOut2" result="blurOut3"/><feBlend in="SourceGraphic" in2="blurOut3" mode="normal"/></filter></defs><g><!--MD5=[7218ca274122d4b22d92dbfd01e1f3f5]
class Source.Bar--><rect fill="#FEFECE" filter="url(#f1tum0qtmt4rgr)" height="86.4141" id="Source.Bar" style="stroke: #A80036; stroke-width: 1.5;" width="110" x="537" y="7"/><ellipse cx="556.05" cy="23" fill="#DA70D6" rx="11" ry="11" style="stroke: #A80036; stroke-width: 1.0;"/><path d="M560.1594,29 L552.4406,29 L552.4406,16.6094 L560.1594,16.6094 L560.1594,18.7656 L554.8938,18.7656 L554.8938,21.4375 L559.6594,21.4375 L559.6594,23.5938 L554.8938,23.5938 L554.8938,26.8438 L560.1594,26.8438 L560.1594,29 Z "/><text fill="#000000" font-family="sans-serif" font-size="12" lengthAdjust="spacingAndGlyphs" textLength="69" x="570.95" y="27.1543">Source.Bar</text><line style="stroke: #A80036; stroke-width: 1.5;" x1="538" x2="646" y1="39" y2="39"/><ellipse cx="548" cy="50" fill="#000000" rx="3" ry="3" style="stroke: #000000; stroke-width: 1.0;"/><text fill="#000000" font-family="sans-serif" font-size="11" lengthAdjust="spacingAndGlyphs" textLength="14" x="557" y="53.2104">x :</text><text fill="#000000" font-family="sans-serif" font-size="11" font-weight="bold" lengthAdjust="spacingAndGlyphs" textLength="35" x="575" y="53.2104">Foo.x</text><text fill="#000000" font-family="sans-serif" font-size="11" lengthAdjust="spacingAndGlyphs" textLength="27" x="614" y="53.2104">«FK»</text><text fill="#000000" font-family="sans-serif" font-size="11" lengthAdjust="spacingAndGlyphs" textLength="33" x="557" y="66.0151">b : int</text><ellipse cx="548" cy="75.6094" fill="#000000" rx="3" ry="3" style="stroke: #000000; stroke-width: 1.0;"/><text fill="#000000" font-family="sans-serif" font-size="11" lengthAdjust="spacingAndGlyphs" textLength="52" x="557" y="78.8198">a : string</text><line style="stroke: #A80036; stroke-width: 1.0;" x1="538" x2="646" y1="85.4141" y2="85.4141"/><!--MD5=[aa79651228798bbf29e1a7f784751bf7]
class D.FetchResponse--><rect fill="#FEFECE" filter="url(#f1tum0qtmt4rgr)" height="65.6094" id="D.FetchResponse" style="stroke: #A80036; stroke-width: 1.5;" width="142" x="7" y="17"/><ellipse cx="22" cy="33" fill="#DA70D6" rx="11" ry="11" style="stroke: #A80036; stroke-width: 1.0;"/><path d="M26.1094,39 L18.3906,39 L18.3906,26.6094 L26.1094,26.6094 L26.1094,28.7656 L20.8438,28.7656 L20.8438,31.4375 L25.6094,31.4375 L25.6094,33.5938 L20.8438,33.5938 L20.8438,36.8438 L26.1094,36.8438 L26.1094,39 Z "/><text fill="#000000" font-family="sans-serif" font-size="12" lengthAdjust="spacingAndGlyphs" textLength="110" x="36" y="37.1543">D.FetchResponse</text><line style="stroke: #A80036; stroke-width: 1.5;" x1="8" x2="148" y1="49" y2="49"/><ellipse cx="18" cy="60" fill="#000000" rx="3" ry="3" style="stroke: #000000; stroke-width: 1.0;"/><text fill="#000000" font-family="sans-serif" font-size="11" lengthAdjust="spacingAndGlyphs" textLength="39" x="27" y="63.2104">dx : int</text><ellipse cx="18" cy="72.8047" fill="#000000" rx="3" ry="3" style="stroke: #000000; stroke-width: 1.0;"/><text fill="#000000" font-family="sans-serif" font-size="11" lengthAdjust="spacingAndGlyphs" textLength="39" x="27" y="76.0151">dy : int</text><!--MD5=[4f66dba605cd752ef1d9c078b763a155]
class C.FetchResponse--><rect fill="#FEFECE" filter="url(#f1tum0qtmt4rgr)" height="65.6094" id="C.FetchResponse" style="stroke: #A80036; stroke-width: 1.5;" width="141" x="184.5" y="17"/><ellipse cx="199.5" cy="33" fill="#DA70D6" rx="11" ry="11" style="stroke: #A80036; stroke-width: 1.0;"/><path d="M203.6094,39 L195.8906,39 L195.8906,26.6094 L203.6094,26.6094 L203.6094,28.7656 L198.3438,28.7656 L198.3438,31.4375 L203.1094,31.4375 L203.1094,33.5938 L198.3438,33.5938 L198.3438,36.8438 L203.6094,36.8438 L203.6094,39 Z "/><text fill="#000000" font-family="sans-serif" font-size="12" lengthAdjust="spacingAndGlyphs" textLength="109" x="213.5" y="37.1543">C.FetchResponse</text><line style="stroke: #A80036; stroke-width: 1.5;" x1="185.5" x2="324.5" y1="49" y2="49"/><ellipse cx="195.5" cy="60" fill="#000000" rx="3" ry="3" style="stroke: #000000; stroke-width: 1.0;"/><text fill="#000000" font-family="sans-serif" font-size="11" lengthAdjust="spacingAndGlyphs" textLength="38" x="204.5" y="63.2104">cx : int</text><ellipse cx="195.5" cy="72.8047" fill="#000000" rx="3" ry="3" style="stroke: #000000; stroke-width: 1.0;"/><text fill="#000000" font-family="sans-serif" font-size="11" lengthAdjust="spacingAndGlyphs" textLength="38" x="204.5" y="76.0151">cy : int</text><!--MD5=[e986452442f8854676d2ac2b2c7cb603]
class B.FetchResponse--><rect fill="#FEFECE" filter="url(#f1tum0qtmt4rgr)" height="65.6094" id="B.FetchResponse" style="stroke: #A80036; stroke-width: 1.5;" width="141" x="360.5" y="17"/><ellipse cx="375.5" cy="33" fill="#DA70D6" rx="11" ry="11" style="stroke: #A80036; stroke-width: 1.0;"/><path d="M379.6094,39 L371.8906,39 L371.8906,26.6094 L379.6094,26.6094 L379.6094,28.7656 L374.3438,28.7656 L374.3438,31.4375 L379.1094,31.4375 L379.1094,33.5938 L374.3438,33.5938 L374.3438,36.8438 L379.6094,36.8438 L379.6094,39 Z "/><text fill="#000000" font-family="sans-serif" font-size="12" lengthAdjust="spacingAndGlyphs" textLength="109" x="389.5" y="37.1543">B.FetchResponse</text><line style="stroke: #A80036; stroke-width: 1.5;" x1="361.5" x2="500.5" y1="49" y2="49"/><ellipse cx="371.5" cy="60" fill="#000000" rx="3" ry="3" style="stroke: #000000; stroke-width: 1.0;"/><text fill="#000000" font-family="sans-serif" font-size="11" lengthAdjust="spacingAndGlyphs" textLength="39" x="380.5" y="63.2104">by : int</text><ellipse cx="371.5" cy="72.8047" fill="#000000" rx="3" ry="3" style="stroke: #000000; stroke-width: 1.0;"/><text fill="#000000" font-family="sans-serif" font-size="11" lengthAdjust="spacingAndGlyphs" textLength="39" x="380.5" y="76.0151">bx : int</text><!--MD5=[d27add52d1c8032bc3c5a0b9605083d9]
class A.FetchResponse--><rect fill="#FEFECE" filter="url(#f1tum0qtmt4rgr)" height="65.6094" id="A.FetchResponse" style="stroke: #A80036; stroke-width: 1.5;" width="141" x="7.5" y="165.5"/><ellipse cx="22.5" cy="181.5" fill="#DA70D6" rx="11" ry="11" style="stroke: #A80036; stroke-width: 1.0;"/><path d="M26.6094,187.5 L18.8906,187.5 L18.8906,175.1094 L26.6094,175.1094 L26.6094,177.2656 L21.3438,177.2656 L21.3438,179.9375 L26.1094,179.9375 L26.1094,182.0938 L21.3438,182.0938 L21.3438,185.3438 L26.6094,185.3438 L26.6094,187.5 Z "/><text fill="#000000" font-family="sans-serif" font-size="12" lengthAdjust="spacingAndGlyphs" textLength="109" x="36.5" y="185.6543">A.FetchResponse</text><line style="stroke: #A80036; stroke-width: 1.5;" x1="8.5" x2="147.5" y1="197.5" y2="197.5"/><ellipse cx="18.5" cy="208.5" fill="#000000" rx="3" ry="3" style="stroke: #000000; stroke-width: 1.0;"/><text fill="#000000" font-family="sans-serif" font-size="11" lengthAdjust="spacingAndGlyphs" textLength="39" x="27.5" y="211.7104">ay : int</text><ellipse cx="18.5" cy="221.3047" fill="#000000" rx="3" ry="3" style="stroke: #000000; stroke-width: 1.0;"/><text fill="#000000" font-family="sans-serif" font-size="11" lengthAdjust="spacingAndGlyphs" textLength="39" x="27.5" y="224.5151">ax : int</text><!--MD5=[b8206dade849e21dd2671e436c34cb0c]
class Source.Foo--><rect fill="#FEFECE" filter="url(#f1tum0qtmt4rgr)" height="65.6094" id="Source.Foo" style="stroke: #A80036; stroke-width: 1.5;" width="103" x="540.5" y="165.5"/><ellipse cx="555.5" cy="181.5" fill="#DA70D6" rx="11" ry="11" style="stroke: #A80036; stroke-width: 1.0;"/><path d="M559.6094,187.5 L551.8906,187.5 L551.8906,175.1094 L559.6094,175.1094 L559.6094,177.2656 L554.3438,177.2656 L554.3438,179.9375 L559.1094,179.9375 L559.1094,182.0938 L554.3438,182.0938 L554.3438,185.3438 L559.6094,185.3438 L559.6094,187.5 Z "/><text fill="#000000" font-family="sans-serif" font-size="12" lengthAdjust="spacingAndGlyphs" textLength="71" x="569.5" y="185.6543">Source.Foo</text><line style="stroke: #A80036; stroke-width: 1.5;" x1="541.5" x2="642.5" y1="197.5" y2="197.5"/><ellipse cx="551.5" cy="208.5" fill="#000000" rx="3" ry="3" style="stroke: #000000; stroke-width: 1.0;"/><text fill="#000000" font-family="sans-serif" font-size="11" lengthAdjust="spacingAndGlyphs" textLength="32" x="560.5" y="211.7104">y : int</text><ellipse cx="551.5" cy="221.3047" fill="#000000" rx="3" ry="3" style="stroke: #000000; stroke-width: 1.0;"/><text fill="#000000" font-family="sans-serif" font-size="11" lengthAdjust="spacingAndGlyphs" textLength="32" x="560.5" y="224.5151">x : int</text><!--MD5=[94af4765a840a8f030423c004d6f9455]
class Client.Screen--><rect fill="#FEFECE" filter="url(#f1tum0qtmt4rgr)" height="91.2188" id="Client.Screen" style="stroke: #A80036; stroke-width: 1.5;" width="115" x="183.5" y="153"/><ellipse cx="198.5" cy="169" fill="#DA70D6" rx="11" ry="11" style="stroke: #A80036; stroke-width: 1.0;"/><path d="M202.6094,175 L194.8906,175 L194.8906,162.6094 L202.6094,162.6094 L202.6094,164.7656 L197.3438,164.7656 L197.3438,167.4375 L202.1094,167.4375 L202.1094,169.5938 L197.3438,169.5938 L197.3438,172.8438 L202.6094,172.8438 L202.6094,175 Z "/><text fill="#000000" font-family="sans-serif" font-size="12" lengthAdjust="spacingAndGlyphs" textLength="83" x="212.5" y="173.1543">Client.Screen</text><line style="stroke: #A80036; stroke-width: 1.5;" x1="184.5" x2="297.5" y1="185" y2="185"/><ellipse cx="194.5" cy="196" fill="#000000" rx="3" ry="3" style="stroke: #000000; stroke-width: 1.0;"/><text fill="#000000" font-family="sans-serif" font-size="11" lengthAdjust="spacingAndGlyphs" textLength="54" x="203.5" y="199.2104">ww : digit</text><ellipse cx="194.5" cy="208.8047" fill="#000000" rx="3" ry="3" style="stroke: #000000; stroke-width: 1.0;"/><text fill="#000000" font-family="sans-serif" font-size="11" lengthAdjust="spacingAndGlyphs" textLength="53" x="203.5" y="212.0151">zz : digits</text><ellipse cx="194.5" cy="221.6094" fill="#000000" rx="3" ry="3" style="stroke: #000000; stroke-width: 1.0;"/><text fill="#000000" font-family="sans-serif" font-size="11" lengthAdjust="spacingAndGlyphs" textLength="38" x="203.5" y="224.8198">yy : int</text><ellipse cx="194.5" cy="234.4141" fill="#000000" rx="3" ry="3" style="stroke: #000000; stroke-width: 1.0;"/><text fill="#000000" font-family="sans-serif" font-size="11" lengthAdjust="spacingAndGlyphs" textLength="38" x="203.5" y="237.6245">xx : int</text><!--MD5=[1ec2ed1d75833be985a52dc65f5845a9]
link Source.Bar to Source.Foo--><path d="M592,101.5967 C592,119.737 592,139.8725 592,157.068 " fill="none" id="Source.Bar-Source.Foo" style="stroke: #DC143C; stroke-width: 1.0;"/><line style="stroke: #DC143C; stroke-width: 1.0;" x1="596" x2="588" y1="161.2517" y2="161.2517"/><line style="stroke: #DC143C; stroke-width: 1.0;" x1="596" x2="588" y1="158.2517" y2="158.2517"/><line style="stroke: #DC143C; stroke-width: 1.0;" x1="592" x2="592" y1="157.2517" y2="165.2517"/><line style="stroke: #DC143C; stroke-width: 1.0;" x1="592" x2="586" y1="101.3515" y2="93.3515"/><line style="stroke: #DC143C; stroke-width: 1.0;" x1="592" x2="598" y1="101.3515" y2="93.3515"/><line style="stroke: #DC143C; stroke-width: 1.0;" x1="592" x2="592" y1="101.3515" y2="93.3515"/><ellipse cx="592" cy="107.3515" fill="none" rx="4" ry="4" style="stroke: #DC143C; stroke-width: 1.0;"/><!--MD5=[2d0d6ec0a9e3a7bef9b25af7782cb94b]
link D.FetchResponse to C.FetchResponse--><!--MD5=[b8e305342c9c816ab911d6655c6b657b]
link C.FetchResponse to B.FetchResponse--><!--MD5=[8183161748944321899b3fd8f07d7b52]
link D.FetchResponse to A.FetchResponse--><!--MD5=[cca13e16c17b675ad98d27d7f35f9e7a]
link A.FetchResponse to Client.Screen--><!--MD5=[90020b8f7cbf9e492d839122627ef0c9]
@startuml
skinparam component {
  BackgroundColor FloralWhite
  BorderColor Black
  ArrowColor Crimson
}
skinparam stereotypeCBackgroundColor Orchid
hide methods

entity Source.Bar {
  * x : **Foo.x** <<FK>>
}

entity Source.Bar {
  b : int
}

entity Source.Bar {
  * a : string
  - -
}

entity D.FetchResponse {
  * dx : int
}

entity D.FetchResponse {
  * dy : int
}

entity C.FetchResponse {
  * cx : int
}

entity B.FetchResponse {
  * by : int
}

entity B.FetchResponse {
  * bx : int
}

entity A.FetchResponse {
  * ay : int
}

entity A.FetchResponse {
  * ax : int
}

entity C.FetchResponse {
  * cy : int
}

entity Source.Foo {
  * y : int
}

entity Source.Foo {
  * x : int
}

entity Client.Screen {
  * ww : digit
}

entity Client.Screen {
  * zz : digits
}

entity Client.Screen {
  * yy : int
}

entity Client.Screen {
  * xx : int
}

Source.Bar             }o- -|| Source.Foo
@enduml

PlantUML version 1.2020.14(Sat Jun 20 14:14:34 UTC 2020)
(GPL source distribution)
Java Runtime: OpenJDK Runtime Environment
JVM: OpenJDK 64-Bit Server VM
Default Encoding: UTF-8
Language: en
Country: null
--></g></svg>