<?xml version="1.0" encoding="UTF-8" standalone="no"?><svg xmlns="http://www.w3.org/2000/svg" xmlns:xlink="http://www.w3.org/1999/xlink" contentScriptType="application/ecmascript" contentStyleType="text/css" height="213px" preserveAspectRatio="none" style="width:212px;height:213px;" version="1.1" viewBox="0 0 212 213" width="212px" zoomAndPan="magnify"><defs><filter height="300%" id="f5ilsptid8lb1" width="300%" x="-1" y="-1"><feGaussianBlur result="blurOut" stdDeviation="2.0"/><feColorMatrix in="blurOut" result="blurOut2" type="matrix" values="0 0 0 0 0 0 0 0 0 0 0 0 0 0 0 0 0 0 .4 0"/><feOffset dx="4.0" dy="4.0" in="blurOut2" result="blurOut3"/><feBlend in="SourceGraphic" in2="blurOut3" mode="normal"/></filter></defs><g><!--MD5=[498a707edf4a51645a1a637c5052cf0d]
cluster Source--><polygon fill="#FFFFFF" filter="url(#f5ilsptid8lb1)" points="16,126,78,126,85,148.2969,88,148.2969,88,201,16,201,16,126" style="stroke: #000000; stroke-width: 1.5;"/><line style="stroke: #000000; stroke-width: 1.5;" x1="16" x2="85" y1="148.2969" y2="148.2969"/><text fill="#000000" font-family="sans-serif" font-size="14" font-weight="bold" lengthAdjust="spacingAndGlyphs" textLength="56" x="20" y="140.9951">Source</text><!--MD5=[b8206dade849e21dd2671e436c34cb0c]
class Source.Foo--><rect fill="#FEFECE" filter="url(#f5ilsptid8lb1)" height="40" id="Source.Foo" style="stroke: #A80036; stroke-width: 1.5;" width="55" x="24.5" y="153"/><ellipse cx="39.5" cy="169" fill="#DA70D6" rx="11" ry="11" style="stroke: #A80036; stroke-width: 1.0;"/><path d="M42.4688,174.6406 Q41.8906,174.9375 41.25,175.0781 Q40.6094,175.2344 39.9063,175.2344 Q37.4063,175.2344 36.0781,173.5938 Q34.7656,171.9375 34.7656,168.8125 Q34.7656,165.6875 36.0781,164.0313 Q37.4063,162.375 39.9063,162.375 Q40.6094,162.375 41.25,162.5313 Q41.9063,162.6875 42.4688,162.9844 L42.4688,165.7031 Q41.8438,165.125 41.25,164.8594 Q40.6563,164.5781 40.0313,164.5781 Q38.6875,164.5781 38,165.6563 Q37.3125,166.7188 37.3125,168.8125 Q37.3125,170.9063 38,171.9844 Q38.6875,173.0469 40.0313,173.0469 Q40.6563,173.0469 41.25,172.7813 Q41.8438,172.5 42.4688,171.9219 L42.4688,174.6406 Z "/><text fill="#000000" font-family="sans-serif" font-size="12" lengthAdjust="spacingAndGlyphs" textLength="23" x="53.5" y="173.1543">Foo</text><line style="stroke: #A80036; stroke-width: 1.5;" x1="25.5" x2="78.5" y1="185" y2="185"/><!--MD5=[fea15f7924bd848149aeb562f3a4d86b]
class Bar--><rect fill="#FEFECE" filter="url(#f5ilsptid8lb1)" height="86.4141" id="Bar" style="stroke: #A80036; stroke-width: 1.5;" width="87" x="8.5" y="7"/><ellipse cx="38.8" cy="23" fill="#DA70D6" rx="11" ry="11" style="stroke: #A80036; stroke-width: 1.0;"/><path d="M42.9094,29 L35.1906,29 L35.1906,16.6094 L42.9094,16.6094 L42.9094,18.7656 L37.6438,18.7656 L37.6438,21.4375 L42.4094,21.4375 L42.4094,23.5938 L37.6438,23.5938 L37.6438,26.8438 L42.9094,26.8438 L42.9094,29 Z "/><text fill="#000000" font-family="sans-serif" font-size="12" lengthAdjust="spacingAndGlyphs" textLength="21" x="56.2" y="27.1543">Bar</text><line style="stroke: #A80036; stroke-width: 1.5;" x1="9.5" x2="94.5" y1="39" y2="39"/><ellipse cx="19.5" cy="50" fill="#000000" rx="3" ry="3" style="stroke: #000000; stroke-width: 1.0;"/><text fill="#000000" font-family="sans-serif" font-size="11" lengthAdjust="spacingAndGlyphs" textLength="61" x="28.5" y="53.2104">a : STRING</text><line style="stroke: #A80036; stroke-width: 1.0;" x1="9.5" x2="94.5" y1="59.8047" y2="59.8047"/><text fill="#000000" font-family="sans-serif" font-size="11" lengthAdjust="spacingAndGlyphs" textLength="37" x="28.5" y="74.0151">b : INT</text><ellipse cx="19.5" cy="83.6094" fill="#000000" rx="3" ry="3" style="stroke: #000000; stroke-width: 1.0;"/><text fill="#000000" font-family="sans-serif" font-size="11" lengthAdjust="spacingAndGlyphs" textLength="55" x="28.5" y="86.8198">x : ? «FK»</text><!--MD5=[d10371c429a20e8e62c953c705282488]
class Foo--><rect fill="#FEFECE" filter="url(#f5ilsptid8lb1)" height="65.6094" id="Foo" style="stroke: #A80036; stroke-width: 1.5;" width="62" x="131" y="17"/><ellipse cx="149.15" cy="33" fill="#DA70D6" rx="11" ry="11" style="stroke: #A80036; stroke-width: 1.0;"/><path d="M153.2594,39 L145.5406,39 L145.5406,26.6094 L153.2594,26.6094 L153.2594,28.7656 L147.9938,28.7656 L147.9938,31.4375 L152.7594,31.4375 L152.7594,33.5938 L147.9938,33.5938 L147.9938,36.8438 L153.2594,36.8438 L153.2594,39 Z "/><text fill="#000000" font-family="sans-serif" font-size="12" lengthAdjust="spacingAndGlyphs" textLength="23" x="163.85" y="37.1543">Foo</text><line style="stroke: #A80036; stroke-width: 1.5;" x1="132" x2="192" y1="49" y2="49"/><ellipse cx="142" cy="60" fill="#000000" rx="3" ry="3" style="stroke: #000000; stroke-width: 1.0;"/><text fill="#000000" font-family="sans-serif" font-size="11" lengthAdjust="spacingAndGlyphs" textLength="36" x="151" y="63.2104">x : INT</text><ellipse cx="142" cy="72.8047" fill="#000000" rx="3" ry="3" style="stroke: #000000; stroke-width: 1.0;"/><text fill="#000000" font-family="sans-serif" font-size="11" lengthAdjust="spacingAndGlyphs" textLength="36" x="151" y="76.0151">y : INT</text><!--MD5=[e5051c2702109d0df9218eb64c511294]
link Bar to Source.Foo--><path d="M52,101.2685 C52,116.1932 52,131.945 52,144.8741 " fill="none" id="Bar-Source.Foo" style="stroke: #DC143C; stroke-width: 1.0;"/><line style="stroke: #DC143C; stroke-width: 1.0;" x1="56" x2="48" y1="148.9256" y2="148.9256"/><line style="stroke: #DC143C; stroke-width: 1.0;" x1="56" x2="48" y1="145.9256" y2="145.9256"/><line style="stroke: #DC143C; stroke-width: 1.0;" x1="52" x2="52" y1="144.9256" y2="152.9256"/><line style="stroke: #DC143C; stroke-width: 1.0;" x1="52" x2="46" y1="101.0194" y2="93.0194"/><line style="stroke: #DC143C; stroke-width: 1.0;" x1="52" x2="58" y1="101.0194" y2="93.0194"/><line style="stroke: #DC143C; stroke-width: 1.0;" x1="52" x2="52" y1="101.0194" y2="93.0194"/><ellipse cx="52" cy="107.0194" fill="none" rx="4" ry="4" style="stroke: #DC143C; stroke-width: 1.0;"/><!--MD5=[8f286c09a9fc2cce935941153fcd238c]
@startuml
skinparam component {
  BackgroundColor FloralWhite
  BorderColor Black
  ArrowColor Crimson
}
skinparam stereotypeCBackgroundColor Orchid
hide methods

entity Bar {
  *a : STRING
  - -
  b : INT
  *x : ? <<FK>>
}

entity Foo {
  *x : INT
  *y : INT
}

Bar             }o- -|| Source.Foo
@enduml

PlantUML version 1.2020.13(Sat Jun 13 12:26:38 UTC 2020)
(GPL source distribution)
Java Runtime: OpenJDK Runtime Environment
JVM: OpenJDK 64-Bit Server VM
Default Encoding: UTF-8
Language: en
Country: null
--></g></svg>