<?xml version="1.0" encoding="UTF-8" standalone="no"?><svg xmlns="http://www.w3.org/2000/svg" xmlns:xlink="http://www.w3.org/1999/xlink" contentScriptType="application/ecmascript" contentStyleType="text/css" height="422px" preserveAspectRatio="none" style="width:501px;height:422px;" version="1.1" viewBox="0 0 501 422" width="501px" zoomAndPan="magnify"><defs><filter height="300%" id="f193tqdwo3r8lg" width="300%" x="-1" y="-1"><feGaussianBlur result="blurOut" stdDeviation="2.0"/><feColorMatrix in="blurOut" result="blurOut2" type="matrix" values="0 0 0 0 0 0 0 0 0 0 0 0 0 0 0 0 0 0 .4 0"/><feOffset dx="4.0" dy="4.0" in="blurOut2" result="blurOut3"/><feBlend in="SourceGraphic" in2="blurOut3" mode="normal"/></filter></defs><g><text fill="#000000" font-family="sans-serif" font-size="18" lengthAdjust="spacingAndGlyphs" textLength="116" x="183.7891" y="16.708">Source.Foo.x</text><!--MD5=[770389ab9df153645bc6ef28055eb2b5]
entity A--><rect fill="#FEFECE" filter="url(#f193tqdwo3r8lg)" height="36.2969" style="stroke: #A80036; stroke-width: 1.5;" width="29" x="203.0781" y="140.9531"/><rect fill="#FEFECE" height="5" style="stroke: #A80036; stroke-width: 1.5;" width="10" x="198.0781" y="145.9531"/><rect fill="#FEFECE" height="5" style="stroke: #A80036; stroke-width: 1.5;" width="10" x="198.0781" y="167.25"/><text fill="#000000" font-family="sans-serif" font-size="14" lengthAdjust="spacingAndGlyphs" textLength="9" x="213.0781" y="163.9482">A</text><!--MD5=[118f42602524ad482f02b27ef22fc383]
entity D--><rect fill="#FEFECE" filter="url(#f193tqdwo3r8lg)" height="36.2969" style="stroke: #A80036; stroke-width: 1.5;" width="31" x="31.0781" y="253.9531"/><rect fill="#FEFECE" height="5" style="stroke: #A80036; stroke-width: 1.5;" width="10" x="26.0781" y="258.9531"/><rect fill="#FEFECE" height="5" style="stroke: #A80036; stroke-width: 1.5;" width="10" x="26.0781" y="280.25"/><text fill="#000000" font-family="sans-serif" font-size="14" lengthAdjust="spacingAndGlyphs" textLength="11" x="41.0781" y="276.9482">D</text><!--MD5=[16fab723be418f7eaf2ea4bd895a8e51]
entity C--><rect fill="#FEFECE" filter="url(#f193tqdwo3r8lg)" height="36.2969" style="stroke: #A80036; stroke-width: 1.5;" width="30" x="287.5781" y="253.9531"/><rect fill="#FEFECE" height="5" style="stroke: #A80036; stroke-width: 1.5;" width="10" x="282.5781" y="258.9531"/><rect fill="#FEFECE" height="5" style="stroke: #A80036; stroke-width: 1.5;" width="10" x="282.5781" y="280.25"/><text fill="#000000" font-family="sans-serif" font-size="14" lengthAdjust="spacingAndGlyphs" textLength="10" x="297.5781" y="276.9482">C</text><!--MD5=[b2d39259b6aeabc16b394deeb0238426]
entity B--><rect fill="#FEFECE" filter="url(#f193tqdwo3r8lg)" height="36.2969" style="stroke: #A80036; stroke-width: 1.5;" width="30" x="367.5781" y="140.9531"/><rect fill="#FEFECE" height="5" style="stroke: #A80036; stroke-width: 1.5;" width="10" x="362.5781" y="145.9531"/><rect fill="#FEFECE" height="5" style="stroke: #A80036; stroke-width: 1.5;" width="10" x="362.5781" y="167.25"/><text fill="#000000" font-family="sans-serif" font-size="14" lengthAdjust="spacingAndGlyphs" textLength="10" x="377.5781" y="163.9482">B</text><!--MD5=[0ba5ee7700168656dc1b457c6fe9fdac]
entity Client--><rect fill="#FEFECE" filter="url(#f193tqdwo3r8lg)" height="36.2969" style="stroke: #A80036; stroke-width: 1.5;" width="59" x="17.0781" y="366.9531"/><rect fill="#FEFECE" height="5" style="stroke: #A80036; stroke-width: 1.5;" width="10" x="12.0781" y="371.9531"/><rect fill="#FEFECE" height="5" style="stroke: #A80036; stroke-width: 1.5;" width="10" x="12.0781" y="393.25"/><text fill="#000000" font-family="sans-serif" font-size="14" lengthAdjust="spacingAndGlyphs" textLength="39" x="27.0781" y="389.9482">Client</text><!--MD5=[c8da82a3e4fd5c54db14ac48b9861466]
entity Source--><rect fill="#FEFECE" filter="url(#f193tqdwo3r8lg)" height="36.2969" style="stroke: #A80036; stroke-width: 1.5;" width="69" x="268.0781" y="27.9531"/><rect fill="#FEFECE" height="5" style="stroke: #A80036; stroke-width: 1.5;" width="10" x="263.0781" y="32.9531"/><rect fill="#FEFECE" height="5" style="stroke: #A80036; stroke-width: 1.5;" width="10" x="263.0781" y="54.25"/><text fill="#000000" font-family="sans-serif" font-size="14" lengthAdjust="spacingAndGlyphs" textLength="49" x="278.0781" y="50.9482">Source</text><!--MD5=[0cc414c05168401e44af7a1c991d2042]
link A to D--><path d="M202.8666,161.8248 C168.8431,168.741 86.1323,187.2166 66.5781,206.9531 C55.6474,217.9857 50.6693,234.8417 48.4125,248.6239 " fill="none" id="A-&gt;D" style="stroke: #A80036; stroke-width: 1.0;"/><polygon fill="#A80036" points="47.6501,253.9291,52.89,245.5898,48.3616,248.98,44.9714,244.4516,47.6501,253.9291" style="stroke: #A80036; stroke-width: 1.0;"/><text fill="#000000" font-family="sans-serif" font-size="13" lengthAdjust="spacingAndGlyphs" textLength="129" x="67.5781" y="220.02">A.FetchResponse.ax</text><text fill="#000000" font-family="sans-serif" font-size="13" lengthAdjust="spacingAndGlyphs" textLength="35" x="160.0151" y="157.7436">Fetch</text><text fill="#000000" font-family="sans-serif" font-size="13" lengthAdjust="spacingAndGlyphs" textLength="35" x="7.4137" y="242.8341">Fetch</text><!--MD5=[e1650921a81fac0037ec207a42ac4e7e]
link A to C--><path d="M209.9596,177.0789 C205.4257,190.8956 202.0469,209.8795 210.5781,223.9531 C226.1404,249.6256 260.4249,262.2143 282.4635,267.8747 " fill="none" id="A-&gt;C" style="stroke: #A80036; stroke-width: 1.0;"/><polygon fill="#A80036" points="287.5119,269.1056,279.7158,263.0873,282.6543,267.9211,277.8205,270.8595,287.5119,269.1056" style="stroke: #A80036; stroke-width: 1.0;"/><text fill="#000000" font-family="sans-serif" font-size="13" lengthAdjust="spacingAndGlyphs" textLength="129" x="211.5781" y="220.02">A.FetchResponse.ax</text><text fill="#000000" font-family="sans-serif" font-size="13" lengthAdjust="spacingAndGlyphs" textLength="35" x="166.9531" y="197.2879">Fetch</text><text fill="#000000" font-family="sans-serif" font-size="13" lengthAdjust="spacingAndGlyphs" textLength="44" x="235.4037" y="263.8911">FetchA</text><!--MD5=[cd25d8247324207f828a4db9f58ed69d]
link B to C--><path d="M375.1317,177.1711 C369.1884,190.6897 360.1278,209.2483 349.5781,223.9531 C341.4877,235.2301 330.7631,246.3948 321.6014,255.115 " fill="none" id="B-&gt;C" style="stroke: #A80036; stroke-width: 1.0;"/><polygon fill="#A80036" points="317.7829,258.6957,327.0841,255.4573,321.4302,255.2756,321.6119,249.6217,317.7829,258.6957" style="stroke: #A80036; stroke-width: 1.0;"/><text fill="#000000" font-family="sans-serif" font-size="13" lengthAdjust="spacingAndGlyphs" textLength="129" x="360.5781" y="220.02">B.FetchResponse.bx</text><text fill="#000000" font-family="sans-serif" font-size="13" lengthAdjust="spacingAndGlyphs" textLength="35" x="332.1801" y="197.4095">Fetch</text><text fill="#000000" font-family="sans-serif" font-size="13" lengthAdjust="spacingAndGlyphs" textLength="44" x="325.4564" y="251.4645">FetchB</text><!--MD5=[8a01624f7dc06a3932a9ac7b6229d9bc]
link D to Client--><path d="M46.5781,290.1085 C46.5781,309.5481 46.5781,340.4543 46.5781,361.6705 " fill="none" id="D-&gt;Client" style="stroke: #A80036; stroke-width: 1.0;"/><polygon fill="#A80036" points="46.5781,366.8428,50.5781,357.8428,46.5781,361.8428,42.5781,357.8428,46.5781,366.8428" style="stroke: #A80036; stroke-width: 1.0;"/><text fill="#000000" font-family="sans-serif" font-size="13" lengthAdjust="spacingAndGlyphs" textLength="130" x="47.5781" y="333.02">D.FetchResponse.dx</text><text fill="#000000" font-family="sans-serif" font-size="13" lengthAdjust="spacingAndGlyphs" textLength="35" x="6" y="310.3269">Fetch</text><text fill="#000000" font-family="sans-serif" font-size="13" lengthAdjust="spacingAndGlyphs" textLength="18" x="25.8219" y="356.0414">Do</text><!--MD5=[098664cf020dcb9c4accee181759a1e5]
link Source to A--><path d="M275.2504,64.1506 C264.6033,72.2852 252.9694,82.6018 244.5781,93.9531 C235.2798,106.5314 228.5295,122.7826 224.104,135.8886 " fill="none" id="Source-&gt;A" style="stroke: #A80036; stroke-width: 1.0;"/><polygon fill="#A80036" points="222.4639,140.9256,229.0538,133.6062,224.0119,136.1713,221.4469,131.1294,222.4639,140.9256" style="stroke: #A80036; stroke-width: 1.0;"/><text fill="#000000" font-family="sans-serif" font-size="13" lengthAdjust="spacingAndGlyphs" textLength="83" x="245.5781" y="107.02">Source.Foo.x</text><text fill="#000000" font-family="sans-serif" font-size="13" lengthAdjust="spacingAndGlyphs" textLength="32" x="229.4397" y="84.3825">Read</text><text fill="#000000" font-family="sans-serif" font-size="13" lengthAdjust="spacingAndGlyphs" textLength="35" x="183.4431" y="129.8295">Fetch</text><!--MD5=[e290f3b1362c6eef87d103efb736a9ff]
link Source to B--><path d="M315.4315,64.1085 C329.4273,83.8776 351.8186,115.5052 366.8526,136.7408 " fill="none" id="Source-&gt;B" style="stroke: #A80036; stroke-width: 1.0;"/><polygon fill="#A80036" points="369.7566,140.8428,367.8209,131.1861,366.8675,136.762,361.2916,135.8087,369.7566,140.8428" style="stroke: #A80036; stroke-width: 1.0;"/><text fill="#000000" font-family="sans-serif" font-size="13" lengthAdjust="spacingAndGlyphs" textLength="83" x="347.5781" y="107.02">Source.Foo.x</text><text fill="#000000" font-family="sans-serif" font-size="13" lengthAdjust="spacingAndGlyphs" textLength="32" x="282.4285" y="84.3269">Read</text><text fill="#000000" font-family="sans-serif" font-size="13" lengthAdjust="spacingAndGlyphs" textLength="35" x="325.4707" y="130.0414">Fetch</text><!--MD5=[6fcf0b82e12b0ed170a30a19f14d25c8]
@startuml
title Source.Foo.x
[A] "Fetch" - -> "Fetch" [D] : A.FetchResponse.ax
[A] "Fetch" - -> "FetchA" [C] : A.FetchResponse.ax
[B] "Fetch" - -> "FetchB" [C] : B.FetchResponse.bx
[D] "Fetch" - -> "Do" [Client] : D.FetchResponse.dx
[Source] "Read" - -> "Fetch" [A] : Source.Foo.x
[Source] "Read" - -> "Fetch" [B] : Source.Foo.x
@enduml

PlantUML version 1.2020.13(Sat Jun 13 12:26:38 UTC 2020)
(GPL source distribution)
Java Runtime: OpenJDK Runtime Environment
JVM: OpenJDK 64-Bit Server VM
Default Encoding: UTF-8
Language: en
Country: null
--></g></svg>