<?xml version="1.0" encoding="UTF-8" standalone="no"?><svg xmlns="http://www.w3.org/2000/svg" xmlns:xlink="http://www.w3.org/1999/xlink" contentScriptType="application/ecmascript" contentStyleType="text/css" height="237px" preserveAspectRatio="none" style="width:136px;height:237px;" version="1.1" viewBox="0 0 136 237" width="136px" zoomAndPan="magnify"><defs><filter height="300%" id="fx1mk0f2lcr7x" width="300%" x="-1" y="-1"><feGaussianBlur result="blurOut" stdDeviation="2.0"/><feColorMatrix in="blurOut" result="blurOut2" type="matrix" values="0 0 0 0 0 0 0 0 0 0 0 0 0 0 0 0 0 0 .4 0"/><feOffset dx="4.0" dy="4.0" in="blurOut2" result="blurOut3"/><feBlend in="SourceGraphic" in2="blurOut3" mode="normal"/></filter></defs><g><!--MD5=[7218ca274122d4b22d92dbfd01e1f3f5]
class Source.Bar--><rect fill="#FEFECE" filter="url(#fx1mk0f2lcr7x)" height="86.4141" id="Source.Bar" style="stroke: #A80036; stroke-width: 1.5;" width="110" x="7" y="7"/><ellipse cx="26.05" cy="23" fill="#DA70D6" rx="11" ry="11" style="stroke: #A80036; stroke-width: 1.0;"/><path d="M30.1594,29 L22.4406,29 L22.4406,16.6094 L30.1594,16.6094 L30.1594,18.7656 L24.8938,18.7656 L24.8938,21.4375 L29.6594,21.4375 L29.6594,23.5938 L24.8938,23.5938 L24.8938,26.8438 L30.1594,26.8438 L30.1594,29 Z "/><text fill="#000000" font-family="sans-serif" font-size="12" lengthAdjust="spacingAndGlyphs" textLength="69" x="40.95" y="27.1543">Source.Bar</text><line style="stroke: #A80036; stroke-width: 1.5;" x1="8" x2="116" y1="39" y2="39"/><ellipse cx="18" cy="50" fill="#000000" rx="3" ry="3" style="stroke: #000000; stroke-width: 1.0;"/><text fill="#000000" font-family="sans-serif" font-size="11" lengthAdjust="spacingAndGlyphs" textLength="52" x="27" y="53.2104">a : string</text><line style="stroke: #A80036; stroke-width: 1.0;" x1="8" x2="116" y1="59.8047" y2="59.8047"/><text fill="#000000" font-family="sans-serif" font-size="11" lengthAdjust="spacingAndGlyphs" textLength="33" x="27" y="74.0151">b : int</text><ellipse cx="18" cy="83.6094" fill="#000000" rx="3" ry="3" style="stroke: #000000; stroke-width: 1.0;"/><text fill="#000000" font-family="sans-serif" font-size="11" lengthAdjust="spacingAndGlyphs" textLength="14" x="27" y="86.8198">x :</text><text fill="#000000" font-family="sans-serif" font-size="11" font-weight="bold" lengthAdjust="spacingAndGlyphs" textLength="35" x="45" y="86.8198">Foo.x</text><text fill="#000000" font-family="sans-serif" font-size="11" lengthAdjust="spacingAndGlyphs" textLength="27" x="84" y="86.8198">«FK»</text><!--MD5=[b8206dade849e21dd2671e436c34cb0c]
class Source.Foo--><rect fill="#FEFECE" filter="url(#fx1mk0f2lcr7x)" height="65.6094" id="Source.Foo" style="stroke: #A80036; stroke-width: 1.5;" width="103" x="10.5" y="153"/><ellipse cx="25.5" cy="169" fill="#DA70D6" rx="11" ry="11" style="stroke: #A80036; stroke-width: 1.0;"/><path d="M29.6094,175 L21.8906,175 L21.8906,162.6094 L29.6094,162.6094 L29.6094,164.7656 L24.3438,164.7656 L24.3438,167.4375 L29.1094,167.4375 L29.1094,169.5938 L24.3438,169.5938 L24.3438,172.8438 L29.6094,172.8438 L29.6094,175 Z "/><text fill="#000000" font-family="sans-serif" font-size="12" lengthAdjust="spacingAndGlyphs" textLength="71" x="39.5" y="173.1543">Source.Foo</text><line style="stroke: #A80036; stroke-width: 1.5;" x1="11.5" x2="112.5" y1="185" y2="185"/><ellipse cx="21.5" cy="196" fill="#000000" rx="3" ry="3" style="stroke: #000000; stroke-width: 1.0;"/><text fill="#000000" font-family="sans-serif" font-size="11" lengthAdjust="spacingAndGlyphs" textLength="32" x="30.5" y="199.2104">x : int</text><ellipse cx="21.5" cy="208.8047" fill="#000000" rx="3" ry="3" style="stroke: #000000; stroke-width: 1.0;"/><text fill="#000000" font-family="sans-serif" font-size="11" lengthAdjust="spacingAndGlyphs" textLength="32" x="30.5" y="212.0151">y : int</text><!--MD5=[1ec2ed1d75833be985a52dc65f5845a9]
link Source.Bar to Source.Foo--><path d="M62,101.337 C62,115.5893 62,130.8822 62,144.4957 " fill="none" id="Source.Bar-Source.Foo" style="stroke: #DC143C; stroke-width: 1.0;"/><line style="stroke: #DC143C; stroke-width: 1.0;" x1="66" x2="58" y1="148.7307" y2="148.7307"/><line style="stroke: #DC143C; stroke-width: 1.0;" x1="66" x2="58" y1="145.7307" y2="145.7307"/><line style="stroke: #DC143C; stroke-width: 1.0;" x1="62" x2="62" y1="144.7307" y2="152.7307"/><line style="stroke: #DC143C; stroke-width: 1.0;" x1="62" x2="56" y1="101.0312" y2="93.0312"/><line style="stroke: #DC143C; stroke-width: 1.0;" x1="62" x2="68" y1="101.0312" y2="93.0312"/><line style="stroke: #DC143C; stroke-width: 1.0;" x1="62" x2="62" y1="101.0312" y2="93.0312"/><ellipse cx="62" cy="107.0312" fill="none" rx="4" ry="4" style="stroke: #DC143C; stroke-width: 1.0;"/><!--MD5=[896f4851859d19b81af2a5d94fb58afc]
@startuml
skinparam component {
  BackgroundColor FloralWhite
  BorderColor Black
  ArrowColor Crimson
}
skinparam stereotypeCBackgroundColor Orchid
hide methods

entity Source.Bar {
  * a : string
  - -
  b : int
  * x : **Foo.x** <<FK>>
}

entity Source.Foo {
  * x : int
  * y : int
}

Source.Bar             }o- -|| Source.Foo
@enduml

PlantUML version 1.2020.14(Sat Jun 20 14:14:34 UTC 2020)
(GPL source distribution)
Java Runtime: OpenJDK Runtime Environment
JVM: OpenJDK 64-Bit Server VM
Default Encoding: UTF-8
Language: en
Country: null
--></g></svg>