<?xml version="1.0" encoding="UTF-8" standalone="no"?><svg xmlns="http://www.w3.org/2000/svg" xmlns:xlink="http://www.w3.org/1999/xlink" contentScriptType="application/ecmascript" contentStyleType="text/css" height="496px" preserveAspectRatio="none" style="width:160px;height:496px;" version="1.1" viewBox="0 0 160 496" width="160px" zoomAndPan="magnify"><defs><filter height="300%" id="f16m7yox2qvlnb" width="300%" x="-1" y="-1"><feGaussianBlur result="blurOut" stdDeviation="2.0"/><feColorMatrix in="blurOut" result="blurOut2" type="matrix" values="0 0 0 0 0 0 0 0 0 0 0 0 0 0 0 0 0 0 .4 0"/><feOffset dx="4.0" dy="4.0" in="blurOut2" result="blurOut3"/><feBlend in="SourceGraphic" in2="blurOut3" mode="normal"/></filter></defs><g><!--MD5=[770389ab9df153645bc6ef28055eb2b5]
entity A--><rect fill="#FFFAF0" filter="url(#f16m7yox2qvlnb)" height="46.2969" style="stroke: #000000; stroke-width: 1.5;" width="49" x="7" y="325"/><rect fill="#FFFAF0" height="10" style="stroke: #000000; stroke-width: 1.5;" width="15" x="36" y="330"/><rect fill="#FFFAF0" height="2" style="stroke: #000000; stroke-width: 1.5;" width="4" x="34" y="332"/><rect fill="#FFFAF0" height="2" style="stroke: #000000; stroke-width: 1.5;" width="4" x="34" y="336"/><text fill="#000000" font-family="sans-serif" font-size="14" lengthAdjust="spacingAndGlyphs" textLength="9" x="22" y="357.9951">A</text><!--MD5=[c8da82a3e4fd5c54db14ac48b9861466]
entity Source--><rect fill="#FFFAF0" filter="url(#f16m7yox2qvlnb)" height="46.2969" style="stroke: #000000; stroke-width: 1.5;" width="89" x="29" y="431"/><rect fill="#FFFAF0" height="10" style="stroke: #000000; stroke-width: 1.5;" width="15" x="98" y="436"/><rect fill="#FFFAF0" height="2" style="stroke: #000000; stroke-width: 1.5;" width="4" x="96" y="438"/><rect fill="#FFFAF0" height="2" style="stroke: #000000; stroke-width: 1.5;" width="4" x="96" y="442"/><text fill="#000000" font-family="sans-serif" font-size="14" lengthAdjust="spacingAndGlyphs" textLength="49" x="44" y="463.9951">Source</text><!--MD5=[b2d39259b6aeabc16b394deeb0238426]
entity B--><rect fill="#FFFAF0" filter="url(#f16m7yox2qvlnb)" height="46.2969" style="stroke: #000000; stroke-width: 1.5;" width="50" x="91.5" y="325"/><rect fill="#FFFAF0" height="10" style="stroke: #000000; stroke-width: 1.5;" width="15" x="121.5" y="330"/><rect fill="#FFFAF0" height="2" style="stroke: #000000; stroke-width: 1.5;" width="4" x="119.5" y="332"/><rect fill="#FFFAF0" height="2" style="stroke: #000000; stroke-width: 1.5;" width="4" x="119.5" y="336"/><text fill="#000000" font-family="sans-serif" font-size="14" lengthAdjust="spacingAndGlyphs" textLength="10" x="106.5" y="357.9951">B</text><!--MD5=[16fab723be418f7eaf2ea4bd895a8e51]
entity C--><rect fill="#FFFAF0" filter="url(#f16m7yox2qvlnb)" height="46.2969" style="stroke: #000000; stroke-width: 1.5;" width="50" x="84.5" y="219"/><rect fill="#FFFAF0" height="10" style="stroke: #000000; stroke-width: 1.5;" width="15" x="114.5" y="224"/><rect fill="#FFFAF0" height="2" style="stroke: #000000; stroke-width: 1.5;" width="4" x="112.5" y="226"/><rect fill="#FFFAF0" height="2" style="stroke: #000000; stroke-width: 1.5;" width="4" x="112.5" y="230"/><text fill="#000000" font-family="sans-serif" font-size="14" lengthAdjust="spacingAndGlyphs" textLength="10" x="99.5" y="251.9951">C</text><!--MD5=[0ba5ee7700168656dc1b457c6fe9fdac]
entity Client--><rect fill="#FFFAF0" filter="url(#f16m7yox2qvlnb)" height="46.2969" style="stroke: #000000; stroke-width: 1.5;" width="79" x="31" y="7"/><rect fill="#FFFAF0" height="10" style="stroke: #000000; stroke-width: 1.5;" width="15" x="90" y="12"/><rect fill="#FFFAF0" height="2" style="stroke: #000000; stroke-width: 1.5;" width="4" x="88" y="14"/><rect fill="#FFFAF0" height="2" style="stroke: #000000; stroke-width: 1.5;" width="4" x="88" y="18"/><text fill="#000000" font-family="sans-serif" font-size="14" lengthAdjust="spacingAndGlyphs" textLength="39" x="46" y="39.9951">Client</text><!--MD5=[118f42602524ad482f02b27ef22fc383]
entity D--><rect fill="#FFFAF0" filter="url(#f16m7yox2qvlnb)" height="46.2969" style="stroke: #000000; stroke-width: 1.5;" width="51" x="45" y="113"/><rect fill="#FFFAF0" height="10" style="stroke: #000000; stroke-width: 1.5;" width="15" x="76" y="118"/><rect fill="#FFFAF0" height="2" style="stroke: #000000; stroke-width: 1.5;" width="4" x="74" y="120"/><rect fill="#FFFAF0" height="2" style="stroke: #000000; stroke-width: 1.5;" width="4" x="74" y="124"/><text fill="#000000" font-family="sans-serif" font-size="14" lengthAdjust="spacingAndGlyphs" textLength="11" x="60" y="145.9951">D</text><!--MD5=[7f47cc6edd67035868970dd881b85ad1]
link A to Source--><path d="M40.6134,371.0004 C47.0087,387.1409 55.597,408.8162 62.3933,425.9688 " fill="none" id="A-&gt;Source" style="stroke: #DC143C; stroke-width: 1.0;"/><polygon fill="#DC143C" points="64.2594,430.6784,64.6625,420.8378,62.4174,426.0301,57.2252,423.7849,64.2594,430.6784" style="stroke: #DC143C; stroke-width: 1.0;"/><!--MD5=[819bb4997c2be26d5a9f4c6d4029a9f3]
link B to Source--><path d="M107.1696,371.0004 C100.6221,387.1409 91.8293,408.8162 84.8712,425.9688 " fill="none" id="B-&gt;Source" style="stroke: #DC143C; stroke-width: 1.0;"/><polygon fill="#DC143C" points="82.9606,430.6784,90.0504,423.8422,84.8402,426.0451,82.6372,420.8349,82.9606,430.6784" style="stroke: #DC143C; stroke-width: 1.0;"/><!--MD5=[1454d5cde7bc0c276b7bdc83fba84c24]
link C to A--><path d="M92.5752,265.0004 C80.5967,281.2789 64.4755,303.1871 51.8038,320.4076 " fill="none" id="C-&gt;A" style="stroke: #DC143C; stroke-width: 1.0;"/><polygon fill="#DC143C" points="48.6612,324.6784,57.2171,319.8003,51.6246,320.6512,50.7737,315.0588,48.6612,324.6784" style="stroke: #DC143C; stroke-width: 1.0;"/><!--MD5=[a9a08eed061a1d2941776fe900dc520e]
link C to B--><path d="M111.0189,265.0004 C112.0757,281.003 113.4917,302.4461 114.6198,319.528 " fill="none" id="C-&gt;B" style="stroke: #DC143C; stroke-width: 1.0;"/><polygon fill="#DC143C" points="114.9599,324.6784,118.358,315.4343,114.6303,319.6893,110.3754,315.9616,114.9599,324.6784" style="stroke: #DC143C; stroke-width: 1.0;"/><!--MD5=[82d5360e014fda99232785675274d395]
link Client to D--><path d="M70.5,53.0004 C70.5,69.003 70.5,90.4461 70.5,107.528 " fill="none" id="Client-&gt;D" style="stroke: #DC143C; stroke-width: 1.0;"/><polygon fill="#DC143C" points="70.5,112.6784,74.5,103.6784,70.5,107.6784,66.5,103.6784,70.5,112.6784" style="stroke: #DC143C; stroke-width: 1.0;"/><!--MD5=[dd279d86604081708109ffa5c10dbded]
link D to A--><path d="M66.2521,159.0913 C59.0431,198.2784 44.4404,277.6574 36.6571,319.9665 " fill="none" id="D-&gt;A" style="stroke: #DC143C; stroke-width: 1.0;"/><polygon fill="#DC143C" points="35.7427,324.9372,41.3049,316.8094,36.6473,320.0197,33.437,315.362,35.7427,324.9372" style="stroke: #DC143C; stroke-width: 1.0;"/><!--MD5=[be418e527c743f4eb8fec3865420733b]
link D to C--><path d="M78.9624,159.0004 C84.9009,175.1409 92.8758,196.8162 99.1866,213.9688 " fill="none" id="D-&gt;C" style="stroke: #DC143C; stroke-width: 1.0;"/><polygon fill="#DC143C" points="100.9194,218.6784,101.5658,208.8508,99.193,213.9859,94.0578,211.6131,100.9194,218.6784" style="stroke: #DC143C; stroke-width: 1.0;"/><!--MD5=[cba101927045550620ed18203b31aaf9]
@startuml
skinparam component {
  BackgroundColor FloralWhite
  BorderColor Black
  ArrowColor Crimson
}
[A] - -> [Source]
[B] - -> [Source]
[C] - -> [A]
[C] - -> [B]
[Client] - -> [D]
[D] - -> [A]
[D] - -> [C]
@enduml

PlantUML version 1.2020.14(Sat Jun 20 14:14:34 UTC 2020)
(GPL source distribution)
Java Runtime: OpenJDK Runtime Environment
JVM: OpenJDK 64-Bit Server VM
Default Encoding: UTF-8
Language: en
Country: null
--></g></svg>