<?xml version="1.0" encoding="UTF-8" standalone="no"?><svg xmlns="http://www.w3.org/2000/svg" xmlns:xlink="http://www.w3.org/1999/xlink" contentScriptType="application/ecmascript" contentStyleType="text/css" height="685px" preserveAspectRatio="none" style="width:400px;height:685px;" version="1.1" viewBox="0 0 400 685" width="400px" zoomAndPan="magnify"><defs><filter height="300%" id="f1wmhs49hhs2wl" width="300%" x="-1" y="-1"><feGaussianBlur result="blurOut" stdDeviation="2.0"/><feColorMatrix in="blurOut" result="blurOut2" type="matrix" values="0 0 0 0 0 0 0 0 0 0 0 0 0 0 0 0 0 0 .4 0"/><feOffset dx="4.0" dy="4.0" in="blurOut2" result="blurOut3"/><feBlend in="SourceGraphic" in2="blurOut3" mode="normal"/></filter></defs><g><rect fill="#FFFFFF" filter="url(#f1wmhs49hhs2wl)" height="497.3281" style="stroke: #A80036; stroke-width: 1.0;" width="10" x="40" y="96.4297"/><rect fill="#FFFFFF" filter="url(#f1wmhs49hhs2wl)" height="454.1953" style="stroke: #A80036; stroke-width: 1.0;" width="10" x="104" y="125.5625"/><rect fill="#FFFFFF" filter="url(#f1wmhs49hhs2wl)" height="57.1328" style="stroke: #A80036; stroke-width: 1.0;" width="10" x="168" y="154.6953"/><rect fill="#FFFFFF" filter="url(#f1wmhs49hhs2wl)" height="57.1328" style="stroke: #A80036; stroke-width: 1.0;" width="10" x="168" y="312.2266"/><rect fill="#FFFFFF" filter="url(#f1wmhs49hhs2wl)" height="324.7969" style="stroke: #A80036; stroke-width: 1.0;" width="10" x="232" y="240.9609"/><rect fill="#FFFFFF" filter="url(#f1wmhs49hhs2wl)" height="111.2656" style="stroke: #A80036; stroke-width: 1.0;" width="10" x="237" y="278.0938"/><rect fill="#FFFFFF" filter="url(#f1wmhs49hhs2wl)" height="111.2656" style="stroke: #A80036; stroke-width: 1.0;" width="10" x="237" y="433.4922"/><rect fill="#FFFFFF" filter="url(#f1wmhs49hhs2wl)" height="57.1328" style="stroke: #A80036; stroke-width: 1.0;" width="10" x="301" y="467.625"/><rect fill="#FFFFFF" filter="url(#f1wmhs49hhs2wl)" height="14" style="stroke: #A80036; stroke-width: 1.0;" width="10" x="362" y="183.8281"/><rect fill="#FFFFFF" filter="url(#f1wmhs49hhs2wl)" height="14" style="stroke: #A80036; stroke-width: 1.0;" width="10" x="362" y="341.3594"/><rect fill="#FFFFFF" filter="url(#f1wmhs49hhs2wl)" height="14" style="stroke: #A80036; stroke-width: 1.0;" width="10" x="362" y="496.7578"/><line style="stroke: #A80036; stroke-width: 1.0; stroke-dasharray: 5.0,5.0;" x1="44.5" x2="44.5" y1="65.2969" y2="611.7578"/><line style="stroke: #A80036; stroke-width: 1.0; stroke-dasharray: 5.0,5.0;" x1="109" x2="109" y1="65.2969" y2="611.7578"/><line style="stroke: #A80036; stroke-width: 1.0; stroke-dasharray: 5.0,5.0;" x1="173" x2="173" y1="65.2969" y2="611.7578"/><line style="stroke: #A80036; stroke-width: 1.0; stroke-dasharray: 5.0,5.0;" x1="237" x2="237" y1="65.2969" y2="611.7578"/><line style="stroke: #A80036; stroke-width: 1.0; stroke-dasharray: 5.0,5.0;" x1="306" x2="306" y1="65.2969" y2="611.7578"/><line style="stroke: #A80036; stroke-width: 1.0; stroke-dasharray: 5.0,5.0;" x1="366.5" x2="366.5" y1="65.2969" y2="611.7578"/><text fill="#000000" font-family="sans-serif" font-size="14" lengthAdjust="spacingAndGlyphs" textLength="39" x="22.5" y="61.9951">Client</text><ellipse cx="45" cy="33" fill="#FEFECE" filter="url(#f1wmhs49hhs2wl)" rx="12" ry="12" style="stroke: #A80036; stroke-width: 2.0;"/><polygon fill="#A80036" points="41,21,47,16,45,21,47,26,41,21" style="stroke: #A80036; stroke-width: 1.0;"/><text fill="#000000" font-family="sans-serif" font-size="14" lengthAdjust="spacingAndGlyphs" textLength="39" x="22.5" y="623.7529">Client</text><ellipse cx="45" cy="643.0547" fill="#FEFECE" filter="url(#f1wmhs49hhs2wl)" rx="12" ry="12" style="stroke: #A80036; stroke-width: 2.0;"/><polygon fill="#A80036" points="41,631.0547,47,626.0547,45,631.0547,47,636.0547,41,631.0547" style="stroke: #A80036; stroke-width: 1.0;"/><text fill="#000000" font-family="sans-serif" font-size="14" lengthAdjust="spacingAndGlyphs" textLength="11" x="100.5" y="61.9951">D</text><ellipse cx="109" cy="33" fill="#FEFECE" filter="url(#f1wmhs49hhs2wl)" rx="12" ry="12" style="stroke: #A80036; stroke-width: 2.0;"/><polygon fill="#A80036" points="105,21,111,16,109,21,111,26,105,21" style="stroke: #A80036; stroke-width: 1.0;"/><text fill="#000000" font-family="sans-serif" font-size="14" lengthAdjust="spacingAndGlyphs" textLength="11" x="100.5" y="623.7529">D</text><ellipse cx="109" cy="643.0547" fill="#FEFECE" filter="url(#f1wmhs49hhs2wl)" rx="12" ry="12" style="stroke: #A80036; stroke-width: 2.0;"/><polygon fill="#A80036" points="105,631.0547,111,626.0547,109,631.0547,111,636.0547,105,631.0547" style="stroke: #A80036; stroke-width: 1.0;"/><text fill="#000000" font-family="sans-serif" font-size="14" lengthAdjust="spacingAndGlyphs" textLength="9" x="165.5" y="61.9951">A</text><ellipse cx="173" cy="33" fill="#FEFECE" filter="url(#f1wmhs49hhs2wl)" rx="12" ry="12" style="stroke: #A80036; stroke-width: 2.0;"/><polygon fill="#A80036" points="169,21,175,16,173,21,175,26,169,21" style="stroke: #A80036; stroke-width: 1.0;"/><text fill="#000000" font-family="sans-serif" font-size="14" lengthAdjust="spacingAndGlyphs" textLength="9" x="165.5" y="623.7529">A</text><ellipse cx="173" cy="643.0547" fill="#FEFECE" filter="url(#f1wmhs49hhs2wl)" rx="12" ry="12" style="stroke: #A80036; stroke-width: 2.0;"/><polygon fill="#A80036" points="169,631.0547,175,626.0547,173,631.0547,175,636.0547,169,631.0547" style="stroke: #A80036; stroke-width: 1.0;"/><text fill="#000000" font-family="sans-serif" font-size="14" lengthAdjust="spacingAndGlyphs" textLength="10" x="229" y="61.9951">C</text><ellipse cx="237" cy="33" fill="#FEFECE" filter="url(#f1wmhs49hhs2wl)" rx="12" ry="12" style="stroke: #A80036; stroke-width: 2.0;"/><polygon fill="#A80036" points="233,21,239,16,237,21,239,26,233,21" style="stroke: #A80036; stroke-width: 1.0;"/><text fill="#000000" font-family="sans-serif" font-size="14" lengthAdjust="spacingAndGlyphs" textLength="10" x="229" y="623.7529">C</text><ellipse cx="237" cy="643.0547" fill="#FEFECE" filter="url(#f1wmhs49hhs2wl)" rx="12" ry="12" style="stroke: #A80036; stroke-width: 2.0;"/><polygon fill="#A80036" points="233,631.0547,239,626.0547,237,631.0547,239,636.0547,233,631.0547" style="stroke: #A80036; stroke-width: 1.0;"/><text fill="#000000" font-family="sans-serif" font-size="14" lengthAdjust="spacingAndGlyphs" textLength="10" x="298" y="61.9951">B</text><ellipse cx="306" cy="33" fill="#FEFECE" filter="url(#f1wmhs49hhs2wl)" rx="12" ry="12" style="stroke: #A80036; stroke-width: 2.0;"/><polygon fill="#A80036" points="302,21,308,16,306,21,308,26,302,21" style="stroke: #A80036; stroke-width: 1.0;"/><text fill="#000000" font-family="sans-serif" font-size="14" lengthAdjust="spacingAndGlyphs" textLength="10" x="298" y="623.7529">B</text><ellipse cx="306" cy="643.0547" fill="#FEFECE" filter="url(#f1wmhs49hhs2wl)" rx="12" ry="12" style="stroke: #A80036; stroke-width: 2.0;"/><polygon fill="#A80036" points="302,631.0547,308,626.0547,306,631.0547,308,636.0547,302,631.0547" style="stroke: #A80036; stroke-width: 1.0;"/><text fill="#000000" font-family="sans-serif" font-size="14" lengthAdjust="spacingAndGlyphs" textLength="49" x="339.5" y="61.9951">Source</text><path d="M349,13 C349,3 367,3 367,3 C367,3 385,3 385,13 L385,39 C385,49 367,49 367,49 C367,49 349,49 349,39 L349,13 " fill="#FEFECE" filter="url(#f1wmhs49hhs2wl)" style="stroke: #000000; stroke-width: 1.5;"/><path d="M349,13 C349,23 367,23 367,23 C367,23 385,23 385,13 " fill="none" style="stroke: #000000; stroke-width: 1.5;"/><text fill="#000000" font-family="sans-serif" font-size="14" lengthAdjust="spacingAndGlyphs" textLength="49" x="339.5" y="623.7529">Source</text><path d="M349,637.0547 C349,627.0547 367,627.0547 367,627.0547 C367,627.0547 385,627.0547 385,637.0547 L385,663.0547 C385,673.0547 367,673.0547 367,673.0547 C367,673.0547 349,673.0547 349,663.0547 L349,637.0547 " fill="#FEFECE" filter="url(#f1wmhs49hhs2wl)" style="stroke: #000000; stroke-width: 1.5;"/><path d="M349,637.0547 C349,647.0547 367,647.0547 367,647.0547 C367,647.0547 385,647.0547 385,637.0547 " fill="none" style="stroke: #000000; stroke-width: 1.5;"/><rect fill="#FFFFFF" filter="url(#f1wmhs49hhs2wl)" height="497.3281" style="stroke: #A80036; stroke-width: 1.0;" width="10" x="40" y="96.4297"/><rect fill="#FFFFFF" filter="url(#f1wmhs49hhs2wl)" height="454.1953" style="stroke: #A80036; stroke-width: 1.0;" width="10" x="104" y="125.5625"/><rect fill="#FFFFFF" filter="url(#f1wmhs49hhs2wl)" height="57.1328" style="stroke: #A80036; stroke-width: 1.0;" width="10" x="168" y="154.6953"/><rect fill="#FFFFFF" filter="url(#f1wmhs49hhs2wl)" height="57.1328" style="stroke: #A80036; stroke-width: 1.0;" width="10" x="168" y="312.2266"/><rect fill="#FFFFFF" filter="url(#f1wmhs49hhs2wl)" height="324.7969" style="stroke: #A80036; stroke-width: 1.0;" width="10" x="232" y="240.9609"/><rect fill="#FFFFFF" filter="url(#f1wmhs49hhs2wl)" height="111.2656" style="stroke: #A80036; stroke-width: 1.0;" width="10" x="237" y="278.0938"/><rect fill="#FFFFFF" filter="url(#f1wmhs49hhs2wl)" height="111.2656" style="stroke: #A80036; stroke-width: 1.0;" width="10" x="237" y="433.4922"/><rect fill="#FFFFFF" filter="url(#f1wmhs49hhs2wl)" height="57.1328" style="stroke: #A80036; stroke-width: 1.0;" width="10" x="301" y="467.625"/><rect fill="#FFFFFF" filter="url(#f1wmhs49hhs2wl)" height="14" style="stroke: #A80036; stroke-width: 1.0;" width="10" x="362" y="183.8281"/><rect fill="#FFFFFF" filter="url(#f1wmhs49hhs2wl)" height="14" style="stroke: #A80036; stroke-width: 1.0;" width="10" x="362" y="341.3594"/><rect fill="#FFFFFF" filter="url(#f1wmhs49hhs2wl)" height="14" style="stroke: #A80036; stroke-width: 1.0;" width="10" x="362" y="496.7578"/><polygon fill="#A80036" points="28,92.4297,38,96.4297,28,100.4297,32,96.4297" style="stroke: #A80036; stroke-width: 1.0;"/><line style="stroke: #A80036; stroke-width: 1.0;" x1="3" x2="34" y1="96.4297" y2="96.4297"/><text fill="#000000" font-family="sans-serif" font-size="13" lengthAdjust="spacingAndGlyphs" textLength="18" x="10" y="91.3638">Do</text><polygon fill="#A80036" points="92,121.5625,102,125.5625,92,129.5625,96,125.5625" style="stroke: #A80036; stroke-width: 1.0;"/><line style="stroke: #A80036; stroke-width: 1.0;" x1="50" x2="98" y1="125.5625" y2="125.5625"/><text fill="#000000" font-family="sans-serif" font-size="13" lengthAdjust="spacingAndGlyphs" textLength="35" x="57" y="120.4966">Fetch</text><polygon fill="#A80036" points="156,150.6953,166,154.6953,156,158.6953,160,154.6953" style="stroke: #A80036; stroke-width: 1.0;"/><line style="stroke: #A80036; stroke-width: 1.0;" x1="114" x2="162" y1="154.6953" y2="154.6953"/><text fill="#000000" font-family="sans-serif" font-size="13" lengthAdjust="spacingAndGlyphs" textLength="35" x="121" y="149.6294">Fetch</text><polygon fill="#A80036" points="350,179.8281,360,183.8281,350,187.8281,354,183.8281" style="stroke: #A80036; stroke-width: 1.0;"/><line style="stroke: #A80036; stroke-width: 1.0;" x1="178" x2="356" y1="183.8281" y2="183.8281"/><text fill="#000000" font-family="sans-serif" font-size="13" lengthAdjust="spacingAndGlyphs" textLength="32" x="185" y="178.7622">Read</text><polygon fill="#A80036" points="189,193.8281,179,197.8281,189,201.8281,185,197.8281" style="stroke: #A80036; stroke-width: 1.0;"/><line style="stroke: #A80036; stroke-width: 1.0; stroke-dasharray: 2.0,2.0;" x1="183" x2="366" y1="197.8281" y2="197.8281"/><polygon fill="#A80036" points="125,207.8281,115,211.8281,125,215.8281,121,211.8281" style="stroke: #A80036; stroke-width: 1.0;"/><line style="stroke: #A80036; stroke-width: 1.0; stroke-dasharray: 2.0,2.0;" x1="119" x2="172" y1="211.8281" y2="211.8281"/><polygon fill="#A80036" points="220,236.9609,230,240.9609,220,244.9609,224,240.9609" style="stroke: #A80036; stroke-width: 1.0;"/><line style="stroke: #A80036; stroke-width: 1.0;" x1="114" x2="226" y1="240.9609" y2="240.9609"/><text fill="#000000" font-family="sans-serif" font-size="13" lengthAdjust="spacingAndGlyphs" textLength="35" x="121" y="235.895">Fetch</text><line style="stroke: #A80036; stroke-width: 1.0;" x1="242" x2="289" y1="265.0938" y2="265.0938"/><line style="stroke: #A80036; stroke-width: 1.0;" x1="289" x2="289" y1="265.0938" y2="278.0938"/><line style="stroke: #A80036; stroke-width: 1.0;" x1="248" x2="289" y1="278.0938" y2="278.0938"/><polygon fill="#A80036" points="258,274.0938,248,278.0938,258,282.0938,254,278.0938" style="stroke: #A80036; stroke-width: 1.0;"/><text fill="#000000" font-family="sans-serif" font-size="13" lengthAdjust="spacingAndGlyphs" textLength="44" x="254" y="260.0278">FetchA</text><polygon fill="#A80036" points="189,308.2266,179,312.2266,189,316.2266,185,312.2266" style="stroke: #A80036; stroke-width: 1.0;"/><line style="stroke: #A80036; stroke-width: 1.0;" x1="183" x2="236" y1="312.2266" y2="312.2266"/><text fill="#000000" font-family="sans-serif" font-size="13" lengthAdjust="spacingAndGlyphs" textLength="35" x="195" y="307.1606">Fetch</text><polygon fill="#A80036" points="350,337.3594,360,341.3594,350,345.3594,354,341.3594" style="stroke: #A80036; stroke-width: 1.0;"/><line style="stroke: #A80036; stroke-width: 1.0;" x1="178" x2="356" y1="341.3594" y2="341.3594"/><text fill="#000000" font-family="sans-serif" font-size="13" lengthAdjust="spacingAndGlyphs" textLength="32" x="185" y="336.2935">Read</text><polygon fill="#A80036" points="189,351.3594,179,355.3594,189,359.3594,185,355.3594" style="stroke: #A80036; stroke-width: 1.0;"/><line style="stroke: #A80036; stroke-width: 1.0; stroke-dasharray: 2.0,2.0;" x1="183" x2="366" y1="355.3594" y2="355.3594"/><polygon fill="#A80036" points="225,365.3594,235,369.3594,225,373.3594,229,369.3594" style="stroke: #A80036; stroke-width: 1.0;"/><line style="stroke: #A80036; stroke-width: 1.0; stroke-dasharray: 2.0,2.0;" x1="173" x2="231" y1="369.3594" y2="369.3594"/><line style="stroke: #A80036; stroke-width: 1.0; stroke-dasharray: 2.0,2.0;" x1="247" x2="289" y1="388.3594" y2="388.3594"/><line style="stroke: #A80036; stroke-width: 1.0; stroke-dasharray: 2.0,2.0;" x1="289" x2="289" y1="388.3594" y2="401.3594"/><line style="stroke: #A80036; stroke-width: 1.0; stroke-dasharray: 2.0,2.0;" x1="242" x2="289" y1="401.3594" y2="401.3594"/><polygon fill="#A80036" points="252,397.3594,242,401.3594,252,405.3594,248,401.3594" style="stroke: #A80036; stroke-width: 1.0;"/><line style="stroke: #A80036; stroke-width: 1.0;" x1="242" x2="289" y1="420.4922" y2="420.4922"/><line style="stroke: #A80036; stroke-width: 1.0;" x1="289" x2="289" y1="420.4922" y2="433.4922"/><line style="stroke: #A80036; stroke-width: 1.0;" x1="248" x2="289" y1="433.4922" y2="433.4922"/><polygon fill="#A80036" points="258,429.4922,248,433.4922,258,437.4922,254,433.4922" style="stroke: #A80036; stroke-width: 1.0;"/><text fill="#000000" font-family="sans-serif" font-size="13" lengthAdjust="spacingAndGlyphs" textLength="44" x="254" y="415.4263">FetchB</text><polygon fill="#A80036" points="289,463.625,299,467.625,289,471.625,293,467.625" style="stroke: #A80036; stroke-width: 1.0;"/><line style="stroke: #A80036; stroke-width: 1.0;" x1="247" x2="295" y1="467.625" y2="467.625"/><text fill="#000000" font-family="sans-serif" font-size="13" lengthAdjust="spacingAndGlyphs" textLength="35" x="254" y="462.5591">Fetch</text><polygon fill="#A80036" points="350,492.7578,360,496.7578,350,500.7578,354,496.7578" style="stroke: #A80036; stroke-width: 1.0;"/><line style="stroke: #A80036; stroke-width: 1.0;" x1="311" x2="356" y1="496.7578" y2="496.7578"/><text fill="#000000" font-family="sans-serif" font-size="13" lengthAdjust="spacingAndGlyphs" textLength="32" x="318" y="491.6919">Read</text><polygon fill="#A80036" points="322,506.7578,312,510.7578,322,514.7578,318,510.7578" style="stroke: #A80036; stroke-width: 1.0;"/><line style="stroke: #A80036; stroke-width: 1.0; stroke-dasharray: 2.0,2.0;" x1="316" x2="366" y1="510.7578" y2="510.7578"/><polygon fill="#A80036" points="258,520.7578,248,524.7578,258,528.7578,254,524.7578" style="stroke: #A80036; stroke-width: 1.0;"/><line style="stroke: #A80036; stroke-width: 1.0; stroke-dasharray: 2.0,2.0;" x1="252" x2="305" y1="524.7578" y2="524.7578"/><line style="stroke: #A80036; stroke-width: 1.0; stroke-dasharray: 2.0,2.0;" x1="247" x2="289" y1="543.7578" y2="543.7578"/><line style="stroke: #A80036; stroke-width: 1.0; stroke-dasharray: 2.0,2.0;" x1="289" x2="289" y1="543.7578" y2="556.7578"/><line style="stroke: #A80036; stroke-width: 1.0; stroke-dasharray: 2.0,2.0;" x1="242" x2="289" y1="556.7578" y2="556.7578"/><polygon fill="#A80036" points="252,552.7578,242,556.7578,252,560.7578,248,556.7578" style="stroke: #A80036; stroke-width: 1.0;"/><polygon fill="#A80036" points="125,561.7578,115,565.7578,125,569.7578,121,565.7578" style="stroke: #A80036; stroke-width: 1.0;"/><line style="stroke: #A80036; stroke-width: 1.0; stroke-dasharray: 2.0,2.0;" x1="119" x2="236" y1="565.7578" y2="565.7578"/><polygon fill="#A80036" points="61,575.7578,51,579.7578,61,583.7578,57,579.7578" style="stroke: #A80036; stroke-width: 1.0;"/><line style="stroke: #A80036; stroke-width: 1.0; stroke-dasharray: 2.0,2.0;" x1="55" x2="108" y1="579.7578" y2="579.7578"/><polygon fill="#A80036" points="14,589.7578,4,593.7578,14,597.7578,10,593.7578" style="stroke: #A80036; stroke-width: 1.0;"/><line style="stroke: #A80036; stroke-width: 1.0; stroke-dasharray: 2.0,2.0;" x1="8" x2="44" y1="593.7578" y2="593.7578"/><!--MD5=[ee9d7c403f93f13b8ea10577dbe9cfc4]
@startuml
skinparam MaxMessageSize 250
control "Client"
control "D"
control "A"
control "C"
control "B"
database "Source"

 -> Client : Do
activate Client
Client -> D : Fetch
activate D
D -> A : Fetch
activate A
A -> Source : Read
activate Source
A <- - Source
deactivate Source
D <- - A
deactivate A
D -> C : Fetch
activate C
C -> C : FetchA
activate C
C -> A : Fetch
activate A
A -> Source : Read
activate Source
A <- - Source
deactivate Source
C <- - A
deactivate A
C <- - C
deactivate C
C -> C : FetchB
activate C
C -> B : Fetch
activate B
B -> Source : Read
activate Source
B <- - Source
deactivate Source
C <- - B
deactivate B
C <- - C
deactivate C
D <- - C
deactivate C
Client <- - D
deactivate D
 <- - Client
deactivate Client
@enduml

PlantUML version 1.2020.13(Sat Jun 13 12:26:38 UTC 2020)
(GPL source distribution)
Java Runtime: OpenJDK Runtime Environment
JVM: OpenJDK 64-Bit Server VM
Default Encoding: UTF-8
Language: en
Country: null
--></g></svg>