<?xml version="1.0" encoding="UTF-8" standalone="no"?><svg xmlns="http://www.w3.org/2000/svg" xmlns:xlink="http://www.w3.org/1999/xlink" contentScriptType="application/ecmascript" contentStyleType="text/css" height="851px" preserveAspectRatio="none" style="width:400px;height:851px;" version="1.1" viewBox="0 0 400 851" width="400px" zoomAndPan="magnify"><defs><filter height="300%" id="fi3lqs7hbc7qj" width="300%" x="-1" y="-1"><feGaussianBlur result="blurOut" stdDeviation="2.0"/><feColorMatrix in="blurOut" result="blurOut2" type="matrix" values="0 0 0 0 0 0 0 0 0 0 0 0 0 0 0 0 0 0 .4 0"/><feOffset dx="4.0" dy="4.0" in="blurOut2" result="blurOut3"/><feBlend in="SourceGraphic" in2="blurOut3" mode="normal"/></filter></defs><g><rect fill="#FFFFFF" filter="url(#fi3lqs7hbc7qj)" height="663.7891" style="stroke: #A80036; stroke-width: 1.0;" width="10" x="40" y="96.4297"/><rect fill="#FFFFFF" filter="url(#fi3lqs7hbc7qj)" height="605.5234" style="stroke: #A80036; stroke-width: 1.0;" width="10" x="104" y="125.5625"/><rect fill="#FFFFFF" filter="url(#fi3lqs7hbc7qj)" height="87.3984" style="stroke: #A80036; stroke-width: 1.0;" width="10" x="168" y="154.6953"/><rect fill="#FFFFFF" filter="url(#fi3lqs7hbc7qj)" height="87.3984" style="stroke: #A80036; stroke-width: 1.0;" width="10" x="168" y="342.4922"/><rect fill="#FFFFFF" filter="url(#fi3lqs7hbc7qj)" height="430.7266" style="stroke: #A80036; stroke-width: 1.0;" width="10" x="232" y="271.2266"/><rect fill="#FFFFFF" filter="url(#fi3lqs7hbc7qj)" height="156.6641" style="stroke: #A80036; stroke-width: 1.0;" width="10" x="237" y="308.3594"/><rect fill="#FFFFFF" filter="url(#fi3lqs7hbc7qj)" height="156.6641" style="stroke: #A80036; stroke-width: 1.0;" width="10" x="237" y="509.1563"/><rect fill="#FFFFFF" filter="url(#fi3lqs7hbc7qj)" height="87.3984" style="stroke: #A80036; stroke-width: 1.0;" width="10" x="301" y="543.2891"/><rect fill="#FFFFFF" filter="url(#fi3lqs7hbc7qj)" height="29.1328" style="stroke: #A80036; stroke-width: 1.0;" width="10" x="362" y="183.8281"/><rect fill="#FFFFFF" filter="url(#fi3lqs7hbc7qj)" height="29.1328" style="stroke: #A80036; stroke-width: 1.0;" width="10" x="362" y="371.625"/><rect fill="#FFFFFF" filter="url(#fi3lqs7hbc7qj)" height="29.1328" style="stroke: #A80036; stroke-width: 1.0;" width="10" x="362" y="572.4219"/><line style="stroke: #A80036; stroke-width: 1.0; stroke-dasharray: 5.0,5.0;" x1="44.5" x2="44.5" y1="65.2969" y2="778.2188"/><line style="stroke: #A80036; stroke-width: 1.0; stroke-dasharray: 5.0,5.0;" x1="109" x2="109" y1="65.2969" y2="778.2188"/><line style="stroke: #A80036; stroke-width: 1.0; stroke-dasharray: 5.0,5.0;" x1="173" x2="173" y1="65.2969" y2="778.2188"/><line style="stroke: #A80036; stroke-width: 1.0; stroke-dasharray: 5.0,5.0;" x1="237" x2="237" y1="65.2969" y2="778.2188"/><line style="stroke: #A80036; stroke-width: 1.0; stroke-dasharray: 5.0,5.0;" x1="306" x2="306" y1="65.2969" y2="778.2188"/><line style="stroke: #A80036; stroke-width: 1.0; stroke-dasharray: 5.0,5.0;" x1="366.5" x2="366.5" y1="65.2969" y2="778.2188"/><text fill="#000000" font-family="sans-serif" font-size="14" lengthAdjust="spacingAndGlyphs" textLength="39" x="22.5" y="61.9951">Client</text><ellipse cx="45" cy="33" fill="#FEFECE" filter="url(#fi3lqs7hbc7qj)" rx="12" ry="12" style="stroke: #A80036; stroke-width: 2.0;"/><polygon fill="#A80036" points="41,21,47,16,45,21,47,26,41,21" style="stroke: #A80036; stroke-width: 1.0;"/><text fill="#000000" font-family="sans-serif" font-size="14" lengthAdjust="spacingAndGlyphs" textLength="39" x="22.5" y="790.2139">Client</text><ellipse cx="45" cy="809.5156" fill="#FEFECE" filter="url(#fi3lqs7hbc7qj)" rx="12" ry="12" style="stroke: #A80036; stroke-width: 2.0;"/><polygon fill="#A80036" points="41,797.5156,47,792.5156,45,797.5156,47,802.5156,41,797.5156" style="stroke: #A80036; stroke-width: 1.0;"/><text fill="#000000" font-family="sans-serif" font-size="14" lengthAdjust="spacingAndGlyphs" textLength="11" x="100.5" y="61.9951">D</text><ellipse cx="109" cy="33" fill="#FEFECE" filter="url(#fi3lqs7hbc7qj)" rx="12" ry="12" style="stroke: #A80036; stroke-width: 2.0;"/><polygon fill="#A80036" points="105,21,111,16,109,21,111,26,105,21" style="stroke: #A80036; stroke-width: 1.0;"/><text fill="#000000" font-family="sans-serif" font-size="14" lengthAdjust="spacingAndGlyphs" textLength="11" x="100.5" y="790.2139">D</text><ellipse cx="109" cy="809.5156" fill="#FEFECE" filter="url(#fi3lqs7hbc7qj)" rx="12" ry="12" style="stroke: #A80036; stroke-width: 2.0;"/><polygon fill="#A80036" points="105,797.5156,111,792.5156,109,797.5156,111,802.5156,105,797.5156" style="stroke: #A80036; stroke-width: 1.0;"/><text fill="#000000" font-family="sans-serif" font-size="14" lengthAdjust="spacingAndGlyphs" textLength="9" x="165.5" y="61.9951">A</text><ellipse cx="173" cy="33" fill="#FEFECE" filter="url(#fi3lqs7hbc7qj)" rx="12" ry="12" style="stroke: #A80036; stroke-width: 2.0;"/><polygon fill="#A80036" points="169,21,175,16,173,21,175,26,169,21" style="stroke: #A80036; stroke-width: 1.0;"/><text fill="#000000" font-family="sans-serif" font-size="14" lengthAdjust="spacingAndGlyphs" textLength="9" x="165.5" y="790.2139">A</text><ellipse cx="173" cy="809.5156" fill="#FEFECE" filter="url(#fi3lqs7hbc7qj)" rx="12" ry="12" style="stroke: #A80036; stroke-width: 2.0;"/><polygon fill="#A80036" points="169,797.5156,175,792.5156,173,797.5156,175,802.5156,169,797.5156" style="stroke: #A80036; stroke-width: 1.0;"/><text fill="#000000" font-family="sans-serif" font-size="14" lengthAdjust="spacingAndGlyphs" textLength="10" x="229" y="61.9951">C</text><ellipse cx="237" cy="33" fill="#FEFECE" filter="url(#fi3lqs7hbc7qj)" rx="12" ry="12" style="stroke: #A80036; stroke-width: 2.0;"/><polygon fill="#A80036" points="233,21,239,16,237,21,239,26,233,21" style="stroke: #A80036; stroke-width: 1.0;"/><text fill="#000000" font-family="sans-serif" font-size="14" lengthAdjust="spacingAndGlyphs" textLength="10" x="229" y="790.2139">C</text><ellipse cx="237" cy="809.5156" fill="#FEFECE" filter="url(#fi3lqs7hbc7qj)" rx="12" ry="12" style="stroke: #A80036; stroke-width: 2.0;"/><polygon fill="#A80036" points="233,797.5156,239,792.5156,237,797.5156,239,802.5156,233,797.5156" style="stroke: #A80036; stroke-width: 1.0;"/><text fill="#000000" font-family="sans-serif" font-size="14" lengthAdjust="spacingAndGlyphs" textLength="10" x="298" y="61.9951">B</text><ellipse cx="306" cy="33" fill="#FEFECE" filter="url(#fi3lqs7hbc7qj)" rx="12" ry="12" style="stroke: #A80036; stroke-width: 2.0;"/><polygon fill="#A80036" points="302,21,308,16,306,21,308,26,302,21" style="stroke: #A80036; stroke-width: 1.0;"/><text fill="#000000" font-family="sans-serif" font-size="14" lengthAdjust="spacingAndGlyphs" textLength="10" x="298" y="790.2139">B</text><ellipse cx="306" cy="809.5156" fill="#FEFECE" filter="url(#fi3lqs7hbc7qj)" rx="12" ry="12" style="stroke: #A80036; stroke-width: 2.0;"/><polygon fill="#A80036" points="302,797.5156,308,792.5156,306,797.5156,308,802.5156,302,797.5156" style="stroke: #A80036; stroke-width: 1.0;"/><text fill="#000000" font-family="sans-serif" font-size="14" lengthAdjust="spacingAndGlyphs" textLength="49" x="339.5" y="61.9951">Source</text><path d="M349,13 C349,3 367,3 367,3 C367,3 385,3 385,13 L385,39 C385,49 367,49 367,49 C367,49 349,49 349,39 L349,13 " fill="#FEFECE" filter="url(#fi3lqs7hbc7qj)" style="stroke: #000000; stroke-width: 1.5;"/><path d="M349,13 C349,23 367,23 367,23 C367,23 385,23 385,13 " fill="none" style="stroke: #000000; stroke-width: 1.5;"/><text fill="#000000" font-family="sans-serif" font-size="14" lengthAdjust="spacingAndGlyphs" textLength="49" x="339.5" y="790.2139">Source</text><path d="M349,803.5156 C349,793.5156 367,793.5156 367,793.5156 C367,793.5156 385,793.5156 385,803.5156 L385,829.5156 C385,839.5156 367,839.5156 367,839.5156 C367,839.5156 349,839.5156 349,829.5156 L349,803.5156 " fill="#FEFECE" filter="url(#fi3lqs7hbc7qj)" style="stroke: #000000; stroke-width: 1.5;"/><path d="M349,803.5156 C349,813.5156 367,813.5156 367,813.5156 C367,813.5156 385,813.5156 385,803.5156 " fill="none" style="stroke: #000000; stroke-width: 1.5;"/><rect fill="#FFFFFF" filter="url(#fi3lqs7hbc7qj)" height="663.7891" style="stroke: #A80036; stroke-width: 1.0;" width="10" x="40" y="96.4297"/><rect fill="#FFFFFF" filter="url(#fi3lqs7hbc7qj)" height="605.5234" style="stroke: #A80036; stroke-width: 1.0;" width="10" x="104" y="125.5625"/><rect fill="#FFFFFF" filter="url(#fi3lqs7hbc7qj)" height="87.3984" style="stroke: #A80036; stroke-width: 1.0;" width="10" x="168" y="154.6953"/><rect fill="#FFFFFF" filter="url(#fi3lqs7hbc7qj)" height="87.3984" style="stroke: #A80036; stroke-width: 1.0;" width="10" x="168" y="342.4922"/><rect fill="#FFFFFF" filter="url(#fi3lqs7hbc7qj)" height="430.7266" style="stroke: #A80036; stroke-width: 1.0;" width="10" x="232" y="271.2266"/><rect fill="#FFFFFF" filter="url(#fi3lqs7hbc7qj)" height="156.6641" style="stroke: #A80036; stroke-width: 1.0;" width="10" x="237" y="308.3594"/><rect fill="#FFFFFF" filter="url(#fi3lqs7hbc7qj)" height="156.6641" style="stroke: #A80036; stroke-width: 1.0;" width="10" x="237" y="509.1563"/><rect fill="#FFFFFF" filter="url(#fi3lqs7hbc7qj)" height="87.3984" style="stroke: #A80036; stroke-width: 1.0;" width="10" x="301" y="543.2891"/><rect fill="#FFFFFF" filter="url(#fi3lqs7hbc7qj)" height="29.1328" style="stroke: #A80036; stroke-width: 1.0;" width="10" x="362" y="183.8281"/><rect fill="#FFFFFF" filter="url(#fi3lqs7hbc7qj)" height="29.1328" style="stroke: #A80036; stroke-width: 1.0;" width="10" x="362" y="371.625"/><rect fill="#FFFFFF" filter="url(#fi3lqs7hbc7qj)" height="29.1328" style="stroke: #A80036; stroke-width: 1.0;" width="10" x="362" y="572.4219"/><polygon fill="#A80036" points="28,92.4297,38,96.4297,28,100.4297,32,96.4297" style="stroke: #A80036; stroke-width: 1.0;"/><line style="stroke: #A80036; stroke-width: 1.0;" x1="3" x2="34" y1="96.4297" y2="96.4297"/><text fill="#000000" font-family="sans-serif" font-size="13" lengthAdjust="spacingAndGlyphs" textLength="18" x="10" y="91.3638">Do</text><polygon fill="#A80036" points="92,121.5625,102,125.5625,92,129.5625,96,125.5625" style="stroke: #A80036; stroke-width: 1.0;"/><line style="stroke: #A80036; stroke-width: 1.0;" x1="50" x2="98" y1="125.5625" y2="125.5625"/><text fill="#000000" font-family="sans-serif" font-size="13" lengthAdjust="spacingAndGlyphs" textLength="35" x="57" y="120.4966">Fetch</text><polygon fill="#A80036" points="156,150.6953,166,154.6953,156,158.6953,160,154.6953" style="stroke: #A80036; stroke-width: 1.0;"/><line style="stroke: #A80036; stroke-width: 1.0;" x1="114" x2="162" y1="154.6953" y2="154.6953"/><text fill="#000000" font-family="sans-serif" font-size="13" lengthAdjust="spacingAndGlyphs" textLength="35" x="121" y="149.6294">Fetch</text><polygon fill="#A80036" points="350,179.8281,360,183.8281,350,187.8281,354,183.8281" style="stroke: #A80036; stroke-width: 1.0;"/><line style="stroke: #A80036; stroke-width: 1.0;" x1="178" x2="356" y1="183.8281" y2="183.8281"/><text fill="#000000" font-family="sans-serif" font-size="13" lengthAdjust="spacingAndGlyphs" textLength="32" x="185" y="178.7622">Read</text><polygon fill="#A80036" points="189,208.9609,179,212.9609,189,216.9609,185,212.9609" style="stroke: #A80036; stroke-width: 1.0;"/><line style="stroke: #A80036; stroke-width: 1.0; stroke-dasharray: 2.0,2.0;" x1="183" x2="366" y1="212.9609" y2="212.9609"/><text fill="#000000" font-family="sans-serif" font-size="13" lengthAdjust="spacingAndGlyphs" textLength="15" x="195" y="207.895">ok</text><polygon fill="#A80036" points="125,238.0938,115,242.0938,125,246.0938,121,242.0938" style="stroke: #A80036; stroke-width: 1.0;"/><line style="stroke: #A80036; stroke-width: 1.0; stroke-dasharray: 2.0,2.0;" x1="119" x2="172" y1="242.0938" y2="242.0938"/><text fill="#000000" font-family="sans-serif" font-size="13" lengthAdjust="spacingAndGlyphs" textLength="15" x="131" y="237.0278">ok</text><polygon fill="#A80036" points="220,267.2266,230,271.2266,220,275.2266,224,271.2266" style="stroke: #A80036; stroke-width: 1.0;"/><line style="stroke: #A80036; stroke-width: 1.0;" x1="114" x2="226" y1="271.2266" y2="271.2266"/><text fill="#000000" font-family="sans-serif" font-size="13" lengthAdjust="spacingAndGlyphs" textLength="35" x="121" y="266.1606">Fetch</text><line style="stroke: #A80036; stroke-width: 1.0;" x1="242" x2="289" y1="295.3594" y2="295.3594"/><line style="stroke: #A80036; stroke-width: 1.0;" x1="289" x2="289" y1="295.3594" y2="308.3594"/><line style="stroke: #A80036; stroke-width: 1.0;" x1="248" x2="289" y1="308.3594" y2="308.3594"/><polygon fill="#A80036" points="258,304.3594,248,308.3594,258,312.3594,254,308.3594" style="stroke: #A80036; stroke-width: 1.0;"/><text fill="#000000" font-family="sans-serif" font-size="13" lengthAdjust="spacingAndGlyphs" textLength="44" x="254" y="290.2935">FetchA</text><polygon fill="#A80036" points="189,338.4922,179,342.4922,189,346.4922,185,342.4922" style="stroke: #A80036; stroke-width: 1.0;"/><line style="stroke: #A80036; stroke-width: 1.0;" x1="183" x2="236" y1="342.4922" y2="342.4922"/><text fill="#000000" font-family="sans-serif" font-size="13" lengthAdjust="spacingAndGlyphs" textLength="35" x="195" y="337.4263">Fetch</text><polygon fill="#A80036" points="350,367.625,360,371.625,350,375.625,354,371.625" style="stroke: #A80036; stroke-width: 1.0;"/><line style="stroke: #A80036; stroke-width: 1.0;" x1="178" x2="356" y1="371.625" y2="371.625"/><text fill="#000000" font-family="sans-serif" font-size="13" lengthAdjust="spacingAndGlyphs" textLength="32" x="185" y="366.5591">Read</text><polygon fill="#A80036" points="189,396.7578,179,400.7578,189,404.7578,185,400.7578" style="stroke: #A80036; stroke-width: 1.0;"/><line style="stroke: #A80036; stroke-width: 1.0; stroke-dasharray: 2.0,2.0;" x1="183" x2="366" y1="400.7578" y2="400.7578"/><text fill="#000000" font-family="sans-serif" font-size="13" lengthAdjust="spacingAndGlyphs" textLength="15" x="195" y="395.6919">ok</text><polygon fill="#A80036" points="225,425.8906,235,429.8906,225,433.8906,229,429.8906" style="stroke: #A80036; stroke-width: 1.0;"/><line style="stroke: #A80036; stroke-width: 1.0; stroke-dasharray: 2.0,2.0;" x1="173" x2="231" y1="429.8906" y2="429.8906"/><text fill="#000000" font-family="sans-serif" font-size="13" lengthAdjust="spacingAndGlyphs" textLength="15" x="180" y="424.8247">ok</text><line style="stroke: #A80036; stroke-width: 1.0; stroke-dasharray: 2.0,2.0;" x1="247" x2="289" y1="464.0234" y2="464.0234"/><line style="stroke: #A80036; stroke-width: 1.0; stroke-dasharray: 2.0,2.0;" x1="289" x2="289" y1="464.0234" y2="477.0234"/><line style="stroke: #A80036; stroke-width: 1.0; stroke-dasharray: 2.0,2.0;" x1="242" x2="289" y1="477.0234" y2="477.0234"/><polygon fill="#A80036" points="252,473.0234,242,477.0234,252,481.0234,248,477.0234" style="stroke: #A80036; stroke-width: 1.0;"/><text fill="#000000" font-family="sans-serif" font-size="13" lengthAdjust="spacingAndGlyphs" textLength="15" x="254" y="458.9575">ok</text><line style="stroke: #A80036; stroke-width: 1.0;" x1="242" x2="289" y1="496.1563" y2="496.1563"/><line style="stroke: #A80036; stroke-width: 1.0;" x1="289" x2="289" y1="496.1563" y2="509.1563"/><line style="stroke: #A80036; stroke-width: 1.0;" x1="248" x2="289" y1="509.1563" y2="509.1563"/><polygon fill="#A80036" points="258,505.1563,248,509.1563,258,513.1563,254,509.1563" style="stroke: #A80036; stroke-width: 1.0;"/><text fill="#000000" font-family="sans-serif" font-size="13" lengthAdjust="spacingAndGlyphs" textLength="44" x="254" y="491.0903">FetchB</text><polygon fill="#A80036" points="289,539.2891,299,543.2891,289,547.2891,293,543.2891" style="stroke: #A80036; stroke-width: 1.0;"/><line style="stroke: #A80036; stroke-width: 1.0;" x1="247" x2="295" y1="543.2891" y2="543.2891"/><text fill="#000000" font-family="sans-serif" font-size="13" lengthAdjust="spacingAndGlyphs" textLength="35" x="254" y="538.2231">Fetch</text><polygon fill="#A80036" points="350,568.4219,360,572.4219,350,576.4219,354,572.4219" style="stroke: #A80036; stroke-width: 1.0;"/><line style="stroke: #A80036; stroke-width: 1.0;" x1="311" x2="356" y1="572.4219" y2="572.4219"/><text fill="#000000" font-family="sans-serif" font-size="13" lengthAdjust="spacingAndGlyphs" textLength="32" x="318" y="567.356">Read</text><polygon fill="#A80036" points="322,597.5547,312,601.5547,322,605.5547,318,601.5547" style="stroke: #A80036; stroke-width: 1.0;"/><line style="stroke: #A80036; stroke-width: 1.0; stroke-dasharray: 2.0,2.0;" x1="316" x2="366" y1="601.5547" y2="601.5547"/><text fill="#000000" font-family="sans-serif" font-size="13" lengthAdjust="spacingAndGlyphs" textLength="15" x="328" y="596.4888">ok</text><polygon fill="#A80036" points="258,626.6875,248,630.6875,258,634.6875,254,630.6875" style="stroke: #A80036; stroke-width: 1.0;"/><line style="stroke: #A80036; stroke-width: 1.0; stroke-dasharray: 2.0,2.0;" x1="252" x2="305" y1="630.6875" y2="630.6875"/><text fill="#000000" font-family="sans-serif" font-size="13" lengthAdjust="spacingAndGlyphs" textLength="15" x="264" y="625.6216">ok</text><line style="stroke: #A80036; stroke-width: 1.0; stroke-dasharray: 2.0,2.0;" x1="247" x2="289" y1="664.8203" y2="664.8203"/><line style="stroke: #A80036; stroke-width: 1.0; stroke-dasharray: 2.0,2.0;" x1="289" x2="289" y1="664.8203" y2="677.8203"/><line style="stroke: #A80036; stroke-width: 1.0; stroke-dasharray: 2.0,2.0;" x1="242" x2="289" y1="677.8203" y2="677.8203"/><polygon fill="#A80036" points="252,673.8203,242,677.8203,252,681.8203,248,677.8203" style="stroke: #A80036; stroke-width: 1.0;"/><text fill="#000000" font-family="sans-serif" font-size="13" lengthAdjust="spacingAndGlyphs" textLength="15" x="254" y="659.7544">ok</text><polygon fill="#A80036" points="125,697.9531,115,701.9531,125,705.9531,121,701.9531" style="stroke: #A80036; stroke-width: 1.0;"/><line style="stroke: #A80036; stroke-width: 1.0; stroke-dasharray: 2.0,2.0;" x1="119" x2="236" y1="701.9531" y2="701.9531"/><text fill="#000000" font-family="sans-serif" font-size="13" lengthAdjust="spacingAndGlyphs" textLength="15" x="131" y="696.8872">ok</text><polygon fill="#A80036" points="61,727.0859,51,731.0859,61,735.0859,57,731.0859" style="stroke: #A80036; stroke-width: 1.0;"/><line style="stroke: #A80036; stroke-width: 1.0; stroke-dasharray: 2.0,2.0;" x1="55" x2="108" y1="731.0859" y2="731.0859"/><text fill="#000000" font-family="sans-serif" font-size="13" lengthAdjust="spacingAndGlyphs" textLength="15" x="67" y="726.02">ok</text><polygon fill="#A80036" points="14,756.2188,4,760.2188,14,764.2188,10,760.2188" style="stroke: #A80036; stroke-width: 1.0;"/><line style="stroke: #A80036; stroke-width: 1.0; stroke-dasharray: 2.0,2.0;" x1="8" x2="44" y1="760.2188" y2="760.2188"/><text fill="#000000" font-family="sans-serif" font-size="13" lengthAdjust="spacingAndGlyphs" textLength="15" x="20" y="755.1528">ok</text><!--MD5=[d488157c17d5faf88af3f07400c48e04]
@startuml
skinparam MaxMessageSize 250

control "Client"
control "D"
control "A"
control "C"
control "B"
database "Source"

 -> Client ++ : Do
Client -> D ++ : Fetch
D -> A ++ : Fetch
A -> Source ++ : Read
return ok
return ok
D -> C ++ : Fetch
C -> C ++ : FetchA
C -> A ++ : Fetch
A -> Source ++ : Read
return ok
return ok
return ok
C -> C ++ : FetchB
C -> B ++ : Fetch
B -> Source ++ : Read
return ok
return ok
return ok
return ok
return ok
return ok
@enduml

PlantUML version 1.2020.13(Sat Jun 13 12:26:38 UTC 2020)
(GPL source distribution)
Java Runtime: OpenJDK Runtime Environment
JVM: OpenJDK 64-Bit Server VM
Default Encoding: UTF-8
Language: en
Country: null
--></g></svg>