<?xml version="1.0" encoding="UTF-8" standalone="no"?><svg xmlns="http://www.w3.org/2000/svg" xmlns:xlink="http://www.w3.org/1999/xlink" contentScriptType="application/ecmascript" contentStyleType="text/css" height="78px" preserveAspectRatio="none" style="width:80px;height:78px;" version="1.1" viewBox="0 0 80 78" width="80px" zoomAndPan="magnify"><defs><filter height="300%" id="fz4nla54nq9us" width="300%" x="-1" y="-1"><feGaussianBlur result="blurOut" stdDeviation="2.0"/><feColorMatrix in="blurOut" result="blurOut2" type="matrix" values="0 0 0 0 0 0 0 0 0 0 0 0 0 0 0 0 0 0 .4 0"/><feOffset dx="4.0" dy="4.0" in="blurOut2" result="blurOut3"/><feBlend in="SourceGraphic" in2="blurOut3" mode="normal"/></filter></defs><g><!--MD5=[f77682fd75c3e1fc6a82f566c0814d0f]
class _0--><rect fill="#FEFECE" filter="url(#fz4nla54nq9us)" height="60.8047" id="_0" style="stroke: #A80036; stroke-width: 1.5;" width="62" x="7" y="7"/><ellipse cx="30.55" cy="23" fill="#DA70D6" rx="11" ry="11" style="stroke: #A80036; stroke-width: 1.0;"/><path d="M27.8156,26.2969 L27.8156,19.7813 C27.1438,19.7813 26.7688,19.4844 26.7688,18.9375 C26.7688,18.6563 26.925,18.3594 27.175,18.2031 C27.3313,18.1094 27.4563,18.0938 27.9094,18.0938 L31.5188,18.0938 C34.0031,18.0938 35.8938,20.1406 35.8938,22.8125 L35.8938,23.6094 C35.8938,24.8594 35.4875,25.9063 34.7063,26.7188 C33.8781,27.6094 32.8625,28 31.3781,28 L27.9094,28 C27.5031,28 27.2844,27.9531 27.1281,27.8281 C26.9094,27.6719 26.7688,27.4063 26.7688,27.1563 C26.7688,26.6094 27.1594,26.2969 27.8156,26.2969 Z M29.5031,26.2969 L31.3938,26.2969 C32.4094,26.2969 32.9719,26.0938 33.5031,25.5469 C33.9719,25.0313 34.2063,24.4375 34.2063,23.5625 L34.2063,22.7813 C34.2063,21.9844 33.925,21.2344 33.4406,20.6563 C32.925,20.0625 32.2844,19.7813 31.3781,19.7813 L29.5031,19.7813 Z "/><text fill="#000000" font-family="sans-serif" font-size="12" lengthAdjust="spacingAndGlyphs" textLength="11" x="46.45" y="27.1543">id</text><line style="stroke: #A80036; stroke-width: 1.5;" x1="8" x2="68" y1="39" y2="39"/><ellipse cx="18" cy="50" fill="none" rx="3" ry="3" style="stroke: #038048; stroke-width: 1.0;"/><text fill="#000000" font-family="sans-serif" font-size="11" lengthAdjust="spacingAndGlyphs" textLength="36" x="27" y="53.2104">id : int</text><line style="stroke: #A80036; stroke-width: 1.5;" x1="8" x2="68" y1="59.8047" y2="59.8047"/><!--MD5=[39dc890a5491e06b17fbe98bfe1b9cf3]
@startuml


class "id" as _0 << (D,orchid) >> {
+ id : int
}
@enduml

PlantUML version 1.2019.13(Tue Dec 10 17:18:29 UTC 2019)
(GPL source distribution)
Java Runtime: Java(TM) SE Runtime Environment
JVM: Java HotSpot(TM) 64-Bit Server VM
Java Version: 1.7.0_25-b15
Operating System: Linux
Default Encoding: UTF-8
Language: en
Country: US
--></g></svg>
