<svg
	xmlns="http://www.w3.org/2000/svg"
	xmlns:xlink="http://www.w3.org/1999/xlink"
	version="1.1"
	viewBox="7 5 85 90"
	width="200px"
	height="200px"
	>
	<path fill="#000000" d="M11.146,45.898l21.073-14.072c0.918-0.613,1.166-1.855,0.552-2.774c-0.613-0.918-1.854-1.167-2.774-0.552  L8.924,42.572c-1.798,1.2-2.871,3.208-2.871,5.37c0,2.162,1.073,4.17,2.871,5.37l21.073,14.072c0.341,0.228,0.727,0.337,1.109,0.337  c0.646,0,1.28-0.312,1.665-0.889c0.614-0.919,0.366-2.161-0.552-2.774L11.146,49.985c-0.694-0.464-1.093-1.208-1.093-2.044  C10.053,47.106,10.452,46.362,11.146,45.898z"/>
	<path fill="#000000" d="M90.076,42.572L69.002,28.5c-0.918-0.614-2.161-0.366-2.774,0.552c-0.614,0.919-0.366,2.161,0.552,2.774  l21.073,14.072c0.694,0.464,1.093,1.208,1.093,2.043c0,0.835-0.398,1.58-1.093,2.044L66.781,64.058  c-0.918,0.613-1.166,1.855-0.552,2.774c0.385,0.577,1.019,0.889,1.665,0.889c0.381,0,0.768-0.109,1.109-0.337l21.073-14.072  c1.798-1.2,2.871-3.208,2.871-5.37C92.947,45.78,91.874,43.772,90.076,42.572z"/>
	<path fill="#000000" d="M59.221,17.834c-1.052-0.335-2.177,0.245-2.513,1.297L38.481,76.241c-0.336,1.052,0.245,2.177,1.297,2.513  c0.202,0.064,0.407,0.095,0.608,0.095c0.847,0,1.633-0.542,1.905-1.393l18.227-57.109C60.854,19.295,60.273,18.17,59.221,17.834z"/>
</svg>
