<svg
	xmlns="http://www.w3.org/2000/svg"
	xmlns:xlink="http://www.w3.org/1999/xlink"
	version="1.1"
	viewBox="9 3 81 85"
	width="200px"
	height="200px"
	>
	<path d="M47.755,34.885v10.006h-21.68c-2.759,0-5.003,2.244-5.003,5.003v8.338c0,0.922,3.335,0.922,3.335,0v-8.338  c0-0.919,0.748-1.668,1.668-1.668h46.695c0.92,0,1.668,0.749,1.668,1.668v8.338c0,0.922,3.335,0.922,3.335,0v-8.338  c0-2.759-2.244-5.003-5.003-5.003h-21.68V34.885"/>
	<path d="M59.535,31.122H39.276c-3.146,0-5.707-2.56-5.707-5.707V13.259c0-3.146,2.56-5.707,5.707-5.707h20.259  c3.146,0,5.706,2.56,5.706,5.707v12.156C65.241,28.562,62.682,31.122,59.535,31.122z M39.276,10.862  c-1.322,0-2.397,1.076-2.397,2.397v12.156c0,1.322,1.076,2.397,2.397,2.397h20.259c1.322,0,2.397-1.075,2.397-2.397V13.259  c0-1.322-1.075-2.397-2.397-2.397H39.276z"/>
	<path d="M32.87,85.021H12.61c-3.146,0-5.707-2.561-5.707-5.707V67.162c0-3.146,2.56-5.707,5.707-5.707h20.26  c3.146,0,5.707,2.561,5.707,5.707v12.152C38.576,82.461,36.016,85.021,32.87,85.021z M12.61,64.765  c-1.322,0-2.397,1.076-2.397,2.397v12.152c0,1.322,1.076,2.397,2.397,2.397h20.26c1.322,0,2.397-1.075,2.397-2.397V67.162  c0-1.321-1.076-2.397-2.397-2.397H12.61z"/>
	<path d="M86.236,85.021H65.976c-3.146,0-5.706-2.561-5.706-5.707V67.162c0-3.146,2.56-5.707,5.706-5.707h20.261  c3.146,0,5.706,2.561,5.706,5.707v12.152C91.942,82.461,89.383,85.021,86.236,85.021z M65.976,64.765  c-1.322,0-2.396,1.076-2.396,2.397v12.152c0,1.322,1.074,2.397,2.396,2.397h20.261c1.322,0,2.396-1.075,2.396-2.397V67.162  c0-1.321-1.074-2.397-2.396-2.397H65.976z"/>
</svg>
